ISO-10303-21;
HEADER;
FILE_DESCRIPTION(('ViewDefinition [CoordinationView]'),'2;1');
FILE_NAME('','2026-04-30T15:16:43',(''),(''),'IfcOpenShell 0.8.5-1c5b825','IfcOpenShell 0.8.5-1c5b825','');
FILE_SCHEMA(('IFC4'));
ENDSEC;
DATA;
#1=IFCPERSON($,'BATANG',$,$,$,$,$,$);
#2=IFCORGANIZATION($,'BATANG',$,$,$);
#3=IFCPERSONANDORGANIZATION(#1,#2,$);
#4=IFCORGANIZATION($,'BATANG AI',$,$,$);
#5=IFCAPPLICATION(#4,'8.4','Shinchan_House','BATANG_LLM3D');
#6=IFCOWNERHISTORY(#3,#5,$,.ADDED.,$,$,$,1777529803);
#7=IFCSIUNIT(*,.LENGTHUNIT.,.MILLI.,.METRE.);
#8=IFCSIUNIT(*,.AREAUNIT.,$,.SQUARE_METRE.);
#9=IFCSIUNIT(*,.VOLUMEUNIT.,$,.CUBIC_METRE.);
#10=IFCUNITASSIGNMENT((#7,#8,#9));
#11=IFCCARTESIANPOINT((0.,0.,0.));
#12=IFCAXIS2PLACEMENT3D(#11,$,$);
#13=IFCGEOMETRICREPRESENTATIONCONTEXT($,'Model',3,1.0000000000000001E-05,#12,$);
#14=IFCGEOMETRICREPRESENTATIONSUBCONTEXT('Body','Model',*,*,*,*,#13,$,.MODEL_VIEW.,$);
#15=IFCGEOMETRICREPRESENTATIONSUBCONTEXT('Box','Plan',*,*,*,*,#13,$,.MODEL_VIEW.,$);
#16=IFCPROJECT('1hdVoT0iDBEv_UPYhUZEpb',#6,'ShinchanHouse',$,$,$,$,(#13),#10);
#17=IFCCARTESIANPOINT((0.,0.,0.));
#18=IFCDIRECTION((0.,0.,1.));
#19=IFCDIRECTION((1.,0.,0.));
#20=IFCAXIS2PLACEMENT3D(#17,#18,#19);
#21=IFCLOCALPLACEMENT($,#20);
#22=IFCSITE('0Q_zDKz7X6fhzGNFiT7PNd',#6,'Site',$,$,#21,$,$,$,$,$,$,$,$);
#23=IFCCARTESIANPOINT((0.,0.,0.));
#24=IFCDIRECTION((0.,0.,1.));
#25=IFCDIRECTION((1.,0.,0.));
#26=IFCAXIS2PLACEMENT3D(#23,#24,#25);
#27=IFCLOCALPLACEMENT($,#26);
#28=IFCBUILDING('2pSXnD7Rb7rP8bcmeJMksG',#6,'House',$,$,#27,$,$,$,$,$,$);
#29=IFCRELAGGREGATES('1YLin_KZf54w3c9c7oWvYJ',#6,$,$,#16,(#22));
#30=IFCRELAGGREGATES('1YXKBcQ5bArPGgLa$RsniA',#6,$,$,#22,(#28));
#31=IFCCARTESIANPOINT((0.,0.,0.));
#32=IFCDIRECTION((0.,0.,1.));
#33=IFCDIRECTION((1.,0.,0.));
#34=IFCAXIS2PLACEMENT3D(#31,#32,#33);
#35=IFCLOCALPLACEMENT($,#34);
#36=IFCBUILDINGSTOREY('3bdGJbV753rh8junxEXosW',#6,'Yard',$,$,#35,$,$,.ELEMENT.,0.);
#37=IFCCARTESIANPOINT((0.,0.,200.));
#38=IFCDIRECTION((0.,0.,1.));
#39=IFCDIRECTION((1.,0.,0.));
#40=IFCAXIS2PLACEMENT3D(#37,#38,#39);
#41=IFCLOCALPLACEMENT($,#40);
#42=IFCBUILDINGSTOREY('3gY_k6UJn96vf71TP1TL_j',#6,'1F',$,$,#41,$,$,.ELEMENT.,200.);
#43=IFCCARTESIANPOINT((0.,0.,3200.));
#44=IFCDIRECTION((0.,0.,1.));
#45=IFCDIRECTION((1.,0.,0.));
#46=IFCAXIS2PLACEMENT3D(#43,#44,#45);
#47=IFCLOCALPLACEMENT($,#46);
#48=IFCBUILDINGSTOREY('366MGX9NzAfR6Hs89NU43p',#6,'2F',$,$,#47,$,$,.ELEMENT.,3200.);
#49=IFCCARTESIANPOINT((0.,0.,6200.));
#50=IFCDIRECTION((0.,0.,1.));
#51=IFCDIRECTION((1.,0.,0.));
#52=IFCAXIS2PLACEMENT3D(#49,#50,#51);
#53=IFCLOCALPLACEMENT($,#52);
#54=IFCBUILDINGSTOREY('0Bp6OH90r9gBkaixGBuTkN',#6,'RF',$,$,#53,$,$,.ELEMENT.,6200.);
#55=IFCRELAGGREGATES('0Q0LMGL3nCzuIIGmr$nYTd',#6,$,$,#28,(#36,#42,#48,#54));
#56=IFCRECTANGLEPROFILEDEF(.AREA.,$,$,15000.,12000.);
#57=IFCCARTESIANPOINT((7500.,6000.,0.));
#58=IFCAXIS2PLACEMENT3D(#57,$,$);
#59=IFCDIRECTION((0.,0.,1.));
#60=IFCEXTRUDEDAREASOLID(#56,#58,#59,200.);
#61=IFCSHAPEREPRESENTATION(#13,'Body','SweptSolid',(#60));
#62=IFCCARTESIANPOINT((0.,0.,0.));
#63=IFCBOUNDINGBOX(#62,15000.,12000.,200.);
#64=IFCSHAPEREPRESENTATION(#13,'Box','BoundingBox',(#63));
#65=IFCPRODUCTDEFINITIONSHAPE($,$,(#61,#64));
#66=IFCCARTESIANPOINT((0.,0.,0.));
#67=IFCDIRECTION((0.,0.,1.));
#68=IFCDIRECTION((1.,0.,0.));
#69=IFCAXIS2PLACEMENT3D(#66,#67,#68);
#70=IFCLOCALPLACEMENT($,#69);
#71=IFCSLAB('2BbvrlWOz1SuyG6q24JZ4F',$,'Yard_Grass',$,$,#70,#65,$,$);
#72=IFCCOLOURRGB($,0.55000000000000004,0.75,0.55000000000000004);
#73=IFCSURFACESTYLERENDERING(#72,$,$,$,$,$,$,$,$);
#74=IFCSURFACESTYLE('Yard_Grass_Color',.BOTH.,(#73));
#75=IFCSTYLEDITEM(#60,(#74),$);
#76=IFCRECTANGLEPROFILEDEF(.AREA.,$,$,15000.,200.);
#77=IFCCARTESIANPOINT((7500.,100.,0.));
#78=IFCAXIS2PLACEMENT3D(#77,$,$);
#79=IFCDIRECTION((0.,0.,1.));
#80=IFCEXTRUDEDAREASOLID(#76,#78,#79,1000.);
#81=IFCSHAPEREPRESENTATION(#13,'Body','SweptSolid',(#80));
#82=IFCCARTESIANPOINT((0.,0.,0.));
#83=IFCBOUNDINGBOX(#82,15000.,200.,1000.);
#84=IFCSHAPEREPRESENTATION(#13,'Box','BoundingBox',(#83));
#85=IFCPRODUCTDEFINITIONSHAPE($,$,(#81,#84));
#86=IFCCARTESIANPOINT((0.,0.,200.));
#87=IFCDIRECTION((0.,0.,1.));
#88=IFCDIRECTION((1.,0.,0.));
#89=IFCAXIS2PLACEMENT3D(#86,#87,#88);
#90=IFCLOCALPLACEMENT($,#89);
#91=IFCWALL('1Q3o2QFt5BEf7zJQ2zvLOh',$,'Fence_South',$,$,#90,#85,$,$);
#92=IFCRECTANGLEPROFILEDEF(.AREA.,$,$,15000.,200.);
#93=IFCCARTESIANPOINT((7500.,100.,0.));
#94=IFCAXIS2PLACEMENT3D(#93,$,$);
#95=IFCDIRECTION((0.,0.,1.));
#96=IFCEXTRUDEDAREASOLID(#92,#94,#95,1000.);
#97=IFCSHAPEREPRESENTATION(#13,'Body','SweptSolid',(#96));
#98=IFCCARTESIANPOINT((0.,0.,0.));
#99=IFCBOUNDINGBOX(#98,15000.,200.,1000.);
#100=IFCSHAPEREPRESENTATION(#13,'Box','BoundingBox',(#99));
#101=IFCPRODUCTDEFINITIONSHAPE($,$,(#97,#100));
#102=IFCCARTESIANPOINT((0.,11800.,200.));
#103=IFCDIRECTION((0.,0.,1.));
#104=IFCDIRECTION((1.,0.,0.));
#105=IFCAXIS2PLACEMENT3D(#102,#103,#104);
#106=IFCLOCALPLACEMENT($,#105);
#107=IFCWALL('0z3ic0zpf6i8sulKNfmgAV',$,'Fence_North',$,$,#106,#101,$,$);
#108=IFCRECTANGLEPROFILEDEF(.AREA.,$,$,200.,11600.);
#109=IFCCARTESIANPOINT((100.,5800.,0.));
#110=IFCAXIS2PLACEMENT3D(#109,$,$);
#111=IFCDIRECTION((0.,0.,1.));
#112=IFCEXTRUDEDAREASOLID(#108,#110,#111,1000.);
#113=IFCSHAPEREPRESENTATION(#13,'Body','SweptSolid',(#112));
#114=IFCCARTESIANPOINT((0.,0.,0.));
#115=IFCBOUNDINGBOX(#114,200.,11600.,1000.);
#116=IFCSHAPEREPRESENTATION(#13,'Box','BoundingBox',(#115));
#117=IFCPRODUCTDEFINITIONSHAPE($,$,(#113,#116));
#118=IFCCARTESIANPOINT((0.,200.,200.));
#119=IFCDIRECTION((0.,0.,1.));
#120=IFCDIRECTION((1.,0.,0.));
#121=IFCAXIS2PLACEMENT3D(#118,#119,#120);
#122=IFCLOCALPLACEMENT($,#121);
#123=IFCWALL('3p1sKXo2fBhu4egr4iIE_T',$,'Fence_West',$,$,#122,#117,$,$);
#124=IFCRECTANGLEPROFILEDEF(.AREA.,$,$,200.,11600.);
#125=IFCCARTESIANPOINT((100.,5800.,0.));
#126=IFCAXIS2PLACEMENT3D(#125,$,$);
#127=IFCDIRECTION((0.,0.,1.));
#128=IFCEXTRUDEDAREASOLID(#124,#126,#127,1000.);
#129=IFCSHAPEREPRESENTATION(#13,'Body','SweptSolid',(#128));
#130=IFCCARTESIANPOINT((0.,0.,0.));
#131=IFCBOUNDINGBOX(#130,200.,11600.,1000.);
#132=IFCSHAPEREPRESENTATION(#13,'Box','BoundingBox',(#131));
#133=IFCPRODUCTDEFINITIONSHAPE($,$,(#129,#132));
#134=IFCCARTESIANPOINT((14800.,200.,200.));
#135=IFCDIRECTION((0.,0.,1.));
#136=IFCDIRECTION((1.,0.,0.));
#137=IFCAXIS2PLACEMENT3D(#134,#135,#136);
#138=IFCLOCALPLACEMENT($,#137);
#139=IFCWALL('1t081sfjHEO9txfBp$eCSQ',$,'Fence_East',$,$,#138,#133,$,$);
#140=IFCCOLOURRGB($,0.75,0.59999999999999998,0.45000000000000001);
#141=IFCSURFACESTYLERENDERING(#140,$,$,$,$,$,$,$,$);
#142=IFCSURFACESTYLE('Fence_South_Color',.BOTH.,(#141));
#143=IFCSTYLEDITEM(#80,(#142),$);
#144=IFCCOLOURRGB($,0.75,0.59999999999999998,0.45000000000000001);
#145=IFCSURFACESTYLERENDERING(#144,$,$,$,$,$,$,$,$);
#146=IFCSURFACESTYLE('Fence_North_Color',.BOTH.,(#145));
#147=IFCSTYLEDITEM(#96,(#146),$);
#148=IFCCOLOURRGB($,0.75,0.59999999999999998,0.45000000000000001);
#149=IFCSURFACESTYLERENDERING(#148,$,$,$,$,$,$,$,$);
#150=IFCSURFACESTYLE('Fence_West_Color',.BOTH.,(#149));
#151=IFCSTYLEDITEM(#112,(#150),$);
#152=IFCCOLOURRGB($,0.75,0.59999999999999998,0.45000000000000001);
#153=IFCSURFACESTYLERENDERING(#152,$,$,$,$,$,$,$,$);
#154=IFCSURFACESTYLE('Fence_East_Color',.BOTH.,(#153));
#155=IFCSTYLEDITEM(#128,(#154),$);
#156=IFCRELCONTAINEDINSPATIALSTRUCTURE('1filbIxR9C29v3xfj8smm0',#6,$,$,(#71,#91,#107,#123,#139),#36);
#157=IFCRECTANGLEPROFILEDEF(.AREA.,$,$,4000.,4000.);
#158=IFCCARTESIANPOINT((2000.,2000.,0.));
#159=IFCAXIS2PLACEMENT3D(#158,$,$);
#160=IFCDIRECTION((0.,0.,1.));
#161=IFCEXTRUDEDAREASOLID(#157,#159,#160,200.);
#162=IFCSHAPEREPRESENTATION(#13,'Body','SweptSolid',(#161));
#163=IFCCARTESIANPOINT((0.,0.,0.));
#164=IFCBOUNDINGBOX(#163,4000.,4000.,200.);
#165=IFCSHAPEREPRESENTATION(#13,'Box','BoundingBox',(#164));
#166=IFCPRODUCTDEFINITIONSHAPE($,$,(#162,#165));
#167=IFCCARTESIANPOINT((2000.,6000.,200.));
#168=IFCDIRECTION((0.,0.,1.));
#169=IFCDIRECTION((1.,0.,0.));
#170=IFCAXIS2PLACEMENT3D(#167,#168,#169);
#171=IFCLOCALPLACEMENT($,#170);
#172=IFCSLAB('1SWcbctmj46BAPqLk5Zk8Q',$,'1F_Slab_Anbang',$,$,#171,#166,$,$);
#173=IFCRECTANGLEPROFILEDEF(.AREA.,$,$,4000.,7000.);
#174=IFCCARTESIANPOINT((2000.,3500.,0.));
#175=IFCAXIS2PLACEMENT3D(#174,$,$);
#176=IFCDIRECTION((0.,0.,1.));
#177=IFCEXTRUDEDAREASOLID(#173,#175,#176,200.);
#178=IFCSHAPEREPRESENTATION(#13,'Body','SweptSolid',(#177));
#179=IFCCARTESIANPOINT((0.,0.,0.));
#180=IFCBOUNDINGBOX(#179,4000.,7000.,200.);
#181=IFCSHAPEREPRESENTATION(#13,'Box','BoundingBox',(#180));
#182=IFCPRODUCTDEFINITIONSHAPE($,$,(#178,#181));
#183=IFCCARTESIANPOINT((6000.,3000.,200.));
#184=IFCDIRECTION((0.,0.,1.));
#185=IFCDIRECTION((1.,0.,0.));
#186=IFCAXIS2PLACEMENT3D(#183,#184,#185);
#187=IFCLOCALPLACEMENT($,#186);
#188=IFCSLAB('0ZRnCsQBz25hv2ruXY8fJo',$,'1F_Slab_Living',$,$,#187,#182,$,$);
#189=IFCRECTANGLEPROFILEDEF(.AREA.,$,$,3000.,6000.);
#190=IFCCARTESIANPOINT((1500.,3000.,0.));
#191=IFCAXIS2PLACEMENT3D(#190,$,$);
#192=IFCDIRECTION((0.,0.,1.));
#193=IFCEXTRUDEDAREASOLID(#189,#191,#192,200.);
#194=IFCSHAPEREPRESENTATION(#13,'Body','SweptSolid',(#193));
#195=IFCCARTESIANPOINT((0.,0.,0.));
#196=IFCBOUNDINGBOX(#195,3000.,6000.,200.);
#197=IFCSHAPEREPRESENTATION(#13,'Box','BoundingBox',(#196));
#198=IFCPRODUCTDEFINITIONSHAPE($,$,(#194,#197));
#199=IFCCARTESIANPOINT((10000.,4000.,200.));
#200=IFCDIRECTION((0.,0.,1.));
#201=IFCDIRECTION((1.,0.,0.));
#202=IFCAXIS2PLACEMENT3D(#199,#200,#201);
#203=IFCLOCALPLACEMENT($,#202);
#204=IFCSLAB('1QZTW4f$TB_OyTN27bUj5_',$,'1F_Slab_Hall',$,$,#203,#198,$,$);
#205=IFCCOLOURRGB($,0.6588235294117647,0.6352941176470588,0.6196078431372549);
#206=IFCSURFACESTYLERENDERING(#205,$,$,$,$,$,$,$,$);
#207=IFCSURFACESTYLE('1F_Slab_Anbang_Color',.BOTH.,(#206));
#208=IFCSTYLEDITEM(#161,(#207),$);
#209=IFCCOLOURRGB($,0.6588235294117647,0.6352941176470588,0.6196078431372549);
#210=IFCSURFACESTYLERENDERING(#209,$,$,$,$,$,$,$,$);
#211=IFCSURFACESTYLE('1F_Slab_Living_Color',.BOTH.,(#210));
#212=IFCSTYLEDITEM(#177,(#211),$);
#213=IFCCOLOURRGB($,0.6588235294117647,0.6352941176470588,0.6196078431372549);
#214=IFCSURFACESTYLERENDERING(#213,$,$,$,$,$,$,$,$);
#215=IFCSURFACESTYLE('1F_Slab_Hall_Color',.BOTH.,(#214));
#216=IFCSTYLEDITEM(#193,(#215),$);
#217=IFCRECTANGLEPROFILEDEF(.AREA.,$,$,200.,4000.);
#218=IFCCARTESIANPOINT((100.,2000.,0.));
#219=IFCAXIS2PLACEMENT3D(#218,$,$);
#220=IFCDIRECTION((0.,0.,1.));
#221=IFCEXTRUDEDAREASOLID(#217,#219,#220,3000.);
#222=IFCSHAPEREPRESENTATION(#13,'Body','SweptSolid',(#221));
#223=IFCCARTESIANPOINT((0.,0.,0.));
#224=IFCBOUNDINGBOX(#223,200.,4000.,3000.);
#225=IFCSHAPEREPRESENTATION(#13,'Box','BoundingBox',(#224));
#226=IFCPRODUCTDEFINITIONSHAPE($,$,(#222,#225));
#227=IFCCARTESIANPOINT((2000.,6000.,400.));
#228=IFCDIRECTION((0.,0.,1.));
#229=IFCDIRECTION((1.,0.,0.));
#230=IFCAXIS2PLACEMENT3D(#227,#228,#229);
#231=IFCLOCALPLACEMENT($,#230);
#232=IFCWALL('1DQcTQZWP32vs$p0TS2hGM',$,'1F_Anbang_West',$,$,#231,#226,$,$);
#233=IFCRECTANGLEPROFILEDEF(.AREA.,$,$,4000.,200.);
#234=IFCCARTESIANPOINT((2000.,100.,0.));
#235=IFCAXIS2PLACEMENT3D(#234,$,$);
#236=IFCDIRECTION((0.,0.,1.));
#237=IFCEXTRUDEDAREASOLID(#233,#235,#236,3000.);
#238=IFCSHAPEREPRESENTATION(#13,'Body','SweptSolid',(#237));
#239=IFCCARTESIANPOINT((0.,0.,0.));
#240=IFCBOUNDINGBOX(#239,4000.,200.,3000.);
#241=IFCSHAPEREPRESENTATION(#13,'Box','BoundingBox',(#240));
#242=IFCPRODUCTDEFINITIONSHAPE($,$,(#238,#241));
#243=IFCCARTESIANPOINT((2000.,6000.,400.));
#244=IFCDIRECTION((0.,0.,1.));
#245=IFCDIRECTION((1.,0.,0.));
#246=IFCAXIS2PLACEMENT3D(#243,#244,#245);
#247=IFCLOCALPLACEMENT($,#246);
#248=IFCWALL('2fNshiq7j7cQG3va2pXr5N',$,'1F_Anbang_South',$,$,#247,#242,$,$);
#249=IFCRECTANGLEPROFILEDEF(.AREA.,$,$,200.,3000.);
#250=IFCCARTESIANPOINT((100.,1500.,0.));
#251=IFCAXIS2PLACEMENT3D(#250,$,$);
#252=IFCDIRECTION((0.,0.,1.));
#253=IFCEXTRUDEDAREASOLID(#249,#251,#252,3000.);
#254=IFCSHAPEREPRESENTATION(#13,'Body','SweptSolid',(#253));
#255=IFCCARTESIANPOINT((0.,0.,0.));
#256=IFCBOUNDINGBOX(#255,200.,3000.,3000.);
#257=IFCSHAPEREPRESENTATION(#13,'Box','BoundingBox',(#256));
#258=IFCPRODUCTDEFINITIONSHAPE($,$,(#254,#257));
#259=IFCCARTESIANPOINT((6000.,3000.,400.));
#260=IFCDIRECTION((0.,0.,1.));
#261=IFCDIRECTION((1.,0.,0.));
#262=IFCAXIS2PLACEMENT3D(#259,#260,#261);
#263=IFCLOCALPLACEMENT($,#262);
#264=IFCWALL('2VGZNiDff74eGUDb0_QpFt',$,'1F_Living_West',$,$,#263,#258,$,$);
#265=IFCRECTANGLEPROFILEDEF(.AREA.,$,$,4000.,200.);
#266=IFCCARTESIANPOINT((2000.,100.,0.));
#267=IFCAXIS2PLACEMENT3D(#266,$,$);
#268=IFCDIRECTION((0.,0.,1.));
#269=IFCEXTRUDEDAREASOLID(#265,#267,#268,3000.);
#270=IFCSHAPEREPRESENTATION(#13,'Body','SweptSolid',(#269));
#271=IFCCARTESIANPOINT((0.,0.,0.));
#272=IFCBOUNDINGBOX(#271,4000.,200.,3000.);
#273=IFCSHAPEREPRESENTATION(#13,'Box','BoundingBox',(#272));
#274=IFCPRODUCTDEFINITIONSHAPE($,$,(#270,#273));
#275=IFCCARTESIANPOINT((6000.,3000.,400.));
#276=IFCDIRECTION((0.,0.,1.));
#277=IFCDIRECTION((1.,0.,0.));
#278=IFCAXIS2PLACEMENT3D(#275,#276,#277);
#279=IFCLOCALPLACEMENT($,#278);
#280=IFCWALL('3JTYvy3Z15PATQ4LT7UrCv',$,'1F_Living_South',$,$,#279,#274,$,$);
#281=IFCRECTANGLEPROFILEDEF(.AREA.,$,$,200.,1000.);
#282=IFCCARTESIANPOINT((100.,500.,0.));
#283=IFCAXIS2PLACEMENT3D(#282,$,$);
#284=IFCDIRECTION((0.,0.,1.));
#285=IFCEXTRUDEDAREASOLID(#281,#283,#284,3000.);
#286=IFCSHAPEREPRESENTATION(#13,'Body','SweptSolid',(#285));
#287=IFCCARTESIANPOINT((0.,0.,0.));
#288=IFCBOUNDINGBOX(#287,200.,1000.,3000.);
#289=IFCSHAPEREPRESENTATION(#13,'Box','BoundingBox',(#288));
#290=IFCPRODUCTDEFINITIONSHAPE($,$,(#286,#289));
#291=IFCCARTESIANPOINT((9800.,3000.,400.));
#292=IFCDIRECTION((0.,0.,1.));
#293=IFCDIRECTION((1.,0.,0.));
#294=IFCAXIS2PLACEMENT3D(#291,#292,#293);
#295=IFCLOCALPLACEMENT($,#294);
#296=IFCWALL('0T4hvesmnDdxldX1sijCVL',$,'1F_Living_East',$,$,#295,#290,$,$);
#297=IFCRECTANGLEPROFILEDEF(.AREA.,$,$,3000.,200.);
#298=IFCCARTESIANPOINT((1500.,100.,0.));
#299=IFCAXIS2PLACEMENT3D(#298,$,$);
#300=IFCDIRECTION((0.,0.,1.));
#301=IFCEXTRUDEDAREASOLID(#297,#299,#300,3000.);
#302=IFCSHAPEREPRESENTATION(#13,'Body','SweptSolid',(#301));
#303=IFCCARTESIANPOINT((0.,0.,0.));
#304=IFCBOUNDINGBOX(#303,3000.,200.,3000.);
#305=IFCSHAPEREPRESENTATION(#13,'Box','BoundingBox',(#304));
#306=IFCPRODUCTDEFINITIONSHAPE($,$,(#302,#305));
#307=IFCCARTESIANPOINT((10000.,4000.,400.));
#308=IFCDIRECTION((0.,0.,1.));
#309=IFCDIRECTION((1.,0.,0.));
#310=IFCAXIS2PLACEMENT3D(#307,#308,#309);
#311=IFCLOCALPLACEMENT($,#310);
#312=IFCWALL('2QfpLZ8Zz2ZQqFO$Otfc_6',$,'1F_Hall_South',$,$,#311,#306,$,$);
#313=IFCRECTANGLEPROFILEDEF(.AREA.,$,$,200.,6000.);
#314=IFCCARTESIANPOINT((100.,3000.,0.));
#315=IFCAXIS2PLACEMENT3D(#314,$,$);
#316=IFCDIRECTION((0.,0.,1.));
#317=IFCEXTRUDEDAREASOLID(#313,#315,#316,3000.);
#318=IFCSHAPEREPRESENTATION(#13,'Body','SweptSolid',(#317));
#319=IFCCARTESIANPOINT((0.,0.,0.));
#320=IFCBOUNDINGBOX(#319,200.,6000.,3000.);
#321=IFCSHAPEREPRESENTATION(#13,'Box','BoundingBox',(#320));
#322=IFCPRODUCTDEFINITIONSHAPE($,$,(#318,#321));
#323=IFCCARTESIANPOINT((12800.,4000.,400.));
#324=IFCDIRECTION((0.,0.,1.));
#325=IFCDIRECTION((1.,0.,0.));
#326=IFCAXIS2PLACEMENT3D(#323,#324,#325);
#327=IFCLOCALPLACEMENT($,#326);
#328=IFCWALL('37fTLDuQ17Hx7G_KkJ75X8',$,'1F_Hall_East',$,$,#327,#322,$,$);
#329=IFCRECTANGLEPROFILEDEF(.AREA.,$,$,11000.,200.);
#330=IFCCARTESIANPOINT((5500.,100.,0.));
#331=IFCAXIS2PLACEMENT3D(#330,$,$);
#332=IFCDIRECTION((0.,0.,1.));
#333=IFCEXTRUDEDAREASOLID(#329,#331,#332,3000.);
#334=IFCSHAPEREPRESENTATION(#13,'Body','SweptSolid',(#333));
#335=IFCCARTESIANPOINT((0.,0.,0.));
#336=IFCBOUNDINGBOX(#335,11000.,200.,3000.);
#337=IFCSHAPEREPRESENTATION(#13,'Box','BoundingBox',(#336));
#338=IFCPRODUCTDEFINITIONSHAPE($,$,(#334,#337));
#339=IFCCARTESIANPOINT((2000.,9800.,400.));
#340=IFCDIRECTION((0.,0.,1.));
#341=IFCDIRECTION((1.,0.,0.));
#342=IFCAXIS2PLACEMENT3D(#339,#340,#341);
#343=IFCLOCALPLACEMENT($,#342);
#344=IFCWALL('2DOqiufnzC19TlRss3mIwb',$,'1F_North_All',$,$,#343,#338,$,$);
#345=IFCRECTANGLEPROFILEDEF(.AREA.,$,$,4000.,200.);
#346=IFCCARTESIANPOINT((2000.,100.,0.));
#347=IFCAXIS2PLACEMENT3D(#346,$,$);
#348=IFCDIRECTION((0.,0.,1.));
#349=IFCEXTRUDEDAREASOLID(#345,#347,#348,3000.);
#350=IFCSHAPEREPRESENTATION(#13,'Body','SweptSolid',(#349));
#351=IFCCARTESIANPOINT((0.,0.,0.));
#352=IFCBOUNDINGBOX(#351,4000.,200.,3000.);
#353=IFCSHAPEREPRESENTATION(#13,'Box','BoundingBox',(#352));
#354=IFCPRODUCTDEFINITIONSHAPE($,$,(#350,#353));
#355=IFCCARTESIANPOINT((2000.,9000.,400.));
#356=IFCDIRECTION((0.,0.,1.));
#357=IFCDIRECTION((1.,0.,0.));
#358=IFCAXIS2PLACEMENT3D(#355,#356,#357);
#359=IFCLOCALPLACEMENT($,#358);
#360=IFCWALL('3JpsFfKxHFh9YAoSzS9TLj',$,'1F_In_Closet',$,$,#359,#354,$,$);
#361=IFCRECTANGLEPROFILEDEF(.AREA.,$,$,2500.,200.);
#362=IFCCARTESIANPOINT((1250.,100.,0.));
#363=IFCAXIS2PLACEMENT3D(#362,$,$);
#364=IFCDIRECTION((0.,0.,1.));
#365=IFCEXTRUDEDAREASOLID(#361,#363,#364,3000.);
#366=IFCSHAPEREPRESENTATION(#13,'Body','SweptSolid',(#365));
#367=IFCCARTESIANPOINT((0.,0.,0.));
#368=IFCBOUNDINGBOX(#367,2500.,200.,3000.);
#369=IFCSHAPEREPRESENTATION(#13,'Box','BoundingBox',(#368));
#370=IFCPRODUCTDEFINITIONSHAPE($,$,(#366,#369));
#371=IFCCARTESIANPOINT((6000.,7000.,400.));
#372=IFCDIRECTION((0.,0.,1.));
#373=IFCDIRECTION((1.,0.,0.));
#374=IFCAXIS2PLACEMENT3D(#371,#372,#373);
#375=IFCLOCALPLACEMENT($,#374);
#376=IFCWALL('0epKOQz4n519kr4uGx94Yi',$,'1F_In_Liv_Kit',$,$,#375,#370,$,$);
#377=IFCRECTANGLEPROFILEDEF(.AREA.,$,$,200.,4000.);
#378=IFCCARTESIANPOINT((100.,2000.,0.));
#379=IFCAXIS2PLACEMENT3D(#378,$,$);
#380=IFCDIRECTION((0.,0.,1.));
#381=IFCEXTRUDEDAREASOLID(#377,#379,#380,3000.);
#382=IFCSHAPEREPRESENTATION(#13,'Body','SweptSolid',(#381));
#383=IFCCARTESIANPOINT((0.,0.,0.));
#384=IFCBOUNDINGBOX(#383,200.,4000.,3000.);
#385=IFCSHAPEREPRESENTATION(#13,'Box','BoundingBox',(#384));
#386=IFCPRODUCTDEFINITIONSHAPE($,$,(#382,#385));
#387=IFCCARTESIANPOINT((6000.,6000.,400.));
#388=IFCDIRECTION((0.,0.,1.));
#389=IFCDIRECTION((1.,0.,0.));
#390=IFCAXIS2PLACEMENT3D(#387,#388,#389);
#391=IFCLOCALPLACEMENT($,#390);
#392=IFCWALL('3orZ5dPs1Cqxyj3$rSFXXK',$,'1F_Div_Left',$,$,#391,#386,$,$);
#393=IFCRECTANGLEPROFILEDEF(.AREA.,$,$,200.,6000.);
#394=IFCCARTESIANPOINT((100.,3000.,0.));
#395=IFCAXIS2PLACEMENT3D(#394,$,$);
#396=IFCDIRECTION((0.,0.,1.));
#397=IFCEXTRUDEDAREASOLID(#393,#395,#396,3000.);
#398=IFCSHAPEREPRESENTATION(#13,'Body','SweptSolid',(#397));
#399=IFCCARTESIANPOINT((0.,0.,0.));
#400=IFCBOUNDINGBOX(#399,200.,6000.,3000.);
#401=IFCSHAPEREPRESENTATION(#13,'Box','BoundingBox',(#400));
#402=IFCPRODUCTDEFINITIONSHAPE($,$,(#398,#401));
#403=IFCCARTESIANPOINT((9800.,4000.,400.));
#404=IFCDIRECTION((0.,0.,1.));
#405=IFCDIRECTION((1.,0.,0.));
#406=IFCAXIS2PLACEMENT3D(#403,#404,#405);
#407=IFCLOCALPLACEMENT($,#406);
#408=IFCWALL('3DicvWeHDBcBrE$BAT2bD1',$,'1F_Div_Right',$,$,#407,#402,$,$);
#409=IFCRECTANGLEPROFILEDEF(.AREA.,$,$,3000.,200.);
#410=IFCCARTESIANPOINT((1500.,100.,0.));
#411=IFCAXIS2PLACEMENT3D(#410,$,$);
#412=IFCDIRECTION((0.,0.,1.));
#413=IFCEXTRUDEDAREASOLID(#409,#411,#412,3000.);
#414=IFCSHAPEREPRESENTATION(#13,'Body','SweptSolid',(#413));
#415=IFCCARTESIANPOINT((0.,0.,0.));
#416=IFCBOUNDINGBOX(#415,3000.,200.,3000.);
#417=IFCSHAPEREPRESENTATION(#13,'Box','BoundingBox',(#416));
#418=IFCPRODUCTDEFINITIONSHAPE($,$,(#414,#417));
#419=IFCCARTESIANPOINT((10000.,6000.,400.));
#420=IFCDIRECTION((0.,0.,1.));
#421=IFCDIRECTION((1.,0.,0.));
#422=IFCAXIS2PLACEMENT3D(#419,#420,#421);
#423=IFCLOCALPLACEMENT($,#422);
#424=IFCWALL('0xq9Nf4Nb8qxKF1_6nMUWo',$,'1F_In_Entrance',$,$,#423,#418,$,$);
#425=IFCRECTANGLEPROFILEDEF(.AREA.,$,$,1500.,200.);
#426=IFCCARTESIANPOINT((750.,100.,0.));
#427=IFCAXIS2PLACEMENT3D(#426,$,$);
#428=IFCDIRECTION((0.,0.,1.));
#429=IFCEXTRUDEDAREASOLID(#425,#427,#428,3000.);
#430=IFCSHAPEREPRESENTATION(#13,'Body','SweptSolid',(#429));
#431=IFCCARTESIANPOINT((0.,0.,0.));
#432=IFCBOUNDINGBOX(#431,1500.,200.,3000.);
#433=IFCSHAPEREPRESENTATION(#13,'Box','BoundingBox',(#432));
#434=IFCPRODUCTDEFINITIONSHAPE($,$,(#430,#433));
#435=IFCCARTESIANPOINT((11500.,7500.,400.));
#436=IFCDIRECTION((0.,0.,1.));
#437=IFCDIRECTION((1.,0.,0.));
#438=IFCAXIS2PLACEMENT3D(#435,#436,#437);
#439=IFCLOCALPLACEMENT($,#438);
#440=IFCWALL('1c9jULEBb6qPpF15kn6pbi',$,'1F_In_Toilet_B',$,$,#439,#434,$,$);
#441=IFCRECTANGLEPROFILEDEF(.AREA.,$,$,1500.,200.);
#442=IFCCARTESIANPOINT((750.,100.,0.));
#443=IFCAXIS2PLACEMENT3D(#442,$,$);
#444=IFCDIRECTION((0.,0.,1.));
#445=IFCEXTRUDEDAREASOLID(#441,#443,#444,3000.);
#446=IFCSHAPEREPRESENTATION(#13,'Body','SweptSolid',(#445));
#447=IFCCARTESIANPOINT((0.,0.,0.));
#448=IFCBOUNDINGBOX(#447,1500.,200.,3000.);
#449=IFCSHAPEREPRESENTATION(#13,'Box','BoundingBox',(#448));
#450=IFCPRODUCTDEFINITIONSHAPE($,$,(#446,#449));
#451=IFCCARTESIANPOINT((10000.,8000.,400.));
#452=IFCDIRECTION((0.,0.,1.));
#453=IFCDIRECTION((1.,0.,0.));
#454=IFCAXIS2PLACEMENT3D(#451,#452,#453);
#455=IFCLOCALPLACEMENT($,#454);
#456=IFCWALL('2qFMxsIfvEH8sPjBVu7Oyz',$,'1F_In_Stair_W',$,$,#455,#450,$,$);
#457=IFCRECTANGLEPROFILEDEF(.AREA.,$,$,200.,4000.);
#458=IFCCARTESIANPOINT((100.,2000.,0.));
#459=IFCAXIS2PLACEMENT3D(#458,$,$);
#460=IFCDIRECTION((0.,0.,1.));
#461=IFCEXTRUDEDAREASOLID(#457,#459,#460,3000.);
#462=IFCSHAPEREPRESENTATION(#13,'Body','SweptSolid',(#461));
#463=IFCCARTESIANPOINT((0.,0.,0.));
#464=IFCBOUNDINGBOX(#463,200.,4000.,3000.);
#465=IFCSHAPEREPRESENTATION(#13,'Box','BoundingBox',(#464));
#466=IFCPRODUCTDEFINITIONSHAPE($,$,(#462,#465));
#467=IFCCARTESIANPOINT((11300.,6000.,400.));
#468=IFCDIRECTION((0.,0.,1.));
#469=IFCDIRECTION((1.,0.,0.));
#470=IFCAXIS2PLACEMENT3D(#467,#468,#469);
#471=IFCLOCALPLACEMENT($,#470);
#472=IFCWALL('0XoZzTtijBZhk_bE7x8kRV',$,'1F_In_Vert_Mid',$,$,#471,#466,$,$);
#473=IFCCOLOURRGB($,0.6588235294117647,0.6352941176470588,0.6196078431372549);
#474=IFCSURFACESTYLERENDERING(#473,$,$,$,$,$,$,$,$);
#475=IFCSURFACESTYLE('1F_Anbang_West_Color',.BOTH.,(#474));
#476=IFCSTYLEDITEM(#221,(#475),$);
#477=IFCCOLOURRGB($,0.6588235294117647,0.6352941176470588,0.6196078431372549);
#478=IFCSURFACESTYLERENDERING(#477,$,$,$,$,$,$,$,$);
#479=IFCSURFACESTYLE('1F_Anbang_South_Color',.BOTH.,(#478));
#480=IFCSTYLEDITEM(#237,(#479),$);
#481=IFCCOLOURRGB($,0.6588235294117647,0.6352941176470588,0.6196078431372549);
#482=IFCSURFACESTYLERENDERING(#481,$,$,$,$,$,$,$,$);
#483=IFCSURFACESTYLE('1F_Living_West_Color',.BOTH.,(#482));
#484=IFCSTYLEDITEM(#253,(#483),$);
#485=IFCCOLOURRGB($,0.6588235294117647,0.6352941176470588,0.6196078431372549);
#486=IFCSURFACESTYLERENDERING(#485,$,$,$,$,$,$,$,$);
#487=IFCSURFACESTYLE('1F_Living_South_Color',.BOTH.,(#486));
#488=IFCSTYLEDITEM(#269,(#487),$);
#489=IFCCOLOURRGB($,0.6588235294117647,0.6352941176470588,0.6196078431372549);
#490=IFCSURFACESTYLERENDERING(#489,$,$,$,$,$,$,$,$);
#491=IFCSURFACESTYLE('1F_Living_East_Color',.BOTH.,(#490));
#492=IFCSTYLEDITEM(#285,(#491),$);
#493=IFCCOLOURRGB($,0.6588235294117647,0.6352941176470588,0.6196078431372549);
#494=IFCSURFACESTYLERENDERING(#493,$,$,$,$,$,$,$,$);
#495=IFCSURFACESTYLE('1F_Hall_South_Color',.BOTH.,(#494));
#496=IFCSTYLEDITEM(#301,(#495),$);
#497=IFCCOLOURRGB($,0.6588235294117647,0.6352941176470588,0.6196078431372549);
#498=IFCSURFACESTYLERENDERING(#497,$,$,$,$,$,$,$,$);
#499=IFCSURFACESTYLE('1F_Hall_East_Color',.BOTH.,(#498));
#500=IFCSTYLEDITEM(#317,(#499),$);
#501=IFCCOLOURRGB($,0.6588235294117647,0.6352941176470588,0.6196078431372549);
#502=IFCSURFACESTYLERENDERING(#501,$,$,$,$,$,$,$,$);
#503=IFCSURFACESTYLE('1F_North_All_Color',.BOTH.,(#502));
#504=IFCSTYLEDITEM(#333,(#503),$);
#505=IFCCOLOURRGB($,0.6588235294117647,0.6352941176470588,0.6196078431372549);
#506=IFCSURFACESTYLERENDERING(#505,$,$,$,$,$,$,$,$);
#507=IFCSURFACESTYLE('1F_In_Closet_Color',.BOTH.,(#506));
#508=IFCSTYLEDITEM(#349,(#507),$);
#509=IFCCOLOURRGB($,0.6588235294117647,0.6352941176470588,0.6196078431372549);
#510=IFCSURFACESTYLERENDERING(#509,$,$,$,$,$,$,$,$);
#511=IFCSURFACESTYLE('1F_In_Liv_Kit_Color',.BOTH.,(#510));
#512=IFCSTYLEDITEM(#365,(#511),$);
#513=IFCCOLOURRGB($,0.6588235294117647,0.6352941176470588,0.6196078431372549);
#514=IFCSURFACESTYLERENDERING(#513,$,$,$,$,$,$,$,$);
#515=IFCSURFACESTYLE('1F_Div_Left_Color',.BOTH.,(#514));
#516=IFCSTYLEDITEM(#381,(#515),$);
#517=IFCCOLOURRGB($,0.6588235294117647,0.6352941176470588,0.6196078431372549);
#518=IFCSURFACESTYLERENDERING(#517,$,$,$,$,$,$,$,$);
#519=IFCSURFACESTYLE('1F_Div_Right_Color',.BOTH.,(#518));
#520=IFCSTYLEDITEM(#397,(#519),$);
#521=IFCCOLOURRGB($,0.6588235294117647,0.6352941176470588,0.6196078431372549);
#522=IFCSURFACESTYLERENDERING(#521,$,$,$,$,$,$,$,$);
#523=IFCSURFACESTYLE('1F_In_Entrance_Color',.BOTH.,(#522));
#524=IFCSTYLEDITEM(#413,(#523),$);
#525=IFCCOLOURRGB($,0.6588235294117647,0.6352941176470588,0.6196078431372549);
#526=IFCSURFACESTYLERENDERING(#525,$,$,$,$,$,$,$,$);
#527=IFCSURFACESTYLE('1F_In_Toilet_B_Color',.BOTH.,(#526));
#528=IFCSTYLEDITEM(#429,(#527),$);
#529=IFCCOLOURRGB($,0.6588235294117647,0.6352941176470588,0.6196078431372549);
#530=IFCSURFACESTYLERENDERING(#529,$,$,$,$,$,$,$,$);
#531=IFCSURFACESTYLE('1F_In_Stair_W_Color',.BOTH.,(#530));
#532=IFCSTYLEDITEM(#445,(#531),$);
#533=IFCCOLOURRGB($,0.6588235294117647,0.6352941176470588,0.6196078431372549);
#534=IFCSURFACESTYLERENDERING(#533,$,$,$,$,$,$,$,$);
#535=IFCSURFACESTYLE('1F_In_Vert_Mid_Color',.BOTH.,(#534));
#536=IFCSTYLEDITEM(#461,(#535),$);
#537=IFCRELCONTAINEDINSPATIALSTRUCTURE('1tMKpGs3TDcBc3BrtJqJhz',#6,$,$,(#172,#188,#204,#232,#248,#264,#280,#296,#312,#328,#344,#360,#376,#392,#408,#424,#440,#456,#472),#42);
#538=IFCRECTANGLEPROFILEDEF(.AREA.,$,$,6000.,5000.);
#539=IFCCARTESIANPOINT((3000.,2500.,0.));
#540=IFCAXIS2PLACEMENT3D(#539,$,$);
#541=IFCDIRECTION((0.,0.,1.));
#542=IFCEXTRUDEDAREASOLID(#538,#540,#541,200.);
#543=IFCSHAPEREPRESENTATION(#13,'Body','SweptSolid',(#542));
#544=IFCCARTESIANPOINT((0.,0.,0.));
#545=IFCBOUNDINGBOX(#544,6000.,5000.,200.);
#546=IFCSHAPEREPRESENTATION(#13,'Box','BoundingBox',(#545));
#547=IFCPRODUCTDEFINITIONSHAPE($,$,(#543,#546));
#548=IFCCARTESIANPOINT((7000.,5000.,3400.));
#549=IFCDIRECTION((0.,0.,1.));
#550=IFCDIRECTION((1.,0.,0.));
#551=IFCAXIS2PLACEMENT3D(#548,#549,#550);
#552=IFCLOCALPLACEMENT($,#551);
#553=IFCSLAB('3cUZKzFv11ag2CYngxcWcL',$,'2F_Slab_Main',$,$,#552,#547,$,$);
#554=IFCRECTANGLEPROFILEDEF(.AREA.,$,$,3000.,1000.);
#555=IFCCARTESIANPOINT((1500.,500.,0.));
#556=IFCAXIS2PLACEMENT3D(#555,$,$);
#557=IFCDIRECTION((0.,0.,1.));
#558=IFCEXTRUDEDAREASOLID(#554,#556,#557,200.);
#559=IFCSHAPEREPRESENTATION(#13,'Body','SweptSolid',(#558));
#560=IFCCARTESIANPOINT((0.,0.,0.));
#561=IFCBOUNDINGBOX(#560,3000.,1000.,200.);
#562=IFCSHAPEREPRESENTATION(#13,'Box','BoundingBox',(#561));
#563=IFCPRODUCTDEFINITIONSHAPE($,$,(#559,#562));
#564=IFCCARTESIANPOINT((7000.,4000.,3400.));
#565=IFCDIRECTION((0.,0.,1.));
#566=IFCDIRECTION((1.,0.,0.));
#567=IFCAXIS2PLACEMENT3D(#564,#565,#566);
#568=IFCLOCALPLACEMENT($,#567);
#569=IFCSLAB('08bJSuOUn8se6ylO0ED3tF',$,'2F_Slab_Balcony',$,$,#568,#563,$,$);
#570=IFCCOLOURRGB($,0.6588235294117647,0.6352941176470588,0.6196078431372549);
#571=IFCSURFACESTYLERENDERING(#570,$,$,$,$,$,$,$,$);
#572=IFCSURFACESTYLE('2F_Slab_Main_Color',.BOTH.,(#571));
#573=IFCSTYLEDITEM(#542,(#572),$);
#574=IFCCOLOURRGB($,0.6588235294117647,0.6352941176470588,0.6196078431372549);
#575=IFCSURFACESTYLERENDERING(#574,$,$,$,$,$,$,$,$);
#576=IFCSURFACESTYLE('2F_Slab_Balcony_Color',.BOTH.,(#575));
#577=IFCSTYLEDITEM(#558,(#576),$);
#578=IFCRECTANGLEPROFILEDEF(.AREA.,$,$,200.,5000.);
#579=IFCCARTESIANPOINT((100.,2500.,0.));
#580=IFCAXIS2PLACEMENT3D(#579,$,$);
#581=IFCDIRECTION((0.,0.,1.));
#582=IFCEXTRUDEDAREASOLID(#578,#580,#581,3000.);
#583=IFCSHAPEREPRESENTATION(#13,'Body','SweptSolid',(#582));
#584=IFCCARTESIANPOINT((0.,0.,0.));
#585=IFCBOUNDINGBOX(#584,200.,5000.,3000.);
#586=IFCSHAPEREPRESENTATION(#13,'Box','BoundingBox',(#585));
#587=IFCPRODUCTDEFINITIONSHAPE($,$,(#583,#586));
#588=IFCCARTESIANPOINT((7000.,5000.,3600.));
#589=IFCDIRECTION((0.,0.,1.));
#590=IFCDIRECTION((1.,0.,0.));
#591=IFCAXIS2PLACEMENT3D(#588,#589,#590);
#592=IFCLOCALPLACEMENT($,#591);
#593=IFCWALL('1vT2_dnYf7WhBU26VsGWpk',$,'2F_Ext_W',$,$,#592,#587,$,$);
#594=IFCRECTANGLEPROFILEDEF(.AREA.,$,$,6000.,200.);
#595=IFCCARTESIANPOINT((3000.,100.,0.));
#596=IFCAXIS2PLACEMENT3D(#595,$,$);
#597=IFCDIRECTION((0.,0.,1.));
#598=IFCEXTRUDEDAREASOLID(#594,#596,#597,3000.);
#599=IFCSHAPEREPRESENTATION(#13,'Body','SweptSolid',(#598));
#600=IFCCARTESIANPOINT((0.,0.,0.));
#601=IFCBOUNDINGBOX(#600,6000.,200.,3000.);
#602=IFCSHAPEREPRESENTATION(#13,'Box','BoundingBox',(#601));
#603=IFCPRODUCTDEFINITIONSHAPE($,$,(#599,#602));
#604=IFCCARTESIANPOINT((7000.,5000.,3600.));
#605=IFCDIRECTION((0.,0.,1.));
#606=IFCDIRECTION((1.,0.,0.));
#607=IFCAXIS2PLACEMENT3D(#604,#605,#606);
#608=IFCLOCALPLACEMENT($,#607);
#609=IFCWALL('3XWxuITLjCZeb2itRyirdV',$,'2F_Ext_S',$,$,#608,#603,$,$);
#610=IFCRECTANGLEPROFILEDEF(.AREA.,$,$,200.,5000.);
#611=IFCCARTESIANPOINT((100.,2500.,0.));
#612=IFCAXIS2PLACEMENT3D(#611,$,$);
#613=IFCDIRECTION((0.,0.,1.));
#614=IFCEXTRUDEDAREASOLID(#610,#612,#613,3000.);
#615=IFCSHAPEREPRESENTATION(#13,'Body','SweptSolid',(#614));
#616=IFCCARTESIANPOINT((0.,0.,0.));
#617=IFCBOUNDINGBOX(#616,200.,5000.,3000.);
#618=IFCSHAPEREPRESENTATION(#13,'Box','BoundingBox',(#617));
#619=IFCPRODUCTDEFINITIONSHAPE($,$,(#615,#618));
#620=IFCCARTESIANPOINT((12800.,5000.,3600.));
#621=IFCDIRECTION((0.,0.,1.));
#622=IFCDIRECTION((1.,0.,0.));
#623=IFCAXIS2PLACEMENT3D(#620,#621,#622);
#624=IFCLOCALPLACEMENT($,#623);
#625=IFCWALL('1v$AMX76P2qAZLjFQoc6D8',$,'2F_Ext_E',$,$,#624,#619,$,$);
#626=IFCRECTANGLEPROFILEDEF(.AREA.,$,$,6000.,200.);
#627=IFCCARTESIANPOINT((3000.,100.,0.));
#628=IFCAXIS2PLACEMENT3D(#627,$,$);
#629=IFCDIRECTION((0.,0.,1.));
#630=IFCEXTRUDEDAREASOLID(#626,#628,#629,3000.);
#631=IFCSHAPEREPRESENTATION(#13,'Body','SweptSolid',(#630));
#632=IFCCARTESIANPOINT((0.,0.,0.));
#633=IFCBOUNDINGBOX(#632,6000.,200.,3000.);
#634=IFCSHAPEREPRESENTATION(#13,'Box','BoundingBox',(#633));
#635=IFCPRODUCTDEFINITIONSHAPE($,$,(#631,#634));
#636=IFCCARTESIANPOINT((7000.,9800.,3600.));
#637=IFCDIRECTION((0.,0.,1.));
#638=IFCDIRECTION((1.,0.,0.));
#639=IFCAXIS2PLACEMENT3D(#636,#637,#638);
#640=IFCLOCALPLACEMENT($,#639);
#641=IFCWALL('1aojBmo9j25Rnpz5BIhJcc',$,'2F_Ext_N',$,$,#640,#635,$,$);
#642=IFCRECTANGLEPROFILEDEF(.AREA.,$,$,3000.,200.);
#643=IFCCARTESIANPOINT((1500.,100.,0.));
#644=IFCAXIS2PLACEMENT3D(#643,$,$);
#645=IFCDIRECTION((0.,0.,1.));
#646=IFCEXTRUDEDAREASOLID(#642,#644,#645,3000.);
#647=IFCSHAPEREPRESENTATION(#13,'Body','SweptSolid',(#646));
#648=IFCCARTESIANPOINT((0.,0.,0.));
#649=IFCBOUNDINGBOX(#648,3000.,200.,3000.);
#650=IFCSHAPEREPRESENTATION(#13,'Box','BoundingBox',(#649));
#651=IFCPRODUCTDEFINITIONSHAPE($,$,(#647,#650));
#652=IFCCARTESIANPOINT((7000.,7000.,3600.));
#653=IFCDIRECTION((0.,0.,1.));
#654=IFCDIRECTION((1.,0.,0.));
#655=IFCAXIS2PLACEMENT3D(#652,#653,#654);
#656=IFCLOCALPLACEMENT($,#655);
#657=IFCWALL('346EUFx7D7lRuajwTAOTZs',$,'2F_In_Room_Div',$,$,#656,#651,$,$);
#658=IFCRECTANGLEPROFILEDEF(.AREA.,$,$,200.,5000.);
#659=IFCCARTESIANPOINT((100.,2500.,0.));
#660=IFCAXIS2PLACEMENT3D(#659,$,$);
#661=IFCDIRECTION((0.,0.,1.));
#662=IFCEXTRUDEDAREASOLID(#658,#660,#661,3000.);
#663=IFCSHAPEREPRESENTATION(#13,'Body','SweptSolid',(#662));
#664=IFCCARTESIANPOINT((0.,0.,0.));
#665=IFCBOUNDINGBOX(#664,200.,5000.,3000.);
#666=IFCSHAPEREPRESENTATION(#13,'Box','BoundingBox',(#665));
#667=IFCPRODUCTDEFINITIONSHAPE($,$,(#663,#666));
#668=IFCCARTESIANPOINT((9800.,5000.,3600.));
#669=IFCDIRECTION((0.,0.,1.));
#670=IFCDIRECTION((1.,0.,0.));
#671=IFCAXIS2PLACEMENT3D(#668,#669,#670);
#672=IFCLOCALPLACEMENT($,#671);
#673=IFCWALL('0Jli9nMJP3IhLnaqCl9kf7',$,'2F_In_Hall_Div',$,$,#672,#667,$,$);
#674=IFCRECTANGLEPROFILEDEF(.AREA.,$,$,200.,2000.);
#675=IFCCARTESIANPOINT((100.,1000.,0.));
#676=IFCAXIS2PLACEMENT3D(#675,$,$);
#677=IFCDIRECTION((0.,0.,1.));
#678=IFCEXTRUDEDAREASOLID(#674,#676,#677,3000.);
#679=IFCSHAPEREPRESENTATION(#13,'Body','SweptSolid',(#678));
#680=IFCCARTESIANPOINT((0.,0.,0.));
#681=IFCBOUNDINGBOX(#680,200.,2000.,3000.);
#682=IFCSHAPEREPRESENTATION(#13,'Box','BoundingBox',(#681));
#683=IFCPRODUCTDEFINITIONSHAPE($,$,(#679,#682));
#684=IFCCARTESIANPOINT((11300.,5000.,3600.));
#685=IFCDIRECTION((0.,0.,1.));
#686=IFCDIRECTION((1.,0.,0.));
#687=IFCAXIS2PLACEMENT3D(#684,#685,#686);
#688=IFCLOCALPLACEMENT($,#687);
#689=IFCWALL('2CfJttCTf87wqiavjZr1i$',$,'2F_In_Closet_1',$,$,#688,#683,$,$);
#690=IFCRECTANGLEPROFILEDEF(.AREA.,$,$,200.,2000.);
#691=IFCCARTESIANPOINT((100.,1000.,0.));
#692=IFCAXIS2PLACEMENT3D(#691,$,$);
#693=IFCDIRECTION((0.,0.,1.));
#694=IFCEXTRUDEDAREASOLID(#690,#692,#693,3000.);
#695=IFCSHAPEREPRESENTATION(#13,'Body','SweptSolid',(#694));
#696=IFCCARTESIANPOINT((0.,0.,0.));
#697=IFCBOUNDINGBOX(#696,200.,2000.,3000.);
#698=IFCSHAPEREPRESENTATION(#13,'Box','BoundingBox',(#697));
#699=IFCPRODUCTDEFINITIONSHAPE($,$,(#695,#698));
#700=IFCCARTESIANPOINT((11300.,8000.,3600.));
#701=IFCDIRECTION((0.,0.,1.));
#702=IFCDIRECTION((1.,0.,0.));
#703=IFCAXIS2PLACEMENT3D(#700,#701,#702);
#704=IFCLOCALPLACEMENT($,#703);
#705=IFCWALL('1vlR7npmnC9vdEP3_A$N8H',$,'2F_In_Closet_2',$,$,#704,#699,$,$);
#706=IFCRECTANGLEPROFILEDEF(.AREA.,$,$,200.,1000.);
#707=IFCCARTESIANPOINT((100.,500.,0.));
#708=IFCAXIS2PLACEMENT3D(#707,$,$);
#709=IFCDIRECTION((0.,0.,1.));
#710=IFCEXTRUDEDAREASOLID(#706,#708,#709,1000.);
#711=IFCSHAPEREPRESENTATION(#13,'Body','SweptSolid',(#710));
#712=IFCCARTESIANPOINT((0.,0.,0.));
#713=IFCBOUNDINGBOX(#712,200.,1000.,1000.);
#714=IFCSHAPEREPRESENTATION(#13,'Box','BoundingBox',(#713));
#715=IFCPRODUCTDEFINITIONSHAPE($,$,(#711,#714));
#716=IFCCARTESIANPOINT((7000.,4000.,3600.));
#717=IFCDIRECTION((0.,0.,1.));
#718=IFCDIRECTION((1.,0.,0.));
#719=IFCAXIS2PLACEMENT3D(#716,#717,#718);
#720=IFCLOCALPLACEMENT($,#719);
#721=IFCWALL('33G5RvpQb6hPIacGERa4ox',$,'2F_Rail_W',$,$,#720,#715,$,$);
#722=IFCRECTANGLEPROFILEDEF(.AREA.,$,$,3000.,200.);
#723=IFCCARTESIANPOINT((1500.,100.,0.));
#724=IFCAXIS2PLACEMENT3D(#723,$,$);
#725=IFCDIRECTION((0.,0.,1.));
#726=IFCEXTRUDEDAREASOLID(#722,#724,#725,1000.);
#727=IFCSHAPEREPRESENTATION(#13,'Body','SweptSolid',(#726));
#728=IFCCARTESIANPOINT((0.,0.,0.));
#729=IFCBOUNDINGBOX(#728,3000.,200.,1000.);
#730=IFCSHAPEREPRESENTATION(#13,'Box','BoundingBox',(#729));
#731=IFCPRODUCTDEFINITIONSHAPE($,$,(#727,#730));
#732=IFCCARTESIANPOINT((7000.,4000.,3600.));
#733=IFCDIRECTION((0.,0.,1.));
#734=IFCDIRECTION((1.,0.,0.));
#735=IFCAXIS2PLACEMENT3D(#732,#733,#734);
#736=IFCLOCALPLACEMENT($,#735);
#737=IFCWALL('3QD8CbdW5ABQGy5Sxz8d_s',$,'2F_Rail_S',$,$,#736,#731,$,$);
#738=IFCRECTANGLEPROFILEDEF(.AREA.,$,$,200.,1000.);
#739=IFCCARTESIANPOINT((100.,500.,0.));
#740=IFCAXIS2PLACEMENT3D(#739,$,$);
#741=IFCDIRECTION((0.,0.,1.));
#742=IFCEXTRUDEDAREASOLID(#738,#740,#741,1000.);
#743=IFCSHAPEREPRESENTATION(#13,'Body','SweptSolid',(#742));
#744=IFCCARTESIANPOINT((0.,0.,0.));
#745=IFCBOUNDINGBOX(#744,200.,1000.,1000.);
#746=IFCSHAPEREPRESENTATION(#13,'Box','BoundingBox',(#745));
#747=IFCPRODUCTDEFINITIONSHAPE($,$,(#743,#746));
#748=IFCCARTESIANPOINT((9800.,4000.,3600.));
#749=IFCDIRECTION((0.,0.,1.));
#750=IFCDIRECTION((1.,0.,0.));
#751=IFCAXIS2PLACEMENT3D(#748,#749,#750);
#752=IFCLOCALPLACEMENT($,#751);
#753=IFCWALL('2RdQBtUOzANe5J0vfqLSmb',$,'2F_Rail_E',$,$,#752,#747,$,$);
#754=IFCCOLOURRGB($,0.6588235294117647,0.6352941176470588,0.6196078431372549);
#755=IFCSURFACESTYLERENDERING(#754,$,$,$,$,$,$,$,$);
#756=IFCSURFACESTYLE('2F_Ext_W_Color',.BOTH.,(#755));
#757=IFCSTYLEDITEM(#582,(#756),$);
#758=IFCCOLOURRGB($,0.6588235294117647,0.6352941176470588,0.6196078431372549);
#759=IFCSURFACESTYLERENDERING(#758,$,$,$,$,$,$,$,$);
#760=IFCSURFACESTYLE('2F_Ext_S_Color',.BOTH.,(#759));
#761=IFCSTYLEDITEM(#598,(#760),$);
#762=IFCCOLOURRGB($,0.6588235294117647,0.6352941176470588,0.6196078431372549);
#763=IFCSURFACESTYLERENDERING(#762,$,$,$,$,$,$,$,$);
#764=IFCSURFACESTYLE('2F_Ext_E_Color',.BOTH.,(#763));
#765=IFCSTYLEDITEM(#614,(#764),$);
#766=IFCCOLOURRGB($,0.6588235294117647,0.6352941176470588,0.6196078431372549);
#767=IFCSURFACESTYLERENDERING(#766,$,$,$,$,$,$,$,$);
#768=IFCSURFACESTYLE('2F_Ext_N_Color',.BOTH.,(#767));
#769=IFCSTYLEDITEM(#630,(#768),$);
#770=IFCCOLOURRGB($,0.6588235294117647,0.6352941176470588,0.6196078431372549);
#771=IFCSURFACESTYLERENDERING(#770,$,$,$,$,$,$,$,$);
#772=IFCSURFACESTYLE('2F_In_Room_Div_Color',.BOTH.,(#771));
#773=IFCSTYLEDITEM(#646,(#772),$);
#774=IFCCOLOURRGB($,0.6588235294117647,0.6352941176470588,0.6196078431372549);
#775=IFCSURFACESTYLERENDERING(#774,$,$,$,$,$,$,$,$);
#776=IFCSURFACESTYLE('2F_In_Hall_Div_Color',.BOTH.,(#775));
#777=IFCSTYLEDITEM(#662,(#776),$);
#778=IFCCOLOURRGB($,0.6588235294117647,0.6352941176470588,0.6196078431372549);
#779=IFCSURFACESTYLERENDERING(#778,$,$,$,$,$,$,$,$);
#780=IFCSURFACESTYLE('2F_In_Closet_1_Color',.BOTH.,(#779));
#781=IFCSTYLEDITEM(#678,(#780),$);
#782=IFCCOLOURRGB($,0.6588235294117647,0.6352941176470588,0.6196078431372549);
#783=IFCSURFACESTYLERENDERING(#782,$,$,$,$,$,$,$,$);
#784=IFCSURFACESTYLE('2F_In_Closet_2_Color',.BOTH.,(#783));
#785=IFCSTYLEDITEM(#694,(#784),$);
#786=IFCCOLOURRGB($,0.6588235294117647,0.6352941176470588,0.6196078431372549);
#787=IFCSURFACESTYLERENDERING(#786,$,$,$,$,$,$,$,$);
#788=IFCSURFACESTYLE('2F_Rail_W_Color',.BOTH.,(#787));
#789=IFCSTYLEDITEM(#710,(#788),$);
#790=IFCCOLOURRGB($,0.6588235294117647,0.6352941176470588,0.6196078431372549);
#791=IFCSURFACESTYLERENDERING(#790,$,$,$,$,$,$,$,$);
#792=IFCSURFACESTYLE('2F_Rail_S_Color',.BOTH.,(#791));
#793=IFCSTYLEDITEM(#726,(#792),$);
#794=IFCCOLOURRGB($,0.6588235294117647,0.6352941176470588,0.6196078431372549);
#795=IFCSURFACESTYLERENDERING(#794,$,$,$,$,$,$,$,$);
#796=IFCSURFACESTYLE('2F_Rail_E_Color',.BOTH.,(#795));
#797=IFCSTYLEDITEM(#742,(#796),$);
#798=IFCRELCONTAINEDINSPATIALSTRUCTURE('3pNBMKoCn7CPAbUHWj1023',#6,$,$,(#553,#569,#593,#609,#625,#641,#657,#673,#689,#705,#721,#737,#753),#48);
#799=IFCRECTANGLEPROFILEDEF(.AREA.,$,$,5000.,5000.);
#800=IFCCARTESIANPOINT((2500.,2500.,0.));
#801=IFCAXIS2PLACEMENT3D(#800,$,$);
#802=IFCDIRECTION((0.,0.,1.));
#803=IFCEXTRUDEDAREASOLID(#799,#801,#802,800.);
#804=IFCSHAPEREPRESENTATION(#13,'Body','SweptSolid',(#803));
#805=IFCCARTESIANPOINT((0.,0.,0.));
#806=IFCBOUNDINGBOX(#805,5000.,5000.,800.);
#807=IFCSHAPEREPRESENTATION(#13,'Box','BoundingBox',(#806));
#808=IFCPRODUCTDEFINITIONSHAPE($,$,(#804,#807));
#809=IFCCARTESIANPOINT((1500.,5500.,3400.));
#810=IFCDIRECTION((0.,0.,1.));
#811=IFCDIRECTION((1.,0.,0.));
#812=IFCAXIS2PLACEMENT3D(#809,#810,#811);
#813=IFCLOCALPLACEMENT($,#812);
#814=IFCROOF('02tvJAjeL06wHomXnUDhN4',$,'Roof_1F_Anbang',$,$,#813,#808,$,$);
#815=IFCRECTANGLEPROFILEDEF(.AREA.,$,$,5000.,3000.);
#816=IFCCARTESIANPOINT((2500.,1500.,0.));
#817=IFCAXIS2PLACEMENT3D(#816,$,$);
#818=IFCDIRECTION((0.,0.,1.));
#819=IFCEXTRUDEDAREASOLID(#815,#817,#818,800.);
#820=IFCSHAPEREPRESENTATION(#13,'Body','SweptSolid',(#819));
#821=IFCCARTESIANPOINT((0.,0.,0.));
#822=IFCBOUNDINGBOX(#821,5000.,3000.,800.);
#823=IFCSHAPEREPRESENTATION(#13,'Box','BoundingBox',(#822));
#824=IFCPRODUCTDEFINITIONSHAPE($,$,(#820,#823));
#825=IFCCARTESIANPOINT((5500.,2500.,3400.));
#826=IFCDIRECTION((0.,0.,1.));
#827=IFCDIRECTION((1.,0.,0.));
#828=IFCAXIS2PLACEMENT3D(#825,#826,#827);
#829=IFCLOCALPLACEMENT($,#828);
#830=IFCROOF('1GGNNGHvn9j8RB_f_z9BbP',$,'Roof_1F_Living',$,$,#829,#824,$,$);
#831=IFCRECTANGLEPROFILEDEF(.AREA.,$,$,7000.,6000.);
#832=IFCCARTESIANPOINT((3500.,3000.,0.));
#833=IFCAXIS2PLACEMENT3D(#832,$,$);
#834=IFCDIRECTION((0.,0.,1.));
#835=IFCEXTRUDEDAREASOLID(#831,#833,#834,1200.);
#836=IFCSHAPEREPRESENTATION(#13,'Body','SweptSolid',(#835));
#837=IFCCARTESIANPOINT((0.,0.,0.));
#838=IFCBOUNDINGBOX(#837,7000.,6000.,1200.);
#839=IFCSHAPEREPRESENTATION(#13,'Box','BoundingBox',(#838));
#840=IFCPRODUCTDEFINITIONSHAPE($,$,(#836,#839));
#841=IFCCARTESIANPOINT((6500.,4500.,6600.));
#842=IFCDIRECTION((0.,0.,1.));
#843=IFCDIRECTION((1.,0.,0.));
#844=IFCAXIS2PLACEMENT3D(#841,#842,#843);
#845=IFCLOCALPLACEMENT($,#844);
#846=IFCROOF('1juR9ZK6n6hPwYeNmsGM$w',$,'Roof_2F_Main',$,$,#845,#840,$,$);
#847=IFCCOLOURRGB($,0.7725490196078432,0.43529411764705883,0.27058823529411763);
#848=IFCSURFACESTYLERENDERING(#847,$,$,$,$,$,$,$,$);
#849=IFCSURFACESTYLE('Roof_1F_Anbang_Color',.BOTH.,(#848));
#850=IFCSTYLEDITEM(#803,(#849),$);
#851=IFCCOLOURRGB($,0.7725490196078432,0.43529411764705883,0.27058823529411763);
#852=IFCSURFACESTYLERENDERING(#851,$,$,$,$,$,$,$,$);
#853=IFCSURFACESTYLE('Roof_1F_Living_Color',.BOTH.,(#852));
#854=IFCSTYLEDITEM(#819,(#853),$);
#855=IFCCOLOURRGB($,0.7725490196078432,0.43529411764705883,0.27058823529411763);
#856=IFCSURFACESTYLERENDERING(#855,$,$,$,$,$,$,$,$);
#857=IFCSURFACESTYLE('Roof_2F_Main_Color',.BOTH.,(#856));
#858=IFCSTYLEDITEM(#835,(#857),$);
#859=IFCRELCONTAINEDINSPATIALSTRUCTURE('0TaW947azDwQ6DvAgSjuU9',#6,$,$,(#814,#830,#846),#54);
#900=IFCPROPERTYSINGLEVALUE('Length',$,IFCLENGTHMEASURE(7000.),$);
#901=IFCPROPERTYSINGLEVALUE('Height',$,IFCLENGTHMEASURE(1200.),$);
#902=IFCPROPERTYSINGLEVALUE('Thickness',$,IFCLENGTHMEASURE(6000.),$);
#903=IFCPROPERTYSINGLEVALUE('Material',$,IFCLABEL('Tile'),$);
#904=IFCPROPERTYSINGLEVALUE('Color',$,IFCLABEL('#C56F45'),$);
#905=IFCPROPERTYSET('BTG0000000000000000001',#6,'Pset_Batang_Dimensions',$,(#900,#901,#902,#903,#904));
#906=IFCRELDEFINESBYPROPERTIES('BTG0000000000000000101',#6,$,$,(#846),#905);
#907=IFCPROPERTYSINGLEVALUE('Length',$,IFCLENGTHMEASURE(5000.),$);
#908=IFCPROPERTYSINGLEVALUE('Height',$,IFCLENGTHMEASURE(3000.),$);
#909=IFCPROPERTYSINGLEVALUE('Thickness',$,IFCLENGTHMEASURE(200.),$);
#910=IFCPROPERTYSINGLEVALUE('Material',$,IFCLABEL('Concrete'),$);
#911=IFCPROPERTYSINGLEVALUE('Color',$,IFCLABEL('#A8A29E'),$);
#912=IFCPROPERTYSET('BTG0000000000000000002',#6,'Pset_Batang_Dimensions',$,(#907,#908,#909,#910,#911));
#913=IFCRELDEFINESBYPROPERTIES('BTG0000000000000000102',#6,$,$,(#593,#625,#673),#912);
#914=IFCPROPERTYSINGLEVALUE('Length',$,IFCLENGTHMEASURE(6000.),$);
#915=IFCPROPERTYSINGLEVALUE('Height',$,IFCLENGTHMEASURE(200.),$);
#916=IFCPROPERTYSINGLEVALUE('Thickness',$,IFCLENGTHMEASURE(3000.),$);
#917=IFCPROPERTYSINGLEVALUE('Material',$,IFCLABEL('Concrete'),$);
#918=IFCPROPERTYSINGLEVALUE('Color',$,IFCLABEL('#A8A29E'),$);
#919=IFCPROPERTYSET('BTG0000000000000000003',#6,'Pset_Batang_Dimensions',$,(#914,#915,#916,#917,#918));
#920=IFCRELDEFINESBYPROPERTIES('BTG0000000000000000103',#6,$,$,(#204),#919);
#921=IFCPROPERTYSINGLEVALUE('Length',$,IFCLENGTHMEASURE(11600.),$);
#922=IFCPROPERTYSINGLEVALUE('Height',$,IFCLENGTHMEASURE(1000.),$);
#923=IFCPROPERTYSINGLEVALUE('Thickness',$,IFCLENGTHMEASURE(200.),$);
#924=IFCPROPERTYSINGLEVALUE('Material',$,IFCLABEL('Concrete'),$);
#925=IFCPROPERTYSINGLEVALUE('Color',$,IFCLABEL('#A8A29E'),$);
#926=IFCPROPERTYSET('BTG0000000000000000004',#6,'Pset_Batang_Dimensions',$,(#921,#922,#923,#924,#925));
#927=IFCRELDEFINESBYPROPERTIES('BTG0000000000000000104',#6,$,$,(#123,#139),#926);
#928=IFCPROPERTYSINGLEVALUE('Length',$,IFCLENGTHMEASURE(3000.),$);
#929=IFCPROPERTYSINGLEVALUE('Height',$,IFCLENGTHMEASURE(200.),$);
#930=IFCPROPERTYSINGLEVALUE('Thickness',$,IFCLENGTHMEASURE(1000.),$);
#931=IFCPROPERTYSINGLEVALUE('Material',$,IFCLABEL('Concrete'),$);
#932=IFCPROPERTYSINGLEVALUE('Color',$,IFCLABEL('#A8A29E'),$);
#933=IFCPROPERTYSET('BTG0000000000000000005',#6,'Pset_Batang_Dimensions',$,(#928,#929,#930,#931,#932));
#934=IFCRELDEFINESBYPROPERTIES('BTG0000000000000000105',#6,$,$,(#569),#933);
#935=IFCPROPERTYSINGLEVALUE('Length',$,IFCLENGTHMEASURE(4000.),$);
#936=IFCPROPERTYSINGLEVALUE('Height',$,IFCLENGTHMEASURE(200.),$);
#937=IFCPROPERTYSINGLEVALUE('Thickness',$,IFCLENGTHMEASURE(4000.),$);
#938=IFCPROPERTYSINGLEVALUE('Material',$,IFCLABEL('Concrete'),$);
#939=IFCPROPERTYSINGLEVALUE('Color',$,IFCLABEL('#A8A29E'),$);
#940=IFCPROPERTYSET('BTG0000000000000000006',#6,'Pset_Batang_Dimensions',$,(#935,#936,#937,#938,#939));
#941=IFCRELDEFINESBYPROPERTIES('BTG0000000000000000106',#6,$,$,(#172),#940);
#942=IFCPROPERTYSINGLEVALUE('Length',$,IFCLENGTHMEASURE(3000.),$);
#943=IFCPROPERTYSINGLEVALUE('Height',$,IFCLENGTHMEASURE(3000.),$);
#944=IFCPROPERTYSINGLEVALUE('Thickness',$,IFCLENGTHMEASURE(200.),$);
#945=IFCPROPERTYSINGLEVALUE('Material',$,IFCLABEL('Concrete'),$);
#946=IFCPROPERTYSINGLEVALUE('Color',$,IFCLABEL('#A8A29E'),$);
#947=IFCPROPERTYSET('BTG0000000000000000007',#6,'Pset_Batang_Dimensions',$,(#942,#943,#944,#945,#946));
#948=IFCRELDEFINESBYPROPERTIES('BTG0000000000000000107',#6,$,$,(#264,#312,#424,#657),#947);
#949=IFCPROPERTYSINGLEVALUE('Length',$,IFCLENGTHMEASURE(2500.),$);
#950=IFCPROPERTYSINGLEVALUE('Height',$,IFCLENGTHMEASURE(3000.),$);
#951=IFCPROPERTYSINGLEVALUE('Thickness',$,IFCLENGTHMEASURE(200.),$);
#952=IFCPROPERTYSINGLEVALUE('Material',$,IFCLABEL('Concrete'),$);
#953=IFCPROPERTYSINGLEVALUE('Color',$,IFCLABEL('#A8A29E'),$);
#954=IFCPROPERTYSET('BTG0000000000000000008',#6,'Pset_Batang_Dimensions',$,(#949,#950,#951,#952,#953));
#955=IFCRELDEFINESBYPROPERTIES('BTG0000000000000000108',#6,$,$,(#376),#954);
#956=IFCPROPERTYSINGLEVALUE('Length',$,IFCLENGTHMEASURE(11000.),$);
#957=IFCPROPERTYSINGLEVALUE('Height',$,IFCLENGTHMEASURE(3000.),$);
#958=IFCPROPERTYSINGLEVALUE('Thickness',$,IFCLENGTHMEASURE(200.),$);
#959=IFCPROPERTYSINGLEVALUE('Material',$,IFCLABEL('Concrete'),$);
#960=IFCPROPERTYSINGLEVALUE('Color',$,IFCLABEL('#A8A29E'),$);
#961=IFCPROPERTYSET('BTG0000000000000000009',#6,'Pset_Batang_Dimensions',$,(#956,#957,#958,#959,#960));
#962=IFCRELDEFINESBYPROPERTIES('BTG0000000000000000109',#6,$,$,(#344),#961);
#963=IFCPROPERTYSINGLEVALUE('Length',$,IFCLENGTHMEASURE(1500.),$);
#964=IFCPROPERTYSINGLEVALUE('Height',$,IFCLENGTHMEASURE(3000.),$);
#965=IFCPROPERTYSINGLEVALUE('Thickness',$,IFCLENGTHMEASURE(200.),$);
#966=IFCPROPERTYSINGLEVALUE('Material',$,IFCLABEL('Concrete'),$);
#967=IFCPROPERTYSINGLEVALUE('Color',$,IFCLABEL('#A8A29E'),$);
#968=IFCPROPERTYSET('BTG0000000000000000010',#6,'Pset_Batang_Dimensions',$,(#963,#964,#965,#966,#967));
#969=IFCRELDEFINESBYPROPERTIES('BTG0000000000000000110',#6,$,$,(#440,#456),#968);
#970=IFCPROPERTYSINGLEVALUE('Length',$,IFCLENGTHMEASURE(1000.),$);
#971=IFCPROPERTYSINGLEVALUE('Height',$,IFCLENGTHMEASURE(1000.),$);
#972=IFCPROPERTYSINGLEVALUE('Thickness',$,IFCLENGTHMEASURE(200.),$);
#973=IFCPROPERTYSINGLEVALUE('Material',$,IFCLABEL('Concrete'),$);
#974=IFCPROPERTYSINGLEVALUE('Color',$,IFCLABEL('#A8A29E'),$);
#975=IFCPROPERTYSET('BTG0000000000000000011',#6,'Pset_Batang_Dimensions',$,(#970,#971,#972,#973,#974));
#976=IFCRELDEFINESBYPROPERTIES('BTG0000000000000000111',#6,$,$,(#721,#753),#975);
#977=IFCPROPERTYSINGLEVALUE('Length',$,IFCLENGTHMEASURE(15000.),$);
#978=IFCPROPERTYSINGLEVALUE('Height',$,IFCLENGTHMEASURE(1000.),$);
#979=IFCPROPERTYSINGLEVALUE('Thickness',$,IFCLENGTHMEASURE(200.),$);
#980=IFCPROPERTYSINGLEVALUE('Material',$,IFCLABEL('Concrete'),$);
#981=IFCPROPERTYSINGLEVALUE('Color',$,IFCLABEL('#A8A29E'),$);
#982=IFCPROPERTYSET('BTG0000000000000000012',#6,'Pset_Batang_Dimensions',$,(#977,#978,#979,#980,#981));
#983=IFCRELDEFINESBYPROPERTIES('BTG0000000000000000112',#6,$,$,(#91,#107),#982);
#984=IFCPROPERTYSINGLEVALUE('Length',$,IFCLENGTHMEASURE(6000.),$);
#985=IFCPROPERTYSINGLEVALUE('Height',$,IFCLENGTHMEASURE(200.),$);
#986=IFCPROPERTYSINGLEVALUE('Thickness',$,IFCLENGTHMEASURE(5000.),$);
#987=IFCPROPERTYSINGLEVALUE('Material',$,IFCLABEL('Concrete'),$);
#988=IFCPROPERTYSINGLEVALUE('Color',$,IFCLABEL('#A8A29E'),$);
#989=IFCPROPERTYSET('BTG0000000000000000013',#6,'Pset_Batang_Dimensions',$,(#984,#985,#986,#987,#988));
#990=IFCRELDEFINESBYPROPERTIES('BTG0000000000000000113',#6,$,$,(#553),#989);
#991=IFCPROPERTYSINGLEVALUE('Length',$,IFCLENGTHMEASURE(2000.),$);
#992=IFCPROPERTYSINGLEVALUE('Height',$,IFCLENGTHMEASURE(3000.),$);
#993=IFCPROPERTYSINGLEVALUE('Thickness',$,IFCLENGTHMEASURE(200.),$);
#994=IFCPROPERTYSINGLEVALUE('Material',$,IFCLABEL('Concrete'),$);
#995=IFCPROPERTYSINGLEVALUE('Color',$,IFCLABEL('#A8A29E'),$);
#996=IFCPROPERTYSET('BTG0000000000000000014',#6,'Pset_Batang_Dimensions',$,(#991,#992,#993,#994,#995));
#997=IFCRELDEFINESBYPROPERTIES('BTG0000000000000000114',#6,$,$,(#689,#705),#996);
#998=IFCPROPERTYSINGLEVALUE('Length',$,IFCLENGTHMEASURE(5000.),$);
#999=IFCPROPERTYSINGLEVALUE('Height',$,IFCLENGTHMEASURE(800.),$);
#1000=IFCPROPERTYSINGLEVALUE('Thickness',$,IFCLENGTHMEASURE(5000.),$);
#1001=IFCPROPERTYSINGLEVALUE('Material',$,IFCLABEL('Tile'),$);
#1002=IFCPROPERTYSINGLEVALUE('Color',$,IFCLABEL('#C56F45'),$);
#1003=IFCPROPERTYSET('BTG0000000000000000015',#6,'Pset_Batang_Dimensions',$,(#998,#999,#1000,#1001,#1002));
#1004=IFCRELDEFINESBYPROPERTIES('BTG0000000000000000115',#6,$,$,(#814),#1003);
#1005=IFCPROPERTYSINGLEVALUE('Length',$,IFCLENGTHMEASURE(4000.),$);
#1006=IFCPROPERTYSINGLEVALUE('Height',$,IFCLENGTHMEASURE(3000.),$);
#1007=IFCPROPERTYSINGLEVALUE('Thickness',$,IFCLENGTHMEASURE(200.),$);
#1008=IFCPROPERTYSINGLEVALUE('Material',$,IFCLABEL('Concrete'),$);
#1009=IFCPROPERTYSINGLEVALUE('Color',$,IFCLABEL('#A8A29E'),$);
#1010=IFCPROPERTYSET('BTG0000000000000000016',#6,'Pset_Batang_Dimensions',$,(#1005,#1006,#1007,#1008,#1009));
#1011=IFCRELDEFINESBYPROPERTIES('BTG0000000000000000116',#6,$,$,(#232,#248,#280,#360,#392,#472),#1010);
#1012=IFCPROPERTYSINGLEVALUE('Length',$,IFCLENGTHMEASURE(5000.),$);
#1013=IFCPROPERTYSINGLEVALUE('Height',$,IFCLENGTHMEASURE(800.),$);
#1014=IFCPROPERTYSINGLEVALUE('Thickness',$,IFCLENGTHMEASURE(3000.),$);
#1015=IFCPROPERTYSINGLEVALUE('Material',$,IFCLABEL('Tile'),$);
#1016=IFCPROPERTYSINGLEVALUE('Color',$,IFCLABEL('#C56F45'),$);
#1017=IFCPROPERTYSET('BTG0000000000000000017',#6,'Pset_Batang_Dimensions',$,(#1012,#1013,#1014,#1015,#1016));
#1018=IFCRELDEFINESBYPROPERTIES('BTG0000000000000000117',#6,$,$,(#830),#1017);
#1019=IFCPROPERTYSINGLEVALUE('Length',$,IFCLENGTHMEASURE(15000.),$);
#1020=IFCPROPERTYSINGLEVALUE('Height',$,IFCLENGTHMEASURE(200.),$);
#1021=IFCPROPERTYSINGLEVALUE('Thickness',$,IFCLENGTHMEASURE(12000.),$);
#1022=IFCPROPERTYSINGLEVALUE('Material',$,IFCLABEL('Concrete'),$);
#1023=IFCPROPERTYSINGLEVALUE('Color',$,IFCLABEL('#A8A29E'),$);
#1024=IFCPROPERTYSET('BTG0000000000000000018',#6,'Pset_Batang_Dimensions',$,(#1019,#1020,#1021,#1022,#1023));
#1025=IFCRELDEFINESBYPROPERTIES('BTG0000000000000000118',#6,$,$,(#71),#1024);
#1026=IFCPROPERTYSINGLEVALUE('Length',$,IFCLENGTHMEASURE(1000.),$);
#1027=IFCPROPERTYSINGLEVALUE('Height',$,IFCLENGTHMEASURE(3000.),$);
#1028=IFCPROPERTYSINGLEVALUE('Thickness',$,IFCLENGTHMEASURE(200.),$);
#1029=IFCPROPERTYSINGLEVALUE('Material',$,IFCLABEL('Concrete'),$);
#1030=IFCPROPERTYSINGLEVALUE('Color',$,IFCLABEL('#A8A29E'),$);
#1031=IFCPROPERTYSET('BTG0000000000000000019',#6,'Pset_Batang_Dimensions',$,(#1026,#1027,#1028,#1029,#1030));
#1032=IFCRELDEFINESBYPROPERTIES('BTG0000000000000000119',#6,$,$,(#296),#1031);
#1033=IFCPROPERTYSINGLEVALUE('Length',$,IFCLENGTHMEASURE(7000.),$);
#1034=IFCPROPERTYSINGLEVALUE('Height',$,IFCLENGTHMEASURE(200.),$);
#1035=IFCPROPERTYSINGLEVALUE('Thickness',$,IFCLENGTHMEASURE(4000.),$);
#1036=IFCPROPERTYSINGLEVALUE('Material',$,IFCLABEL('Concrete'),$);
#1037=IFCPROPERTYSINGLEVALUE('Color',$,IFCLABEL('#A8A29E'),$);
#1038=IFCPROPERTYSET('BTG0000000000000000020',#6,'Pset_Batang_Dimensions',$,(#1033,#1034,#1035,#1036,#1037));
#1039=IFCRELDEFINESBYPROPERTIES('BTG0000000000000000120',#6,$,$,(#188),#1038);
#1040=IFCPROPERTYSINGLEVALUE('Length',$,IFCLENGTHMEASURE(3000.),$);
#1041=IFCPROPERTYSINGLEVALUE('Height',$,IFCLENGTHMEASURE(1000.),$);
#1042=IFCPROPERTYSINGLEVALUE('Thickness',$,IFCLENGTHMEASURE(200.),$);
#1043=IFCPROPERTYSINGLEVALUE('Material',$,IFCLABEL('Concrete'),$);
#1044=IFCPROPERTYSINGLEVALUE('Color',$,IFCLABEL('#A8A29E'),$);
#1045=IFCPROPERTYSET('BTG0000000000000000021',#6,'Pset_Batang_Dimensions',$,(#1040,#1041,#1042,#1043,#1044));
#1046=IFCRELDEFINESBYPROPERTIES('BTG0000000000000000121',#6,$,$,(#737),#1045);
#1047=IFCPROPERTYSINGLEVALUE('Length',$,IFCLENGTHMEASURE(6000.),$);
#1048=IFCPROPERTYSINGLEVALUE('Height',$,IFCLENGTHMEASURE(3000.),$);
#1049=IFCPROPERTYSINGLEVALUE('Thickness',$,IFCLENGTHMEASURE(200.),$);
#1050=IFCPROPERTYSINGLEVALUE('Material',$,IFCLABEL('Concrete'),$);
#1051=IFCPROPERTYSINGLEVALUE('Color',$,IFCLABEL('#A8A29E'),$);
#1052=IFCPROPERTYSET('BTG0000000000000000022',#6,'Pset_Batang_Dimensions',$,(#1047,#1048,#1049,#1050,#1051));
#1053=IFCRELDEFINESBYPROPERTIES('BTG0000000000000000122',#6,$,$,(#328,#408,#609,#641),#1052);
ENDSEC;
END-ISO-10303-21;
