ISO-10303-21;
HEADER;
FILE_DESCRIPTION(('ViewDefinition [CoordinationView]'),'2;1');
FILE_NAME('','2026-05-15T08:53:13',(''),(''),'IfcOpenShell 0.8.5-1c5b825','IfcOpenShell 0.8.5-1c5b825','');
FILE_SCHEMA(('IFC4'));
ENDSEC;
DATA;
#1=IFCPROJECT('3OIG0$6yj1N9SfIxb95f8T',$,'door-143060 Asset Library',$,$,$,$,$,#5);
#2=IFCSIUNIT(*,.LENGTHUNIT.,.MILLI.,.METRE.);
#3=IFCSIUNIT(*,.AREAUNIT.,$,.SQUARE_METRE.);
#4=IFCSIUNIT(*,.VOLUMEUNIT.,$,.CUBIC_METRE.);
#5=IFCUNITASSIGNMENT((#3,#4,#2));
#6=IFCSITE('1z2$qiNtT69eFfvtB5TPHw',$,'Asset Site',$,$,$,$,$,$,$,$,$,$,$);
#7=IFCBUILDING('0GuB_V8RfBMuSy80IBarGD',$,'Asset Building',$,$,$,$,$,$,$,$,$);
#8=IFCBUILDINGSTOREY('3QtDhn4ZPAUwTq1d8Jinvo',$,'Asset Storey',$,$,$,$,$,$,$);
#9=IFCRELAGGREGATES('3K1ruLPBf9RR$OX006sIb1',$,$,$,#1,(#6));
#10=IFCRELAGGREGATES('3uHrjoUpvFkOzWFtOgrs1a',$,$,$,#6,(#7));
#11=IFCRELAGGREGATES('3CdBM0JEPDFeAz2k$A1dYQ',$,$,$,#7,(#8));
#12=IFCDOOR('1AEJEHjonA_AuV8KM4LAB9',#121,'\X2\B2E8C77C\X0\-\X2\D50CB7ECC2DC\X0\:0915 x 2134mm:143060',$,$,#147,#36,'143060',2133.9999999999995,914.99999999999989,$,$,$);
#13=IFCOWNERHISTORY(#14,#17,$,.NOCHANGE.,$,$,$,1778487490);
#14=IFCPERSONANDORGANIZATION(#15,#16,$);
#15=IFCPERSON($,'','hnn06134',$,$,$,$,$);
#16=IFCORGANIZATION($,'','',$,$);
#17=IFCAPPLICATION(#18,'2027','Autodesk Revit 2027 (KOR)','Revit');
#18=IFCORGANIZATION($,'Autodesk Revit 2027 (KOR)',$,$,$);
#21=IFCLOCALPLACEMENT(#22,#29);
#22=IFCLOCALPLACEMENT(#23,#28);
#23=IFCLOCALPLACEMENT(#24,#27);
#24=IFCLOCALPLACEMENT($,#25);
#25=IFCAXIS2PLACEMENT3D(#26,$,$);
#26=IFCCARTESIANPOINT((0.,0.,0.));
#27=IFCAXIS2PLACEMENT3D(#26,$,$);
#28=IFCAXIS2PLACEMENT3D(#26,$,$);
#29=IFCAXIS2PLACEMENT3D(#30,#31,#32);
#30=IFCCARTESIANPOINT((5590.5208465132628,-6290.7448659670181,0.));
#31=IFCDIRECTION((0.,0.,1.));
#32=IFCDIRECTION((0.,-1.,0.));
#36=IFCPRODUCTDEFINITIONSHAPE($,$,(#37));
#37=IFCSHAPEREPRESENTATION(#38,'Body','MappedRepresentation',(#42));
#38=IFCGEOMETRICREPRESENTATIONSUBCONTEXT('Body','Model',*,*,*,*,#39,$,.MODEL_VIEW.,$);
#39=IFCGEOMETRICREPRESENTATIONCONTEXT($,'Model',3,0.01,#40,#41);
#40=IFCAXIS2PLACEMENT3D(#26,$,$);
#41=IFCDIRECTION((0.,1.));
#42=IFCMAPPEDITEM(#43,#82);
#43=IFCREPRESENTATIONMAP(#44,#45);
#44=IFCAXIS2PLACEMENT3D(#26,$,$);
#45=IFCSHAPEREPRESENTATION(#38,'Body','SweptSolid',(#46,#61,#75));
#46=IFCEXTRUDEDAREASOLID(#47,#57,#31,24.999999999994451);
#47=IFCARBITRARYCLOSEDPROFILEDEF(.AREA.,'0915 x 2134mm',#48);
#48=IFCPOLYLINE((#49,#50,#51,#52,#53,#54,#55,#56,#49));
#49=IFCCARTESIANPOINT((-533.49999999999989,-1124.));
#50=IFCCARTESIANPOINT((533.49999999999977,-1124.));
#51=IFCCARTESIANPOINT((533.49999999999977,1086.));
#52=IFCCARTESIANPOINT((457.49999999999977,1086.));
#53=IFCCARTESIANPOINT((457.49999999999977,-1048.));
#54=IFCCARTESIANPOINT((-457.4999999999996,-1048.));
#55=IFCCARTESIANPOINT((-457.4999999999996,1086.));
#56=IFCCARTESIANPOINT((-533.49999999999989,1086.));
#57=IFCAXIS2PLACEMENT3D(#58,#59,#60);
#58=IFCCARTESIANPOINT((457.50000000000057,200.,1086.));
#59=IFCDIRECTION((0.,1.,0.));
#60=IFCDIRECTION((1.,0.,0.));
#61=IFCEXTRUDEDAREASOLID(#62,#72,#31,25.000000000005567);
#62=IFCARBITRARYCLOSEDPROFILEDEF(.AREA.,'0915 x 2134mm',#63);
#63=IFCPOLYLINE((#64,#65,#66,#67,#68,#69,#70,#71,#64));
#64=IFCCARTESIANPOINT((-1124.,-533.49999999999727));
#65=IFCCARTESIANPOINT((1086.,-533.49999999999727));
#66=IFCCARTESIANPOINT((1086.,-457.50000000000716));
#67=IFCCARTESIANPOINT((-1048.,-457.50000000000716));
#68=IFCCARTESIANPOINT((-1048.,457.50000000000193));
#69=IFCCARTESIANPOINT((1086.,457.50000000000193));
#70=IFCCARTESIANPOINT((1086.,533.5000000000025));
#71=IFCCARTESIANPOINT((-1124.,533.5000000000025));
#72=IFCAXIS2PLACEMENT3D(#73,#59,#74);
#73=IFCCARTESIANPOINT((457.50000000000318,-25.,1086.));
#74=IFCDIRECTION((0.,0.,-1.));
#75=IFCEXTRUDEDAREASOLID(#76,#80,#31,2133.9999999999991);
#76=IFCRECTANGLEPROFILEDEF(.AREA.,'0915 x 2134mm',#77,51.,914.99999999999977);
#77=IFCAXIS2PLACEMENT2D(#78,#79);
#78=IFCCARTESIANPOINT((-5.3290705182007514E-15,0.));
#79=IFCDIRECTION((1.,0.));
#80=IFCAXIS2PLACEMENT3D(#81,#31,#59);
#81=IFCCARTESIANPOINT((457.50000000000034,174.49999999999918,0.));
#82=IFCCARTESIANTRANSFORMATIONOPERATOR3D($,$,#26,1.,$);
#83=IFCOPENINGELEMENT('28_A$l4SPFoe1NB0phq28z',#127,'\X2\B2E8C77C\X0\-\X2\D50CB7ECC2DC\X0\:0915 x 2134mm:143060:1',$,'Opening',#142,#84,'143060',$);
#84=IFCPRODUCTDEFINITIONSHAPE($,$,(#85));
#85=IFCSHAPEREPRESENTATION(#38,'Body','SweptSolid',(#86));
#86=IFCEXTRUDEDAREASOLID(#87,#90,#31,200.);
#87=IFCRECTANGLEPROFILEDEF(.AREA.,$,#88,914.99999999999977,2133.9999999999995);
#88=IFCAXIS2PLACEMENT2D(#89,#41);
#89=IFCCARTESIANPOINT((1066.9999999999998,457.5));
#90=IFCAXIS2PLACEMENT3D(#26,#59,#31);
#91=IFCMATERIALLIST((#92,#93));
#92=IFCMATERIAL('\X2\BB38\X0\ - \X2\D504B808C784\X0\',$,$);
#93=IFCMATERIAL('\X2\BB38\X0\ - \X2\D328B110\X0\',$,$);
#94=IFCRELASSOCIATESMATERIAL('0UFA7KMf5DmBzXvohdvwDa',$,$,$,(#12),#91);
#95=IFCPROPERTYSET('37adxUvWH4zAmv9bKPwLfZ',#13,'Pset_DoorCommon',$,(#96,#97));
#96=IFCPROPERTYSINGLEVALUE('Reference',$,IFCIDENTIFIER('0915 x 2134mm'),$);
#97=IFCPROPERTYSINGLEVALUE('IsExternal',$,IFCBOOLEAN(.F.),$);
#98=IFCRELDEFINESBYPROPERTIES('0IaDgjM5nCFxvvruVNKRfb',$,$,$,(#12),#95);
#99=IFCPROPERTYSET('2brSxFDqr1tfK1eWsjheWJ',#13,'Pset_QuantityTakeOff',$,(#96));
#100=IFCRELDEFINESBYPROPERTIES('2LqXQTF2D01PtSF71DrZOb',$,$,$,(#12),#99);
#101=IFCSTYLEDITEM(#42,(#102),$);
#102=IFCPRESENTATIONSTYLEASSIGNMENT((#103));
#103=IFCSURFACESTYLE($,.BOTH.,(#104));
#104=IFCSURFACESTYLERENDERING(#105,$,$,$,$,$,$,$,.FLAT.);
#105=IFCCOLOURRGB($,0.6588235294117647,0.40392156862745099,0.26666666666666666);
#106=IFCSTYLEDITEM(#46,(#107),$);
#107=IFCPRESENTATIONSTYLEASSIGNMENT((#108));
#108=IFCSURFACESTYLE($,.BOTH.,(#109));
#109=IFCSURFACESTYLERENDERING(#110,$,$,$,$,$,$,$,.FLAT.);
#110=IFCCOLOURRGB($,0.6588235294117647,0.40392156862745099,0.26666666666666666);
#111=IFCSTYLEDITEM(#61,(#107),$);
#112=IFCSTYLEDITEM(#75,(#107),$);
#113=IFCRELFILLSELEMENT('2$nDTJ4k59m9$vl7_2Fz_O',$,$,$,#83,#12);
#114=IFCOWNERHISTORY(#14,#17,.READWRITE.,.ADDED.,1778802793,#14,#17,1778802793);
#115=IFCRELCONTAINEDINSPATIALSTRUCTURE('2RUFGqnLL03A30xUNlsDX5',#114,$,$,(#12,#83),#8);
#121=IFCOWNERHISTORY(#14,#17,$,.MODIFIED.,1778802793,#14,#17,1778487490);
#127=IFCOWNERHISTORY(#14,#17,$,.MODIFIED.,1778802793,#14,#17,1778487490);
#138=IFCCARTESIANPOINT((25.000000000000355,991.00000000000136,0.));
#139=IFCDIRECTION((0.,0.,1.));
#140=IFCDIRECTION((0.,-1.,0.));
#141=IFCAXIS2PLACEMENT3D(#138,#139,#140);
#142=IFCLOCALPLACEMENT($,#141);
#143=IFCCARTESIANPOINT((5.5511151231257827E-13,-3.5388358909926865E-13,0.));
#144=IFCDIRECTION((0.,0.,1.));
#145=IFCDIRECTION((1.,0.,0.));
#146=IFCAXIS2PLACEMENT3D(#143,#144,#145);
#147=IFCLOCALPLACEMENT(#142,#146);
#148=IFCOWNERHISTORY(#14,#17,.READWRITE.,.ADDED.,1778802793,#14,#17,1778802793);
#149=IFCPROPERTYSET('0DjkJQbqDFNvd5T7uuR2ZO',#148,'Pset_LibraryAsset',$,(#152,#153,#154,#155,#156,#157,#158,#159,#160,#161));
#150=IFCOWNERHISTORY(#14,#17,.READWRITE.,.ADDED.,1778802793,#14,#17,1778802793);
#151=IFCRELDEFINESBYPROPERTIES('0ObrqI6z502eKrePeisPsq',#150,$,$,(#12),#149);
#152=IFCPROPERTYSINGLEVALUE('AssetId',$,IFCLABEL('door-143060'),$);
#153=IFCPROPERTYSINGLEVALUE('AssetGroup',$,IFCLABEL('door-143060'),$);
#154=IFCPROPERTYSINGLEVALUE('AssetRole',$,IFCLABEL('member-0'),$);
#155=IFCPROPERTYSINGLEVALUE('Category',$,IFCLABEL('door'),$);
#156=IFCPROPERTYSINGLEVALUE('SourceElementName',$,IFCLABEL('\X2\B2E8C77C\X0\-\X2\D50CB7ECC2DC\X0\:0915 x 2134mm:143060'),$);
#157=IFCPROPERTYSINGLEVALUE('SourceGlobalId',$,IFCLABEL('2znubWhPDD4wn7Fg4E23BT'),$);
#158=IFCPROPERTYSINGLEVALUE('Reusable',$,IFCBOOLEAN(.T.),$);
#159=IFCPROPERTYSINGLEVALUE('WidthMm',$,IFCREAL(250.),$);
#160=IFCPROPERTYSINGLEVALUE('DepthMm',$,IFCREAL(1067.),$);
#161=IFCPROPERTYSINGLEVALUE('HeightMm',$,IFCREAL(2210.),$);
#162=IFCOWNERHISTORY(#14,#17,.READWRITE.,.ADDED.,1778802793,#14,#17,1778802793);
#163=IFCPROPERTYSET('34$aXq8Yb1Sxc7FH9SGgNz',#162,'Pset_LibraryAsset',$,(#166,#167,#168,#169,#170,#171,#172,#173,#174,#175,#176));
#164=IFCOWNERHISTORY(#14,#17,.READWRITE.,.ADDED.,1778802793,#14,#17,1778802793);
#165=IFCRELDEFINESBYPROPERTIES('13Q1nRaj95k82EWyAbe7U4',#164,$,$,(#83),#163);
#166=IFCPROPERTYSINGLEVALUE('AssetId',$,IFCLABEL('door-143060'),$);
#167=IFCPROPERTYSINGLEVALUE('AssetGroup',$,IFCLABEL('door-143060'),$);
#168=IFCPROPERTYSINGLEVALUE('AssetRole',$,IFCLABEL('member-1'),$);
#169=IFCPROPERTYSINGLEVALUE('Category',$,IFCLABEL('door'),$);
#170=IFCPROPERTYSINGLEVALUE('SourceElementName',$,IFCLABEL('\X2\B2E8C77C\X0\-\X2\D50CB7ECC2DC\X0\:0915 x 2134mm:143060:1'),$);
#171=IFCPROPERTYSINGLEVALUE('SourceGlobalId',$,IFCLABEL('0WxHRosqtkZrVaZ2xTNzo_'),$);
#172=IFCPROPERTYSINGLEVALUE('Reusable',$,IFCBOOLEAN(.T.),$);
#173=IFCPROPERTYSINGLEVALUE('OpeningImportPolicy',$,IFCLABEL('recreate_host_void_on_import'),$);
#174=IFCPROPERTYSINGLEVALUE('WidthMm',$,IFCREAL(250.),$);
#175=IFCPROPERTYSINGLEVALUE('DepthMm',$,IFCREAL(1067.),$);
#176=IFCPROPERTYSINGLEVALUE('HeightMm',$,IFCREAL(2210.),$);
ENDSEC;
END-ISO-10303-21;
