ISO-10303-21;
HEADER;
FILE_DESCRIPTION(('ViewDefinition [CoordinationView]'),'2;1');
FILE_NAME('','2026-05-15T08:53:13',(''),(''),'IfcOpenShell 0.8.5-1c5b825','IfcOpenShell 0.8.5-1c5b825','');
FILE_SCHEMA(('IFC4'));
ENDSEC;
DATA;
#1=IFCPROJECT('2BVVxc3v99VQge3eCgB1Tw',$,'door-144293 Asset Library',$,$,$,$,$,#5);
#2=IFCSIUNIT(*,.LENGTHUNIT.,.MILLI.,.METRE.);
#3=IFCSIUNIT(*,.AREAUNIT.,$,.SQUARE_METRE.);
#4=IFCSIUNIT(*,.VOLUMEUNIT.,$,.CUBIC_METRE.);
#5=IFCUNITASSIGNMENT((#2,#3,#4));
#6=IFCSITE('0CjKWIIWfEx9m5Js9mJk53',$,'Asset Site',$,$,$,$,$,$,$,$,$,$,$);
#7=IFCBUILDING('249NxrZ9rClhptBvLG_x0C',$,'Asset Building',$,$,$,$,$,$,$,$,$);
#8=IFCBUILDINGSTOREY('1XhV0pYDX8bfzgTVW6wOtP',$,'Asset Storey',$,$,$,$,$,$,$);
#9=IFCRELAGGREGATES('2hOuYhLanEU8JI3X2XpDuw',$,$,$,#1,(#6));
#10=IFCRELAGGREGATES('1n$XAVPHHAJuJ3uZpFV_Wh',$,$,$,#6,(#7));
#11=IFCRELAGGREGATES('00YRCT2891PuBKBM1t9q$B',$,$,$,#7,(#8));
#12=IFCDOOR('12aakdmCzF5OoTtM7JSaGA',#127,'\X2\B2E8C77C\X0\-\X2\D50CB7ECC2DC\X0\:0915 x 2134mm:144293',$,$,#147,#36,'144293',2133.9999999999995,915.00000000000045,$,$,$);
#13=IFCOWNERHISTORY(#14,#17,$,.NOCHANGE.,$,$,$,1778487490);
#14=IFCPERSONANDORGANIZATION(#15,#16,$);
#15=IFCPERSON($,'','hnn06134',$,$,$,$,$);
#16=IFCORGANIZATION($,'','',$,$);
#17=IFCAPPLICATION(#18,'2027','Autodesk Revit 2027 (KOR)','Revit');
#18=IFCORGANIZATION($,'Autodesk Revit 2027 (KOR)',$,$,$);
#21=IFCLOCALPLACEMENT(#22,#29);
#22=IFCLOCALPLACEMENT(#23,#28);
#23=IFCLOCALPLACEMENT(#24,#27);
#24=IFCLOCALPLACEMENT($,#25);
#25=IFCAXIS2PLACEMENT3D(#26,$,$);
#26=IFCCARTESIANPOINT((0.,0.,0.));
#27=IFCAXIS2PLACEMENT3D(#26,$,$);
#28=IFCAXIS2PLACEMENT3D(#26,$,$);
#29=IFCAXIS2PLACEMENT3D(#30,$,$);
#30=IFCCARTESIANPOINT((2165.7383521796892,-13960.963893809352,0.));
#34=IFCDIRECTION((0.,0.,1.));
#35=IFCDIRECTION((-1.,0.,0.));
#36=IFCPRODUCTDEFINITIONSHAPE($,$,(#37));
#37=IFCSHAPEREPRESENTATION(#38,'Body','MappedRepresentation',(#42));
#38=IFCGEOMETRICREPRESENTATIONSUBCONTEXT('Body','Model',*,*,*,*,#39,$,.MODEL_VIEW.,$);
#39=IFCGEOMETRICREPRESENTATIONCONTEXT($,'Model',3,0.01,#40,#41);
#40=IFCAXIS2PLACEMENT3D(#26,$,$);
#41=IFCDIRECTION((0.,1.));
#42=IFCMAPPEDITEM(#43,#81);
#43=IFCREPRESENTATIONMAP(#44,#45);
#44=IFCAXIS2PLACEMENT3D(#26,$,$);
#45=IFCSHAPEREPRESENTATION(#38,'Body','SweptSolid',(#46,#60,#74));
#46=IFCEXTRUDEDAREASOLID(#47,#57,#34,24.999999999994451);
#47=IFCARBITRARYCLOSEDPROFILEDEF(.AREA.,'0915 x 2134mm',#48);
#48=IFCPOLYLINE((#49,#50,#51,#52,#53,#54,#55,#56,#49));
#49=IFCCARTESIANPOINT((-533.49999999999989,-1124.));
#50=IFCCARTESIANPOINT((533.49999999999977,-1124.));
#51=IFCCARTESIANPOINT((533.49999999999977,1086.));
#52=IFCCARTESIANPOINT((457.49999999999977,1086.));
#53=IFCCARTESIANPOINT((457.49999999999977,-1048.));
#54=IFCCARTESIANPOINT((-457.4999999999996,-1048.));
#55=IFCCARTESIANPOINT((-457.4999999999996,1086.));
#56=IFCCARTESIANPOINT((-533.49999999999989,1086.));
#57=IFCAXIS2PLACEMENT3D(#58,#59,#35);
#58=IFCCARTESIANPOINT((457.50000000000023,225.,1086.));
#59=IFCDIRECTION((0.,-1.,0.));
#60=IFCEXTRUDEDAREASOLID(#61,#71,#34,25.000000000005567);
#61=IFCARBITRARYCLOSEDPROFILEDEF(.AREA.,'0915 x 2134mm',#62);
#62=IFCPOLYLINE((#63,#64,#65,#66,#67,#68,#69,#70,#63));
#63=IFCCARTESIANPOINT((-1124.,-533.49999999999727));
#64=IFCCARTESIANPOINT((1086.,-533.49999999999727));
#65=IFCCARTESIANPOINT((1086.,-457.50000000000716));
#66=IFCCARTESIANPOINT((-1048.,-457.50000000000716));
#67=IFCCARTESIANPOINT((-1048.,457.50000000000193));
#68=IFCCARTESIANPOINT((1086.,457.50000000000193));
#69=IFCCARTESIANPOINT((1086.,533.5000000000025));
#70=IFCCARTESIANPOINT((-1124.,533.5000000000025));
#71=IFCAXIS2PLACEMENT3D(#72,#59,#73);
#72=IFCCARTESIANPOINT((457.49999999999756,-0.,1086.));
#73=IFCDIRECTION((0.,0.,-1.));
#74=IFCEXTRUDEDAREASOLID(#75,#79,#34,2133.9999999999991);
#75=IFCRECTANGLEPROFILEDEF(.AREA.,'0915 x 2134mm',#76,914.99999999999977,51.);
#76=IFCAXIS2PLACEMENT2D(#77,#78);
#77=IFCCARTESIANPOINT((0.,5.3290705182007514E-15));
#78=IFCDIRECTION((1.,0.));
#79=IFCAXIS2PLACEMENT3D(#80,$,$);
#80=IFCCARTESIANPOINT((457.50000000000034,174.4999999999954,0.));
#81=IFCCARTESIANTRANSFORMATIONOPERATOR3D($,$,#26,1.,$);
#82=IFCOPENINGELEMENT('1XMNt2kv9Eph2g2bsaH_mx',#121,'\X2\B2E8C77C\X0\-\X2\D50CB7ECC2DC\X0\:0915 x 2134mm:144293:1',$,'Opening',#142,#83,'144293',$);
#83=IFCPRODUCTDEFINITIONSHAPE($,$,(#84));
#84=IFCSHAPEREPRESENTATION(#38,'Body','SweptSolid',(#85));
#85=IFCEXTRUDEDAREASOLID(#86,#90,#34,200.);
#86=IFCRECTANGLEPROFILEDEF(.AREA.,$,#87,915.00000000000034,2133.9999999999995);
#87=IFCAXIS2PLACEMENT2D(#88,#89);
#88=IFCCARTESIANPOINT((1066.9999999999998,457.50000000000045));
#89=IFCDIRECTION((0.,-1.));
#90=IFCAXIS2PLACEMENT3D(#26,#59,#34);
#91=IFCMATERIALLIST((#92,#93));
#92=IFCMATERIAL('\X2\BB38\X0\ - \X2\D504B808C784\X0\',$,$);
#93=IFCMATERIAL('\X2\BB38\X0\ - \X2\D328B110\X0\',$,$);
#94=IFCRELASSOCIATESMATERIAL('0hm4G5zE9C2O1oOhkkVVOe',$,$,$,(#12),#91);
#95=IFCPROPERTYSET('2r1hGUGLbCgviEOv_bsmzZ',#13,'Pset_DoorCommon',$,(#96,#97));
#96=IFCPROPERTYSINGLEVALUE('Reference',$,IFCIDENTIFIER('0915 x 2134mm'),$);
#97=IFCPROPERTYSINGLEVALUE('IsExternal',$,IFCBOOLEAN(.F.),$);
#98=IFCRELDEFINESBYPROPERTIES('0WMPLQcmH7ogbS3Qww6vpA',$,$,$,(#12),#95);
#99=IFCPROPERTYSET('1rjSNFSN9Ab9MmoVHQjzhI',#13,'Pset_QuantityTakeOff',$,(#96));
#100=IFCRELDEFINESBYPROPERTIES('2QumjJXmH9ffVR3kR1dDZc',$,$,$,(#12),#99);
#101=IFCSTYLEDITEM(#42,(#102),$);
#102=IFCPRESENTATIONSTYLEASSIGNMENT((#103));
#103=IFCSURFACESTYLE($,.BOTH.,(#104));
#104=IFCSURFACESTYLERENDERING(#105,$,$,$,$,$,$,$,.FLAT.);
#105=IFCCOLOURRGB($,0.6588235294117647,0.40392156862745099,0.26666666666666666);
#106=IFCSTYLEDITEM(#46,(#107),$);
#107=IFCPRESENTATIONSTYLEASSIGNMENT((#108));
#108=IFCSURFACESTYLE($,.BOTH.,(#109));
#109=IFCSURFACESTYLERENDERING(#110,$,$,$,$,$,$,$,.FLAT.);
#110=IFCCOLOURRGB($,0.6588235294117647,0.40392156862745099,0.26666666666666666);
#111=IFCSTYLEDITEM(#60,(#107),$);
#112=IFCSTYLEDITEM(#74,(#107),$);
#113=IFCRELFILLSELEMENT('33TR9tyuf18O0wNVhbj92P',$,$,$,#82,#12);
#114=IFCOWNERHISTORY(#14,#17,.READWRITE.,.ADDED.,1778802793,#14,#17,1778802793);
#115=IFCRELCONTAINEDINSPATIALSTRUCTURE('34VNY8iczFBPQEAAH7ltKe',#114,$,$,(#82,#12),#8);
#121=IFCOWNERHISTORY(#14,#17,$,.MODIFIED.,1778802793,#14,#17,1778487490);
#127=IFCOWNERHISTORY(#14,#17,$,.MODIFIED.,1778802793,#14,#17,1778487490);
#138=IFCCARTESIANPOINT((990.99999999999966,225.00000000000142,0.));
#139=IFCDIRECTION((0.,0.,1.));
#140=IFCDIRECTION((1.,0.,0.));
#141=IFCAXIS2PLACEMENT3D(#138,#139,#140);
#142=IFCLOCALPLACEMENT($,#141);
#143=IFCCARTESIANPOINT((-1.1102230246251565E-13,-1.4155343563970746E-12,0.));
#144=IFCDIRECTION((0.,0.,1.));
#145=IFCDIRECTION((-1.,0.,0.));
#146=IFCAXIS2PLACEMENT3D(#143,#144,#145);
#147=IFCLOCALPLACEMENT(#142,#146);
#148=IFCOWNERHISTORY(#14,#17,.READWRITE.,.ADDED.,1778802793,#14,#17,1778802793);
#149=IFCPROPERTYSET('2bKdoQ_QzBqQ4PlSROfiiw',#148,'Pset_LibraryAsset',$,(#152,#153,#154,#155,#156,#157,#158,#159,#160,#161));
#150=IFCOWNERHISTORY(#14,#17,.READWRITE.,.ADDED.,1778802793,#14,#17,1778802793);
#151=IFCRELDEFINESBYPROPERTIES('3eJrFMUlj8jgfDR4AQcyuc',#150,$,$,(#12),#149);
#152=IFCPROPERTYSINGLEVALUE('AssetId',$,IFCLABEL('door-144293'),$);
#153=IFCPROPERTYSINGLEVALUE('AssetGroup',$,IFCLABEL('door-144293'),$);
#154=IFCPROPERTYSINGLEVALUE('AssetRole',$,IFCLABEL('member-0'),$);
#155=IFCPROPERTYSINGLEVALUE('Category',$,IFCLABEL('door'),$);
#156=IFCPROPERTYSINGLEVALUE('SourceElementName',$,IFCLABEL('\X2\B2E8C77C\X0\-\X2\D50CB7ECC2DC\X0\:0915 x 2134mm:144293'),$);
#157=IFCPROPERTYSINGLEVALUE('SourceGlobalId',$,IFCLABEL('2znubWhPDD4wn7Fg4E22_i'),$);
#158=IFCPROPERTYSINGLEVALUE('Reusable',$,IFCBOOLEAN(.T.),$);
#159=IFCPROPERTYSINGLEVALUE('WidthMm',$,IFCREAL(1067.),$);
#160=IFCPROPERTYSINGLEVALUE('DepthMm',$,IFCREAL(250.),$);
#161=IFCPROPERTYSINGLEVALUE('HeightMm',$,IFCREAL(2210.),$);
#162=IFCOWNERHISTORY(#14,#17,.READWRITE.,.ADDED.,1778802793,#14,#17,1778802793);
#163=IFCPROPERTYSET('2WZIIyo1TAKhG0TiuMmh$d',#162,'Pset_LibraryAsset',$,(#166,#167,#168,#169,#170,#171,#172,#173,#174,#175,#176));
#164=IFCOWNERHISTORY(#14,#17,.READWRITE.,.ADDED.,1778802793,#14,#17,1778802793);
#165=IFCRELDEFINESBYPROPERTIES('3lXk_Yg3PFMhNosP0kjRcF',#164,$,$,(#82),#163);
#166=IFCPROPERTYSINGLEVALUE('AssetId',$,IFCLABEL('door-144293'),$);
#167=IFCPROPERTYSINGLEVALUE('AssetGroup',$,IFCLABEL('door-144293'),$);
#168=IFCPROPERTYSINGLEVALUE('AssetRole',$,IFCLABEL('member-1'),$);
#169=IFCPROPERTYSINGLEVALUE('Category',$,IFCLABEL('door'),$);
#170=IFCPROPERTYSINGLEVALUE('SourceElementName',$,IFCLABEL('\X2\B2E8C77C\X0\-\X2\D50CB7ECC2DC\X0\:0915 x 2134mm:144293:1'),$);
#171=IFCPROPERTYSINGLEVALUE('SourceGlobalId',$,IFCLABEL('0gFDGh1kd6qIeO6VMVsF$N'),$);
#172=IFCPROPERTYSINGLEVALUE('Reusable',$,IFCBOOLEAN(.T.),$);
#173=IFCPROPERTYSINGLEVALUE('OpeningImportPolicy',$,IFCLABEL('recreate_host_void_on_import'),$);
#174=IFCPROPERTYSINGLEVALUE('WidthMm',$,IFCREAL(1067.),$);
#175=IFCPROPERTYSINGLEVALUE('DepthMm',$,IFCREAL(250.),$);
#176=IFCPROPERTYSINGLEVALUE('HeightMm',$,IFCREAL(2210.),$);
ENDSEC;
END-ISO-10303-21;
