ISO-10303-21;
HEADER;
FILE_DESCRIPTION(('ViewDefinition [CoordinationView]'),'2;1');
FILE_NAME('','2026-05-14T22:38:05',(''),(''),'IfcOpenShell 0.8.5-1c5b825','IfcOpenShell 0.8.5-1c5b825','');
FILE_SCHEMA(('IFC4'));
ENDSEC;
DATA;
#1=IFCPROJECT('2VzAHrhnT8wu60ahctMQ_V',$,'door-152970 Asset Library',$,$,$,$,$,#5);
#2=IFCSIUNIT(*,.LENGTHUNIT.,.MILLI.,.METRE.);
#3=IFCSIUNIT(*,.AREAUNIT.,$,.SQUARE_METRE.);
#4=IFCSIUNIT(*,.VOLUMEUNIT.,$,.CUBIC_METRE.);
#5=IFCUNITASSIGNMENT((#2,#3,#4));
#6=IFCSITE('2A1OoGUpfFMRUAGn2VOyOz',$,'Asset Site',$,$,$,$,$,$,$,$,$,$,$);
#7=IFCBUILDING('2RSPu3hmX2HA3wbem_1tls',$,'Asset Building',$,$,$,$,$,$,$,$,$);
#8=IFCBUILDINGSTOREY('3d$Ty6I8b4wffkzV3rh2wq',$,'Asset Storey',$,$,$,$,$,$,$);
#9=IFCRELAGGREGATES('0dXLpO97H8sPMKmMwrvGDH',$,$,$,#1,(#6));
#10=IFCRELAGGREGATES('3uf0r8ib12khw4tjBGmg6S',$,$,$,#6,(#7));
#11=IFCRELAGGREGATES('2nYR4LfgP6veia5ro95t5f',$,$,$,#7,(#8));
#12=IFCDOOR('2znubWhPDD4wn7Fg4E24c3',#112,'\X2\B2E8C77C\X0\-\X2\D50CB7ECC2DC\X0\:0915 x 2134mm:152970',$,$,#117,#37,'152970',2133.9999999999995,915.00000000000011,$,$,$);
#13=IFCOWNERHISTORY(#14,#17,$,.NOCHANGE.,$,$,$,1778487490);
#14=IFCPERSONANDORGANIZATION(#15,#16,$);
#15=IFCPERSON($,'','hnn06134',$,$,$,$,$);
#16=IFCORGANIZATION($,'','',$,$);
#17=IFCAPPLICATION(#18,'2027','Autodesk Revit 2027 (KOR)','Revit');
#18=IFCORGANIZATION($,'Autodesk Revit 2027 (KOR)',$,$,$);
#20=IFCLOCALPLACEMENT(#21,#32);
#21=IFCLOCALPLACEMENT(#22,#30);
#22=IFCLOCALPLACEMENT(#23,#28);
#23=IFCLOCALPLACEMENT(#24,#27);
#24=IFCLOCALPLACEMENT($,#25);
#25=IFCAXIS2PLACEMENT3D(#26,$,$);
#26=IFCCARTESIANPOINT((0.,0.,0.));
#27=IFCAXIS2PLACEMENT3D(#26,$,$);
#28=IFCAXIS2PLACEMENT3D(#29,$,$);
#29=IFCCARTESIANPOINT((0.,0.,2500.));
#30=IFCAXIS2PLACEMENT3D(#31,$,$);
#31=IFCCARTESIANPOINT((671.51514827818596,-9074.3420126071942,0.));
#32=IFCAXIS2PLACEMENT3D(#33,$,$);
#33=IFCCARTESIANPOINT((1415.,100.,0.));
#35=IFCDIRECTION((0.,0.,1.));
#36=IFCDIRECTION((-1.,0.,0.));
#37=IFCPRODUCTDEFINITIONSHAPE($,$,(#38));
#38=IFCSHAPEREPRESENTATION(#39,'Body','MappedRepresentation',(#43));
#39=IFCGEOMETRICREPRESENTATIONSUBCONTEXT('Body','Model',*,*,*,*,#40,$,.MODEL_VIEW.,$);
#40=IFCGEOMETRICREPRESENTATIONCONTEXT($,'Model',3,0.01,#41,#42);
#41=IFCAXIS2PLACEMENT3D(#26,$,$);
#42=IFCDIRECTION((0.,1.));
#43=IFCMAPPEDITEM(#44,#82);
#44=IFCREPRESENTATIONMAP(#45,#46);
#45=IFCAXIS2PLACEMENT3D(#26,$,$);
#46=IFCSHAPEREPRESENTATION(#39,'Body','SweptSolid',(#47,#61,#75));
#47=IFCEXTRUDEDAREASOLID(#48,#58,#35,24.999999999994451);
#48=IFCARBITRARYCLOSEDPROFILEDEF(.AREA.,'0915 x 2134mm',#49);
#49=IFCPOLYLINE((#50,#51,#52,#53,#54,#55,#56,#57,#50));
#50=IFCCARTESIANPOINT((-533.49999999999989,-1124.));
#51=IFCCARTESIANPOINT((533.49999999999977,-1124.));
#52=IFCCARTESIANPOINT((533.49999999999977,1086.));
#53=IFCCARTESIANPOINT((457.49999999999977,1086.));
#54=IFCCARTESIANPOINT((457.49999999999977,-1048.));
#55=IFCCARTESIANPOINT((-457.4999999999996,-1048.));
#56=IFCCARTESIANPOINT((-457.4999999999996,1086.));
#57=IFCCARTESIANPOINT((-533.49999999999989,1086.));
#58=IFCAXIS2PLACEMENT3D(#59,#60,#36);
#59=IFCCARTESIANPOINT((457.50000000000023,225.,1086.));
#60=IFCDIRECTION((0.,-1.,0.));
#61=IFCEXTRUDEDAREASOLID(#62,#72,#35,25.000000000005567);
#62=IFCARBITRARYCLOSEDPROFILEDEF(.AREA.,'0915 x 2134mm',#63);
#63=IFCPOLYLINE((#64,#65,#66,#67,#68,#69,#70,#71,#64));
#64=IFCCARTESIANPOINT((-1124.,-533.49999999999727));
#65=IFCCARTESIANPOINT((1086.,-533.49999999999727));
#66=IFCCARTESIANPOINT((1086.,-457.50000000000716));
#67=IFCCARTESIANPOINT((-1048.,-457.50000000000716));
#68=IFCCARTESIANPOINT((-1048.,457.50000000000193));
#69=IFCCARTESIANPOINT((1086.,457.50000000000193));
#70=IFCCARTESIANPOINT((1086.,533.5000000000025));
#71=IFCCARTESIANPOINT((-1124.,533.5000000000025));
#72=IFCAXIS2PLACEMENT3D(#73,#60,#74);
#73=IFCCARTESIANPOINT((457.49999999999756,-0.,1086.));
#74=IFCDIRECTION((0.,0.,-1.));
#75=IFCEXTRUDEDAREASOLID(#76,#80,#35,2133.9999999999991);
#76=IFCRECTANGLEPROFILEDEF(.AREA.,'0915 x 2134mm',#77,914.99999999999977,51.);
#77=IFCAXIS2PLACEMENT2D(#78,#79);
#78=IFCCARTESIANPOINT((0.,5.3290705182007514E-15));
#79=IFCDIRECTION((1.,0.));
#80=IFCAXIS2PLACEMENT3D(#81,$,$);
#81=IFCCARTESIANPOINT((457.50000000000034,174.4999999999954,0.));
#82=IFCCARTESIANTRANSFORMATIONOPERATOR3D($,$,#26,1.,$);
#83=IFCMATERIALLIST((#84,#85));
#84=IFCMATERIAL('\X2\BB38\X0\ - \X2\D504B808C784\X0\',$,$);
#85=IFCMATERIAL('\X2\BB38\X0\ - \X2\D328B110\X0\',$,$);
#86=IFCRELASSOCIATESMATERIAL('0_aca0uAr1gfoxnSjk9oc0',$,$,$,(#12),#83);
#87=IFCPROPERTYSET('00H7qXHtH3JhXazR2I40eL',#13,'Pset_DoorCommon',$,(#88,#89));
#88=IFCPROPERTYSINGLEVALUE('Reference',$,IFCIDENTIFIER('0915 x 2134mm'),$);
#89=IFCPROPERTYSINGLEVALUE('IsExternal',$,IFCBOOLEAN(.F.),$);
#90=IFCRELDEFINESBYPROPERTIES('3XEQdN9IT53QKEEIxsask8',$,$,$,(#12),#87);
#91=IFCPROPERTYSET('2blBYpdcz9HvSyOIE6nExd',#13,'Pset_QuantityTakeOff',$,(#88));
#92=IFCRELDEFINESBYPROPERTIES('0cujt_ZT90vfDNmi4EA1ry',$,$,$,(#12),#91);
#93=IFCSTYLEDITEM(#43,(#94),$);
#94=IFCPRESENTATIONSTYLEASSIGNMENT((#95));
#95=IFCSURFACESTYLE($,.BOTH.,(#96));
#96=IFCSURFACESTYLERENDERING(#97,$,$,$,$,$,$,$,.FLAT.);
#97=IFCCOLOURRGB($,0.6588235294117647,0.40392156862745099,0.26666666666666666);
#98=IFCSTYLEDITEM(#47,(#99),$);
#99=IFCPRESENTATIONSTYLEASSIGNMENT((#100));
#100=IFCSURFACESTYLE($,.BOTH.,(#101));
#101=IFCSURFACESTYLERENDERING(#102,$,$,$,$,$,$,$,.FLAT.);
#102=IFCCOLOURRGB($,0.6588235294117647,0.40392156862745099,0.26666666666666666);
#103=IFCSTYLEDITEM(#61,(#99),$);
#104=IFCSTYLEDITEM(#75,(#99),$);
#105=IFCOWNERHISTORY(#14,#17,.READWRITE.,.ADDED.,1778765885,#14,#17,1778765885);
#106=IFCRELCONTAINEDINSPATIALSTRUCTURE('21jXZeD6n4Kvq4kazZQWux',#105,$,$,(#12),#8);
#112=IFCOWNERHISTORY(#14,#17,$,.MODIFIED.,1778765885,#14,#17,1778487490);
#113=IFCCARTESIANPOINT((990.99999999999977,225.,0.));
#114=IFCDIRECTION((0.,0.,1.));
#115=IFCDIRECTION((-1.,0.,0.));
#116=IFCAXIS2PLACEMENT3D(#113,#114,#115);
#117=IFCLOCALPLACEMENT($,#116);
#118=IFCOWNERHISTORY(#14,#17,.READWRITE.,.ADDED.,1778765885,#14,#17,1778765885);
#119=IFCPROPERTYSET('20cBWyjd58RvZWLbhlZvW5',#118,'Pset_LibraryAsset',$,(#122,#123,#124,#125,#126,#127,#128,#129,#130,#131));
#120=IFCOWNERHISTORY(#14,#17,.READWRITE.,.ADDED.,1778765885,#14,#17,1778765885);
#121=IFCRELDEFINESBYPROPERTIES('0M8c5gwiP7M9IFsXAkFw$L',#120,$,$,(#12),#119);
#122=IFCPROPERTYSINGLEVALUE('AssetId',$,IFCLABEL('door-152970'),$);
#123=IFCPROPERTYSINGLEVALUE('AssetGroup',$,IFCLABEL('door-152970'),$);
#124=IFCPROPERTYSINGLEVALUE('AssetRole',$,IFCLABEL('member-0'),$);
#125=IFCPROPERTYSINGLEVALUE('Category',$,IFCLABEL('door'),$);
#126=IFCPROPERTYSINGLEVALUE('SourceElementName',$,IFCLABEL('\X2\B2E8C77C\X0\-\X2\D50CB7ECC2DC\X0\:0915 x 2134mm:152970'),$);
#127=IFCPROPERTYSINGLEVALUE('SourceGlobalId',$,IFCLABEL('2znubWhPDD4wn7Fg4E24c3'),$);
#128=IFCPROPERTYSINGLEVALUE('Reusable',$,IFCBOOLEAN(.T.),$);
#129=IFCPROPERTYSINGLEVALUE('WidthMm',$,IFCREAL(1067.),$);
#130=IFCPROPERTYSINGLEVALUE('DepthMm',$,IFCREAL(250.),$);
#131=IFCPROPERTYSINGLEVALUE('HeightMm',$,IFCREAL(2210.),$);
ENDSEC;
END-ISO-10303-21;
