ISO-10303-21;
HEADER;
FILE_DESCRIPTION(('ViewDefinition [CoordinationView]'),'2;1');
FILE_NAME('','2026-05-14T22:38:05',(''),(''),'IfcOpenShell 0.8.5-1c5b825','IfcOpenShell 0.8.5-1c5b825','');
FILE_SCHEMA(('IFC4'));
ENDSEC;
DATA;
#1=IFCPROJECT('2xaZkXSqn6i9ZNABk2m4Ds',$,'door-182597 Asset Library',$,$,$,$,$,#5);
#2=IFCSIUNIT(*,.LENGTHUNIT.,.MILLI.,.METRE.);
#3=IFCSIUNIT(*,.AREAUNIT.,$,.SQUARE_METRE.);
#4=IFCSIUNIT(*,.VOLUMEUNIT.,$,.CUBIC_METRE.);
#5=IFCUNITASSIGNMENT((#3,#4,#2));
#6=IFCSITE('3ISnHt2F16LxqFPv2Ly7KA',$,'Asset Site',$,$,$,$,$,$,$,$,$,$,$);
#7=IFCBUILDING('0ozoAwKE96qPThEjHqL0Ot',$,'Asset Building',$,$,$,$,$,$,$,$,$);
#8=IFCBUILDINGSTOREY('2UCJ7w5Q10IPUlYbhB3rOv',$,'Asset Storey',$,$,$,$,$,$,$);
#9=IFCRELAGGREGATES('3T8kXq_n98MRP2BONm1Vbj',$,$,$,#1,(#6));
#10=IFCRELAGGREGATES('2HDW0D$Mz6Iv8DEZJrSDtu',$,$,$,#6,(#7));
#11=IFCRELAGGREGATES('1jk4UqIMX3ne3WUcditTxh',$,$,$,#7,(#8));
#12=IFCDOOR('2QLDczdKX9Fg7Ur4rrIUVf',#113,'\X2\B2E8C77C\X0\-\X2\D50CB7ECC2DC\X0\:0915 x 2134mm:182597',$,$,#118,#37,'182597',2133.9999999999995,914.99999999999989,$,$,$);
#13=IFCOWNERHISTORY(#14,#17,$,.NOCHANGE.,$,$,$,1778487490);
#14=IFCPERSONANDORGANIZATION(#15,#16,$);
#15=IFCPERSON($,'','hnn06134',$,$,$,$,$);
#16=IFCORGANIZATION($,'','',$,$);
#17=IFCAPPLICATION(#18,'2027','Autodesk Revit 2027 (KOR)','Revit');
#18=IFCORGANIZATION($,'Autodesk Revit 2027 (KOR)',$,$,$);
#20=IFCLOCALPLACEMENT(#21,#34);
#21=IFCLOCALPLACEMENT(#22,#30);
#22=IFCLOCALPLACEMENT(#23,#28);
#23=IFCLOCALPLACEMENT(#24,#27);
#24=IFCLOCALPLACEMENT($,#25);
#25=IFCAXIS2PLACEMENT3D(#26,$,$);
#26=IFCCARTESIANPOINT((0.,0.,0.));
#27=IFCAXIS2PLACEMENT3D(#26,$,$);
#28=IFCAXIS2PLACEMENT3D(#29,$,$);
#29=IFCCARTESIANPOINT((0.,0.,2500.));
#30=IFCAXIS2PLACEMENT3D(#31,#32,#33);
#31=IFCCARTESIANPOINT((571.51514827818994,-7374.3420126071942,0.));
#32=IFCDIRECTION((0.,0.,1.));
#33=IFCDIRECTION((0.,1.,0.));
#34=IFCAXIS2PLACEMENT3D(#35,$,$);
#35=IFCCARTESIANPOINT((100.,-100.,0.));
#37=IFCPRODUCTDEFINITIONSHAPE($,$,(#38));
#38=IFCSHAPEREPRESENTATION(#39,'Body','MappedRepresentation',(#43));
#39=IFCGEOMETRICREPRESENTATIONSUBCONTEXT('Body','Model',*,*,*,*,#40,$,.MODEL_VIEW.,$);
#40=IFCGEOMETRICREPRESENTATIONCONTEXT($,'Model',3,0.01,#41,#42);
#41=IFCAXIS2PLACEMENT3D(#26,$,$);
#42=IFCDIRECTION((0.,1.));
#43=IFCMAPPEDITEM(#44,#83);
#44=IFCREPRESENTATIONMAP(#45,#46);
#45=IFCAXIS2PLACEMENT3D(#26,$,$);
#46=IFCSHAPEREPRESENTATION(#39,'Body','SweptSolid',(#47,#62,#76));
#47=IFCEXTRUDEDAREASOLID(#48,#58,#32,24.999999999994451);
#48=IFCARBITRARYCLOSEDPROFILEDEF(.AREA.,'0915 x 2134mm',#49);
#49=IFCPOLYLINE((#50,#51,#52,#53,#54,#55,#56,#57,#50));
#50=IFCCARTESIANPOINT((-533.49999999999989,-1124.));
#51=IFCCARTESIANPOINT((533.49999999999977,-1124.));
#52=IFCCARTESIANPOINT((533.49999999999977,1086.));
#53=IFCCARTESIANPOINT((457.49999999999977,1086.));
#54=IFCCARTESIANPOINT((457.49999999999977,-1048.));
#55=IFCCARTESIANPOINT((-457.4999999999996,-1048.));
#56=IFCCARTESIANPOINT((-457.4999999999996,1086.));
#57=IFCCARTESIANPOINT((-533.49999999999989,1086.));
#58=IFCAXIS2PLACEMENT3D(#59,#60,#61);
#59=IFCCARTESIANPOINT((457.50000000000023,225.,1086.));
#60=IFCDIRECTION((0.,-1.,0.));
#61=IFCDIRECTION((-1.,0.,0.));
#62=IFCEXTRUDEDAREASOLID(#63,#73,#32,25.000000000005567);
#63=IFCARBITRARYCLOSEDPROFILEDEF(.AREA.,'0915 x 2134mm',#64);
#64=IFCPOLYLINE((#65,#66,#67,#68,#69,#70,#71,#72,#65));
#65=IFCCARTESIANPOINT((-1124.,-533.49999999999727));
#66=IFCCARTESIANPOINT((1086.,-533.49999999999727));
#67=IFCCARTESIANPOINT((1086.,-457.50000000000716));
#68=IFCCARTESIANPOINT((-1048.,-457.50000000000716));
#69=IFCCARTESIANPOINT((-1048.,457.50000000000193));
#70=IFCCARTESIANPOINT((1086.,457.50000000000193));
#71=IFCCARTESIANPOINT((1086.,533.5000000000025));
#72=IFCCARTESIANPOINT((-1124.,533.5000000000025));
#73=IFCAXIS2PLACEMENT3D(#74,#60,#75);
#74=IFCCARTESIANPOINT((457.49999999999756,-0.,1086.));
#75=IFCDIRECTION((0.,0.,-1.));
#76=IFCEXTRUDEDAREASOLID(#77,#81,#32,2133.9999999999991);
#77=IFCRECTANGLEPROFILEDEF(.AREA.,'0915 x 2134mm',#78,914.99999999999977,51.);
#78=IFCAXIS2PLACEMENT2D(#79,#80);
#79=IFCCARTESIANPOINT((0.,5.3290705182007514E-15));
#80=IFCDIRECTION((1.,0.));
#81=IFCAXIS2PLACEMENT3D(#82,$,$);
#82=IFCCARTESIANPOINT((457.50000000000034,174.4999999999954,0.));
#83=IFCCARTESIANTRANSFORMATIONOPERATOR3D($,$,#26,1.,$);
#84=IFCMATERIALLIST((#85,#86));
#85=IFCMATERIAL('\X2\BB38\X0\ - \X2\D504B808C784\X0\',$,$);
#86=IFCMATERIAL('\X2\BB38\X0\ - \X2\D328B110\X0\',$,$);
#87=IFCRELASSOCIATESMATERIAL('0rzI6vG6D5qBJdF$6yyScb',$,$,$,(#12),#84);
#88=IFCPROPERTYSET('1ZRFDZhinB0PTXVFvyEEdv',#13,'Pset_DoorCommon',$,(#89,#90));
#89=IFCPROPERTYSINGLEVALUE('Reference',$,IFCIDENTIFIER('0915 x 2134mm'),$);
#90=IFCPROPERTYSINGLEVALUE('IsExternal',$,IFCBOOLEAN(.F.),$);
#91=IFCRELDEFINESBYPROPERTIES('2ZvWhsfKT2bh1$W$rKCMgq',$,$,$,(#12),#88);
#92=IFCPROPERTYSET('1bldvs9jLA4fBroXnvQkbw',#13,'Pset_QuantityTakeOff',$,(#89));
#93=IFCRELDEFINESBYPROPERTIES('3C9JDi_FLCn8jAufWyInpw',$,$,$,(#12),#92);
#94=IFCSTYLEDITEM(#43,(#95),$);
#95=IFCPRESENTATIONSTYLEASSIGNMENT((#96));
#96=IFCSURFACESTYLE($,.BOTH.,(#97));
#97=IFCSURFACESTYLERENDERING(#98,$,$,$,$,$,$,$,.FLAT.);
#98=IFCCOLOURRGB($,0.6588235294117647,0.40392156862745099,0.26666666666666666);
#99=IFCSTYLEDITEM(#47,(#100),$);
#100=IFCPRESENTATIONSTYLEASSIGNMENT((#101));
#101=IFCSURFACESTYLE($,.BOTH.,(#102));
#102=IFCSURFACESTYLERENDERING(#103,$,$,$,$,$,$,$,.FLAT.);
#103=IFCCOLOURRGB($,0.6588235294117647,0.40392156862745099,0.26666666666666666);
#104=IFCSTYLEDITEM(#62,(#100),$);
#105=IFCSTYLEDITEM(#76,(#100),$);
#106=IFCOWNERHISTORY(#14,#17,.READWRITE.,.ADDED.,1778765885,#14,#17,1778765885);
#107=IFCRELCONTAINEDINSPATIALSTRUCTURE('3M0oG6SIH8GPFDcKOBTOJf',#106,$,$,(#12),#8);
#113=IFCOWNERHISTORY(#14,#17,$,.MODIFIED.,1778765885,#14,#17,1778487490);
#114=IFCCARTESIANPOINT((225.,76.,0.));
#115=IFCDIRECTION((0.,0.,1.));
#116=IFCDIRECTION((0.,1.,0.));
#117=IFCAXIS2PLACEMENT3D(#114,#115,#116);
#118=IFCLOCALPLACEMENT($,#117);
#119=IFCOWNERHISTORY(#14,#17,.READWRITE.,.ADDED.,1778765885,#14,#17,1778765885);
#120=IFCPROPERTYSET('3shiqmWmv5hQh4w3BysBD$',#119,'Pset_LibraryAsset',$,(#123,#124,#125,#126,#127,#128,#129,#130,#131,#132));
#121=IFCOWNERHISTORY(#14,#17,.READWRITE.,.ADDED.,1778765885,#14,#17,1778765885);
#122=IFCRELDEFINESBYPROPERTIES('3Yd6QByZ93egOeJvQATcmr',#121,$,$,(#12),#120);
#123=IFCPROPERTYSINGLEVALUE('AssetId',$,IFCLABEL('door-182597'),$);
#124=IFCPROPERTYSINGLEVALUE('AssetGroup',$,IFCLABEL('door-182597'),$);
#125=IFCPROPERTYSINGLEVALUE('AssetRole',$,IFCLABEL('member-0'),$);
#126=IFCPROPERTYSINGLEVALUE('Category',$,IFCLABEL('door'),$);
#127=IFCPROPERTYSINGLEVALUE('SourceElementName',$,IFCLABEL('\X2\B2E8C77C\X0\-\X2\D50CB7ECC2DC\X0\:0915 x 2134mm:182597'),$);
#128=IFCPROPERTYSINGLEVALUE('SourceGlobalId',$,IFCLABEL('2QLDczdKX9Fg7Ur4rrIUVf'),$);
#129=IFCPROPERTYSINGLEVALUE('Reusable',$,IFCBOOLEAN(.T.),$);
#130=IFCPROPERTYSINGLEVALUE('WidthMm',$,IFCREAL(250.),$);
#131=IFCPROPERTYSINGLEVALUE('DepthMm',$,IFCREAL(1067.),$);
#132=IFCPROPERTYSINGLEVALUE('HeightMm',$,IFCREAL(2210.),$);
ENDSEC;
END-ISO-10303-21;
