ISO-10303-21;
HEADER;
FILE_DESCRIPTION(('ViewDefinition [CoordinationView]'),'2;1');
FILE_NAME('','2026-05-15T08:53:14',(''),(''),'IfcOpenShell 0.8.5-1c5b825','IfcOpenShell 0.8.5-1c5b825','');
FILE_SCHEMA(('IFC4'));
ENDSEC;
DATA;
#1=IFCPROJECT('0iYMEie053i93VGuyx31cw',$,'roof-178223 Asset Library',$,$,$,$,$,#5);
#2=IFCSIUNIT(*,.LENGTHUNIT.,.MILLI.,.METRE.);
#3=IFCSIUNIT(*,.AREAUNIT.,$,.SQUARE_METRE.);
#4=IFCSIUNIT(*,.VOLUMEUNIT.,$,.CUBIC_METRE.);
#5=IFCUNITASSIGNMENT((#3,#4,#2));
#6=IFCSITE('0vlH9h_VH0Xuq0p8DYqGDO',$,'Asset Site',$,$,$,$,$,$,$,$,$,$,$);
#7=IFCBUILDING('3v8PIfcxH55fQfEHPkAmlU',$,'Asset Building',$,$,$,$,$,$,$,$,$);
#8=IFCBUILDINGSTOREY('2EjNFokTf8Hx74f9c_LUgL',$,'Asset Storey',$,$,$,$,$,$,$);
#9=IFCRELAGGREGATES('3EtIyQo_jDBepdP7THlMdn',$,$,$,#1,(#6));
#10=IFCRELAGGREGATES('1vbvTqLrL5nAH92E0O5xHW',$,$,$,#6,(#7));
#11=IFCRELAGGREGATES('2Hrt0lYyHCfRBsUftHgOIa',$,$,$,#7,(#8));
#12=IFCROOF('2OVNhmmUf1GRXdPBN3AV5V',#1781,'\X2\AE30BCF8\X0\ \X2\C9C0BD95\X0\:\X2\C77CBC18\X0\ - 400mm:178223',$,$,#1786,#30,'178223',.NOTDEFINED.);
#13=IFCOWNERHISTORY(#14,#17,$,.NOCHANGE.,$,$,$,1778487490);
#14=IFCPERSONANDORGANIZATION(#15,#16,$);
#15=IFCPERSON($,'','hnn06134',$,$,$,$,$);
#16=IFCORGANIZATION($,'','',$,$);
#17=IFCAPPLICATION(#18,'2027','Autodesk Revit 2027 (KOR)','Revit');
#18=IFCORGANIZATION($,'Autodesk Revit 2027 (KOR)',$,$,$);
#20=IFCLOCALPLACEMENT(#21,#26);
#21=IFCLOCALPLACEMENT(#22,#25);
#22=IFCLOCALPLACEMENT($,#23);
#23=IFCAXIS2PLACEMENT3D(#24,$,$);
#24=IFCCARTESIANPOINT((0.,0.,0.));
#25=IFCAXIS2PLACEMENT3D(#24,$,$);
#26=IFCAXIS2PLACEMENT3D(#27,$,$);
#27=IFCCARTESIANPOINT((0.,0.,2500.));
#30=IFCPRODUCTDEFINITIONSHAPE($,$,(#31));
#31=IFCSHAPEREPRESENTATION(#32,'Body','Brep',(#36));
#32=IFCGEOMETRICREPRESENTATIONSUBCONTEXT('Body','Model',*,*,*,*,#33,$,.MODEL_VIEW.,$);
#33=IFCGEOMETRICREPRESENTATIONCONTEXT($,'Model',3,0.01,#34,#35);
#34=IFCAXIS2PLACEMENT3D(#24,$,$);
#35=IFCDIRECTION((0.,1.));
#36=IFCFACETEDBREP(#37);
#37=IFCCLOSEDSHELL((#38,#45,#50,#55,#66,#75,#80,#85,#108,#113,#118,#139,#157,#162,#167,#176,#185,#190,#197,#202,#209,#212,#218,#223,#226,#231,#234,#237,#240,#243,#246,#250,#254,#257,#260,#263,#266,#269,#272,#276,#279,#282,#286,#289,#292,#295,#299,#302,#305,#308,#312,#315,#318,#321,#324,#327,#330,#334,#337,#340,#343,#348,#355,#360,#367,#370,#376,#381,#384,#389,#392,#395,#398,#401,#404,#408,#412,#415,#418,#421,#424,#427,#430,#434,#437,#440,#444,#447,#450,#453,#457,#460,#463,#466,#470,#473,#476,#479,#482,#485,#488,#492,#495,#498,#501,#512,#523,#529,#535,#541,#546,#551,#557,#563,#567,#572,#575,#578,#582,#588,#592,#596,#602,#607,#612,#616,#619,#624,#627,#631,#635,#639,#642,#645,#649,#652,#655,#658,#662,#665,#668,#671,#674,#677,#681,#684,#687,#691,#694,#698,#701,#705,#709,#712,#715,#718,#721,#724,#730,#734,#737,#741,#745,#748,#751,#754,#757,#760,#763,#766,#769,#772,#775,#779,#782,#785,#788,#792,#795,#798,#801,#804,#807,#810,#813,#817,#821,#824,#827,#830,#833,#836,#839,#842,#845,#849,#852,#855,#858,#861,#864,#867,#870,#873,#876,#879,#882,#885,#888,#891,#894,#897,#900,#903,#906,#909,#912,#915,#918,#921,#924,#927,#930,#933,#936,#939,#942,#945,#948,#951,#954,#957,#960,#963,#966,#969,#972,#975,#978,#981,#984,#987,#990,#993,#996,#999,#1002,#1005,#1008,#1011,#1014,#1017,#1020,#1023,#1026,#1032,#1038,#1044,#1049,#1054,#1060,#1066,#1070,#1075,#1078,#1081,#1085,#1091,#1095,#1099,#1105,#1110,#1115,#1119,#1122,#1127,#1130,#1134,#1138,#1142,#1145,#1148,#1152,#1155,#1158,#1161,#1165,#1168,#1171,#1174,#1177,#1180,#1184,#1187,#1190,#1194,#1197,#1201,#1204,#1208,#1212,#1215,#1218,#1221,#1224,#1227,#1233,#1237,#1240,#1244,#1248,#1251,#1254,#1257,#1260,#1263,#1266,#1269,#1272,#1275,#1278,#1282,#1285,#1288,#1291,#1295,#1298,#1301,#1304,#1307,#1310,#1313,#1316,#1320,#1324,#1327,#1330,#1333,#1336,#1339,#1342,#1345,#1348,#1352,#1355,#1358,#1361,#1364,#1367,#1370,#1373,#1376,#1379,#1382,#1385,#1388,#1391,#1394,#1397,#1400,#1403,#1406,#1409,#1412,#1415,#1418,#1421,#1424,#1427,#1430,#1433,#1436,#1439,#1442,#1445,#1448,#1451,#1454,#1457,#1460,#1463,#1466,#1469,#1472,#1475,#1478,#1481,#1484,#1487,#1490,#1493,#1496,#1499,#1502,#1505,#1508,#1511,#1514,#1517,#1520,#1523,#1526,#1529,#1532,#1535,#1542,#1549,#1554,#1558,#1561,#1564,#1567,#1571,#1575,#1579,#1582,#1586,#1589,#1592,#1596,#1599,#1602,#1605,#1608,#1611,#1614,#1617,#1620,#1623,#1626,#1629,#1632,#1635,#1638,#1641,#1644,#1649,#1653,#1656,#1659,#1662,#1666,#1670,#1674,#1677,#1681,#1684,#1687,#1691,#1694,#1697,#1700,#1703,#1706,#1709,#1712,#1715,#1718,#1721,#1724,#1727,#1730,#1733,#1736,#1739,#1742,#1745,#1748,#1751,#1754));
#38=IFCFACE((#39));
#39=IFCFACEOUTERBOUND(#40,.T.);
#40=IFCPOLYLOOP((#41,#42,#43,#44));
#41=IFCCARTESIANPOINT((16724.78249433358,200.,400.));
#42=IFCCARTESIANPOINT((16724.78249433358,200.,-0.));
#43=IFCCARTESIANPOINT((16724.782494333587,5400.,0.));
#44=IFCCARTESIANPOINT((16724.782494333587,5400.,400.));
#45=IFCFACE((#46));
#46=IFCFACEOUTERBOUND(#47,.T.);
#47=IFCPOLYLOOP((#48,#49,#42,#41));
#48=IFCCARTESIANPOINT((14024.782494333584,200.,400.));
#49=IFCCARTESIANPOINT((14024.782494333584,200.,0.));
#50=IFCFACE((#51));
#51=IFCFACEOUTERBOUND(#52,.T.);
#52=IFCPOLYLOOP((#53,#54,#49,#48));
#53=IFCCARTESIANPOINT((14024.782494333584,723.67998196891222,1200.));
#54=IFCCARTESIANPOINT((14024.782494333584,723.67998196891222,800.));
#55=IFCFACE((#56));
#56=IFCFACEOUTERBOUND(#57,.T.);
#57=IFCPOLYLOOP((#58,#59,#60,#61,#62,#54,#53,#63,#64,#65));
#58=IFCCARTESIANPOINT((10600.,723.67998196892222,800.));
#59=IFCCARTESIANPOINT((10600.,723.67998196892222,400.));
#60=IFCCARTESIANPOINT((11362.711482132501,723.67998196891949,489.08145067833311));
#61=IFCCARTESIANPOINT((12125.423068940276,723.67998196891767,578.16291358229364));
#62=IFCCARTESIANPOINT((13262.071012201101,723.67998196891403,710.9185493216678));
#63=IFCCARTESIANPOINT((13262.071012201101,723.67998196891403,1110.9185493216673));
#64=IFCCARTESIANPOINT((12125.423068940276,723.67998196891767,978.16291358229364));
#65=IFCCARTESIANPOINT((11362.711482132503,723.6799819689204,889.08145067833311));
#66=IFCFACE((#67));
#67=IFCFACEOUTERBOUND(#68,.T.);
#68=IFCPOLYLOOP((#69,#70,#71,#59,#58,#72,#73,#74));
#69=IFCCARTESIANPOINT((10600.,5562.5346136066146,800.));
#70=IFCCARTESIANPOINT((10600.,4309.4212475475379,696.41239826748324));
#71=IFCCARTESIANPOINT((10600.,3056.3070617405619,592.82472877117016));
#72=IFCCARTESIANPOINT((10600.,3056.3070617405619,992.8247287711697));
#73=IFCCARTESIANPOINT((10600.,4309.4212475475379,1096.4123982674832));
#74=IFCCARTESIANPOINT((10600.,5562.5346136066146,1200.));
#75=IFCFACE((#76));
#76=IFCFACEOUTERBOUND(#77,.T.);
#77=IFCPOLYLOOP((#78,#79,#69,#74));
#78=IFCCARTESIANPOINT((3785.7767960985138,5562.5346136066364,1200.));
#79=IFCCARTESIANPOINT((3785.7767960985138,5562.5346136066364,800.));
#80=IFCFACE((#81));
#81=IFCFACEOUTERBOUND(#82,.T.);
#82=IFCPOLYLOOP((#83,#84,#79,#78));
#83=IFCCARTESIANPOINT((3785.776796098512,4030.3018631710966,800.));
#84=IFCCARTESIANPOINT((3785.776796098512,4030.3018631710966,400.));
#85=IFCFACE((#86));
#86=IFCFACEOUTERBOUND(#87,.T.);
#87=IFCPOLYLOOP((#88,#89,#90,#91,#92,#93,#94,#95,#96,#97,#98,#99,#100,#101,#102,#103,#104,#105,#106,#107));
#88=IFCCARTESIANPOINT((3785.7767960985066,0.,400.));
#89=IFCCARTESIANPOINT((3785.7767960985066,0.,0.));
#90=IFCCARTESIANPOINT((3785.7767960985075,74.633970223389042,0.));
#91=IFCCARTESIANPOINT((3785.7767960985075,111.95095533508356,0.));
#92=IFCCARTESIANPOINT((3785.7767960985075,149.26794044677808,0.));
#93=IFCCARTESIANPOINT((3785.7767960985075,223.90191067016713,0.));
#94=IFCCARTESIANPOINT((3785.7767960985075,298.53588089355435,0.));
#95=IFCCARTESIANPOINT((3785.7767960985075,346.4773764629399,0.));
#96=IFCCARTESIANPOINT((3785.7767960985075,394.41887203232545,0.));
#97=IFCCARTESIANPOINT((3785.7767960985075,442.360367601711,0.));
#98=IFCCARTESIANPOINT((3785.7767960985075,490.30186317109656,0.));
#99=IFCCARTESIANPOINT((3785.7767960985075,490.30186317109656,400.));
#100=IFCCARTESIANPOINT((3785.7767960985075,442.360367601711,400.));
#101=IFCCARTESIANPOINT((3785.7767960985075,394.41887203232545,400.));
#102=IFCCARTESIANPOINT((3785.7767960985075,346.4773764629399,400.));
#103=IFCCARTESIANPOINT((3785.7767960985075,298.53588089355435,400.));
#104=IFCCARTESIANPOINT((3785.7767960985075,223.90191067016713,400.));
#105=IFCCARTESIANPOINT((3785.7767960985075,149.26794044677808,400.));
#106=IFCCARTESIANPOINT((3785.7767960985075,111.95095533508356,400.));
#107=IFCCARTESIANPOINT((3785.7767960985075,74.633970223389042,400.));
#108=IFCFACE((#109));
#109=IFCFACEOUTERBOUND(#110,.T.);
#110=IFCPOLYLOOP((#111,#112,#84,#83));
#111=IFCCARTESIANPOINT((2725.776796098512,4030.3018631710997,1200.));
#112=IFCCARTESIANPOINT((2725.776796098512,4030.3018631710997,800.));
#113=IFCFACE((#114));
#114=IFCFACEOUTERBOUND(#115,.T.);
#115=IFCPOLYLOOP((#116,#117,#112,#111));
#116=IFCCARTESIANPOINT((2725.7767960985084,490.30186317110019,1200.));
#117=IFCCARTESIANPOINT((2725.7767960985084,490.30186317110019,800.));
#118=IFCFACE((#119));
#119=IFCFACEOUTERBOUND(#120,.T.);
#120=IFCPOLYLOOP((#99,#98,#121,#122,#123,#124,#125,#126,#127,#128,#129,#117,#116,#130,#131,#132,#133,#134,#135,#136,#137,#138));
#121=IFCCARTESIANPOINT((3682.1304841344236,490.30186317109656,78.223631671006387));
#122=IFCCARTESIANPOINT((3578.4841546477428,490.30186317109838,156.44727656661553));
#123=IFCCARTESIANPOINT((3474.8378251610602,490.30186317109838,234.67092146222421));
#124=IFCCARTESIANPOINT((3371.1915131969763,490.30186317109928,312.89455313323106));
#125=IFCCARTESIANPOINT((3255.7767960985075,490.30186317109928,400.));
#126=IFCCARTESIANPOINT((3140.3620790000386,490.30186317109928,487.1054468667694));
#127=IFCCARTESIANPOINT((3036.7157670359557,490.30186317109928,565.32907853777579));
#128=IFCCARTESIANPOINT((2933.0694375492731,490.30186317109928,643.55272343338538));
#129=IFCCARTESIANPOINT((2829.4231080625905,490.30186317110019,721.77636832899407));
#130=IFCCARTESIANPOINT((2829.4231080625905,490.30186317110019,1121.7763683289936));
#131=IFCCARTESIANPOINT((2933.0694375492731,490.30186317109928,1043.5527234333849));
#132=IFCCARTESIANPOINT((3036.7157670359557,490.30186317109928,965.32907853777624));
#133=IFCCARTESIANPOINT((3140.3620790000386,490.30186317109928,887.1054468667694));
#134=IFCCARTESIANPOINT((3255.7767960985075,490.30186317109928,800.));
#135=IFCCARTESIANPOINT((3371.1915131969763,490.30186317109928,712.89455313323106));
#136=IFCCARTESIANPOINT((3474.8378251610602,490.30186317109838,634.67092146222512));
#137=IFCCARTESIANPOINT((3578.4841546477428,490.30186317109838,556.44727656661553));
#138=IFCCARTESIANPOINT((3682.1304841344236,490.30186317109656,478.22363167100639));
#139=IFCFACE((#140));
#140=IFCFACEOUTERBOUND(#141,.T.);
#141=IFCPOLYLOOP((#24,#142,#143,#144,#145,#146,#147,#148,#89,#88,#149,#150,#151,#152,#153,#154,#155,#156));
#142=IFCCARTESIANPOINT((370.17155170986462,0.,0.));
#143=IFCCARTESIANPOINT((740.34310341972741,0.,0.));
#144=IFCCARTESIANPOINT((1110.5146551295902,0.,0.));
#145=IFCCARTESIANPOINT((1480.6862068394521,0.,0.));
#146=IFCCARTESIANPOINT((2056.9588541542153,0.,0.));
#147=IFCCARTESIANPOINT((2633.2315014689802,0.,0.));
#148=IFCCARTESIANPOINT((3209.5041487837443,0.,0.));
#149=IFCCARTESIANPOINT((3209.5041487837452,0.,400.));
#150=IFCCARTESIANPOINT((2633.2315014689802,0.,400.));
#151=IFCCARTESIANPOINT((2056.9588541542153,0.,400.));
#152=IFCCARTESIANPOINT((1480.6862068394521,0.,400.));
#153=IFCCARTESIANPOINT((1110.5146551295902,0.,400.));
#154=IFCCARTESIANPOINT((740.34310341972741,0.,400.));
#155=IFCCARTESIANPOINT((370.17155170986462,0.,400.));
#156=IFCCARTESIANPOINT((0.,0.,400.));
#157=IFCFACE((#158));
#158=IFCFACEOUTERBOUND(#159,.T.);
#159=IFCPOLYLOOP((#160,#161,#24,#156));
#160=IFCCARTESIANPOINT((0.,6500.,400.));
#161=IFCCARTESIANPOINT((0.,6500.,0.));
#162=IFCFACE((#163));
#163=IFCFACEOUTERBOUND(#164,.T.);
#164=IFCPOLYLOOP((#165,#166,#161,#160));
#165=IFCCARTESIANPOINT((12000.,6500.,400.));
#166=IFCCARTESIANPOINT((12000.,6500.,0.));
#167=IFCFACE((#168));
#168=IFCFACEOUTERBOUND(#169,.T.);
#169=IFCPOLYLOOP((#170,#171,#172,#166,#165,#173,#174,#175));
#170=IFCCARTESIANPOINT((12000.,5400.,0.));
#171=IFCCARTESIANPOINT((12000.,5675.,0.));
#172=IFCCARTESIANPOINT((12000.,5950.,0.));
#173=IFCCARTESIANPOINT((12000.,5950.,400.));
#174=IFCCARTESIANPOINT((12000.,5675.,400.));
#175=IFCCARTESIANPOINT((12000.,5400.,400.));
#176=IFCFACE((#177));
#177=IFCFACEOUTERBOUND(#178,.T.);
#178=IFCPOLYLOOP((#44,#43,#179,#180,#181,#170,#175,#182,#183,#184));
#179=IFCCARTESIANPOINT((15672.556240740711,5400.,0.));
#180=IFCCARTESIANPOINT((14620.329987147832,5400.,0.));
#181=IFCCARTESIANPOINT((13310.164993573931,5400.,0.));
#182=IFCCARTESIANPOINT((13310.164993573931,5400.,400.));
#183=IFCCARTESIANPOINT((14620.329987147832,5400.,400.));
#184=IFCCARTESIANPOINT((15672.556240740711,5400.,400.));
#185=IFCFACE((#186));
#186=IFCFACEOUTERBOUND(#187,.T.);
#187=IFCPOLYLOOP((#188,#189,#64));
#188=IFCCARTESIANPOINT((13393.459687478186,1568.3607988156155,955.2785770499122));
#189=IFCCARTESIANPOINT((12687.93838706827,1646.4191189235125,879.08102270698873));
#190=IFCFACE((#191));
#191=IFCFACEOUTERBOUND(#192,.T.);
#192=IFCPOLYLOOP((#193,#194,#195,#196));
#193=IFCCARTESIANPOINT((11745.464629125549,2285.8300559068275,713.16323709318613));
#194=IFCCARTESIANPOINT((11223.570188385087,2806.5469495349407,621.83708903284059));
#195=IFCCARTESIANPOINT((11083.408957029402,2338.3763981488992,661.88315513446423));
#196=IFCCARTESIANPOINT((10911.785094192554,1765.1134657519324,710.9185445164203));
#197=IFCFACE((#198));
#198=IFCFACEOUTERBOUND(#199,.T.);
#199=IFCPOLYLOOP((#188,#200,#201));
#200=IFCCARTESIANPOINT((14626.082310616572,1765.113451495763,1021.8370914717079));
#201=IFCCARTESIANPOINT((14234.684482398017,2285.8300787969292,884.98588358260395));
#202=IFCFACE((#203));
#203=IFCFACEOUTERBOUND(#204,.T.);
#204=IFCPOLYLOOP((#205,#206,#207,#208,#194));
#205=IFCCARTESIANPOINT((12139.411879738211,3279.4677107958923,615.34577497711734));
#206=IFCCARTESIANPOINT((11611.785094192564,4103.2734747674403,510.9185445164203));
#207=IFCCARTESIANPOINT((11516.591042970656,3785.3035838199658,538.11684486553622));
#208=IFCCARTESIANPOINT((11300.,3061.839990984432,600.));
#209=IFCFACE((#210));
#210=IFCFACEOUTERBOUND(#211,.T.);
#211=IFCPOLYLOOP((#188,#63,#200));
#212=IFCFACE((#213));
#213=IFCFACEOUTERBOUND(#214,.T.);
#214=IFCPOLYLOOP((#215,#216,#217));
#215=IFCCARTESIANPOINT((15227.38212689956,2806.5469210226156,843.67418294341587));
#216=IFCCARTESIANPOINT((16123.482678050601,4358.5665304730737,578.16290852829297));
#217=IFCCARTESIANPOINT((14647.324234457257,3622.6911692357853,666.27572936660226));
#218=IFCFACE((#219));
#219=IFCFACEOUTERBOUND(#220,.T.);
#220=IFCPOLYLOOP((#221,#184,#222));
#221=IFCCARTESIANPOINT((15554.539271190491,4641.404045987636,519.25034513191395));
#222=IFCCARTESIANPOINT((14731.015386469371,4542.5829656748356,522.18233582803623));
#223=IFCFACE((#224));
#224=IFCFACEOUTERBOUND(#225,.T.);
#225=IFCPOLYLOOP((#215,#201,#200));
#226=IFCFACE((#227));
#227=IFCFACEOUTERBOUND(#228,.T.);
#228=IFCPOLYLOOP((#217,#229,#230));
#229=IFCCARTESIANPOINT((13904.708127574904,3770.3346904729124,617.47351338243152));
#230=IFCCARTESIANPOINT((13486.826626280665,2413.4764873373706,811.63480708071347));
#231=IFCFACE((#232));
#232=IFCFACEOUTERBOUND(#233,.T.);
#233=IFCPOLYLOOP((#63,#53,#200));
#234=IFCFACE((#235));
#235=IFCFACEOUTERBOUND(#236,.T.);
#236=IFCPOLYLOOP((#201,#217,#230));
#237=IFCFACE((#238));
#238=IFCFACEOUTERBOUND(#239,.T.);
#239=IFCPOLYLOOP((#201,#230,#188));
#240=IFCFACE((#241));
#241=IFCFACEOUTERBOUND(#242,.T.);
#242=IFCPOLYLOOP((#184,#183,#222));
#243=IFCFACE((#244));
#244=IFCFACEOUTERBOUND(#245,.T.);
#245=IFCPOLYLOOP((#217,#201,#215));
#246=IFCFACE((#247));
#247=IFCFACEOUTERBOUND(#248,.T.);
#248=IFCPOLYLOOP((#229,#222,#249));
#249=IFCCARTESIANPOINT((13876.175691049606,4578.4955636262257,503.43351633523343));
#250=IFCFACE((#251));
#251=IFCFACEOUTERBOUND(#252,.T.);
#252=IFCPOLYLOOP((#182,#253,#249));
#253=IFCCARTESIANPOINT((13077.699839924884,4574.9627999698168,491.36731349467709));
#254=IFCFACE((#255));
#255=IFCFACEOUTERBOUND(#256,.T.);
#256=IFCPOLYLOOP((#193,#205,#194));
#257=IFCFACE((#258));
#258=IFCFACEOUTERBOUND(#259,.T.);
#259=IFCPOLYLOOP((#44,#184,#221));
#260=IFCFACE((#261));
#261=IFCFACEOUTERBOUND(#262,.T.);
#262=IFCPOLYLOOP((#222,#183,#249));
#263=IFCFACE((#264));
#264=IFCFACEOUTERBOUND(#265,.T.);
#265=IFCPOLYLOOP((#221,#217,#216));
#266=IFCFACE((#267));
#267=IFCFACEOUTERBOUND(#268,.T.);
#268=IFCPOLYLOOP((#189,#188,#230));
#269=IFCFACE((#270));
#270=IFCFACEOUTERBOUND(#271,.T.);
#271=IFCPOLYLOOP((#64,#63,#188));
#272=IFCFACE((#273));
#273=IFCFACEOUTERBOUND(#274,.T.);
#274=IFCPOLYLOOP((#230,#229,#275));
#275=IFCCARTESIANPOINT((12636.159674100852,2654.0852358845814,721.33883665674693));
#276=IFCFACE((#277));
#277=IFCFACEOUTERBOUND(#278,.T.);
#278=IFCPOLYLOOP((#189,#65,#64));
#279=IFCFACE((#280));
#280=IFCFACEOUTERBOUND(#281,.T.);
#281=IFCPOLYLOOP((#189,#230,#275));
#282=IFCFACE((#283));
#283=IFCFACEOUTERBOUND(#284,.T.);
#284=IFCPOLYLOOP((#189,#193,#285));
#285=IFCCARTESIANPOINT((11414.453080433159,1480.1037187074389,789.53397613041989));
#286=IFCFACE((#287));
#287=IFCFACEOUTERBOUND(#288,.T.);
#288=IFCPOLYLOOP((#285,#193,#196));
#289=IFCFACE((#290));
#290=IFCFACEOUTERBOUND(#291,.T.);
#291=IFCPOLYLOOP((#189,#275,#193));
#292=IFCFACE((#293));
#293=IFCFACEOUTERBOUND(#294,.T.);
#294=IFCPOLYLOOP((#58,#65,#285));
#295=IFCFACE((#296));
#296=IFCFACEOUTERBOUND(#297,.T.);
#297=IFCPOLYLOOP((#253,#298,#249));
#298=IFCCARTESIANPOINT((13095.687417804747,3816.7116136117165,585.04573072179755));
#299=IFCFACE((#300));
#300=IFCFACEOUTERBOUND(#301,.T.);
#301=IFCPOLYLOOP((#205,#275,#298));
#302=IFCFACE((#303));
#303=IFCFACEOUTERBOUND(#304,.T.);
#304=IFCPOLYLOOP((#275,#205,#193));
#305=IFCFACE((#306));
#306=IFCFACEOUTERBOUND(#307,.T.);
#307=IFCPOLYLOOP((#205,#298,#253));
#308=IFCFACE((#309));
#309=IFCFACEOUTERBOUND(#310,.T.);
#310=IFCPOLYLOOP((#253,#175,#311,#206));
#311=IFCCARTESIANPOINT((11758.295521485348,4592.6517919099542,469.05842243276811));
#312=IFCFACE((#313));
#313=IFCFACEOUTERBOUND(#314,.T.);
#314=IFCPOLYLOOP((#182,#249,#183));
#315=IFCFACE((#316));
#316=IFCFACEOUTERBOUND(#317,.T.);
#317=IFCPOLYLOOP((#229,#249,#298));
#318=IFCFACE((#319));
#319=IFCFACEOUTERBOUND(#320,.T.);
#320=IFCPOLYLOOP((#229,#298,#275));
#321=IFCFACE((#322));
#322=IFCFACEOUTERBOUND(#323,.T.);
#323=IFCPOLYLOOP((#222,#229,#217));
#324=IFCFACE((#325));
#325=IFCFACEOUTERBOUND(#326,.T.);
#326=IFCPOLYLOOP((#175,#253,#182));
#327=IFCFACE((#328));
#328=IFCFACEOUTERBOUND(#329,.T.);
#329=IFCPOLYLOOP((#205,#253,#206));
#330=IFCFACE((#331));
#331=IFCFACEOUTERBOUND(#332,.T.);
#332=IFCPOLYLOOP((#285,#196,#333,#58));
#333=IFCCARTESIANPOINT((10841.704478514712,1531.0281900589116,730.94157756723234));
#334=IFCFACE((#335));
#335=IFCFACEOUTERBOUND(#336,.T.);
#336=IFCPOLYLOOP((#189,#285,#65));
#337=IFCFACE((#338));
#338=IFCFACEOUTERBOUND(#339,.T.);
#339=IFCPOLYLOOP((#217,#221,#222));
#340=IFCFACE((#341));
#341=IFCFACEOUTERBOUND(#342,.T.);
#342=IFCPOLYLOOP((#44,#221,#216));
#343=IFCFACE((#344));
#344=IFCFACEOUTERBOUND(#345,.T.);
#345=IFCPOLYLOOP((#61,#346,#347));
#346=IFCCARTESIANPOINT((12687.93838706827,1646.4191189235116,479.08102270698873));
#347=IFCCARTESIANPOINT((13393.459687478186,1568.3607988156155,555.27857704991311));
#348=IFCFACE((#349));
#349=IFCFACEOUTERBOUND(#350,.T.);
#350=IFCPOLYLOOP((#351,#352,#353,#354));
#351=IFCCARTESIANPOINT((11745.464629125549,2285.8300559068275,313.16323709318613));
#352=IFCCARTESIANPOINT((10911.785094192554,1765.1134657519315,310.9185445164203));
#353=IFCCARTESIANPOINT((11083.408957029402,2338.3763981488992,261.88315513446423));
#354=IFCCARTESIANPOINT((11223.570188385087,2806.5469495349398,221.83708903284059));
#355=IFCFACE((#356));
#356=IFCFACEOUTERBOUND(#357,.T.);
#357=IFCPOLYLOOP((#358,#359,#347));
#358=IFCCARTESIANPOINT((14234.684482398017,2285.8300787969292,484.98588358260395));
#359=IFCCARTESIANPOINT((14626.082310616572,1765.113451495763,621.83709147170794));
#360=IFCFACE((#361));
#361=IFCFACEOUTERBOUND(#362,.T.);
#362=IFCPOLYLOOP((#363,#354,#364,#365,#366));
#363=IFCCARTESIANPOINT((12139.411879738211,3279.4677107958914,215.34577497711734));
#364=IFCCARTESIANPOINT((11300.,3061.839990984432,200.));
#365=IFCCARTESIANPOINT((11516.591042970656,3785.3035838199658,138.11684486553622));
#366=IFCCARTESIANPOINT((11611.785094192563,4103.2734747674403,110.9185445164203));
#367=IFCFACE((#368));
#368=IFCFACEOUTERBOUND(#369,.T.);
#369=IFCPOLYLOOP((#359,#62,#347));
#370=IFCFACE((#371));
#371=IFCFACEOUTERBOUND(#372,.T.);
#372=IFCPOLYLOOP((#373,#374,#375));
#373=IFCCARTESIANPOINT((14647.324234457257,3622.6911692357853,266.27572936660226));
#374=IFCCARTESIANPOINT((16123.482678050601,4358.5665304730737,178.16290852829297));
#375=IFCCARTESIANPOINT((15227.382126899558,2806.5469210226156,443.67418294341587));
#376=IFCFACE((#377));
#377=IFCFACEOUTERBOUND(#378,.T.);
#378=IFCPOLYLOOP((#379,#179,#380));
#379=IFCCARTESIANPOINT((14731.015386469371,4542.5829656748356,122.18233582803578));
#380=IFCCARTESIANPOINT((15554.539271190491,4641.404045987636,119.25034513191395));
#381=IFCFACE((#382));
#382=IFCFACEOUTERBOUND(#383,.T.);
#383=IFCPOLYLOOP((#359,#358,#375));
#384=IFCFACE((#385));
#385=IFCFACEOUTERBOUND(#386,.T.);
#386=IFCPOLYLOOP((#387,#388,#373));
#387=IFCCARTESIANPOINT((13486.826626280665,2413.4764873373706,411.63480708071347));
#388=IFCCARTESIANPOINT((13904.708127574904,3770.3346904729115,217.47351338243152));
#389=IFCFACE((#390));
#390=IFCFACEOUTERBOUND(#391,.T.);
#391=IFCPOLYLOOP((#359,#54,#62));
#392=IFCFACE((#393));
#393=IFCFACEOUTERBOUND(#394,.T.);
#394=IFCPOLYLOOP((#387,#373,#358));
#395=IFCFACE((#396));
#396=IFCFACEOUTERBOUND(#397,.T.);
#397=IFCPOLYLOOP((#347,#387,#358));
#398=IFCFACE((#399));
#399=IFCFACEOUTERBOUND(#400,.T.);
#400=IFCPOLYLOOP((#379,#180,#179));
#401=IFCFACE((#402));
#402=IFCFACEOUTERBOUND(#403,.T.);
#403=IFCPOLYLOOP((#375,#358,#373));
#404=IFCFACE((#405));
#405=IFCFACEOUTERBOUND(#406,.T.);
#406=IFCPOLYLOOP((#407,#379,#388));
#407=IFCCARTESIANPOINT((13876.175691049606,4578.4955636262257,103.43351633523343));
#408=IFCFACE((#409));
#409=IFCFACEOUTERBOUND(#410,.T.);
#410=IFCPOLYLOOP((#407,#411,#181));
#411=IFCCARTESIANPOINT((13077.699839924884,4574.9627999698168,91.367313494677092));
#412=IFCFACE((#413));
#413=IFCFACEOUTERBOUND(#414,.T.);
#414=IFCPOLYLOOP((#354,#363,#351));
#415=IFCFACE((#416));
#416=IFCFACEOUTERBOUND(#417,.T.);
#417=IFCPOLYLOOP((#380,#179,#43));
#418=IFCFACE((#419));
#419=IFCFACEOUTERBOUND(#420,.T.);
#420=IFCPOLYLOOP((#407,#180,#379));
#421=IFCFACE((#422));
#422=IFCFACEOUTERBOUND(#423,.T.);
#423=IFCPOLYLOOP((#374,#373,#380));
#424=IFCFACE((#425));
#425=IFCFACEOUTERBOUND(#426,.T.);
#426=IFCPOLYLOOP((#387,#347,#346));
#427=IFCFACE((#428));
#428=IFCFACEOUTERBOUND(#429,.T.);
#429=IFCPOLYLOOP((#347,#62,#61));
#430=IFCFACE((#431));
#431=IFCFACEOUTERBOUND(#432,.T.);
#432=IFCPOLYLOOP((#433,#388,#387));
#433=IFCCARTESIANPOINT((12636.159674100852,2654.0852358845814,321.33883665674603));
#434=IFCFACE((#435));
#435=IFCFACEOUTERBOUND(#436,.T.);
#436=IFCPOLYLOOP((#61,#60,#346));
#437=IFCFACE((#438));
#438=IFCFACEOUTERBOUND(#439,.T.);
#439=IFCPOLYLOOP((#433,#387,#346));
#440=IFCFACE((#441));
#441=IFCFACEOUTERBOUND(#442,.T.);
#442=IFCPOLYLOOP((#443,#351,#346));
#443=IFCCARTESIANPOINT((11414.453080433159,1480.1037187074389,389.53397613041989));
#444=IFCFACE((#445));
#445=IFCFACEOUTERBOUND(#446,.T.);
#446=IFCPOLYLOOP((#352,#351,#443));
#447=IFCFACE((#448));
#448=IFCFACEOUTERBOUND(#449,.T.);
#449=IFCPOLYLOOP((#351,#433,#346));
#450=IFCFACE((#451));
#451=IFCFACEOUTERBOUND(#452,.T.);
#452=IFCPOLYLOOP((#443,#60,#59));
#453=IFCFACE((#454));
#454=IFCFACEOUTERBOUND(#455,.T.);
#455=IFCPOLYLOOP((#407,#456,#411));
#456=IFCCARTESIANPOINT((13095.687417804747,3816.7116136117165,185.04573072179755));
#457=IFCFACE((#458));
#458=IFCFACEOUTERBOUND(#459,.T.);
#459=IFCPOLYLOOP((#456,#433,#363));
#460=IFCFACE((#461));
#461=IFCFACEOUTERBOUND(#462,.T.);
#462=IFCPOLYLOOP((#351,#363,#433));
#463=IFCFACE((#464));
#464=IFCFACEOUTERBOUND(#465,.T.);
#465=IFCPOLYLOOP((#411,#456,#363));
#466=IFCFACE((#467));
#467=IFCFACEOUTERBOUND(#468,.T.);
#468=IFCPOLYLOOP((#411,#366,#469,#170));
#469=IFCCARTESIANPOINT((11758.295521485348,4592.6517919099542,69.058422432768111));
#470=IFCFACE((#471));
#471=IFCFACEOUTERBOUND(#472,.T.);
#472=IFCPOLYLOOP((#180,#407,#181));
#473=IFCFACE((#474));
#474=IFCFACEOUTERBOUND(#475,.T.);
#475=IFCPOLYLOOP((#456,#407,#388));
#476=IFCFACE((#477));
#477=IFCFACEOUTERBOUND(#478,.T.);
#478=IFCPOLYLOOP((#433,#456,#388));
#479=IFCFACE((#480));
#480=IFCFACEOUTERBOUND(#481,.T.);
#481=IFCPOLYLOOP((#373,#388,#379));
#482=IFCFACE((#483));
#483=IFCFACEOUTERBOUND(#484,.T.);
#484=IFCPOLYLOOP((#181,#411,#170));
#485=IFCFACE((#486));
#486=IFCFACEOUTERBOUND(#487,.T.);
#487=IFCPOLYLOOP((#366,#411,#363));
#488=IFCFACE((#489));
#489=IFCFACEOUTERBOUND(#490,.T.);
#490=IFCPOLYLOOP((#443,#59,#491,#352));
#491=IFCCARTESIANPOINT((10841.704478514712,1531.0281900589116,330.94157756723234));
#492=IFCFACE((#493));
#493=IFCFACEOUTERBOUND(#494,.T.);
#494=IFCPOLYLOOP((#60,#443,#346));
#495=IFCFACE((#496));
#496=IFCFACEOUTERBOUND(#497,.T.);
#497=IFCPOLYLOOP((#379,#380,#373));
#498=IFCFACE((#499));
#499=IFCFACEOUTERBOUND(#500,.T.);
#500=IFCPOLYLOOP((#374,#380,#43));
#501=IFCFACE((#502));
#502=IFCFACEOUTERBOUND(#503,.T.);
#503=IFCPOLYLOOP((#111,#160,#156,#504,#505,#506,#507,#508,#509,#510,#511,#116));
#504=IFCCARTESIANPOINT((266.52522238179426,47.941494440394308,478.22363819760449));
#505=IFCCARTESIANPOINT((533.05044476358853,95.882988880778612,556.44727639520897));
#506=IFCCARTESIANPOINT((829.83795328566703,149.26794270478968,643.55272360479103));
#507=IFCCARTESIANPOINT((1244.7569299284978,223.90191405717815,765.32908540718654));
#508=IFCCARTESIANPOINT((1659.6759065713322,298.53588540956753,887.10544720958205));
#509=IFCCARTESIANPOINT((1926.2011289531256,346.47737984995092,965.32908540718745));
#510=IFCCARTESIANPOINT((2192.7263513349199,394.41887429033432,1043.5527236047915));
#511=IFCCARTESIANPOINT((2459.2515737167141,442.3603687307168,1121.7763618023964));
#512=IFCFACE((#513));
#513=IFCFACEOUTERBOUND(#514,.T.);
#514=IFCPOLYLOOP((#24,#161,#112,#117,#515,#516,#517,#518,#519,#520,#521,#522));
#515=IFCCARTESIANPOINT((2459.2515737167141,442.36036873071771,721.77636180239551));
#516=IFCCARTESIANPOINT((2192.7263513349199,394.41887429033341,643.55272360479103));
#517=IFCCARTESIANPOINT((1926.2011289531256,346.47737984995092,565.32908540718654));
#518=IFCCARTESIANPOINT((1659.6759065713313,298.53588540956753,487.10544720958205));
#519=IFCCARTESIANPOINT((1244.7569299284978,223.90191405717815,365.32908540718654));
#520=IFCCARTESIANPOINT((829.83795328566703,149.26794270478968,243.55272360479103));
#521=IFCCARTESIANPOINT((533.05044476358853,95.882988880777702,156.44727639520897));
#522=IFCCARTESIANPOINT((266.52522238179426,47.941494440394308,78.223638197604487));
#523=IFCFACE((#524));
#524=IFCFACEOUTERBOUND(#525,.T.);
#525=IFCPOLYLOOP((#526,#527,#528));
#526=IFCCARTESIANPOINT((2931.2121050920505,373.53906891919723,704.74212761443778));
#527=IFCCARTESIANPOINT((2802.7057494279379,309.34501757958697,640.17196712628993));
#528=IFCCARTESIANPOINT((3008.1831379593323,313.7892228241144,595.03384214974039));
#529=IFCFACE((#530));
#530=IFCFACEOUTERBOUND(#531,.T.);
#531=IFCPOLYLOOP((#532,#533,#534));
#532=IFCCARTESIANPOINT((3417.2321401783302,381.6952701582868,537.9545126523426));
#533=IFCCARTESIANPOINT((3388.2629434762594,439.72396642200874,612.65281319834094));
#534=IFCCARTESIANPOINT((3179.4607817677688,378.77310756493807,623.04230809005003));
#535=IFCFACE((#536));
#536=IFCFACEOUTERBOUND(#537,.T.);
#537=IFCPOLYLOOP((#538,#539,#540));
#538=IFCCARTESIANPOINT((2258.0324450383687,264.69229602170799,685.10712969524411));
#539=IFCCARTESIANPOINT((2171.797185603511,220.19011347069591,626.3610138626882));
#540=IFCCARTESIANPOINT((2518.8906078947366,282.16341361207651,663.07234780359204));
#541=IFCFACE((#542));
#542=IFCFACEOUTERBOUND(#543,.T.);
#543=IFCPOLYLOOP((#544,#532,#545));
#544=IFCCARTESIANPOINT((3507.2987175223561,321.74530639909244,473.20423712245019));
#545=IFCCARTESIANPOINT((3211.8040377448833,320.84766003086952,550.08568199157116));
#546=IFCFACE((#547));
#547=IFCFACEOUTERBOUND(#548,.T.);
#548=IFCPOLYLOOP((#549,#550,#134));
#549=IFCCARTESIANPOINT((2983.2760386880746,428.19456855057251,798.979599819756));
#550=IFCCARTESIANPOINT((3174.4118065128896,430.43755351082746,708.28023303682448));
#551=IFCFACE((#552));
#552=IFCFACEOUTERBOUND(#553,.T.);
#553=IFCPOLYLOOP((#554,#555,#556));
#554=IFCCARTESIANPOINT((2534.8749168445838,159.85346868309898,512.61851372391448));
#555=IFCCARTESIANPOINT((2269.3613158772569,115.30854822833589,490.72406285993247));
#556=IFCCARTESIANPOINT((2713.6766184555017,132.30559552960312,475.87630002699598));
#557=IFCFACE((#558));
#558=IFCFACEOUTERBOUND(#559,.T.);
#559=IFCPOLYLOOP((#560,#561,#562));
#560=IFCCARTESIANPOINT((1202.3753493720833,62.00792064496909,475.95815612391789));
#561=IFCCARTESIANPOINT((1268.4926920844655,122.57546331401318,562.17875908701626));
#562=IFCCARTESIANPOINT((698.38510215252427,55.18668031886773,479.91005184911637));
#563=IFCFACE((#564));
#564=IFCFACEOUTERBOUND(#565,.T.);
#565=IFCPOLYLOOP((#566,#130,#511));
#566=IFCCARTESIANPOINT((2451.240548861977,418.38962724611065,1024.0911099393034));
#567=IFCFACE((#568));
#568=IFCFACEOUTERBOUND(#569,.T.);
#569=IFCPOLYLOOP((#555,#570,#571));
#570=IFCCARTESIANPOINT((1823.2846331490628,64.904689482760659,460.68154657711239));
#571=IFCCARTESIANPOINT((2099.0103511856987,47.807310255826451,437.37948766646014));
#572=IFCFACE((#573));
#573=IFCFACEOUTERBOUND(#574,.T.);
#574=IFCPOLYLOOP((#526,#550,#549));
#575=IFCFACE((#576));
#576=IFCFACEOUTERBOUND(#577,.T.);
#577=IFCPOLYLOOP((#526,#528,#534));
#578=IFCFACE((#579));
#579=IFCFACEOUTERBOUND(#580,.T.);
#580=IFCPOLYLOOP((#581,#133,#132,#131));
#581=IFCCARTESIANPOINT((2847.6099569635235,442.1662271288069,909.82762462585424));
#582=IFCFACE((#583));
#583=IFCFACEOUTERBOUND(#584,.T.);
#584=IFCPOLYLOOP((#585,#586,#587));
#585=IFCCARTESIANPOINT((2328.3589696935778,178.6947824475883,552.17857663723726));
#586=IFCCARTESIANPOINT((2762.4083423173088,201.86633156042444,526.5510405459504));
#587=IFCCARTESIANPOINT((2574.3325397687877,245.15095808177193,600.00004323614348));
#588=IFCFACE((#589));
#589=IFCFACEOUTERBOUND(#590,.T.);
#590=IFCPOLYLOOP((#591,#587,#586));
#591=IFCCARTESIANPOINT((2924.8777356241781,267.16339490055998,563.12893721942419));
#592=IFCFACE((#593));
#593=IFCFACEOUTERBOUND(#594,.T.);
#594=IFCPOLYLOOP((#102,#595,#544));
#595=IFCCARTESIANPOINT((3606.3319305348869,391.98337642623483,471.4364698010495));
#596=IFCFACE((#597));
#597=IFCFACEOUTERBOUND(#598,.T.);
#598=IFCPOLYLOOP((#599,#600,#601));
#599=IFCCARTESIANPOINT((2490.535553241476,381.69526564111584,884.83777133538706));
#600=IFCCARTESIANPOINT((2113.6830718648389,346.4773875197734,908.33277458808789));
#601=IFCCARTESIANPOINT((2218.6798936831538,324.5217279245835,818.73791110910452));
#602=IFCFACE((#603));
#603=IFCFACEOUTERBOUND(#604,.T.);
#604=IFCPOLYLOOP((#605,#606,#561));
#605=IFCCARTESIANPOINT((1719.0389182162417,174.32760363211219,608.71292863220106));
#606=IFCCARTESIANPOINT((1416.2518101027063,186.56564860730941,662.42789882001671));
#607=IFCFACE((#608));
#608=IFCFACEOUTERBOUND(#609,.T.);
#609=IFCPOLYLOOP((#610,#586,#611));
#610=IFCCARTESIANPOINT((3211.6312779995369,255.57773076277408,501.24058502653816));
#611=IFCCARTESIANPOINT((3121.9591063293738,181.64749065085016,470.87554254474571));
#612=IFCFACE((#613));
#613=IFCFACEOUTERBOUND(#614,.T.);
#614=IFCPOLYLOOP((#615,#88,#107));
#615=IFCCARTESIANPOINT((3322.043077430907,43.686328058685831,409.3299824177725));
#616=IFCFACE((#617));
#617=IFCFACEOUTERBOUND(#618,.T.);
#618=IFCPOLYLOOP((#587,#539,#585));
#619=IFCFACE((#620));
#620=IFCFACEOUTERBOUND(#621,.T.);
#621=IFCPOLYLOOP((#104,#622,#623));
#622=IFCCARTESIANPOINT((3447.0284909327493,219.90110595140141,447.41742936886067));
#623=IFCCARTESIANPOINT((3427.9170879699359,158.85266489255446,431.95497842793566));
#624=IFCFACE((#625));
#625=IFCFACEOUTERBOUND(#626,.T.);
#626=IFCPOLYLOOP((#105,#104,#623,#106));
#627=IFCFACE((#628));
#628=IFCFACEOUTERBOUND(#629,.T.);
#629=IFCPOLYLOOP((#605,#539,#630));
#630=IFCCARTESIANPOINT((1893.6532783253706,236.48160557708525,695.451155363412));
#631=IFCFACE((#632));
#632=IFCFACEOUTERBOUND(#633,.T.);
#633=IFCPOLYLOOP((#505,#634,#506));
#634=IFCCARTESIANPOINT((950.64173348921486,122.57546500089575,582.656654956681));
#635=IFCFACE((#636));
#636=IFCFACEOUTERBOUND(#637,.T.);
#637=IFCPOLYLOOP((#601,#600,#638));
#638=IFCCARTESIANPOINT((1856.9096349447136,281.1627514809843,798.11511111205937));
#639=IFCFACE((#640));
#640=IFCFACEOUTERBOUND(#641,.T.);
#641=IFCPOLYLOOP((#634,#561,#606));
#642=IFCFACE((#643));
#643=IFCFACEOUTERBOUND(#644,.T.);
#644=IFCPOLYLOOP((#634,#562,#561));
#645=IFCFACE((#646));
#646=IFCFACEOUTERBOUND(#647,.T.);
#647=IFCPOLYLOOP((#648,#561,#560));
#648=IFCCARTESIANPOINT((1527.0417403245883,109.08925275021738,526.4564972149542));
#649=IFCFACE((#650));
#650=IFCFACEOUTERBOUND(#651,.T.);
#651=IFCPOLYLOOP((#504,#155,#562));
#652=IFCFACE((#653));
#653=IFCFACEOUTERBOUND(#654,.T.);
#654=IFCPOLYLOOP((#606,#605,#630));
#655=IFCFACE((#656));
#656=IFCFACEOUTERBOUND(#657,.T.);
#657=IFCPOLYLOOP((#562,#634,#505));
#658=IFCFACE((#659));
#659=IFCFACEOUTERBOUND(#660,.T.);
#660=IFCPOLYLOOP((#507,#606,#661));
#661=IFCCARTESIANPOINT((1547.7810327689322,233.36383842776831,742.44910535724921));
#662=IFCFACE((#663));
#663=IFCFACEOUTERBOUND(#664,.T.);
#664=IFCPOLYLOOP((#562,#505,#504));
#665=IFCFACE((#666));
#666=IFCFACEOUTERBOUND(#667,.T.);
#667=IFCPOLYLOOP((#634,#606,#506));
#668=IFCFACE((#669));
#669=IFCFACEOUTERBOUND(#670,.T.);
#670=IFCPOLYLOOP((#562,#154,#560));
#671=IFCFACE((#672));
#672=IFCFACEOUTERBOUND(#673,.T.);
#673=IFCPOLYLOOP((#661,#630,#638));
#674=IFCFACE((#675));
#675=IFCFACEOUTERBOUND(#676,.T.);
#676=IFCPOLYLOOP((#506,#606,#507));
#677=IFCFACE((#678));
#678=IFCFACEOUTERBOUND(#679,.T.);
#679=IFCPOLYLOOP((#680,#152,#570));
#680=IFCCARTESIANPOINT((1541.3504214398099,71.515745265826808,477.2974744273115));
#681=IFCFACE((#682));
#682=IFCFACEOUTERBOUND(#683,.T.);
#683=IFCPOLYLOOP((#153,#152,#680));
#684=IFCFACE((#685));
#685=IFCFACEOUTERBOUND(#686,.T.);
#686=IFCPOLYLOOP((#648,#605,#561));
#687=IFCFACE((#688));
#688=IFCFACEOUTERBOUND(#689,.T.);
#689=IFCPOLYLOOP((#585,#539,#690));
#690=IFCCARTESIANPOINT((1984.5888561626234,173.91015701836659,581.31097041954399));
#691=IFCFACE((#692));
#692=IFCFACEOUTERBOUND(#693,.T.);
#693=IFCPOLYLOOP((#690,#539,#605));
#694=IFCFACE((#695));
#695=IFCFACEOUTERBOUND(#696,.T.);
#696=IFCPOLYLOOP((#697,#540,#527));
#697=IFCCARTESIANPOINT((2692.9595010396033,333.01328113885575,706.96088479826358));
#698=IFCFACE((#699));
#699=IFCFACEOUTERBOUND(#700,.T.);
#700=IFCPOLYLOOP((#540,#539,#587));
#701=IFCFACE((#702));
#702=IFCFACEOUTERBOUND(#703,.T.);
#703=IFCPOLYLOOP((#704,#526,#549));
#704=IFCCARTESIANPOINT((2709.3416756329552,372.23144529104684,780.89838605256318));
#705=IFCFACE((#706));
#706=IFCFACEOUTERBOUND(#707,.T.);
#707=IFCPOLYLOOP((#555,#585,#708));
#708=IFCCARTESIANPOINT((1899.9549767602084,128.99253818961552,529.34309609357842));
#709=IFCFACE((#710));
#710=IFCFACEOUTERBOUND(#711,.T.);
#711=IFCPOLYLOOP((#586,#554,#556));
#712=IFCFACE((#713));
#713=IFCFACEOUTERBOUND(#714,.T.);
#714=IFCPOLYLOOP((#611,#586,#556));
#715=IFCFACE((#716));
#716=IFCFACEOUTERBOUND(#717,.T.);
#717=IFCPOLYLOOP((#591,#586,#610));
#718=IFCFACE((#719));
#719=IFCFACEOUTERBOUND(#720,.T.);
#720=IFCPOLYLOOP((#88,#615,#149));
#721=IFCFACE((#722));
#722=IFCFACEOUTERBOUND(#723,.T.);
#723=IFCPOLYLOOP((#611,#622,#610));
#724=IFCFACE((#725));
#725=IFCFACEOUTERBOUND(#726,.T.);
#726=IFCPOLYLOOP((#727,#728,#729));
#727=IFCCARTESIANPOINT((3135.3087166783989,131.49085001654566,445.68458199249199));
#728=IFCCARTESIANPOINT((2861.4104366248212,85.642605460713639,439.02810936508604));
#729=IFCCARTESIANPOINT((3240.7269066301487,85.449832628358308,422.95357714641341));
#730=IFCFACE((#731));
#731=IFCFACEOUTERBOUND(#732,.T.);
#732=IFCPOLYLOOP((#615,#733,#149));
#733=IFCCARTESIANPOINT((2994.3245295646539,40.495474109190582,414.68685321882367));
#734=IFCFACE((#735));
#735=IFCFACEOUTERBOUND(#736,.T.);
#736=IFCPOLYLOOP((#708,#570,#555));
#737=IFCFACE((#738));
#738=IFCFACEOUTERBOUND(#739,.T.);
#739=IFCPOLYLOOP((#740,#103,#544));
#740=IFCCARTESIANPOINT((3566.1594664647946,271.49969235803655,442.73785946960334));
#741=IFCFACE((#742));
#742=IFCFACEOUTERBOUND(#743,.T.);
#743=IFCPOLYLOOP((#151,#744,#571));
#744=IFCCARTESIANPOINT((2466.4686405027378,62.229035322549862,438.94303863939967));
#745=IFCFACE((#746));
#746=IFCFACEOUTERBOUND(#747,.T.);
#747=IFCPOLYLOOP((#555,#744,#556));
#748=IFCFACE((#749));
#749=IFCFACEOUTERBOUND(#750,.T.);
#750=IFCPOLYLOOP((#151,#150,#744));
#751=IFCFACE((#752));
#752=IFCFACEOUTERBOUND(#753,.T.);
#753=IFCPOLYLOOP((#744,#150,#733));
#754=IFCFACE((#755));
#755=IFCFACEOUTERBOUND(#756,.T.);
#756=IFCPOLYLOOP((#708,#648,#680));
#757=IFCFACE((#758));
#758=IFCFACEOUTERBOUND(#759,.T.);
#759=IFCPOLYLOOP((#571,#152,#151));
#760=IFCFACE((#761));
#761=IFCFACEOUTERBOUND(#762,.T.);
#762=IFCPOLYLOOP((#545,#591,#610));
#763=IFCFACE((#764));
#764=IFCFACEOUTERBOUND(#765,.T.);
#765=IFCPOLYLOOP((#527,#587,#591));
#766=IFCFACE((#767));
#767=IFCFACEOUTERBOUND(#768,.T.);
#768=IFCPOLYLOOP((#740,#610,#622));
#769=IFCFACE((#770));
#770=IFCFACEOUTERBOUND(#771,.T.);
#771=IFCPOLYLOOP((#545,#532,#534));
#772=IFCFACE((#773));
#773=IFCFACEOUTERBOUND(#774,.T.);
#774=IFCPOLYLOOP((#610,#544,#545));
#775=IFCFACE((#776));
#776=IFCFACEOUTERBOUND(#777,.T.);
#777=IFCPOLYLOOP((#101,#778,#595));
#778=IFCCARTESIANPOINT((3662.1714752681983,435.72687172647693,464.45455073490984));
#779=IFCFACE((#780));
#780=IFCFACEOUTERBOUND(#781,.T.);
#781=IFCPOLYLOOP((#101,#595,#102));
#782=IFCFACE((#783));
#783=IFCFACEOUTERBOUND(#784,.T.);
#784=IFCPOLYLOOP((#528,#527,#591));
#785=IFCFACE((#786));
#786=IFCFACEOUTERBOUND(#787,.T.);
#787=IFCPOLYLOOP((#526,#704,#697));
#788=IFCFACE((#789));
#789=IFCFACEOUTERBOUND(#790,.T.);
#790=IFCPOLYLOOP((#137,#533,#791));
#791=IFCCARTESIANPOINT((3535.9921259776311,434.49096939751598,529.23063689527635));
#792=IFCFACE((#793));
#793=IFCFACEOUTERBOUND(#794,.T.);
#794=IFCPOLYLOOP((#550,#526,#534));
#795=IFCFACE((#796));
#796=IFCFACEOUTERBOUND(#797,.T.);
#797=IFCPOLYLOOP((#791,#533,#532));
#798=IFCFACE((#799));
#799=IFCFACEOUTERBOUND(#800,.T.);
#800=IFCPOLYLOOP((#550,#533,#135));
#801=IFCFACE((#802));
#802=IFCFACEOUTERBOUND(#803,.T.);
#803=IFCPOLYLOOP((#533,#137,#136,#135));
#804=IFCFACE((#805));
#805=IFCFACEOUTERBOUND(#806,.T.);
#806=IFCPOLYLOOP((#533,#550,#534));
#807=IFCFACE((#808));
#808=IFCFACEOUTERBOUND(#809,.T.);
#809=IFCPOLYLOOP((#134,#133,#549));
#810=IFCFACE((#811));
#811=IFCFACEOUTERBOUND(#812,.T.);
#812=IFCPOLYLOOP((#133,#581,#549));
#813=IFCFACE((#814));
#814=IFCFACEOUTERBOUND(#815,.T.);
#815=IFCPOLYLOOP((#704,#816,#697));
#816=IFCCARTESIANPOINT((2437.8339540661318,311.53898425025091,733.61817722616479));
#817=IFCFACE((#818));
#818=IFCFACEOUTERBOUND(#819,.T.);
#819=IFCPOLYLOOP((#820,#581,#131));
#820=IFCCARTESIANPOINT((2660.0269275217943,434.30587236651354,981.74215970524301));
#821=IFCFACE((#822));
#822=IFCFACEOUTERBOUND(#823,.T.);
#823=IFCPOLYLOOP((#820,#599,#581));
#824=IFCFACE((#825));
#825=IFCFACEOUTERBOUND(#826,.T.);
#826=IFCPOLYLOOP((#600,#510,#509,#508));
#827=IFCFACE((#828));
#828=IFCFACEOUTERBOUND(#829,.T.);
#829=IFCPOLYLOOP((#704,#581,#599));
#830=IFCFACE((#831));
#831=IFCFACEOUTERBOUND(#832,.T.);
#832=IFCPOLYLOOP((#581,#704,#549));
#833=IFCFACE((#834));
#834=IFCFACEOUTERBOUND(#835,.T.);
#835=IFCPOLYLOOP((#599,#816,#704));
#836=IFCFACE((#837));
#837=IFCFACEOUTERBOUND(#838,.T.);
#838=IFCPOLYLOOP((#638,#600,#508));
#839=IFCFACE((#840));
#840=IFCFACEOUTERBOUND(#841,.T.);
#841=IFCPOLYLOOP((#566,#599,#820));
#842=IFCFACE((#843));
#843=IFCFACEOUTERBOUND(#844,.T.);
#844=IFCPOLYLOOP((#661,#508,#507));
#845=IFCFACE((#846));
#846=IFCFACEOUTERBOUND(#847,.T.);
#847=IFCPOLYLOOP((#848,#601,#638));
#848=IFCCARTESIANPOINT((2055.8743248294222,280.57719936920148,755.78444578493236));
#849=IFCFACE((#850));
#850=IFCFACEOUTERBOUND(#851,.T.);
#851=IFCPOLYLOOP((#622,#611,#623));
#852=IFCFACE((#853));
#853=IFCFACEOUTERBOUND(#854,.T.);
#854=IFCPOLYLOOP((#104,#103,#740));
#855=IFCFACE((#856));
#856=IFCFACEOUTERBOUND(#857,.T.);
#857=IFCPOLYLOOP((#727,#623,#611));
#858=IFCFACE((#859));
#859=IFCFACEOUTERBOUND(#860,.T.);
#860=IFCPOLYLOOP((#727,#729,#623));
#861=IFCFACE((#862));
#862=IFCFACEOUTERBOUND(#863,.T.);
#863=IFCPOLYLOOP((#550,#135,#134));
#864=IFCFACE((#865));
#865=IFCFACEOUTERBOUND(#866,.T.);
#866=IFCPOLYLOOP((#848,#638,#630));
#867=IFCFACE((#868));
#868=IFCFACEOUTERBOUND(#869,.T.);
#869=IFCPOLYLOOP((#816,#599,#601));
#870=IFCFACE((#871));
#871=IFCFACEOUTERBOUND(#872,.T.);
#872=IFCPOLYLOOP((#611,#556,#727));
#873=IFCFACE((#874));
#874=IFCFACEOUTERBOUND(#875,.T.);
#875=IFCPOLYLOOP((#728,#556,#744));
#876=IFCFACE((#877));
#877=IFCFACEOUTERBOUND(#878,.T.);
#878=IFCPOLYLOOP((#556,#728,#727));
#879=IFCFACE((#880));
#880=IFCFACEOUTERBOUND(#881,.T.);
#881=IFCPOLYLOOP((#733,#729,#728));
#882=IFCFACE((#883));
#883=IFCFACEOUTERBOUND(#884,.T.);
#884=IFCPOLYLOOP((#744,#733,#728));
#885=IFCFACE((#886));
#886=IFCFACEOUTERBOUND(#887,.T.);
#887=IFCPOLYLOOP((#615,#729,#733));
#888=IFCFACE((#889));
#889=IFCFACEOUTERBOUND(#890,.T.);
#890=IFCPOLYLOOP((#729,#107,#106));
#891=IFCFACE((#892));
#892=IFCFACEOUTERBOUND(#893,.T.);
#893=IFCPOLYLOOP((#150,#149,#733));
#894=IFCFACE((#895));
#895=IFCFACEOUTERBOUND(#896,.T.);
#896=IFCPOLYLOOP((#106,#623,#729));
#897=IFCFACE((#898));
#898=IFCFACEOUTERBOUND(#899,.T.);
#899=IFCPOLYLOOP((#107,#729,#615));
#900=IFCFACE((#901));
#901=IFCFACEOUTERBOUND(#902,.T.);
#902=IFCPOLYLOOP((#510,#566,#511));
#903=IFCFACE((#904));
#904=IFCFACEOUTERBOUND(#905,.T.);
#905=IFCPOLYLOOP((#566,#600,#599));
#906=IFCFACE((#907));
#907=IFCFACEOUTERBOUND(#908,.T.);
#908=IFCPOLYLOOP((#820,#131,#130));
#909=IFCFACE((#910));
#910=IFCFACEOUTERBOUND(#911,.T.);
#911=IFCPOLYLOOP((#130,#116,#511));
#912=IFCFACE((#913));
#913=IFCFACEOUTERBOUND(#914,.T.);
#914=IFCPOLYLOOP((#600,#566,#510));
#915=IFCFACE((#916));
#916=IFCFACEOUTERBOUND(#917,.T.);
#917=IFCPOLYLOOP((#130,#566,#820));
#918=IFCFACE((#919));
#919=IFCFACEOUTERBOUND(#920,.T.);
#920=IFCPOLYLOOP((#532,#595,#791));
#921=IFCFACE((#922));
#922=IFCFACEOUTERBOUND(#923,.T.);
#923=IFCPOLYLOOP((#138,#791,#778));
#924=IFCFACE((#925));
#925=IFCFACEOUTERBOUND(#926,.T.);
#926=IFCPOLYLOOP((#544,#595,#532));
#927=IFCFACE((#928));
#928=IFCFACEOUTERBOUND(#929,.T.);
#929=IFCPOLYLOOP((#101,#100,#778));
#930=IFCFACE((#931));
#931=IFCFACEOUTERBOUND(#932,.T.);
#932=IFCPOLYLOOP((#791,#595,#778));
#933=IFCFACE((#934));
#934=IFCFACEOUTERBOUND(#935,.T.);
#935=IFCPOLYLOOP((#100,#99,#138));
#936=IFCFACE((#937));
#937=IFCFACEOUTERBOUND(#938,.T.);
#938=IFCPOLYLOOP((#137,#791,#138));
#939=IFCFACE((#940));
#940=IFCFACEOUTERBOUND(#941,.T.);
#941=IFCPOLYLOOP((#138,#778,#100));
#942=IFCFACE((#943));
#943=IFCFACEOUTERBOUND(#944,.T.);
#944=IFCPOLYLOOP((#540,#697,#816));
#945=IFCFACE((#946));
#946=IFCFACEOUTERBOUND(#947,.T.);
#947=IFCPOLYLOOP((#526,#697,#527));
#948=IFCFACE((#949));
#949=IFCFACEOUTERBOUND(#950,.T.);
#950=IFCPOLYLOOP((#540,#816,#538));
#951=IFCFACE((#952));
#952=IFCFACEOUTERBOUND(#953,.T.);
#953=IFCPOLYLOOP((#527,#540,#587));
#954=IFCFACE((#955));
#955=IFCFACEOUTERBOUND(#956,.T.);
#956=IFCPOLYLOOP((#848,#816,#601));
#957=IFCFACE((#958));
#958=IFCFACEOUTERBOUND(#959,.T.);
#959=IFCPOLYLOOP((#630,#539,#538));
#960=IFCFACE((#961));
#961=IFCFACEOUTERBOUND(#962,.T.);
#962=IFCPOLYLOOP((#155,#504,#156));
#963=IFCFACE((#964));
#964=IFCFACEOUTERBOUND(#965,.T.);
#965=IFCPOLYLOOP((#560,#154,#153));
#966=IFCFACE((#967));
#967=IFCFACEOUTERBOUND(#968,.T.);
#968=IFCPOLYLOOP((#155,#154,#562));
#969=IFCFACE((#970));
#970=IFCFACEOUTERBOUND(#971,.T.);
#971=IFCPOLYLOOP((#680,#648,#560));
#972=IFCFACE((#973));
#973=IFCFACEOUTERBOUND(#974,.T.);
#974=IFCPOLYLOOP((#648,#708,#690));
#975=IFCFACE((#976));
#976=IFCFACEOUTERBOUND(#977,.T.);
#977=IFCPOLYLOOP((#153,#680,#560));
#978=IFCFACE((#979));
#979=IFCFACEOUTERBOUND(#980,.T.);
#980=IFCPOLYLOOP((#708,#680,#570));
#981=IFCFACE((#982));
#982=IFCFACEOUTERBOUND(#983,.T.);
#983=IFCPOLYLOOP((#648,#690,#605));
#984=IFCFACE((#985));
#985=IFCFACEOUTERBOUND(#986,.T.);
#986=IFCPOLYLOOP((#585,#690,#708));
#987=IFCFACE((#988));
#988=IFCFACEOUTERBOUND(#989,.T.);
#989=IFCPOLYLOOP((#586,#585,#554));
#990=IFCFACE((#991));
#991=IFCFACEOUTERBOUND(#992,.T.);
#992=IFCPOLYLOOP((#555,#554,#585));
#993=IFCFACE((#994));
#994=IFCFACEOUTERBOUND(#995,.T.);
#995=IFCPOLYLOOP((#555,#571,#744));
#996=IFCFACE((#997));
#997=IFCFACEOUTERBOUND(#998,.T.);
#998=IFCPOLYLOOP((#152,#571,#570));
#999=IFCFACE((#1000));
#1000=IFCFACEOUTERBOUND(#1001,.T.);
#1001=IFCPOLYLOOP((#544,#103,#102));
#1002=IFCFACE((#1003));
#1003=IFCFACEOUTERBOUND(#1004,.T.);
#1004=IFCPOLYLOOP((#591,#545,#528));
#1005=IFCFACE((#1006));
#1006=IFCFACEOUTERBOUND(#1007,.T.);
#1007=IFCPOLYLOOP((#534,#528,#545));
#1008=IFCFACE((#1009));
#1009=IFCFACEOUTERBOUND(#1010,.T.);
#1010=IFCPOLYLOOP((#630,#661,#606));
#1011=IFCFACE((#1012));
#1012=IFCFACEOUTERBOUND(#1013,.T.);
#1013=IFCPOLYLOOP((#508,#661,#638));
#1014=IFCFACE((#1015));
#1015=IFCFACEOUTERBOUND(#1016,.T.);
#1016=IFCPOLYLOOP((#610,#740,#544));
#1017=IFCFACE((#1018));
#1018=IFCFACEOUTERBOUND(#1019,.T.);
#1019=IFCPOLYLOOP((#104,#740,#622));
#1020=IFCFACE((#1021));
#1021=IFCFACEOUTERBOUND(#1022,.T.);
#1022=IFCPOLYLOOP((#630,#538,#848));
#1023=IFCFACE((#1024));
#1024=IFCFACEOUTERBOUND(#1025,.T.);
#1025=IFCPOLYLOOP((#816,#848,#538));
#1026=IFCFACE((#1027));
#1027=IFCFACEOUTERBOUND(#1028,.T.);
#1028=IFCPOLYLOOP((#1029,#1030,#1031));
#1029=IFCCARTESIANPOINT((3008.1831379593323,313.7892228241144,195.03384214974039));
#1030=IFCCARTESIANPOINT((2802.7057494279379,309.34501757958697,240.17196712628993));
#1031=IFCCARTESIANPOINT((2931.2121050920505,373.53906891919723,304.74212761443778));
#1032=IFCFACE((#1033));
#1033=IFCFACEOUTERBOUND(#1034,.T.);
#1034=IFCPOLYLOOP((#1035,#1036,#1037));
#1035=IFCCARTESIANPOINT((3179.4607817677688,378.77310756493807,223.04230809005003));
#1036=IFCCARTESIANPOINT((3388.2629434762594,439.72396642200874,212.65281319834094));
#1037=IFCCARTESIANPOINT((3417.2321401783302,381.6952701582868,137.9545126523426));
#1038=IFCFACE((#1039));
#1039=IFCFACEOUTERBOUND(#1040,.T.);
#1040=IFCPOLYLOOP((#1041,#1042,#1043));
#1041=IFCCARTESIANPOINT((2518.8906078947366,282.16341361207651,263.07234780359204));
#1042=IFCCARTESIANPOINT((2171.797185603511,220.19011347069591,226.3610138626882));
#1043=IFCCARTESIANPOINT((2258.0324450383687,264.69229602170799,285.10712969524411));
#1044=IFCFACE((#1045));
#1045=IFCFACEOUTERBOUND(#1046,.T.);
#1046=IFCPOLYLOOP((#1047,#1037,#1048));
#1047=IFCCARTESIANPOINT((3211.8040377448833,320.84766003086952,150.08568199157116));
#1048=IFCCARTESIANPOINT((3507.2987175223561,321.74530639909244,73.204237122450195));
#1049=IFCFACE((#1050));
#1050=IFCFACEOUTERBOUND(#1051,.T.);
#1051=IFCPOLYLOOP((#125,#1052,#1053));
#1052=IFCCARTESIANPOINT((3174.4118065128896,430.43755351082746,308.28023303682448));
#1053=IFCCARTESIANPOINT((2983.2760386880746,428.19456855057251,398.979599819756));
#1054=IFCFACE((#1055));
#1055=IFCFACEOUTERBOUND(#1056,.T.);
#1056=IFCPOLYLOOP((#1057,#1058,#1059));
#1057=IFCCARTESIANPOINT((2713.6766184555017,132.30559552960312,75.876300026995978));
#1058=IFCCARTESIANPOINT((2269.3613158772569,115.30854822833589,90.724062859932474));
#1059=IFCCARTESIANPOINT((2534.8749168445838,159.85346868309898,112.61851372391448));
#1060=IFCFACE((#1061));
#1061=IFCFACEOUTERBOUND(#1062,.T.);
#1062=IFCPOLYLOOP((#1063,#1064,#1065));
#1063=IFCCARTESIANPOINT((698.38510215252427,55.18668031886773,79.910051849116371));
#1064=IFCCARTESIANPOINT((1268.4926920844655,122.57546331401318,162.17875908701626));
#1065=IFCCARTESIANPOINT((1202.3753493720833,62.00792064496909,75.958156123917888));
#1066=IFCFACE((#1067));
#1067=IFCFACEOUTERBOUND(#1068,.T.);
#1068=IFCPOLYLOOP((#515,#129,#1069));
#1069=IFCCARTESIANPOINT((2451.240548861977,418.38962724611065,624.09110993930335));
#1070=IFCFACE((#1071));
#1071=IFCFACEOUTERBOUND(#1072,.T.);
#1072=IFCPOLYLOOP((#1073,#1074,#1058));
#1073=IFCCARTESIANPOINT((2099.0103511856987,47.807310255826451,37.379487666460136));
#1074=IFCCARTESIANPOINT((1823.2846331490628,64.904689482760659,60.681546577111476));
#1075=IFCFACE((#1076));
#1076=IFCFACEOUTERBOUND(#1077,.T.);
#1077=IFCPOLYLOOP((#1053,#1052,#1031));
#1078=IFCFACE((#1079));
#1079=IFCFACEOUTERBOUND(#1080,.T.);
#1080=IFCPOLYLOOP((#1035,#1029,#1031));
#1081=IFCFACE((#1082));
#1082=IFCFACEOUTERBOUND(#1083,.T.);
#1083=IFCPOLYLOOP((#127,#126,#1084,#128));
#1084=IFCCARTESIANPOINT((2847.6099569635235,442.1662271288069,509.82762462585424));
#1085=IFCFACE((#1086));
#1086=IFCFACEOUTERBOUND(#1087,.T.);
#1087=IFCPOLYLOOP((#1088,#1089,#1090));
#1088=IFCCARTESIANPOINT((2574.3325397687877,245.15095808177193,200.00004323614348));
#1089=IFCCARTESIANPOINT((2762.4083423173088,201.86633156042444,126.5510405459504));
#1090=IFCCARTESIANPOINT((2328.3589696935778,178.6947824475883,152.17857663723771));
#1091=IFCFACE((#1092));
#1092=IFCFACEOUTERBOUND(#1093,.T.);
#1093=IFCPOLYLOOP((#1089,#1088,#1094));
#1094=IFCCARTESIANPOINT((2924.8777356241781,267.16339490055998,163.12893721942419));
#1095=IFCFACE((#1096));
#1096=IFCFACEOUTERBOUND(#1097,.T.);
#1097=IFCPOLYLOOP((#1048,#1098,#95));
#1098=IFCCARTESIANPOINT((3606.3319305348869,391.98337642623483,71.436469801049498));
#1099=IFCFACE((#1100));
#1100=IFCFACEOUTERBOUND(#1101,.T.);
#1101=IFCPOLYLOOP((#1102,#1103,#1104));
#1102=IFCCARTESIANPOINT((2218.6798936831538,324.5217279245835,418.73791110910452));
#1103=IFCCARTESIANPOINT((2113.6830718648389,346.4773875197734,508.33277458808789));
#1104=IFCCARTESIANPOINT((2490.535553241476,381.69526564111584,484.83777133538752));
#1105=IFCFACE((#1106));
#1106=IFCFACEOUTERBOUND(#1107,.T.);
#1107=IFCPOLYLOOP((#1064,#1108,#1109));
#1108=IFCCARTESIANPOINT((1416.2518101027063,186.56564860730941,262.42789882001671));
#1109=IFCCARTESIANPOINT((1719.0389182162417,174.32760363211219,208.71292863220106));
#1110=IFCFACE((#1111));
#1111=IFCFACEOUTERBOUND(#1112,.T.);
#1112=IFCPOLYLOOP((#1113,#1089,#1114));
#1113=IFCCARTESIANPOINT((3121.9591063293738,181.64749065085016,70.875542544745258));
#1114=IFCCARTESIANPOINT((3211.6312779995369,255.57773076277408,101.24058502653816));
#1115=IFCFACE((#1116));
#1116=IFCFACEOUTERBOUND(#1117,.T.);
#1117=IFCPOLYLOOP((#90,#89,#1118));
#1118=IFCCARTESIANPOINT((3322.043077430907,43.686328058685831,9.3299824177724986));
#1119=IFCFACE((#1120));
#1120=IFCFACEOUTERBOUND(#1121,.T.);
#1121=IFCPOLYLOOP((#1090,#1042,#1088));
#1122=IFCFACE((#1123));
#1123=IFCFACEOUTERBOUND(#1124,.T.);
#1124=IFCPOLYLOOP((#1125,#1126,#93));
#1125=IFCCARTESIANPOINT((3427.9170879699359,158.85266489255446,31.954978427935657));
#1126=IFCCARTESIANPOINT((3447.0284909327493,219.90110595140141,47.417429368860212));
#1127=IFCFACE((#1128));
#1128=IFCFACEOUTERBOUND(#1129,.T.);
#1129=IFCPOLYLOOP((#1125,#93,#92,#91));
#1130=IFCFACE((#1131));
#1131=IFCFACEOUTERBOUND(#1132,.T.);
#1132=IFCPOLYLOOP((#1133,#1042,#1109));
#1133=IFCCARTESIANPOINT((1893.6532783253706,236.48160557708525,295.45115536341109));
#1134=IFCFACE((#1135));
#1135=IFCFACEOUTERBOUND(#1136,.T.);
#1136=IFCPOLYLOOP((#520,#1137,#521));
#1137=IFCCARTESIANPOINT((950.64173348921486,122.57546500089575,182.656654956681));
#1138=IFCFACE((#1139));
#1139=IFCFACEOUTERBOUND(#1140,.T.);
#1140=IFCPOLYLOOP((#1141,#1103,#1102));
#1141=IFCCARTESIANPOINT((1856.9096349447136,281.1627514809843,398.11511111205937));
#1142=IFCFACE((#1143));
#1143=IFCFACEOUTERBOUND(#1144,.T.);
#1144=IFCPOLYLOOP((#1108,#1064,#1137));
#1145=IFCFACE((#1146));
#1146=IFCFACEOUTERBOUND(#1147,.T.);
#1147=IFCPOLYLOOP((#1064,#1063,#1137));
#1148=IFCFACE((#1149));
#1149=IFCFACEOUTERBOUND(#1150,.T.);
#1150=IFCPOLYLOOP((#1065,#1064,#1151));
#1151=IFCCARTESIANPOINT((1527.0417403245883,109.08925275021738,126.4564972149542));
#1152=IFCFACE((#1153));
#1153=IFCFACEOUTERBOUND(#1154,.T.);
#1154=IFCPOLYLOOP((#1063,#142,#522));
#1155=IFCFACE((#1156));
#1156=IFCFACEOUTERBOUND(#1157,.T.);
#1157=IFCPOLYLOOP((#1133,#1109,#1108));
#1158=IFCFACE((#1159));
#1159=IFCFACEOUTERBOUND(#1160,.T.);
#1160=IFCPOLYLOOP((#521,#1137,#1063));
#1161=IFCFACE((#1162));
#1162=IFCFACEOUTERBOUND(#1163,.T.);
#1163=IFCPOLYLOOP((#1164,#1108,#519));
#1164=IFCCARTESIANPOINT((1547.7810327689322,233.36383842776831,342.44910535724966));
#1165=IFCFACE((#1166));
#1166=IFCFACEOUTERBOUND(#1167,.T.);
#1167=IFCPOLYLOOP((#522,#521,#1063));
#1168=IFCFACE((#1169));
#1169=IFCFACEOUTERBOUND(#1170,.T.);
#1170=IFCPOLYLOOP((#520,#1108,#1137));
#1171=IFCFACE((#1172));
#1172=IFCFACEOUTERBOUND(#1173,.T.);
#1173=IFCPOLYLOOP((#1065,#143,#1063));
#1174=IFCFACE((#1175));
#1175=IFCFACEOUTERBOUND(#1176,.T.);
#1176=IFCPOLYLOOP((#1141,#1133,#1164));
#1177=IFCFACE((#1178));
#1178=IFCFACEOUTERBOUND(#1179,.T.);
#1179=IFCPOLYLOOP((#519,#1108,#520));
#1180=IFCFACE((#1181));
#1181=IFCFACEOUTERBOUND(#1182,.T.);
#1182=IFCPOLYLOOP((#1074,#145,#1183));
#1183=IFCCARTESIANPOINT((1541.3504214398099,71.515745265826808,77.297474427311499));
#1184=IFCFACE((#1185));
#1185=IFCFACEOUTERBOUND(#1186,.T.);
#1186=IFCPOLYLOOP((#1183,#145,#144));
#1187=IFCFACE((#1188));
#1188=IFCFACEOUTERBOUND(#1189,.T.);
#1189=IFCPOLYLOOP((#1064,#1109,#1151));
#1190=IFCFACE((#1191));
#1191=IFCFACEOUTERBOUND(#1192,.T.);
#1192=IFCPOLYLOOP((#1193,#1042,#1090));
#1193=IFCCARTESIANPOINT((1984.5888561626234,173.91015701836659,181.31097041954399));
#1194=IFCFACE((#1195));
#1195=IFCFACEOUTERBOUND(#1196,.T.);
#1196=IFCPOLYLOOP((#1109,#1042,#1193));
#1197=IFCFACE((#1198));
#1198=IFCFACEOUTERBOUND(#1199,.T.);
#1199=IFCPOLYLOOP((#1030,#1041,#1200));
#1200=IFCCARTESIANPOINT((2692.9595010396033,333.01328113885575,306.96088479826358));
#1201=IFCFACE((#1202));
#1202=IFCFACEOUTERBOUND(#1203,.T.);
#1203=IFCPOLYLOOP((#1088,#1042,#1041));
#1204=IFCFACE((#1205));
#1205=IFCFACEOUTERBOUND(#1206,.T.);
#1206=IFCPOLYLOOP((#1053,#1031,#1207));
#1207=IFCCARTESIANPOINT((2709.3416756329552,372.23144529104684,380.89838605256318));
#1208=IFCFACE((#1209));
#1209=IFCFACEOUTERBOUND(#1210,.T.);
#1210=IFCPOLYLOOP((#1211,#1090,#1058));
#1211=IFCCARTESIANPOINT((1899.9549767602084,128.99253818961552,129.34309609357842));
#1212=IFCFACE((#1213));
#1213=IFCFACEOUTERBOUND(#1214,.T.);
#1214=IFCPOLYLOOP((#1057,#1059,#1089));
#1215=IFCFACE((#1216));
#1216=IFCFACEOUTERBOUND(#1217,.T.);
#1217=IFCPOLYLOOP((#1057,#1089,#1113));
#1218=IFCFACE((#1219));
#1219=IFCFACEOUTERBOUND(#1220,.T.);
#1220=IFCPOLYLOOP((#1114,#1089,#1094));
#1221=IFCFACE((#1222));
#1222=IFCFACEOUTERBOUND(#1223,.T.);
#1223=IFCPOLYLOOP((#148,#1118,#89));
#1224=IFCFACE((#1225));
#1225=IFCFACEOUTERBOUND(#1226,.T.);
#1226=IFCPOLYLOOP((#1114,#1126,#1113));
#1227=IFCFACE((#1228));
#1228=IFCFACEOUTERBOUND(#1229,.T.);
#1229=IFCPOLYLOOP((#1230,#1231,#1232));
#1230=IFCCARTESIANPOINT((3240.7269066301487,85.449832628358308,22.953577146413409));
#1231=IFCCARTESIANPOINT((2861.4104366248212,85.642605460713639,39.028109365085584));
#1232=IFCCARTESIANPOINT((3135.3087166783989,131.49085001654566,45.684581992491985));
#1233=IFCFACE((#1234));
#1234=IFCFACEOUTERBOUND(#1235,.T.);
#1235=IFCPOLYLOOP((#148,#1236,#1118));
#1236=IFCCARTESIANPOINT((2994.3245295646539,40.495474109190582,14.686853218823671));
#1237=IFCFACE((#1238));
#1238=IFCFACEOUTERBOUND(#1239,.T.);
#1239=IFCPOLYLOOP((#1058,#1074,#1211));
#1240=IFCFACE((#1241));
#1241=IFCFACEOUTERBOUND(#1242,.T.);
#1242=IFCPOLYLOOP((#1048,#94,#1243));
#1243=IFCCARTESIANPOINT((3566.1594664647946,271.49969235803655,42.737859469603336));
#1244=IFCFACE((#1245));
#1245=IFCFACEOUTERBOUND(#1246,.T.);
#1246=IFCPOLYLOOP((#1073,#1247,#146));
#1247=IFCCARTESIANPOINT((2466.4686405027378,62.229035322549862,38.943038639399674));
#1248=IFCFACE((#1249));
#1249=IFCFACEOUTERBOUND(#1250,.T.);
#1250=IFCPOLYLOOP((#1057,#1247,#1058));
#1251=IFCFACE((#1252));
#1252=IFCFACEOUTERBOUND(#1253,.T.);
#1253=IFCPOLYLOOP((#1247,#147,#146));
#1254=IFCFACE((#1255));
#1255=IFCFACEOUTERBOUND(#1256,.T.);
#1256=IFCPOLYLOOP((#1236,#147,#1247));
#1257=IFCFACE((#1258));
#1258=IFCFACEOUTERBOUND(#1259,.T.);
#1259=IFCPOLYLOOP((#1183,#1151,#1211));
#1260=IFCFACE((#1261));
#1261=IFCFACEOUTERBOUND(#1262,.T.);
#1262=IFCPOLYLOOP((#146,#145,#1073));
#1263=IFCFACE((#1264));
#1264=IFCFACEOUTERBOUND(#1265,.T.);
#1265=IFCPOLYLOOP((#1114,#1094,#1047));
#1266=IFCFACE((#1267));
#1267=IFCFACEOUTERBOUND(#1268,.T.);
#1268=IFCPOLYLOOP((#1094,#1088,#1030));
#1269=IFCFACE((#1270));
#1270=IFCFACEOUTERBOUND(#1271,.T.);
#1271=IFCPOLYLOOP((#1126,#1114,#1243));
#1272=IFCFACE((#1273));
#1273=IFCFACEOUTERBOUND(#1274,.T.);
#1274=IFCPOLYLOOP((#1035,#1037,#1047));
#1275=IFCFACE((#1276));
#1276=IFCFACEOUTERBOUND(#1277,.T.);
#1277=IFCPOLYLOOP((#1047,#1048,#1114));
#1278=IFCFACE((#1279));
#1279=IFCFACEOUTERBOUND(#1280,.T.);
#1280=IFCPOLYLOOP((#1098,#1281,#96));
#1281=IFCCARTESIANPOINT((3662.1714752681983,435.72687172647693,64.454550734909844));
#1282=IFCFACE((#1283));
#1283=IFCFACEOUTERBOUND(#1284,.T.);
#1284=IFCPOLYLOOP((#95,#1098,#96));
#1285=IFCFACE((#1286));
#1286=IFCFACEOUTERBOUND(#1287,.T.);
#1287=IFCPOLYLOOP((#1094,#1030,#1029));
#1288=IFCFACE((#1289));
#1289=IFCFACEOUTERBOUND(#1290,.T.);
#1290=IFCPOLYLOOP((#1200,#1207,#1031));
#1291=IFCFACE((#1292));
#1292=IFCFACEOUTERBOUND(#1293,.T.);
#1293=IFCPOLYLOOP((#1294,#1036,#122));
#1294=IFCCARTESIANPOINT((3535.9921259776311,434.49096939751598,129.23063689527589));
#1295=IFCFACE((#1296));
#1296=IFCFACEOUTERBOUND(#1297,.T.);
#1297=IFCPOLYLOOP((#1035,#1031,#1052));
#1298=IFCFACE((#1299));
#1299=IFCFACEOUTERBOUND(#1300,.T.);
#1300=IFCPOLYLOOP((#1037,#1036,#1294));
#1301=IFCFACE((#1302));
#1302=IFCFACEOUTERBOUND(#1303,.T.);
#1303=IFCPOLYLOOP((#124,#1036,#1052));
#1304=IFCFACE((#1305));
#1305=IFCFACEOUTERBOUND(#1306,.T.);
#1306=IFCPOLYLOOP((#123,#122,#1036,#124));
#1307=IFCFACE((#1308));
#1308=IFCFACEOUTERBOUND(#1309,.T.);
#1309=IFCPOLYLOOP((#1035,#1052,#1036));
#1310=IFCFACE((#1311));
#1311=IFCFACEOUTERBOUND(#1312,.T.);
#1312=IFCPOLYLOOP((#1053,#126,#125));
#1313=IFCFACE((#1314));
#1314=IFCFACEOUTERBOUND(#1315,.T.);
#1315=IFCPOLYLOOP((#1053,#1084,#126));
#1316=IFCFACE((#1317));
#1317=IFCFACEOUTERBOUND(#1318,.T.);
#1318=IFCPOLYLOOP((#1200,#1319,#1207));
#1319=IFCCARTESIANPOINT((2437.8339540661318,311.53898425025091,333.61817722616433));
#1320=IFCFACE((#1321));
#1321=IFCFACEOUTERBOUND(#1322,.T.);
#1322=IFCPOLYLOOP((#128,#1084,#1323));
#1323=IFCCARTESIANPOINT((2660.0269275217943,434.30587236651354,581.74215970524301));
#1324=IFCFACE((#1325));
#1325=IFCFACEOUTERBOUND(#1326,.T.);
#1326=IFCPOLYLOOP((#1084,#1104,#1323));
#1327=IFCFACE((#1328));
#1328=IFCFACEOUTERBOUND(#1329,.T.);
#1329=IFCPOLYLOOP((#517,#516,#1103,#518));
#1330=IFCFACE((#1331));
#1331=IFCFACEOUTERBOUND(#1332,.T.);
#1332=IFCPOLYLOOP((#1104,#1084,#1207));
#1333=IFCFACE((#1334));
#1334=IFCFACEOUTERBOUND(#1335,.T.);
#1335=IFCPOLYLOOP((#1053,#1207,#1084));
#1336=IFCFACE((#1337));
#1337=IFCFACEOUTERBOUND(#1338,.T.);
#1338=IFCPOLYLOOP((#1207,#1319,#1104));
#1339=IFCFACE((#1340));
#1340=IFCFACEOUTERBOUND(#1341,.T.);
#1341=IFCPOLYLOOP((#518,#1103,#1141));
#1342=IFCFACE((#1343));
#1343=IFCFACEOUTERBOUND(#1344,.T.);
#1344=IFCPOLYLOOP((#1323,#1104,#1069));
#1345=IFCFACE((#1346));
#1346=IFCFACEOUTERBOUND(#1347,.T.);
#1347=IFCPOLYLOOP((#519,#518,#1164));
#1348=IFCFACE((#1349));
#1349=IFCFACEOUTERBOUND(#1350,.T.);
#1350=IFCPOLYLOOP((#1141,#1102,#1351));
#1351=IFCCARTESIANPOINT((2055.8743248294222,280.57719936920148,355.7844457849319));
#1352=IFCFACE((#1353));
#1353=IFCFACEOUTERBOUND(#1354,.T.);
#1354=IFCPOLYLOOP((#1125,#1113,#1126));
#1355=IFCFACE((#1356));
#1356=IFCFACEOUTERBOUND(#1357,.T.);
#1357=IFCPOLYLOOP((#1243,#94,#93));
#1358=IFCFACE((#1359));
#1359=IFCFACEOUTERBOUND(#1360,.T.);
#1360=IFCPOLYLOOP((#1113,#1125,#1232));
#1361=IFCFACE((#1362));
#1362=IFCFACEOUTERBOUND(#1363,.T.);
#1363=IFCPOLYLOOP((#1125,#1230,#1232));
#1364=IFCFACE((#1365));
#1365=IFCFACEOUTERBOUND(#1366,.T.);
#1366=IFCPOLYLOOP((#125,#124,#1052));
#1367=IFCFACE((#1368));
#1368=IFCFACEOUTERBOUND(#1369,.T.);
#1369=IFCPOLYLOOP((#1133,#1141,#1351));
#1370=IFCFACE((#1371));
#1371=IFCFACEOUTERBOUND(#1372,.T.);
#1372=IFCPOLYLOOP((#1102,#1104,#1319));
#1373=IFCFACE((#1374));
#1374=IFCFACEOUTERBOUND(#1375,.T.);
#1375=IFCPOLYLOOP((#1232,#1057,#1113));
#1376=IFCFACE((#1377));
#1377=IFCFACEOUTERBOUND(#1378,.T.);
#1378=IFCPOLYLOOP((#1247,#1057,#1231));
#1379=IFCFACE((#1380));
#1380=IFCFACEOUTERBOUND(#1381,.T.);
#1381=IFCPOLYLOOP((#1232,#1231,#1057));
#1382=IFCFACE((#1383));
#1383=IFCFACEOUTERBOUND(#1384,.T.);
#1384=IFCPOLYLOOP((#1231,#1230,#1236));
#1385=IFCFACE((#1386));
#1386=IFCFACEOUTERBOUND(#1387,.T.);
#1387=IFCPOLYLOOP((#1231,#1236,#1247));
#1388=IFCFACE((#1389));
#1389=IFCFACEOUTERBOUND(#1390,.T.);
#1390=IFCPOLYLOOP((#1236,#1230,#1118));
#1391=IFCFACE((#1392));
#1392=IFCFACEOUTERBOUND(#1393,.T.);
#1393=IFCPOLYLOOP((#91,#90,#1230));
#1394=IFCFACE((#1395));
#1395=IFCFACEOUTERBOUND(#1396,.T.);
#1396=IFCPOLYLOOP((#1236,#148,#147));
#1397=IFCFACE((#1398));
#1398=IFCFACEOUTERBOUND(#1399,.T.);
#1399=IFCPOLYLOOP((#1230,#1125,#91));
#1400=IFCFACE((#1401));
#1401=IFCFACEOUTERBOUND(#1402,.T.);
#1402=IFCPOLYLOOP((#1118,#1230,#90));
#1403=IFCFACE((#1404));
#1404=IFCFACEOUTERBOUND(#1405,.T.);
#1405=IFCPOLYLOOP((#515,#1069,#516));
#1406=IFCFACE((#1407));
#1407=IFCFACEOUTERBOUND(#1408,.T.);
#1408=IFCPOLYLOOP((#1104,#1103,#1069));
#1409=IFCFACE((#1410));
#1410=IFCFACEOUTERBOUND(#1411,.T.);
#1411=IFCPOLYLOOP((#129,#128,#1323));
#1412=IFCFACE((#1413));
#1413=IFCFACEOUTERBOUND(#1414,.T.);
#1414=IFCPOLYLOOP((#515,#117,#129));
#1415=IFCFACE((#1416));
#1416=IFCFACEOUTERBOUND(#1417,.T.);
#1417=IFCPOLYLOOP((#516,#1069,#1103));
#1418=IFCFACE((#1419));
#1419=IFCFACEOUTERBOUND(#1420,.T.);
#1420=IFCPOLYLOOP((#1323,#1069,#129));
#1421=IFCFACE((#1422));
#1422=IFCFACEOUTERBOUND(#1423,.T.);
#1423=IFCPOLYLOOP((#1294,#1098,#1037));
#1424=IFCFACE((#1425));
#1425=IFCFACEOUTERBOUND(#1426,.T.);
#1426=IFCPOLYLOOP((#1281,#1294,#121));
#1427=IFCFACE((#1428));
#1428=IFCFACEOUTERBOUND(#1429,.T.);
#1429=IFCPOLYLOOP((#1037,#1098,#1048));
#1430=IFCFACE((#1431));
#1431=IFCFACEOUTERBOUND(#1432,.T.);
#1432=IFCPOLYLOOP((#1281,#97,#96));
#1433=IFCFACE((#1434));
#1434=IFCFACEOUTERBOUND(#1435,.T.);
#1435=IFCPOLYLOOP((#1281,#1098,#1294));
#1436=IFCFACE((#1437));
#1437=IFCFACEOUTERBOUND(#1438,.T.);
#1438=IFCPOLYLOOP((#121,#98,#97));
#1439=IFCFACE((#1440));
#1440=IFCFACEOUTERBOUND(#1441,.T.);
#1441=IFCPOLYLOOP((#121,#1294,#122));
#1442=IFCFACE((#1443));
#1443=IFCFACEOUTERBOUND(#1444,.T.);
#1444=IFCPOLYLOOP((#97,#1281,#121));
#1445=IFCFACE((#1446));
#1446=IFCFACEOUTERBOUND(#1447,.T.);
#1447=IFCPOLYLOOP((#1319,#1200,#1041));
#1448=IFCFACE((#1449));
#1449=IFCFACEOUTERBOUND(#1450,.T.);
#1450=IFCPOLYLOOP((#1030,#1200,#1031));
#1451=IFCFACE((#1452));
#1452=IFCFACEOUTERBOUND(#1453,.T.);
#1453=IFCPOLYLOOP((#1043,#1319,#1041));
#1454=IFCFACE((#1455));
#1455=IFCFACEOUTERBOUND(#1456,.T.);
#1456=IFCPOLYLOOP((#1088,#1041,#1030));
#1457=IFCFACE((#1458));
#1458=IFCFACEOUTERBOUND(#1459,.T.);
#1459=IFCPOLYLOOP((#1102,#1319,#1351));
#1460=IFCFACE((#1461));
#1461=IFCFACEOUTERBOUND(#1462,.T.);
#1462=IFCPOLYLOOP((#1043,#1042,#1133));
#1463=IFCFACE((#1464));
#1464=IFCFACEOUTERBOUND(#1465,.T.);
#1465=IFCPOLYLOOP((#24,#522,#142));
#1466=IFCFACE((#1467));
#1467=IFCFACEOUTERBOUND(#1468,.T.);
#1468=IFCPOLYLOOP((#144,#143,#1065));
#1469=IFCFACE((#1470));
#1470=IFCFACEOUTERBOUND(#1471,.T.);
#1471=IFCPOLYLOOP((#1063,#143,#142));
#1472=IFCFACE((#1473));
#1473=IFCFACEOUTERBOUND(#1474,.T.);
#1474=IFCPOLYLOOP((#1065,#1151,#1183));
#1475=IFCFACE((#1476));
#1476=IFCFACEOUTERBOUND(#1477,.T.);
#1477=IFCPOLYLOOP((#1193,#1211,#1151));
#1478=IFCFACE((#1479));
#1479=IFCFACEOUTERBOUND(#1480,.T.);
#1480=IFCPOLYLOOP((#1065,#1183,#144));
#1481=IFCFACE((#1482));
#1482=IFCFACEOUTERBOUND(#1483,.T.);
#1483=IFCPOLYLOOP((#1074,#1183,#1211));
#1484=IFCFACE((#1485));
#1485=IFCFACEOUTERBOUND(#1486,.T.);
#1486=IFCPOLYLOOP((#1109,#1193,#1151));
#1487=IFCFACE((#1488));
#1488=IFCFACEOUTERBOUND(#1489,.T.);
#1489=IFCPOLYLOOP((#1211,#1193,#1090));
#1490=IFCFACE((#1491));
#1491=IFCFACEOUTERBOUND(#1492,.T.);
#1492=IFCPOLYLOOP((#1059,#1090,#1089));
#1493=IFCFACE((#1494));
#1494=IFCFACEOUTERBOUND(#1495,.T.);
#1495=IFCPOLYLOOP((#1090,#1059,#1058));
#1496=IFCFACE((#1497));
#1497=IFCFACEOUTERBOUND(#1498,.T.);
#1498=IFCPOLYLOOP((#1247,#1073,#1058));
#1499=IFCFACE((#1500));
#1500=IFCFACEOUTERBOUND(#1501,.T.);
#1501=IFCPOLYLOOP((#1074,#1073,#145));
#1502=IFCFACE((#1503));
#1503=IFCFACEOUTERBOUND(#1504,.T.);
#1504=IFCPOLYLOOP((#95,#94,#1048));
#1505=IFCFACE((#1506));
#1506=IFCFACEOUTERBOUND(#1507,.T.);
#1507=IFCPOLYLOOP((#1029,#1047,#1094));
#1508=IFCFACE((#1509));
#1509=IFCFACEOUTERBOUND(#1510,.T.);
#1510=IFCPOLYLOOP((#1047,#1029,#1035));
#1511=IFCFACE((#1512));
#1512=IFCFACEOUTERBOUND(#1513,.T.);
#1513=IFCPOLYLOOP((#1108,#1164,#1133));
#1514=IFCFACE((#1515));
#1515=IFCFACEOUTERBOUND(#1516,.T.);
#1516=IFCPOLYLOOP((#1141,#1164,#518));
#1517=IFCFACE((#1518));
#1518=IFCFACEOUTERBOUND(#1519,.T.);
#1519=IFCPOLYLOOP((#1048,#1243,#1114));
#1520=IFCFACE((#1521));
#1521=IFCFACEOUTERBOUND(#1522,.T.);
#1522=IFCPOLYLOOP((#1126,#1243,#93));
#1523=IFCFACE((#1524));
#1524=IFCFACEOUTERBOUND(#1525,.T.);
#1525=IFCPOLYLOOP((#1351,#1043,#1133));
#1526=IFCFACE((#1527));
#1527=IFCFACEOUTERBOUND(#1528,.T.);
#1528=IFCPOLYLOOP((#1043,#1351,#1319));
#1529=IFCFACE((#1530));
#1530=IFCFACEOUTERBOUND(#1531,.T.);
#1531=IFCPOLYLOOP((#160,#83,#78));
#1532=IFCFACE((#1533));
#1533=IFCFACEOUTERBOUND(#1534,.T.);
#1534=IFCPOLYLOOP((#79,#84,#161));
#1535=IFCFACE((#1536));
#1536=IFCFACEOUTERBOUND(#1537,.T.);
#1537=IFCPOLYLOOP((#78,#74,#1538,#1539,#1540,#1541,#165,#160));
#1538=IFCCARTESIANPOINT((11033.182088472278,5852.6011949982594,952.46737801585914));
#1539=IFCCARTESIANPOINT((11274.886566354218,6014.4508962486798,814.35053351189481));
#1540=IFCCARTESIANPOINT((11516.59104423616,6176.3005974991011,676.23368900792957));
#1541=IFCCARTESIANPOINT((11758.2955221181,6338.1502987495223,538.11684450396478));
#1542=IFCFACE((#1543));
#1543=IFCFACEOUTERBOUND(#1544,.T.);
#1544=IFCPOLYLOOP((#79,#161,#166,#1545,#1546,#1547,#1548,#69));
#1545=IFCCARTESIANPOINT((11758.2955221181,6338.1502987495223,138.11684450396478));
#1546=IFCCARTESIANPOINT((11516.59104423616,6176.3005974991011,276.23368900792957));
#1547=IFCCARTESIANPOINT((11274.886566354218,6014.4508962486798,414.35053351189481));
#1548=IFCCARTESIANPOINT((11033.182088472278,5852.6011949982594,552.46737801585914));
#1549=IFCFACE((#1550));
#1550=IFCFACEOUTERBOUND(#1551,.T.);
#1551=IFCPOLYLOOP((#1552,#1553,#195));
#1552=IFCCARTESIANPOINT((11191.704415546668,3484.0945588764052,686.50310711258362));
#1553=IFCCARTESIANPOINT((10860.973423758025,2685.5907061038033,811.09510656308976));
#1554=IFCFACE((#1555));
#1555=IFCFACEOUTERBOUND(#1556,.T.);
#1556=IFCPOLYLOOP((#1553,#1557,#72));
#1557=IFCCARTESIANPOINT((10892.115945349171,4109.8706803492669,904.52874977751071));
#1558=IFCFACE((#1559));
#1559=IFCFACEOUTERBOUND(#1560,.T.);
#1560=IFCPOLYLOOP((#1538,#73,#1557));
#1561=IFCFACE((#1562));
#1562=IFCFACEOUTERBOUND(#1563,.T.);
#1563=IFCPOLYLOOP((#1552,#195,#194,#208));
#1564=IFCFACE((#1565));
#1565=IFCFACEOUTERBOUND(#1566,.T.);
#1566=IFCPOLYLOOP((#1553,#58,#333,#196,#195));
#1567=IFCFACE((#1568));
#1568=IFCFACEOUTERBOUND(#1569,.T.);
#1569=IFCPOLYLOOP((#207,#1570,#208));
#1570=IFCCARTESIANPOINT((11517.898827665907,4682.9314298964373,589.27835146859343));
#1571=IFCFACE((#1572));
#1572=IFCFACEOUTERBOUND(#1573,.T.);
#1573=IFCPOLYLOOP((#1574,#1540,#1539));
#1574=IFCCARTESIANPOINT((11442.529963049736,5316.13495789632,668.68313396552776));
#1575=IFCFACE((#1576));
#1576=IFCFACEOUTERBOUND(#1577,.T.);
#1577=IFCPOLYLOOP((#1540,#1574,#1578));
#1578=IFCCARTESIANPOINT((11722.457936314338,5573.1223236154747,526.68050644962432));
#1579=IFCFACE((#1580));
#1580=IFCFACEOUTERBOUND(#1581,.T.);
#1581=IFCPOLYLOOP((#1552,#208,#1570));
#1582=IFCFACE((#1583));
#1583=IFCFACEOUTERBOUND(#1584,.T.);
#1584=IFCPOLYLOOP((#1585,#1557,#1553));
#1585=IFCCARTESIANPOINT((11191.704394415066,4354.4952333945694,748.18884021714803));
#1586=IFCFACE((#1587));
#1587=IFCFACEOUTERBOUND(#1588,.T.);
#1588=IFCPOLYLOOP((#1570,#1585,#1552));
#1589=IFCFACE((#1590));
#1590=IFCFACEOUTERBOUND(#1591,.T.);
#1591=IFCPOLYLOOP((#1578,#1574,#1570));
#1592=IFCFACE((#1593));
#1593=IFCFACEOUTERBOUND(#1594,.T.);
#1594=IFCPOLYLOOP((#1570,#1595,#1578));
#1595=IFCCARTESIANPOINT((11764.011859686143,5190.7483081811179,489.98825543809426));
#1596=IFCFACE((#1597));
#1597=IFCFACEOUTERBOUND(#1598,.T.);
#1598=IFCPOLYLOOP((#1570,#1574,#1585));
#1599=IFCFACE((#1600));
#1600=IFCFACEOUTERBOUND(#1601,.T.);
#1601=IFCPOLYLOOP((#1585,#1553,#1552));
#1602=IFCFACE((#1603));
#1603=IFCFACEOUTERBOUND(#1604,.T.);
#1604=IFCPOLYLOOP((#1539,#1585,#1574));
#1605=IFCFACE((#1606));
#1606=IFCFACEOUTERBOUND(#1607,.T.);
#1607=IFCPOLYLOOP((#58,#1553,#72));
#1608=IFCFACE((#1609));
#1609=IFCFACEOUTERBOUND(#1610,.T.);
#1610=IFCPOLYLOOP((#1595,#1570,#207));
#1611=IFCFACE((#1612));
#1612=IFCFACEOUTERBOUND(#1613,.T.);
#1613=IFCPOLYLOOP((#165,#1578,#173));
#1614=IFCFACE((#1615));
#1615=IFCFACEOUTERBOUND(#1616,.T.);
#1616=IFCPOLYLOOP((#1539,#1538,#1585));
#1617=IFCFACE((#1618));
#1618=IFCFACEOUTERBOUND(#1619,.T.);
#1619=IFCPOLYLOOP((#174,#311,#175));
#1620=IFCFACE((#1621));
#1621=IFCFACEOUTERBOUND(#1622,.T.);
#1622=IFCPOLYLOOP((#1541,#1540,#1578,#165));
#1623=IFCFACE((#1624));
#1624=IFCFACEOUTERBOUND(#1625,.T.);
#1625=IFCPOLYLOOP((#311,#174,#1595));
#1626=IFCFACE((#1627));
#1627=IFCFACEOUTERBOUND(#1628,.T.);
#1628=IFCPOLYLOOP((#1578,#1595,#173));
#1629=IFCFACE((#1630));
#1630=IFCFACEOUTERBOUND(#1631,.T.);
#1631=IFCPOLYLOOP((#1595,#207,#206,#311));
#1632=IFCFACE((#1633));
#1633=IFCFACEOUTERBOUND(#1634,.T.);
#1634=IFCPOLYLOOP((#1538,#1557,#1585));
#1635=IFCFACE((#1636));
#1636=IFCFACEOUTERBOUND(#1637,.T.);
#1637=IFCPOLYLOOP((#173,#1595,#174));
#1638=IFCFACE((#1639));
#1639=IFCFACEOUTERBOUND(#1640,.T.);
#1640=IFCPOLYLOOP((#73,#1538,#74));
#1641=IFCFACE((#1642));
#1642=IFCFACEOUTERBOUND(#1643,.T.);
#1643=IFCPOLYLOOP((#73,#72,#1557));
#1644=IFCFACE((#1645));
#1645=IFCFACEOUTERBOUND(#1646,.T.);
#1646=IFCPOLYLOOP((#353,#1647,#1648));
#1647=IFCCARTESIANPOINT((10860.973423758025,2685.5907061038033,411.09510656308976));
#1648=IFCCARTESIANPOINT((11191.704415546668,3484.0945588764062,286.50310711258362));
#1649=IFCFACE((#1650));
#1650=IFCFACEOUTERBOUND(#1651,.T.);
#1651=IFCPOLYLOOP((#71,#1652,#1647));
#1652=IFCCARTESIANPOINT((10892.115945349171,4109.8706803492669,504.52874977751071));
#1653=IFCFACE((#1654));
#1654=IFCFACEOUTERBOUND(#1655,.T.);
#1655=IFCPOLYLOOP((#1652,#70,#1548));
#1656=IFCFACE((#1657));
#1657=IFCFACEOUTERBOUND(#1658,.T.);
#1658=IFCPOLYLOOP((#1648,#364,#354,#353));
#1659=IFCFACE((#1660));
#1660=IFCFACEOUTERBOUND(#1661,.T.);
#1661=IFCPOLYLOOP((#491,#59,#1647,#353,#352));
#1662=IFCFACE((#1663));
#1663=IFCFACEOUTERBOUND(#1664,.T.);
#1664=IFCPOLYLOOP((#364,#1665,#365));
#1665=IFCCARTESIANPOINT((11517.898827665907,4682.9314298964382,189.27835146859343));
#1666=IFCFACE((#1667));
#1667=IFCFACEOUTERBOUND(#1668,.T.);
#1668=IFCPOLYLOOP((#1547,#1546,#1669));
#1669=IFCCARTESIANPOINT((11442.529963049736,5316.13495789632,268.68313396552776));
#1670=IFCFACE((#1671));
#1671=IFCFACEOUTERBOUND(#1672,.T.);
#1672=IFCPOLYLOOP((#1673,#1669,#1546));
#1673=IFCCARTESIANPOINT((11722.457936314338,5573.1223236154747,126.68050644962432));
#1674=IFCFACE((#1675));
#1675=IFCFACEOUTERBOUND(#1676,.T.);
#1676=IFCPOLYLOOP((#1665,#364,#1648));
#1677=IFCFACE((#1678));
#1678=IFCFACEOUTERBOUND(#1679,.T.);
#1679=IFCPOLYLOOP((#1647,#1652,#1680));
#1680=IFCCARTESIANPOINT((11191.704394415066,4354.4952333945694,348.18884021714803));
#1681=IFCFACE((#1682));
#1682=IFCFACEOUTERBOUND(#1683,.T.);
#1683=IFCPOLYLOOP((#1648,#1680,#1665));
#1684=IFCFACE((#1685));
#1685=IFCFACEOUTERBOUND(#1686,.T.);
#1686=IFCPOLYLOOP((#1665,#1669,#1673));
#1687=IFCFACE((#1688));
#1688=IFCFACEOUTERBOUND(#1689,.T.);
#1689=IFCPOLYLOOP((#1673,#1690,#1665));
#1690=IFCCARTESIANPOINT((11764.011859686145,5190.7483081811188,89.988255438094257));
#1691=IFCFACE((#1692));
#1692=IFCFACEOUTERBOUND(#1693,.T.);
#1693=IFCPOLYLOOP((#1680,#1669,#1665));
#1694=IFCFACE((#1695));
#1695=IFCFACEOUTERBOUND(#1696,.T.);
#1696=IFCPOLYLOOP((#1648,#1647,#1680));
#1697=IFCFACE((#1698));
#1698=IFCFACEOUTERBOUND(#1699,.T.);
#1699=IFCPOLYLOOP((#1669,#1680,#1547));
#1700=IFCFACE((#1701));
#1701=IFCFACEOUTERBOUND(#1702,.T.);
#1702=IFCPOLYLOOP((#71,#1647,#59));
#1703=IFCFACE((#1704));
#1704=IFCFACEOUTERBOUND(#1705,.T.);
#1705=IFCPOLYLOOP((#365,#1665,#1690));
#1706=IFCFACE((#1707));
#1707=IFCFACEOUTERBOUND(#1708,.T.);
#1708=IFCPOLYLOOP((#172,#1673,#166));
#1709=IFCFACE((#1710));
#1710=IFCFACEOUTERBOUND(#1711,.T.);
#1711=IFCPOLYLOOP((#1680,#1548,#1547));
#1712=IFCFACE((#1713));
#1713=IFCFACEOUTERBOUND(#1714,.T.);
#1714=IFCPOLYLOOP((#170,#469,#171));
#1715=IFCFACE((#1716));
#1716=IFCFACEOUTERBOUND(#1717,.T.);
#1717=IFCPOLYLOOP((#166,#1673,#1546,#1545));
#1718=IFCFACE((#1719));
#1719=IFCFACEOUTERBOUND(#1720,.T.);
#1720=IFCPOLYLOOP((#1690,#171,#469));
#1721=IFCFACE((#1722));
#1722=IFCFACEOUTERBOUND(#1723,.T.);
#1723=IFCPOLYLOOP((#172,#1690,#1673));
#1724=IFCFACE((#1725));
#1725=IFCFACEOUTERBOUND(#1726,.T.);
#1726=IFCPOLYLOOP((#1690,#469,#366,#365));
#1727=IFCFACE((#1728));
#1728=IFCFACEOUTERBOUND(#1729,.T.);
#1729=IFCPOLYLOOP((#1680,#1652,#1548));
#1730=IFCFACE((#1731));
#1731=IFCFACEOUTERBOUND(#1732,.T.);
#1732=IFCPOLYLOOP((#171,#1690,#172));
#1733=IFCFACE((#1734));
#1734=IFCFACEOUTERBOUND(#1735,.T.);
#1735=IFCPOLYLOOP((#69,#1548,#70));
#1736=IFCFACE((#1737));
#1737=IFCFACEOUTERBOUND(#1738,.T.);
#1738=IFCPOLYLOOP((#1652,#71,#70));
#1739=IFCFACE((#1740));
#1740=IFCFACEOUTERBOUND(#1741,.T.);
#1741=IFCPOLYLOOP((#41,#44,#216,#215,#200,#53));
#1742=IFCFACE((#1743));
#1743=IFCFACEOUTERBOUND(#1744,.T.);
#1744=IFCPOLYLOOP((#42,#54,#359,#375,#374,#43));
#1745=IFCFACE((#1746));
#1746=IFCFACEOUTERBOUND(#1747,.T.);
#1747=IFCPOLYLOOP((#160,#111,#83));
#1748=IFCFACE((#1749));
#1749=IFCFACEOUTERBOUND(#1750,.T.);
#1750=IFCPOLYLOOP((#84,#112,#161));
#1751=IFCFACE((#1752));
#1752=IFCFACEOUTERBOUND(#1753,.T.);
#1753=IFCPOLYLOOP((#53,#48,#41));
#1754=IFCFACE((#1755));
#1755=IFCFACEOUTERBOUND(#1756,.T.);
#1756=IFCPOLYLOOP((#42,#49,#54));
#1757=IFCMATERIALLAYERSET((#1758),'\X2\AE30BCF8\X0\ \X2\C9C0BD95\X0\:\X2\C77CBC18\X0\ - 400mm',$);
#1758=IFCMATERIALLAYER(#1759,400.,$,$,$,$,$);
#1759=IFCMATERIAL('\X2\AE30BCF8\X0\ \X2\C9C0BD95\X0\',$,$);
#1760=IFCRELASSOCIATESMATERIAL('0B28l29dP7LhzYwGAxttUy',$,$,$,(#12),#1757);
#1761=IFCPROPERTYSET('3ykofvCQH4P8uPwjB0OZdJ',#13,'Pset_QuantityTakeOff',$,(#1762));
#1762=IFCPROPERTYSINGLEVALUE('Reference',$,IFCIDENTIFIER('\X2\C77CBC18\X0\ - 400mm'),$);
#1763=IFCRELDEFINESBYPROPERTIES('2_nHy3prP3twq5ufxtzmkx',$,$,$,(#12),#1761);
#1764=IFCPROPERTYSET('0q4AhQPtz96A200dfqeD5H',#13,'Pset_RoofCommon',$,(#1765,#1762,#1766,#1767));
#1765=IFCPROPERTYSINGLEVALUE('IsExternal',$,IFCBOOLEAN(.T.),$);
#1766=IFCPROPERTYSINGLEVALUE('ProjectedArea',$,IFCAREAMEASURE(58.838626499110411),$);
#1767=IFCPROPERTYSINGLEVALUE('TotalArea',$,IFCAREAMEASURE(65.414803815735752),$);
#1768=IFCRELDEFINESBYPROPERTIES('34zlK2yzH6au1JcDY1QnJ2',$,$,$,(#12),#1764);
#1769=IFCSTYLEDITEM(#36,(#1770),$);
#1770=IFCPRESENTATIONSTYLEASSIGNMENT((#1771));
#1771=IFCSURFACESTYLE($,.BOTH.,(#1772));
#1772=IFCSURFACESTYLERENDERING(#1773,$,$,$,$,$,$,$,.FLAT.);
#1773=IFCCOLOURRGB($,0.90980392156862744,0.50196078431372548,0.54509803921568623);
#1774=IFCOWNERHISTORY(#14,#17,.READWRITE.,.ADDED.,1778802794,#14,#17,1778802794);
#1775=IFCRELCONTAINEDINSPATIALSTRUCTURE('0uMgbczlr97OZ8w7CimDId',#1774,$,$,(#12),#8);
#1781=IFCOWNERHISTORY(#14,#17,$,.MODIFIED.,1778802794,#14,#17,1778487490);
#1782=IFCCARTESIANPOINT((0.,0.,0.));
#1783=IFCDIRECTION((0.,0.,1.));
#1784=IFCDIRECTION((1.,0.,0.));
#1785=IFCAXIS2PLACEMENT3D(#1782,#1783,#1784);
#1786=IFCLOCALPLACEMENT($,#1785);
#1787=IFCOWNERHISTORY(#14,#17,.READWRITE.,.ADDED.,1778802794,#14,#17,1778802794);
#1788=IFCPROPERTYSET('28fcebK5z08QQd1lrAkg24',#1787,'Pset_LibraryAsset',$,(#1791,#1792,#1793,#1794,#1795,#1796,#1797,#1798,#1799,#1800));
#1789=IFCOWNERHISTORY(#14,#17,.READWRITE.,.ADDED.,1778802794,#14,#17,1778802794);
#1790=IFCRELDEFINESBYPROPERTIES('1_p5c5QK5FlfREryouwp_O',#1789,$,$,(#12),#1788);
#1791=IFCPROPERTYSINGLEVALUE('AssetId',$,IFCLABEL('roof-178223'),$);
#1792=IFCPROPERTYSINGLEVALUE('AssetGroup',$,IFCLABEL('roof-178223'),$);
#1793=IFCPROPERTYSINGLEVALUE('AssetRole',$,IFCLABEL('member-0'),$);
#1794=IFCPROPERTYSINGLEVALUE('Category',$,IFCLABEL('roof'),$);
#1795=IFCPROPERTYSINGLEVALUE('SourceElementName',$,IFCLABEL('\X2\AE30BCF8\X0\ \X2\C9C0BD95\X0\:\X2\C77CBC18\X0\ - 400mm:178223'),$);
#1796=IFCPROPERTYSINGLEVALUE('SourceGlobalId',$,IFCLABEL('2QLDczdKX9Fg7Ur4rrIPQ3'),$);
#1797=IFCPROPERTYSINGLEVALUE('Reusable',$,IFCBOOLEAN(.T.),$);
#1798=IFCPROPERTYSINGLEVALUE('WidthMm',$,IFCREAL(16724.781999999999),$);
#1799=IFCPROPERTYSINGLEVALUE('DepthMm',$,IFCREAL(6500.),$);
#1800=IFCPROPERTYSINGLEVALUE('HeightMm',$,IFCREAL(1200.),$);
ENDSEC;
END-ISO-10303-21;
