ISO-10303-21;
HEADER;
FILE_DESCRIPTION(('ViewDefinition [CoordinationView]'),'2;1');
FILE_NAME('','2026-05-15T12:54:03',(''),(''),'IfcOpenShell 0.8.5-1c5b825','IfcOpenShell 0.8.5-1c5b825','');
FILE_SCHEMA(('IFC4'));
ENDSEC;
DATA;
#1=IFCPROJECT('2Xd1OQm1f7yg6djsyh_7t1',$,'roof-187335 Asset Library',$,$,$,$,$,#5);
#2=IFCSIUNIT(*,.LENGTHUNIT.,.MILLI.,.METRE.);
#3=IFCSIUNIT(*,.AREAUNIT.,$,.SQUARE_METRE.);
#4=IFCSIUNIT(*,.VOLUMEUNIT.,$,.CUBIC_METRE.);
#5=IFCUNITASSIGNMENT((#2,#3,#4));
#6=IFCSITE('1SGz4BQ3fE6v7h0SGi8ays',$,'Asset Site',$,$,$,$,$,$,$,$,$,$,$);
#7=IFCBUILDING('1ccyfD_i58AfsNkIeKt1Af',$,'Asset Building',$,$,$,$,$,$,$,$,$);
#8=IFCBUILDINGSTOREY('3GC24G$qzDduBD$b8gykeX',$,'Asset Storey',$,$,$,$,$,$,$);
#9=IFCRELAGGREGATES('0fyJDLrUX0iAndlbHt4gy6',$,$,$,#1,(#6));
#10=IFCRELAGGREGATES('1rKOh8HlTBIf$pz1qo24S5',$,$,$,#6,(#7));
#11=IFCRELAGGREGATES('0HqX7IVLL1pABUqLqxhpZs',$,$,$,#7,(#8));
#12=IFCROOF('3k9Om3E5P2LxjWgC6Hih7v',#248,'\X2\AE30BCF8\X0\ \X2\C9C0BD95\X0\:\X2\C77CBC18\X0\ - 400mm:187335',$,$,#275,$,'187335',.NOTDEFINED.);
#13=IFCOWNERHISTORY(#14,#17,$,.NOCHANGE.,$,$,$,1778487490);
#14=IFCPERSONANDORGANIZATION(#15,#16,$);
#15=IFCPERSON($,'','hnn06134',$,$,$,$,$);
#16=IFCORGANIZATION($,'','',$,$);
#17=IFCAPPLICATION(#18,'2027','Autodesk Revit 2027 (KOR)','Revit');
#18=IFCORGANIZATION($,'Autodesk Revit 2027 (KOR)',$,$,$);
#20=IFCLOCALPLACEMENT(#21,#26);
#21=IFCLOCALPLACEMENT(#22,#25);
#22=IFCLOCALPLACEMENT($,#23);
#23=IFCAXIS2PLACEMENT3D(#24,$,$);
#24=IFCCARTESIANPOINT((0.,0.,0.));
#25=IFCAXIS2PLACEMENT3D(#24,$,$);
#26=IFCAXIS2PLACEMENT3D(#27,$,$);
#27=IFCCARTESIANPOINT((0.,0.,5000.));
#30=IFCSLAB('3GG4pI4Av9D8DS0jcgY95v',#254,'\X2\AE30BCF8\X0\ \X2\C9C0BD95\X0\:\X2\C77CBC18\X0\ - 400mm:187335',$,$,#280,#33,'187335',.ROOF.);
#33=IFCPRODUCTDEFINITIONSHAPE($,$,(#34));
#34=IFCSHAPEREPRESENTATION(#35,'Body','SweptSolid',(#39));
#35=IFCGEOMETRICREPRESENTATIONSUBCONTEXT('Body','Model',*,*,*,*,#36,$,.MODEL_VIEW.,$);
#36=IFCGEOMETRICREPRESENTATIONCONTEXT($,'Model',3,0.01,#37,#38);
#37=IFCAXIS2PLACEMENT3D(#24,$,$);
#38=IFCDIRECTION((0.,1.));
#39=IFCEXTRUDEDAREASOLID(#40,#45,#49,400.);
#40=IFCARBITRARYCLOSEDPROFILEDEF(.AREA.,$,#41);
#41=IFCPOLYLINE((#42,#43,#44,#42));
#42=IFCCARTESIANPOINT((-2112.7192030336041,5189.4273158188507));
#43=IFCCARTESIANPOINT((-2112.7192030336219,-5189.4273158188444));
#44=IFCCARTESIANPOINT((2112.7192030336118,-462.65427155452403));
#45=IFCAXIS2PLACEMENT3D(#46,#47,#48);
#46=IFCCARTESIANPOINT((2039.8731408759272,5189.4273158188762,550.));
#47=IFCDIRECTION((-0.26032801671432049,0.,0.96552023475098048));
#48=IFCDIRECTION((0.96552023475098048,0.,0.26032801671432049));
#49=IFCDIRECTION((0.26032801671432049,-0.,0.96552023475098048));
#50=IFCSLAB('1H7TvcA2D5OgywxEMtIi8H',#242,'\X2\AE30BCF8\X0\ \X2\C9C0BD95\X0\:\X2\C77CBC18\X0\ - 400mm:187335.001',$,$,#285,#53,'187335',.ROOF.);
#53=IFCPRODUCTDEFINITIONSHAPE($,$,(#54));
#54=IFCSHAPEREPRESENTATION(#35,'Body','SweptSolid',(#55));
#55=IFCEXTRUDEDAREASOLID(#56,#61,#65,400.);
#56=IFCARBITRARYCLOSEDPROFILEDEF(.AREA.,$,#57);
#57=IFCPOLYLINE((#58,#59,#60,#58));
#58=IFCCARTESIANPOINT((-5119.5028491175453,-2426.539893139181));
#59=IFCCARTESIANPOINT((5119.5028491175281,-2426.5398931392128));
#60=IFCCARTESIANPOINT((-1039.7565673657018,2426.5398931391974));
#61=IFCAXIS2PLACEMENT3D(#62,#63,#64);
#62=IFCCARTESIANPOINT((5119.5028491175453,2363.3865221321839,550.));
#63=IFCDIRECTION((-0.,-0.22666019279347979,0.97397389954907032));
#64=IFCDIRECTION((1.,0.,0.));
#65=IFCDIRECTION((0.,0.22666019279347979,0.97397389954907032));
#66=IFCSLAB('1OGLgTazv2yBto5Zq6bES_',#236,'\X2\AE30BCF8\X0\ \X2\C9C0BD95\X0\:\X2\C77CBC18\X0\ - 400mm:187335.002',$,$,#290,#69,'187335',.ROOF.);
#69=IFCPRODUCTDEFINITIONSHAPE($,$,(#70));
#70=IFCSHAPEREPRESENTATION(#35,'Body','SweptSolid',(#71));
#71=IFCEXTRUDEDAREASOLID(#72,#77,#80,400.);
#72=IFCARBITRARYCLOSEDPROFILEDEF(.AREA.,$,#73);
#73=IFCPOLYLINE((#74,#75,#76,#74));
#74=IFCCARTESIANPOINT((-4308.2561579428675,1271.8694788037274));
#75=IFCCARTESIANPOINT((-228.50987619103961,-4486.2574970735095));
#76=IFCCARTESIANPOINT((2505.967045958645,1271.8694788037055));
#77=IFCAXIS2PLACEMENT3D(#78,#79,#64);
#78=IFCCARTESIANPOINT((4308.2561579428848,9130.4087233059581,242.97074943731238));
#79=IFCDIRECTION((0.,0.19103434234921854,0.98158335358908855));
#80=IFCDIRECTION((-0.,-0.19103434234921854,0.98158335358908855));
#81=IFCSLAB('2eUgyPyzH0kR0GFUiK4XR_',#260,'\X2\AE30BCF8\X0\ \X2\C9C0BD95\X0\:\X2\C77CBC18\X0\ - 400mm:187335.003',$,$,#295,#84,'187335',.ROOF.);
#84=IFCPRODUCTDEFINITIONSHAPE($,$,(#85));
#85=IFCSHAPEREPRESENTATION(#35,'Body','SweptSolid',(#86));
#86=IFCEXTRUDEDAREASOLID(#87,#92,#94,400.);
#87=IFCARBITRARYCLOSEDPROFILEDEF(.AREA.,$,#88);
#88=IFCPOLYLINE((#89,#90,#91,#89));
#89=IFCCARTESIANPOINT((1712.3912471667768,-2770.));
#90=IFCCARTESIANPOINT((1712.3912471667854,2770.));
#91=IFCCARTESIANPOINT((-1712.3912471667768,2770.));
#92=IFCAXIS2PLACEMENT3D(#93,$,$);
#93=IFCCARTESIANPOINT((8526.6144510682971,2770.,0.));
#94=IFCDIRECTION((0.,0.,1.));
#95=IFCSLAB('129j8sbKn2Ied3Xjc3frjm',#230,'\X2\AE30BCF8\X0\ \X2\C9C0BD95\X0\:\X2\C77CBC18\X0\ - 400mm:187335.004',$,$,#300,#98,'187335',.ROOF.);
#98=IFCPRODUCTDEFINITIONSHAPE($,$,(#99));
#99=IFCSHAPEREPRESENTATION(#35,'Body','SweptSolid',(#100));
#100=IFCEXTRUDEDAREASOLID(#101,#106,#110,399.99999999999994);
#101=IFCARBITRARYCLOSEDPROFILEDEF(.AREA.,$,#102);
#102=IFCPOLYLINE((#103,#104,#105,#103));
#103=IFCCARTESIANPOINT((3245.4444039437808,-2199.8421792915869));
#104=IFCCARTESIANPOINT((-363.73664506804465,3221.8316663899855));
#105=IFCCARTESIANPOINT((-3245.4444039437822,2199.8421792915888));
#106=IFCAXIS2PLACEMENT3D(#107,#108,#109);
#107=IFCCARTESIANPOINT((7159.3759899934594,2363.3865221321753,550.));
#108=IFCDIRECTION((0.315551424143929,0.19507129846031543,0.92864120479211187));
#109=IFCDIRECTION((0.94890847752601426,-0.064869297194228528,-0.30881171538785346));
#110=IFCDIRECTION((-0.30881171538785346,-0.20557440794385523,0.92864120479211187));
#111=IFCSLAB('09zhh4NjzFG9IknnDK12Ly',#224,'\X2\AE30BCF8\X0\ \X2\C9C0BD95\X0\:\X2\C77CBC18\X0\ - 400mm:187335.005',$,$,#305,#114,'187335',.ROOF.);
#114=IFCPRODUCTDEFINITIONSHAPE($,$,(#115));
#115=IFCSHAPEREPRESENTATION(#35,'Body','SweptSolid',(#116));
#116=IFCEXTRUDEDAREASOLID(#117,#122,#126,400.);
#117=IFCARBITRARYCLOSEDPROFILEDEF(.AREA.,$,#118);
#118=IFCPOLYLINE((#119,#120,#121,#119));
#119=IFCCARTESIANPOINT((1473.7167331079211,-2012.8138379510167));
#120=IFCCARTESIANPOINT((1473.7167331079293,2826.0407936866754));
#121=IFCCARTESIANPOINT((-1473.7167331079283,-2826.0407936866768));
#122=IFCAXIS2PLACEMENT3D(#123,#124,#125);
#123=IFCCARTESIANPOINT((5446.9847428266858,7552.8138379510292,550.));
#124=IFCDIRECTION((0.37320604946929253,-0.,0.92774848134584631));
#125=IFCDIRECTION((0.92774848134584631,0.,-0.37320604946929253));
#126=IFCDIRECTION((-0.37320604946929253,0.,0.92774848134584631));
#127=IFCMATERIALLAYERSET((#128),'\X2\AE30BCF8\X0\ \X2\C9C0BD95\X0\:\X2\C77CBC18\X0\ - 400mm',$);
#128=IFCMATERIALLAYER(#129,400.,$,$,$,$,$);
#129=IFCMATERIAL('\X2\AE30BCF8\X0\ \X2\C9C0BD95\X0\',$,$);
#130=IFCRELASSOCIATESMATERIAL('1Yz48tAEX6Su_ATkaz2N3P',$,$,$,(#30,#50,#66,#81,#95,#111,#12),#127);
#131=IFCPROPERTYSET('2xjRT357PB_BLtVDvQPrxB',#13,'Pset_ReinforcementBarPitchOfSlab',$,(#132));
#132=IFCPROPERTYSINGLEVALUE('Reference',$,IFCLABEL('\X2\C77CBC18\X0\ - 400mm'),$);
#133=IFCRELDEFINESBYPROPERTIES('15AxKWkKvC$8r9Y0t1bwVN',$,$,$,(#111),#131);
#134=IFCPROPERTYSET('3M54wSSOX7BvkO79Zsd8V8',#13,'Pset_SlabCommon',$,(#135,#136,#137));
#135=IFCPROPERTYSINGLEVALUE('IsExternal',$,IFCBOOLEAN(.T.),$);
#136=IFCPROPERTYSINGLEVALUE('Reference',$,IFCIDENTIFIER('\X2\C77CBC18\X0\ - 400mm'),$);
#137=IFCPROPERTYSINGLEVALUE('PitchAngle',$,IFCPLANEANGLEMEASURE(21.913479062970115),$);
#138=IFCRELDEFINESBYPROPERTIES('28dR5E$YT9x9tkixlNuTra',$,$,$,(#111),#134);
#139=IFCPROPERTYSET('3h_ScYqNj0S9Fv3ccCip1n',#13,'Pset_QuantityTakeOff',$,(#136));
#140=IFCRELDEFINESBYPROPERTIES('0Gowq_M892AhZoFjn3K7kM',$,$,$,(#12),#139);
#141=IFCPROPERTYSET('0lgZV35jbCMwnC0be5ut6K',#13,'Pset_RoofCommon',$,(#135,#136,#142,#143));
#142=IFCPROPERTYSINGLEVALUE('ProjectedArea',$,IFCAREAMEASURE(89.697127079434182),$);
#143=IFCPROPERTYSINGLEVALUE('TotalArea',$,IFCAREAMEASURE(92.665403390803945),$);
#144=IFCRELDEFINESBYPROPERTIES('2wdKn6pvT44PRg_hbiX4bW',$,$,$,(#12),#141);
#145=IFCPROPERTYSET('0Xn31954174f1TUOMO7kf_',#13,'Pset_QuantityTakeOff',$,(#136));
#146=IFCRELDEFINESBYPROPERTIES('2YaGg1YmP5dAmi$ddieCnN',$,$,$,(#30),#145);
#147=IFCPROPERTYSET('3uiL4xzzD3Tes6zV$KIoml',#13,'Pset_ReinforcementBarPitchOfSlab',$,(#148));
#148=IFCPROPERTYSINGLEVALUE('Reference',$,IFCLABEL('\X2\C77CBC18\X0\ - 400mm'),$);
#149=IFCRELDEFINESBYPROPERTIES('2OQ2M0l31DqBSoVH6AYPu5',$,$,$,(#30),#147);
#150=IFCPROPERTYSET('23Pd5pdxTASBcLrfbtkAXE',#13,'Pset_SlabCommon',$,(#135,#136,#151));
#151=IFCPROPERTYSINGLEVALUE('PitchAngle',$,IFCPLANEANGLEMEASURE(15.089526380171442),$);
#152=IFCRELDEFINESBYPROPERTIES('38EmZwJRzAVBG7gAbJyROF',$,$,$,(#30),#150);
#153=IFCPROPERTYSET('1Pi0B91nv5nPwDHMQIbLr$',#13,'Pset_QuantityTakeOff',$,(#136));
#154=IFCRELDEFINESBYPROPERTIES('03cmUblS15Gf$EE6idmyPk',$,$,$,(#50),#153);
#155=IFCPROPERTYSET('3lnsMs4CX0Qhg8IvIcoy25',#13,'Pset_ReinforcementBarPitchOfSlab',$,(#156));
#156=IFCPROPERTYSINGLEVALUE('Reference',$,IFCLABEL('\X2\C77CBC18\X0\ - 400mm'),$);
#157=IFCRELDEFINESBYPROPERTIES('3YKcDaqNP97vypCUJdOx$N',$,$,$,(#50),#155);
#158=IFCPROPERTYSET('0pUd2jXIr2KBLDp0LsKUSD',#13,'Pset_SlabCommon',$,(#135,#136,#159));
#159=IFCPROPERTYSINGLEVALUE('PitchAngle',$,IFCPLANEANGLEMEASURE(13.100522696649181),$);
#160=IFCRELDEFINESBYPROPERTIES('3AxxAp6mvDgPzMpK_VEXv2',$,$,$,(#50),#158);
#161=IFCPROPERTYSET('3LiN9i39XEpPE_AOBxF9MG',#13,'Pset_QuantityTakeOff',$,(#136));
#162=IFCRELDEFINESBYPROPERTIES('2UvUwH64DFLP4xahkQuD3L',$,$,$,(#66),#161);
#163=IFCPROPERTYSET('026SW_lyf8Sh6kreQZWuq2',#13,'Pset_ReinforcementBarPitchOfSlab',$,(#164));
#164=IFCPROPERTYSINGLEVALUE('Reference',$,IFCLABEL('\X2\C77CBC18\X0\ - 400mm'),$);
#165=IFCRELDEFINESBYPROPERTIES('0sJKrkpPv4IvHciwr3tJoP',$,$,$,(#66),#163);
#166=IFCPROPERTYSET('1xBmw1PPjBk9MevnvVaZgs',#13,'Pset_SlabCommon',$,(#135,#136,#167));
#167=IFCPROPERTYSINGLEVALUE('PitchAngle',$,IFCPLANEANGLEMEASURE(11.013153383358505),$);
#168=IFCRELDEFINESBYPROPERTIES('27kUKV27rEH9UDVVO7rI5I',$,$,$,(#66),#166);
#169=IFCPROPERTYSET('3l9ea2BoP6DBbd9QlBkJN3',#13,'Pset_QuantityTakeOff',$,(#136));
#170=IFCRELDEFINESBYPROPERTIES('2v8PSOI0j12h$l70qYASg3',$,$,$,(#81),#169);
#171=IFCPROPERTYSET('1kA0s772D1NBLckSH8q4os',#13,'Pset_ReinforcementBarPitchOfSlab',$,(#172));
#172=IFCPROPERTYSINGLEVALUE('Reference',$,IFCLABEL('\X2\C77CBC18\X0\ - 400mm'),$);
#173=IFCRELDEFINESBYPROPERTIES('00dXnbZF97GASKua1YLKqm',$,$,$,(#81),#171);
#174=IFCPROPERTYSET('2u1xG6ZRz7Lxq_aa2AakG4',#13,'Pset_SlabCommon',$,(#135,#136,#175));
#175=IFCPROPERTYSINGLEVALUE('PitchAngle',$,IFCPLANEANGLEMEASURE(13.100522696649172),$);
#176=IFCRELDEFINESBYPROPERTIES('1mpifMXsjDUOrY5sZZJGCq',$,$,$,(#81),#174);
#177=IFCPROPERTYSET('2prYHB2FjDv97tYaPY2aBl',#13,'Pset_QuantityTakeOff',$,(#136));
#178=IFCRELDEFINESBYPROPERTIES('3gpXpIkXDFywHz2uM_4Ttj',$,$,$,(#95),#177);
#179=IFCPROPERTYSET('0WF0EZn2v1UQ2v4WBJddqr',#13,'Pset_ReinforcementBarPitchOfSlab',$,(#180));
#180=IFCPROPERTYSINGLEVALUE('Reference',$,IFCLABEL('\X2\C77CBC18\X0\ - 400mm'),$);
#181=IFCRELDEFINESBYPROPERTIES('0RQttAPvLC2Buqy239GU7b',$,$,$,(#95),#179);
#182=IFCPROPERTYSET('2vTMTnYr5Dchad3NAmjD_e',#13,'Pset_SlabCommon',$,(#135,#136,#183));
#183=IFCPROPERTYSINGLEVALUE('PitchAngle',$,IFCPLANEANGLEMEASURE(21.776015262784583),$);
#184=IFCRELDEFINESBYPROPERTIES('1PsgAerYP6v9P9GjQkJSTb',$,$,$,(#95),#182);
#185=IFCPROPERTYSET('2UYwSNxPX9VB3n6c5Kf4D6',#13,'Pset_QuantityTakeOff',$,(#136));
#186=IFCRELDEFINESBYPROPERTIES('2kT5l$DLD5u9qLR_1o7rOv',$,$,$,(#111),#185);
#187=IFCSTYLEDITEM(#39,(#188),$);
#188=IFCPRESENTATIONSTYLEASSIGNMENT((#189));
#189=IFCSURFACESTYLE($,.BOTH.,(#190));
#190=IFCSURFACESTYLERENDERING(#191,$,$,$,$,$,$,$,.FLAT.);
#191=IFCCOLOURRGB($,0.90980392156862744,0.50196078431372548,0.54509803921568623);
#192=IFCSTYLEDITEM(#55,(#193),$);
#193=IFCPRESENTATIONSTYLEASSIGNMENT((#194));
#194=IFCSURFACESTYLE($,.BOTH.,(#195));
#195=IFCSURFACESTYLERENDERING(#196,$,$,$,$,$,$,$,.FLAT.);
#196=IFCCOLOURRGB($,0.90980392156862744,0.50196078431372548,0.54509803921568623);
#197=IFCSTYLEDITEM(#71,(#198),$);
#198=IFCPRESENTATIONSTYLEASSIGNMENT((#199));
#199=IFCSURFACESTYLE($,.BOTH.,(#200));
#200=IFCSURFACESTYLERENDERING(#201,$,$,$,$,$,$,$,.FLAT.);
#201=IFCCOLOURRGB($,0.90980392156862744,0.50196078431372548,0.54509803921568623);
#202=IFCSTYLEDITEM(#86,(#203),$);
#203=IFCPRESENTATIONSTYLEASSIGNMENT((#204));
#204=IFCSURFACESTYLE($,.BOTH.,(#205));
#205=IFCSURFACESTYLERENDERING(#206,$,$,$,$,$,$,$,.FLAT.);
#206=IFCCOLOURRGB($,0.90980392156862744,0.50196078431372548,0.54509803921568623);
#207=IFCSTYLEDITEM(#100,(#208),$);
#208=IFCPRESENTATIONSTYLEASSIGNMENT((#209));
#209=IFCSURFACESTYLE($,.BOTH.,(#210));
#210=IFCSURFACESTYLERENDERING(#211,$,$,$,$,$,$,$,.FLAT.);
#211=IFCCOLOURRGB($,0.90980392156862744,0.50196078431372548,0.54509803921568623);
#212=IFCSTYLEDITEM(#116,(#213),$);
#213=IFCPRESENTATIONSTYLEASSIGNMENT((#214));
#214=IFCSURFACESTYLE($,.BOTH.,(#215));
#215=IFCSURFACESTYLERENDERING(#216,$,$,$,$,$,$,$,.FLAT.);
#216=IFCCOLOURRGB($,0.90980392156862744,0.50196078431372548,0.54509803921568623);
#217=IFCOWNERHISTORY(#14,#17,.READWRITE.,.ADDED.,1778817243,#14,#17,1778817243);
#218=IFCRELCONTAINEDINSPATIALSTRUCTURE('2C9SHrc1r2$wBbDL3gLoCS',#217,$,$,(#111,#95,#66,#50,#12,#81,#30),#8);
#224=IFCOWNERHISTORY(#14,#17,$,.MODIFIED.,1778817243,#14,#17,1778487490);
#230=IFCOWNERHISTORY(#14,#17,$,.MODIFIED.,1778817243,#14,#17,1778487490);
#236=IFCOWNERHISTORY(#14,#17,$,.MODIFIED.,1778817243,#14,#17,1778487490);
#242=IFCOWNERHISTORY(#14,#17,$,.MODIFIED.,1778817243,#14,#17,1778487490);
#248=IFCOWNERHISTORY(#14,#17,$,.MODIFIED.,1778817243,#14,#17,1778487490);
#254=IFCOWNERHISTORY(#14,#17,$,.MODIFIED.,1778817243,#14,#17,1778487490);
#260=IFCOWNERHISTORY(#14,#17,$,.MODIFIED.,1778817243,#14,#17,1778487490);
#271=IFCCARTESIANPOINT((0.,0.,3.5527136788005009E-12));
#272=IFCDIRECTION((0.,0.,1.));
#273=IFCDIRECTION((1.,0.,0.));
#274=IFCAXIS2PLACEMENT3D(#271,#272,#273);
#275=IFCLOCALPLACEMENT($,#274);
#276=IFCCARTESIANPOINT((0.,0.,3.5527136788005009E-12));
#277=IFCDIRECTION((0.,0.,1.));
#278=IFCDIRECTION((1.,0.,0.));
#279=IFCAXIS2PLACEMENT3D(#276,#277,#278);
#280=IFCLOCALPLACEMENT($,#279);
#281=IFCCARTESIANPOINT((0.,0.,3.5527136788005009E-12));
#282=IFCDIRECTION((0.,0.,1.));
#283=IFCDIRECTION((1.,0.,0.));
#284=IFCAXIS2PLACEMENT3D(#281,#282,#283);
#285=IFCLOCALPLACEMENT($,#284);
#286=IFCCARTESIANPOINT((0.,0.,3.5527136788005009E-12));
#287=IFCDIRECTION((0.,0.,1.));
#288=IFCDIRECTION((1.,0.,0.));
#289=IFCAXIS2PLACEMENT3D(#286,#287,#288);
#290=IFCLOCALPLACEMENT($,#289);
#291=IFCCARTESIANPOINT((0.,0.,3.5527136788005009E-12));
#292=IFCDIRECTION((0.,0.,1.));
#293=IFCDIRECTION((1.,0.,0.));
#294=IFCAXIS2PLACEMENT3D(#291,#292,#293);
#295=IFCLOCALPLACEMENT($,#294);
#296=IFCCARTESIANPOINT((0.,0.,3.5527136788005009E-12));
#297=IFCDIRECTION((0.,0.,1.));
#298=IFCDIRECTION((1.,0.,0.));
#299=IFCAXIS2PLACEMENT3D(#296,#297,#298);
#300=IFCLOCALPLACEMENT($,#299);
#301=IFCCARTESIANPOINT((0.,0.,3.5527136788005009E-12));
#302=IFCDIRECTION((0.,0.,1.));
#303=IFCDIRECTION((1.,0.,0.));
#304=IFCAXIS2PLACEMENT3D(#301,#302,#303);
#305=IFCLOCALPLACEMENT($,#304);
#306=IFCOWNERHISTORY(#14,#17,.READWRITE.,.ADDED.,1778817243,#14,#17,1778817243);
#307=IFCPROPERTYSET('01nMqj$WrA98N$khQzZjw0',#306,'Pset_LibraryAsset',$,(#310,#311,#312,#313,#314,#315,#316,#317,#318,#319));
#308=IFCOWNERHISTORY(#14,#17,.READWRITE.,.ADDED.,1778817243,#14,#17,1778817243);
#309=IFCRELDEFINESBYPROPERTIES('1R_Q5DkM5BSe2ks04KsY71',#308,$,$,(#12),#307);
#310=IFCPROPERTYSINGLEVALUE('AssetId',$,IFCLABEL('roof-187335'),$);
#311=IFCPROPERTYSINGLEVALUE('AssetGroup',$,IFCLABEL('roof-187335'),$);
#312=IFCPROPERTYSINGLEVALUE('AssetRole',$,IFCLABEL('member-0'),$);
#313=IFCPROPERTYSINGLEVALUE('Category',$,IFCLABEL('roof'),$);
#314=IFCPROPERTYSINGLEVALUE('SourceElementName',$,IFCLABEL('\X2\AE30BCF8\X0\ \X2\C9C0BD95\X0\:\X2\C77CBC18\X0\ - 400mm:187335'),$);
#315=IFCPROPERTYSINGLEVALUE('SourceGlobalId',$,IFCLABEL('2fJd5P2ULAuO12Ns0rUnDL'),$);
#316=IFCPROPERTYSINGLEVALUE('Reusable',$,IFCBOOLEAN(.T.),$);
#317=IFCPROPERTYSINGLEVALUE('WidthMm',$,IFCREAL(10239.005999999999),$);
#318=IFCPROPERTYSINGLEVALUE('DepthMm',$,IFCREAL(10378.855),$);
#319=IFCPROPERTYSINGLEVALUE('HeightMm',$,IFCREAL(1500.),$);
#320=IFCOWNERHISTORY(#14,#17,.READWRITE.,.ADDED.,1778817243,#14,#17,1778817243);
#321=IFCPROPERTYSET('3aQhBER8n899vVfuE2tVVa',#320,'Pset_LibraryAsset',$,(#324,#325,#326,#327,#328,#329,#330,#331,#332,#333));
#322=IFCOWNERHISTORY(#14,#17,.READWRITE.,.ADDED.,1778817243,#14,#17,1778817243);
#323=IFCRELDEFINESBYPROPERTIES('16JqxMeezFUfILvqSYG5zw',#322,$,$,(#30),#321);
#324=IFCPROPERTYSINGLEVALUE('AssetId',$,IFCLABEL('roof-187335'),$);
#325=IFCPROPERTYSINGLEVALUE('AssetGroup',$,IFCLABEL('roof-187335'),$);
#326=IFCPROPERTYSINGLEVALUE('AssetRole',$,IFCLABEL('member-1'),$);
#327=IFCPROPERTYSINGLEVALUE('Category',$,IFCLABEL('roof'),$);
#328=IFCPROPERTYSINGLEVALUE('SourceElementName',$,IFCLABEL('\X2\AE30BCF8\X0\ \X2\C9C0BD95\X0\:\X2\C77CBC18\X0\ - 400mm:187335'),$);
#329=IFCPROPERTYSINGLEVALUE('SourceGlobalId',$,IFCLABEL('2fJd5P2ULAuO12Ns8rUnDL'),$);
#330=IFCPROPERTYSINGLEVALUE('Reusable',$,IFCBOOLEAN(.T.),$);
#331=IFCPROPERTYSINGLEVALUE('WidthMm',$,IFCREAL(10239.005999999999),$);
#332=IFCPROPERTYSINGLEVALUE('DepthMm',$,IFCREAL(10378.855),$);
#333=IFCPROPERTYSINGLEVALUE('HeightMm',$,IFCREAL(1500.),$);
#334=IFCOWNERHISTORY(#14,#17,.READWRITE.,.ADDED.,1778817243,#14,#17,1778817243);
#335=IFCPROPERTYSET('3wlFqrgu99y8K1zhwg1X_C',#334,'Pset_LibraryAsset',$,(#338,#339,#340,#341,#342,#343,#344,#345,#346,#347));
#336=IFCOWNERHISTORY(#14,#17,.READWRITE.,.ADDED.,1778817243,#14,#17,1778817243);
#337=IFCRELDEFINESBYPROPERTIES('22hD7P0$57Ox$il8Ka6jzo',#336,$,$,(#50),#335);
#338=IFCPROPERTYSINGLEVALUE('AssetId',$,IFCLABEL('roof-187335'),$);
#339=IFCPROPERTYSINGLEVALUE('AssetGroup',$,IFCLABEL('roof-187335'),$);
#340=IFCPROPERTYSINGLEVALUE('AssetRole',$,IFCLABEL('member-2'),$);
#341=IFCPROPERTYSINGLEVALUE('Category',$,IFCLABEL('roof'),$);
#342=IFCPROPERTYSINGLEVALUE('SourceElementName',$,IFCLABEL('\X2\AE30BCF8\X0\ \X2\C9C0BD95\X0\:\X2\C77CBC18\X0\ - 400mm:187335.001'),$);
#343=IFCPROPERTYSINGLEVALUE('SourceGlobalId',$,IFCLABEL('2fJd5P2ULAuO12NsCrUnDL'),$);
#344=IFCPROPERTYSINGLEVALUE('Reusable',$,IFCBOOLEAN(.T.),$);
#345=IFCPROPERTYSINGLEVALUE('WidthMm',$,IFCREAL(10239.005999999999),$);
#346=IFCPROPERTYSINGLEVALUE('DepthMm',$,IFCREAL(10378.855),$);
#347=IFCPROPERTYSINGLEVALUE('HeightMm',$,IFCREAL(1500.),$);
#348=IFCOWNERHISTORY(#14,#17,.READWRITE.,.ADDED.,1778817243,#14,#17,1778817243);
#349=IFCPROPERTYSET('3dKs3s8YPFJx0vMxDvgIjP',#348,'Pset_LibraryAsset',$,(#352,#353,#354,#355,#356,#357,#358,#359,#360,#361));
#350=IFCOWNERHISTORY(#14,#17,.READWRITE.,.ADDED.,1778817243,#14,#17,1778817243);
#351=IFCRELDEFINESBYPROPERTIES('2mwndBy5DBMOO4ARkrJ$Oe',#350,$,$,(#66),#349);
#352=IFCPROPERTYSINGLEVALUE('AssetId',$,IFCLABEL('roof-187335'),$);
#353=IFCPROPERTYSINGLEVALUE('AssetGroup',$,IFCLABEL('roof-187335'),$);
#354=IFCPROPERTYSINGLEVALUE('AssetRole',$,IFCLABEL('member-3'),$);
#355=IFCPROPERTYSINGLEVALUE('Category',$,IFCLABEL('roof'),$);
#356=IFCPROPERTYSINGLEVALUE('SourceElementName',$,IFCLABEL('\X2\AE30BCF8\X0\ \X2\C9C0BD95\X0\:\X2\C77CBC18\X0\ - 400mm:187335.002'),$);
#357=IFCPROPERTYSINGLEVALUE('SourceGlobalId',$,IFCLABEL('2fJd5P2ULAuO12NsGrUnDL'),$);
#358=IFCPROPERTYSINGLEVALUE('Reusable',$,IFCBOOLEAN(.T.),$);
#359=IFCPROPERTYSINGLEVALUE('WidthMm',$,IFCREAL(10239.005999999999),$);
#360=IFCPROPERTYSINGLEVALUE('DepthMm',$,IFCREAL(10378.855),$);
#361=IFCPROPERTYSINGLEVALUE('HeightMm',$,IFCREAL(1500.),$);
#362=IFCOWNERHISTORY(#14,#17,.READWRITE.,.ADDED.,1778817243,#14,#17,1778817243);
#363=IFCPROPERTYSET('1ED8Oe8OP5ouDYgDfjUw35',#362,'Pset_LibraryAsset',$,(#366,#367,#368,#369,#370,#371,#372,#373,#374,#375));
#364=IFCOWNERHISTORY(#14,#17,.READWRITE.,.ADDED.,1778817243,#14,#17,1778817243);
#365=IFCRELDEFINESBYPROPERTIES('0Ivu8Hb0PAQgxEB8Qy$Ewq',#364,$,$,(#81),#363);
#366=IFCPROPERTYSINGLEVALUE('AssetId',$,IFCLABEL('roof-187335'),$);
#367=IFCPROPERTYSINGLEVALUE('AssetGroup',$,IFCLABEL('roof-187335'),$);
#368=IFCPROPERTYSINGLEVALUE('AssetRole',$,IFCLABEL('member-4'),$);
#369=IFCPROPERTYSINGLEVALUE('Category',$,IFCLABEL('roof'),$);
#370=IFCPROPERTYSINGLEVALUE('SourceElementName',$,IFCLABEL('\X2\AE30BCF8\X0\ \X2\C9C0BD95\X0\:\X2\C77CBC18\X0\ - 400mm:187335.003'),$);
#371=IFCPROPERTYSINGLEVALUE('SourceGlobalId',$,IFCLABEL('2fJd5P2ULAuO12NsKrUnDL'),$);
#372=IFCPROPERTYSINGLEVALUE('Reusable',$,IFCBOOLEAN(.T.),$);
#373=IFCPROPERTYSINGLEVALUE('WidthMm',$,IFCREAL(10239.005999999999),$);
#374=IFCPROPERTYSINGLEVALUE('DepthMm',$,IFCREAL(10378.855),$);
#375=IFCPROPERTYSINGLEVALUE('HeightMm',$,IFCREAL(1500.),$);
#376=IFCOWNERHISTORY(#14,#17,.READWRITE.,.ADDED.,1778817243,#14,#17,1778817243);
#377=IFCPROPERTYSET('1oo$Lfpwr0W9PAmhKQkLlo',#376,'Pset_LibraryAsset',$,(#380,#381,#382,#383,#384,#385,#386,#387,#388,#389));
#378=IFCOWNERHISTORY(#14,#17,.READWRITE.,.ADDED.,1778817243,#14,#17,1778817243);
#379=IFCRELDEFINESBYPROPERTIES('1RKg9qYJTBfAu6v_SNBu$S',#378,$,$,(#95),#377);
#380=IFCPROPERTYSINGLEVALUE('AssetId',$,IFCLABEL('roof-187335'),$);
#381=IFCPROPERTYSINGLEVALUE('AssetGroup',$,IFCLABEL('roof-187335'),$);
#382=IFCPROPERTYSINGLEVALUE('AssetRole',$,IFCLABEL('member-5'),$);
#383=IFCPROPERTYSINGLEVALUE('Category',$,IFCLABEL('roof'),$);
#384=IFCPROPERTYSINGLEVALUE('SourceElementName',$,IFCLABEL('\X2\AE30BCF8\X0\ \X2\C9C0BD95\X0\:\X2\C77CBC18\X0\ - 400mm:187335.004'),$);
#385=IFCPROPERTYSINGLEVALUE('SourceGlobalId',$,IFCLABEL('2fJd5P2ULAuO12NsOrUnDL'),$);
#386=IFCPROPERTYSINGLEVALUE('Reusable',$,IFCBOOLEAN(.T.),$);
#387=IFCPROPERTYSINGLEVALUE('WidthMm',$,IFCREAL(10239.005999999999),$);
#388=IFCPROPERTYSINGLEVALUE('DepthMm',$,IFCREAL(10378.855),$);
#389=IFCPROPERTYSINGLEVALUE('HeightMm',$,IFCREAL(1500.),$);
#390=IFCOWNERHISTORY(#14,#17,.READWRITE.,.ADDED.,1778817243,#14,#17,1778817243);
#391=IFCPROPERTYSET('13P1wVikzB0xa5O4cUHs51',#390,'Pset_LibraryAsset',$,(#394,#395,#396,#397,#398,#399,#400,#401,#402,#403));
#392=IFCOWNERHISTORY(#14,#17,.READWRITE.,.ADDED.,1778817243,#14,#17,1778817243);
#393=IFCRELDEFINESBYPROPERTIES('2LqXGHC1PBEBqCAooo5_7P',#392,$,$,(#111),#391);
#394=IFCPROPERTYSINGLEVALUE('AssetId',$,IFCLABEL('roof-187335'),$);
#395=IFCPROPERTYSINGLEVALUE('AssetGroup',$,IFCLABEL('roof-187335'),$);
#396=IFCPROPERTYSINGLEVALUE('AssetRole',$,IFCLABEL('member-6'),$);
#397=IFCPROPERTYSINGLEVALUE('Category',$,IFCLABEL('roof'),$);
#398=IFCPROPERTYSINGLEVALUE('SourceElementName',$,IFCLABEL('\X2\AE30BCF8\X0\ \X2\C9C0BD95\X0\:\X2\C77CBC18\X0\ - 400mm:187335.005'),$);
#399=IFCPROPERTYSINGLEVALUE('SourceGlobalId',$,IFCLABEL('2fJd5P2ULAuO12NsSrUnDL'),$);
#400=IFCPROPERTYSINGLEVALUE('Reusable',$,IFCBOOLEAN(.T.),$);
#401=IFCPROPERTYSINGLEVALUE('WidthMm',$,IFCREAL(10239.005999999999),$);
#402=IFCPROPERTYSINGLEVALUE('DepthMm',$,IFCREAL(10378.855),$);
#403=IFCPROPERTYSINGLEVALUE('HeightMm',$,IFCREAL(1500.),$);
ENDSEC;
END-ISO-10303-21;
