ISO-10303-21;
HEADER;
FILE_DESCRIPTION(('ViewDefinition [CoordinationView]'),'2;1');
FILE_NAME('','2026-05-14T22:38:07',(''),(''),'IfcOpenShell 0.8.5-1c5b825','IfcOpenShell 0.8.5-1c5b825','');
FILE_SCHEMA(('IFC4'));
ENDSEC;
DATA;
#1=IFCPROJECT('0F2gBSRTT1VP_EfUdgF9TJ',$,'roof-181099 Asset Library',$,$,$,$,$,#5);
#2=IFCSIUNIT(*,.LENGTHUNIT.,.MILLI.,.METRE.);
#3=IFCSIUNIT(*,.AREAUNIT.,$,.SQUARE_METRE.);
#4=IFCSIUNIT(*,.VOLUMEUNIT.,$,.CUBIC_METRE.);
#5=IFCUNITASSIGNMENT((#3,#4,#2));
#6=IFCSITE('1GS8oVYM17o8hq4HK$5$OI',$,'Asset Site',$,$,$,$,$,$,$,$,$,$,$);
#7=IFCBUILDING('2oe5LAvYH518x1dxlcBcwv',$,'Asset Building',$,$,$,$,$,$,$,$,$);
#8=IFCBUILDINGSTOREY('1e4f8mE9jD3RjC3ZpUGIfp',$,'Asset Storey',$,$,$,$,$,$,$);
#9=IFCRELAGGREGATES('1C3sHj6RX7AglTqBR94W3W',$,$,$,#1,(#6));
#10=IFCRELAGGREGATES('3HitEK4xbE3Q4NiUgkd_HB',$,$,$,#6,(#7));
#11=IFCRELAGGREGATES('3Ry4UwtXjD9ugm$kSanJwP',$,$,$,#7,(#8));
#12=IFCROOF('2QLDczdKX9Fg7Ur4rrIUt7',#123,'\X2\AE30BCF8\X0\ \X2\C9C0BD95\X0\:\X2\C77CBC18\X0\ - 400mm:181099',$,$,#128,$,'181099',.NOTDEFINED.);
#13=IFCOWNERHISTORY(#14,#17,$,.NOCHANGE.,$,$,$,1778487490);
#14=IFCPERSONANDORGANIZATION(#15,#16,$);
#15=IFCPERSON($,'','hnn06134',$,$,$,$,$);
#16=IFCORGANIZATION($,'','',$,$);
#17=IFCAPPLICATION(#18,'2027','Autodesk Revit 2027 (KOR)','Revit');
#18=IFCORGANIZATION($,'Autodesk Revit 2027 (KOR)',$,$,$);
#20=IFCLOCALPLACEMENT(#21,#26);
#21=IFCLOCALPLACEMENT(#22,#25);
#22=IFCLOCALPLACEMENT($,#23);
#23=IFCAXIS2PLACEMENT3D(#24,$,$);
#24=IFCCARTESIANPOINT((0.,0.,0.));
#25=IFCAXIS2PLACEMENT3D(#24,$,$);
#26=IFCAXIS2PLACEMENT3D(#27,$,$);
#27=IFCCARTESIANPOINT((0.,0.,2500.));
#30=IFCSLAB('2QLDczdKX9Fg7Ur4zrIUt7',#111,'\X2\AE30BCF8\X0\ \X2\C9C0BD95\X0\:\X2\C77CBC18\X0\ - 400mm:181099',$,$,#133,#33,'181099',.ROOF.);
#33=IFCPRODUCTDEFINITIONSHAPE($,$,(#34));
#34=IFCSHAPEREPRESENTATION(#35,'Body','SweptSolid',(#39));
#35=IFCGEOMETRICREPRESENTATIONSUBCONTEXT('Body','Model',*,*,*,*,#36,$,.MODEL_VIEW.,$);
#36=IFCGEOMETRICREPRESENTATIONCONTEXT($,'Model',3,0.01,#37,#38);
#37=IFCAXIS2PLACEMENT3D(#24,$,$);
#38=IFCDIRECTION((0.,1.));
#39=IFCEXTRUDEDAREASOLID(#40,#45,#49,400.);
#40=IFCARBITRARYCLOSEDPROFILEDEF(.AREA.,$,#41);
#41=IFCPOLYLINE((#42,#43,#44,#42));
#42=IFCCARTESIANPOINT((1766.8185838082252,590.));
#43=IFCCARTESIANPOINT((-1766.8185838082234,590.));
#44=IFCCARTESIANPOINT((1766.8185838082229,-590.));
#45=IFCAXIS2PLACEMENT3D(#46,#47,#48);
#46=IFCCARTESIANPOINT((1762.3912471667861,590.,125.));
#47=IFCDIRECTION((0.070748633247095127,-0.,0.99749417586954769));
#48=IFCDIRECTION((0.99749417586954769,0.,-0.070748633247095127));
#49=IFCDIRECTION((-0.070748633247095127,0.,0.99749417586954769));
#50=IFCSLAB('2QLDczdKX9Fg7Ur4vrIUt7',#117,'\X2\AE30BCF8\X0\ \X2\C9C0BD95\X0\:\X2\C77CBC18\X0\ - 400mm:181099.001',$,$,#138,#53,'181099',.ROOF.);
#53=IFCPRODUCTDEFINITIONSHAPE($,$,(#54));
#54=IFCSHAPEREPRESENTATION(#35,'Body','SweptSolid',(#55));
#55=IFCEXTRUDEDAREASOLID(#56,#61,#65,400.);
#56=IFCARBITRARYCLOSEDPROFILEDEF(.AREA.,$,#57);
#57=IFCPOLYLINE((#58,#59,#60,#58));
#58=IFCCARTESIANPOINT((-1762.3912471667843,603.09617806781489));
#59=IFCCARTESIANPOINT((-1762.3912471667861,-603.09617806780409));
#60=IFCCARTESIANPOINT((1762.3912471667843,-603.09617806781466));
#61=IFCAXIS2PLACEMENT3D(#62,#63,#64);
#62=IFCCARTESIANPOINT((1762.3912471667861,590.,125.));
#63=IFCDIRECTION((-0.,-0.20726379066183631,0.97828509192386581));
#64=IFCDIRECTION((1.,0.,0.));
#65=IFCDIRECTION((0.,0.20726379066183631,0.97828509192386581));
#66=IFCMATERIALLAYERSET((#67),'\X2\AE30BCF8\X0\ \X2\C9C0BD95\X0\:\X2\C77CBC18\X0\ - 400mm',$);
#67=IFCMATERIALLAYER(#68,400.,$,$,$,$,$);
#68=IFCMATERIAL('\X2\AE30BCF8\X0\ \X2\C9C0BD95\X0\',$,$);
#69=IFCRELASSOCIATESMATERIAL('3KOQ32EmD31wFSFWE1HsJN',$,$,$,(#30,#50,#12),#66);
#70=IFCPROPERTYSET('1PfGOdl1v2avRxpxeA$3pZ',#13,'Pset_QuantityTakeOff',$,(#71));
#71=IFCPROPERTYSINGLEVALUE('Reference',$,IFCIDENTIFIER('\X2\C77CBC18\X0\ - 400mm'),$);
#72=IFCRELDEFINESBYPROPERTIES('3t5PnAHn9Dv8oSLNTzH6JI',$,$,$,(#30),#70);
#73=IFCPROPERTYSET('1vjiSiJJz5W9i5X5UnWZ_A',#13,'Pset_ReinforcementBarPitchOfSlab',$,(#74));
#74=IFCPROPERTYSINGLEVALUE('Reference',$,IFCLABEL('\X2\C77CBC18\X0\ - 400mm'),$);
#75=IFCRELDEFINESBYPROPERTIES('3E9povWXP5t8GLWYACRPLX',$,$,$,(#30),#73);
#76=IFCPROPERTYSET('0H_EV8bGz6Me9WC9QlPAwe',#13,'Pset_SlabCommon',$,(#77,#71,#78));
#77=IFCPROPERTYSINGLEVALUE('IsExternal',$,IFCBOOLEAN(.T.),$);
#78=IFCPROPERTYSINGLEVALUE('PitchAngle',$,IFCPLANEANGLEMEASURE(4.0569873567528534),$);
#79=IFCRELDEFINESBYPROPERTIES('33zOD0lcz7D80mWkcJaW7v',$,$,$,(#30),#76);
#80=IFCPROPERTYSET('0W3pW9U7P8L8NRwZs2_seu',#13,'Pset_QuantityTakeOff',$,(#71));
#81=IFCRELDEFINESBYPROPERTIES('0V8WQdnrPEb8BZSUNV5RWR',$,$,$,(#50),#80);
#82=IFCPROPERTYSET('35i_StjUP8qvncHkg7QyKr',#13,'Pset_ReinforcementBarPitchOfSlab',$,(#83));
#83=IFCPROPERTYSINGLEVALUE('Reference',$,IFCLABEL('\X2\C77CBC18\X0\ - 400mm'),$);
#84=IFCRELDEFINESBYPROPERTIES('2aw0FAzwr51AUIi27W4y_O',$,$,$,(#50),#82);
#85=IFCPROPERTYSET('3zk1Ap3n5EAxW7gWfMe5xd',#13,'Pset_SlabCommon',$,(#77,#71,#86));
#86=IFCPROPERTYSINGLEVALUE('PitchAngle',$,IFCPLANEANGLEMEASURE(11.962051397666249),$);
#87=IFCRELDEFINESBYPROPERTIES('2v2ynVwgj4Zew2Oe$mx0AR',$,$,$,(#50),#85);
#88=IFCPROPERTYSET('0L8F_8lrfF99cVyg9YQyZQ',#13,'Pset_QuantityTakeOff',$,(#71));
#89=IFCRELDEFINESBYPROPERTIES('3OnxYg6vfAuhLYMIhyijYg',$,$,$,(#12),#88);
#90=IFCPROPERTYSET('1UtnLHjerFghn0cMO9ho4A',#13,'Pset_RoofCommon',$,(#77,#71,#91,#92));
#91=IFCPROPERTYSINGLEVALUE('ProjectedArea',$,IFCAREAMEASURE(4.1592433433136113),$);
#92=IFCPROPERTYSINGLEVALUE('TotalArea',$,IFCAREAMEASURE(4.2106287797465969),$);
#93=IFCRELDEFINESBYPROPERTIES('0N2c4mHRn5Ku3P_jYGfLMT',$,$,$,(#12),#90);
#94=IFCSTYLEDITEM(#39,(#95),$);
#95=IFCPRESENTATIONSTYLEASSIGNMENT((#96));
#96=IFCSURFACESTYLE($,.BOTH.,(#97));
#97=IFCSURFACESTYLERENDERING(#98,$,$,$,$,$,$,$,.FLAT.);
#98=IFCCOLOURRGB($,0.90980392156862744,0.50196078431372548,0.54509803921568623);
#99=IFCSTYLEDITEM(#55,(#100),$);
#100=IFCPRESENTATIONSTYLEASSIGNMENT((#101));
#101=IFCSURFACESTYLE($,.BOTH.,(#102));
#102=IFCSURFACESTYLERENDERING(#103,$,$,$,$,$,$,$,.FLAT.);
#103=IFCCOLOURRGB($,0.90980392156862744,0.50196078431372548,0.54509803921568623);
#104=IFCOWNERHISTORY(#14,#17,.READWRITE.,.ADDED.,1778765887,#14,#17,1778765887);
#105=IFCRELCONTAINEDINSPATIALSTRUCTURE('0dnji9tUXFUBQyEv6v9_gT',#104,$,$,(#30,#50,#12),#8);
#111=IFCOWNERHISTORY(#14,#17,$,.MODIFIED.,1778765887,#14,#17,1778487490);
#117=IFCOWNERHISTORY(#14,#17,$,.MODIFIED.,1778765887,#14,#17,1778487490);
#123=IFCOWNERHISTORY(#14,#17,$,.MODIFIED.,1778765887,#14,#17,1778487490);
#124=IFCCARTESIANPOINT((0.,3.637978807091713E-12,9.0949470177292824E-13));
#125=IFCDIRECTION((0.,0.,1.));
#126=IFCDIRECTION((1.,0.,0.));
#127=IFCAXIS2PLACEMENT3D(#124,#125,#126);
#128=IFCLOCALPLACEMENT($,#127);
#129=IFCCARTESIANPOINT((0.,3.637978807091713E-12,9.0949470177292824E-13));
#130=IFCDIRECTION((0.,0.,1.));
#131=IFCDIRECTION((1.,0.,0.));
#132=IFCAXIS2PLACEMENT3D(#129,#130,#131);
#133=IFCLOCALPLACEMENT($,#132);
#134=IFCCARTESIANPOINT((0.,3.637978807091713E-12,9.0949470177292824E-13));
#135=IFCDIRECTION((0.,0.,1.));
#136=IFCDIRECTION((1.,0.,0.));
#137=IFCAXIS2PLACEMENT3D(#134,#135,#136);
#138=IFCLOCALPLACEMENT($,#137);
#139=IFCOWNERHISTORY(#14,#17,.READWRITE.,.ADDED.,1778765887,#14,#17,1778765887);
#140=IFCPROPERTYSET('23ikDLdf90MfKAB3zLOWrY',#139,'Pset_LibraryAsset',$,(#143,#144,#145,#146,#147,#148,#149,#150,#151,#152));
#141=IFCOWNERHISTORY(#14,#17,.READWRITE.,.ADDED.,1778765887,#14,#17,1778765887);
#142=IFCRELDEFINESBYPROPERTIES('3_eVtqDOTB_OAa3_Z11tdZ',#141,$,$,(#12),#140);
#143=IFCPROPERTYSINGLEVALUE('AssetId',$,IFCLABEL('roof-181099'),$);
#144=IFCPROPERTYSINGLEVALUE('AssetGroup',$,IFCLABEL('roof-181099'),$);
#145=IFCPROPERTYSINGLEVALUE('AssetRole',$,IFCLABEL('member-0'),$);
#146=IFCPROPERTYSINGLEVALUE('Category',$,IFCLABEL('roof'),$);
#147=IFCPROPERTYSINGLEVALUE('SourceElementName',$,IFCLABEL('\X2\AE30BCF8\X0\ \X2\C9C0BD95\X0\:\X2\C77CBC18\X0\ - 400mm:181099'),$);
#148=IFCPROPERTYSINGLEVALUE('SourceGlobalId',$,IFCLABEL('2QLDczdKX9Fg7Ur4rrIUt7'),$);
#149=IFCPROPERTYSINGLEVALUE('Reusable',$,IFCBOOLEAN(.T.),$);
#150=IFCPROPERTYSINGLEVALUE('WidthMm',$,IFCREAL(3524.7820000000002),$);
#151=IFCPROPERTYSINGLEVALUE('DepthMm',$,IFCREAL(1180.),$);
#152=IFCPROPERTYSINGLEVALUE('HeightMm',$,IFCREAL(650.),$);
#153=IFCOWNERHISTORY(#14,#17,.READWRITE.,.ADDED.,1778765887,#14,#17,1778765887);
#154=IFCPROPERTYSET('2OU5PxCfX8X9E4vpl$H8oO',#153,'Pset_LibraryAsset',$,(#157,#158,#159,#160,#161,#162,#163,#164,#165,#166));
#155=IFCOWNERHISTORY(#14,#17,.READWRITE.,.ADDED.,1778765887,#14,#17,1778765887);
#156=IFCRELDEFINESBYPROPERTIES('0ZAxjqhnvFbfeHb1NQzkOl',#155,$,$,(#30),#154);
#157=IFCPROPERTYSINGLEVALUE('AssetId',$,IFCLABEL('roof-181099'),$);
#158=IFCPROPERTYSINGLEVALUE('AssetGroup',$,IFCLABEL('roof-181099'),$);
#159=IFCPROPERTYSINGLEVALUE('AssetRole',$,IFCLABEL('member-1'),$);
#160=IFCPROPERTYSINGLEVALUE('Category',$,IFCLABEL('roof'),$);
#161=IFCPROPERTYSINGLEVALUE('SourceElementName',$,IFCLABEL('\X2\AE30BCF8\X0\ \X2\C9C0BD95\X0\:\X2\C77CBC18\X0\ - 400mm:181099'),$);
#162=IFCPROPERTYSINGLEVALUE('SourceGlobalId',$,IFCLABEL('2QLDczdKX9Fg7Ur4zrIUt7'),$);
#163=IFCPROPERTYSINGLEVALUE('Reusable',$,IFCBOOLEAN(.T.),$);
#164=IFCPROPERTYSINGLEVALUE('WidthMm',$,IFCREAL(3524.7820000000002),$);
#165=IFCPROPERTYSINGLEVALUE('DepthMm',$,IFCREAL(1180.),$);
#166=IFCPROPERTYSINGLEVALUE('HeightMm',$,IFCREAL(650.),$);
#167=IFCOWNERHISTORY(#14,#17,.READWRITE.,.ADDED.,1778765887,#14,#17,1778765887);
#168=IFCPROPERTYSET('0XfFJNBpfEgRcBOMF85u72',#167,'Pset_LibraryAsset',$,(#171,#172,#173,#174,#175,#176,#177,#178,#179,#180));
#169=IFCOWNERHISTORY(#14,#17,.READWRITE.,.ADDED.,1778765887,#14,#17,1778765887);
#170=IFCRELDEFINESBYPROPERTIES('1e$NbE6Rn09AzCpvvRm92A',#169,$,$,(#50),#168);
#171=IFCPROPERTYSINGLEVALUE('AssetId',$,IFCLABEL('roof-181099'),$);
#172=IFCPROPERTYSINGLEVALUE('AssetGroup',$,IFCLABEL('roof-181099'),$);
#173=IFCPROPERTYSINGLEVALUE('AssetRole',$,IFCLABEL('member-2'),$);
#174=IFCPROPERTYSINGLEVALUE('Category',$,IFCLABEL('roof'),$);
#175=IFCPROPERTYSINGLEVALUE('SourceElementName',$,IFCLABEL('\X2\AE30BCF8\X0\ \X2\C9C0BD95\X0\:\X2\C77CBC18\X0\ - 400mm:181099.001'),$);
#176=IFCPROPERTYSINGLEVALUE('SourceGlobalId',$,IFCLABEL('2QLDczdKX9Fg7Ur4vrIUt7'),$);
#177=IFCPROPERTYSINGLEVALUE('Reusable',$,IFCBOOLEAN(.T.),$);
#178=IFCPROPERTYSINGLEVALUE('WidthMm',$,IFCREAL(3524.7820000000002),$);
#179=IFCPROPERTYSINGLEVALUE('DepthMm',$,IFCREAL(1180.),$);
#180=IFCPROPERTYSINGLEVALUE('HeightMm',$,IFCREAL(650.),$);
ENDSEC;
END-ISO-10303-21;
