ISO-10303-21;
HEADER;
FILE_DESCRIPTION(('ViewDefinition [CoordinationView]'),'2;1');
FILE_NAME('','2026-05-14T22:38:07',(''),(''),'IfcOpenShell 0.8.5-1c5b825','IfcOpenShell 0.8.5-1c5b825','');
FILE_SCHEMA(('IFC4'));
ENDSEC;
DATA;
#1=IFCPROJECT('1Mz1qrkjH1FwAcoOAlU8tI',$,'roof-180558 Asset Library',$,$,$,$,$,#5);
#2=IFCSIUNIT(*,.LENGTHUNIT.,.MILLI.,.METRE.);
#3=IFCSIUNIT(*,.AREAUNIT.,$,.SQUARE_METRE.);
#4=IFCSIUNIT(*,.VOLUMEUNIT.,$,.CUBIC_METRE.);
#5=IFCUNITASSIGNMENT((#3,#4,#2));
#6=IFCSITE('0iceUwmID3tvb_iyOsf_fm',$,'Asset Site',$,$,$,$,$,$,$,$,$,$,$);
#7=IFCBUILDING('0HvY2J12PDfeZP8cIikQY8',$,'Asset Building',$,$,$,$,$,$,$,$,$);
#8=IFCBUILDINGSTOREY('19TLSXbbfBjhtYLmI_frLg',$,'Asset Storey',$,$,$,$,$,$,$);
#9=IFCRELAGGREGATES('1e6NpgOG95BxdOjUCKeVNR',$,$,$,#1,(#6));
#10=IFCRELAGGREGATES('1jeJ25UzzF8QZJwn$BlnTp',$,$,$,#6,(#7));
#11=IFCRELAGGREGATES('14w2zm9GzCyPpSAPmfxl$p',$,$,$,#7,(#8));
#12=IFCROOF('2QLDczdKX9Fg7Ur4rrIU$Y',#180,'\X2\AE30BCF8\X0\ \X2\C9C0BD95\X0\:\X2\C77CBC18\X0\ - 400mm:180558',$,$,#207,$,'180558',.NOTDEFINED.);
#13=IFCOWNERHISTORY(#14,#17,$,.NOCHANGE.,$,$,$,1778487490);
#14=IFCPERSONANDORGANIZATION(#15,#16,$);
#15=IFCPERSON($,'','hnn06134',$,$,$,$,$);
#16=IFCORGANIZATION($,'','',$,$);
#17=IFCAPPLICATION(#18,'2027','Autodesk Revit 2027 (KOR)','Revit');
#18=IFCORGANIZATION($,'Autodesk Revit 2027 (KOR)',$,$,$);
#20=IFCLOCALPLACEMENT(#21,#26);
#21=IFCLOCALPLACEMENT(#22,#25);
#22=IFCLOCALPLACEMENT($,#23);
#23=IFCAXIS2PLACEMENT3D(#24,$,$);
#24=IFCCARTESIANPOINT((0.,0.,0.));
#25=IFCAXIS2PLACEMENT3D(#24,$,$);
#26=IFCAXIS2PLACEMENT3D(#27,$,$);
#27=IFCCARTESIANPOINT((0.,0.,2500.));
#30=IFCSLAB('2QLDczdKX9Fg7Ur4zrIU$Y',#186,'\X2\AE30BCF8\X0\ \X2\C9C0BD95\X0\:\X2\C77CBC18\X0\ - 400mm:180558.003',$,$,#212,#33,'180558',.ROOF.);
#33=IFCPRODUCTDEFINITIONSHAPE($,$,(#34));
#34=IFCSHAPEREPRESENTATION(#35,'Body','SweptSolid',(#39));
#35=IFCGEOMETRICREPRESENTATIONSUBCONTEXT('Body','Model',*,*,*,*,#36,$,.MODEL_VIEW.,$);
#36=IFCGEOMETRICREPRESENTATIONCONTEXT($,'Model',3,0.01,#37,#38);
#37=IFCAXIS2PLACEMENT3D(#24,$,$);
#38=IFCDIRECTION((0.,1.));
#39=IFCEXTRUDEDAREASOLID(#40,#45,#49,400.);
#40=IFCARBITRARYCLOSEDPROFILEDEF(.AREA.,$,#41);
#41=IFCPOLYLINE((#42,#43,#44,#42));
#42=IFCCARTESIANPOINT((3258.6463428181696,301.83999098446304));
#43=IFCCARTESIANPOINT((-3258.6463428181664,301.83999098446736));
#44=IFCCARTESIANPOINT((3258.6463428181664,-301.83999098448254));
#45=IFCAXIS2PLACEMENT3D(#46,#47,#48);
#46=IFCCARTESIANPOINT((3457.1116019507558,301.83999098448902,100.));
#47=IFCDIRECTION((0.030687589102877989,-0.,0.9995290250288148));
#48=IFCDIRECTION((0.9995290250288148,0.,-0.030687589102877989));
#49=IFCDIRECTION((-0.030687589102877989,0.,0.9995290250288148));
#50=IFCSLAB('2QLDczdKX9Fg7Ur4vrIU$Y',#174,'\X2\AE30BCF8\X0\ \X2\C9C0BD95\X0\:\X2\C77CBC18\X0\ - 400mm:180558',$,$,#217,#53,'180558',.ROOF.);
#53=IFCPRODUCTDEFINITIONSHAPE($,$,(#54));
#54=IFCSHAPEREPRESENTATION(#35,'Body','SweptSolid',(#55));
#55=IFCEXTRUDEDAREASOLID(#56,#61,#65,400.);
#56=IFCARBITRARYCLOSEDPROFILEDEF(.AREA.,$,#57);
#57=IFCPOLYLINE((#58,#59,#60,#58));
#58=IFCCARTESIANPOINT((100.,-697.20872054213351));
#59=IFCCARTESIANPOINT((100.,697.20872054213351));
#60=IFCCARTESIANPOINT((-100.,697.20872054213351));
#61=IFCAXIS2PLACEMENT3D(#62,#63,#64);
#62=IFCCARTESIANPOINT((100.,1293.6799819689663,100.));
#63=IFCDIRECTION((0.,0.14342907231889229,0.9896605990003553));
#64=IFCDIRECTION((1.,0.,0.));
#65=IFCDIRECTION((-0.,-0.14342907231889229,0.9896605990003553));
#66=IFCSLAB('2QLDczdKX9Fg7Ur4brIU$Y',#168,'\X2\AE30BCF8\X0\ \X2\C9C0BD95\X0\:\X2\C77CBC18\X0\ - 400mm:180558.001',$,$,#222,#69,'180558',.ROOF.);
#69=IFCPRODUCTDEFINITIONSHAPE($,$,(#70));
#70=IFCSHAPEREPRESENTATION(#35,'Body','SweptSolid',(#71));
#71=IFCEXTRUDEDAREASOLID(#72,#77,#80,400.);
#72=IFCARBITRARYCLOSEDPROFILEDEF(.AREA.,$,#73);
#73=IFCPOLYLINE((#74,#75,#76,#74));
#74=IFCCARTESIANPOINT((-3157.1116019507558,635.94773419679666));
#75=IFCCARTESIANPOINT((-3357.1116019507554,0.));
#76=IFCCARTESIANPOINT((3357.1116019507563,-0.));
#77=IFCAXIS2PLACEMENT3D(#78,#79,#64);
#78=IFCCARTESIANPOINT((3357.1116019507563,0.,0.));
#79=IFCDIRECTION((-0.,-0.31449125336157302,0.94926037079352832));
#80=IFCDIRECTION((0.,0.31449125336157302,0.94926037079352832));
#81=IFCSLAB('2QLDczdKX9Fg7Ur4XrIU$Y',#192,'\X2\AE30BCF8\X0\ \X2\C9C0BD95\X0\:\X2\C77CBC18\X0\ - 400mm:180558.002',$,$,#227,#84,'180558',.ROOF.);
#84=IFCPRODUCTDEFINITIONSHAPE($,$,(#85));
#85=IFCSHAPEREPRESENTATION(#35,'Body','SweptSolid',(#86));
#86=IFCEXTRUDEDAREASOLID(#87,#92,#96,400.);
#87=IFCARBITRARYCLOSEDPROFILEDEF(.AREA.,$,#88);
#88=IFCPOLYLINE((#89,#90,#91,#89));
#89=IFCCARTESIANPOINT((282.84271247461612,-388.16000901552775));
#90=IFCCARTESIANPOINT((0.,991.83999098447077));
#91=IFCCARTESIANPOINT((-0.,-991.83999098447293));
#92=IFCAXIS2PLACEMENT3D(#93,#94,#95);
#93=IFCCARTESIANPOINT((0.,991.83999098449465,0.));
#94=IFCDIRECTION((-0.70710678118654979,0.,0.70710678118654524));
#95=IFCDIRECTION((0.70710678118654524,0.,0.70710678118654979));
#96=IFCDIRECTION((0.70710678118654979,-0.,0.70710678118654524));
#97=IFCMATERIALLAYERSET((#98),'\X2\AE30BCF8\X0\ \X2\C9C0BD95\X0\:\X2\C77CBC18\X0\ - 400mm',$);
#98=IFCMATERIALLAYER(#99,400.,$,$,$,$,$);
#99=IFCMATERIAL('\X2\AE30BCF8\X0\ \X2\C9C0BD95\X0\',$,$);
#100=IFCRELASSOCIATESMATERIAL('033rOSRZLDnRYzHPDiNYrU',$,$,$,(#30,#50,#66,#81,#12),#97);
#101=IFCPROPERTYSET('1$9Puaz4f3wQa3Gbj0n1to',#13,'Pset_QuantityTakeOff',$,(#102));
#102=IFCPROPERTYSINGLEVALUE('Reference',$,IFCIDENTIFIER('\X2\C77CBC18\X0\ - 400mm'),$);
#103=IFCRELDEFINESBYPROPERTIES('3jBEcudgD1Tu$tJc6n80je',$,$,$,(#30),#101);
#104=IFCPROPERTYSET('0$lV_WcSfDPg74ygc5VHSj',#13,'Pset_ReinforcementBarPitchOfSlab',$,(#105));
#105=IFCPROPERTYSINGLEVALUE('Reference',$,IFCLABEL('\X2\C77CBC18\X0\ - 400mm'),$);
#106=IFCRELDEFINESBYPROPERTIES('138BYloT98lw2P4MXsJzh1',$,$,$,(#30),#104);
#107=IFCPROPERTYSET('1FfdPUtNj5IhOWreEBGpOj',#13,'Pset_SlabCommon',$,(#108,#102,#109));
#108=IFCPROPERTYSINGLEVALUE('IsExternal',$,IFCBOOLEAN(.T.),$);
#109=IFCPROPERTYSINGLEVALUE('PitchAngle',$,IFCPLANEANGLEMEASURE(1.7585454246559831),$);
#110=IFCRELDEFINESBYPROPERTIES('1HwKkFUxL558NUPT$wm_y2',$,$,$,(#30),#107);
#111=IFCPROPERTYSET('1ByDqIKf1E5uP2kd4elCyo',#13,'Pset_QuantityTakeOff',$,(#102));
#112=IFCRELDEFINESBYPROPERTIES('0ELGQmF_b7I9GxWhqNVH1G',$,$,$,(#50),#111);
#113=IFCPROPERTYSET('2_fbh4CSL6dAFoKe74CSCI',#13,'Pset_ReinforcementBarPitchOfSlab',$,(#114));
#114=IFCPROPERTYSINGLEVALUE('Reference',$,IFCLABEL('\X2\C77CBC18\X0\ - 400mm'),$);
#115=IFCRELDEFINESBYPROPERTIES('1nIuq9PNDDOuoF5fMLnpIc',$,$,$,(#50),#113);
#116=IFCPROPERTYSET('0ORVaMQO55keo5OL69khWu',#13,'Pset_SlabCommon',$,(#108,#102,#117));
#117=IFCPROPERTYSINGLEVALUE('PitchAngle',$,IFCPLANEANGLEMEASURE(8.2463208144685343),$);
#118=IFCRELDEFINESBYPROPERTIES('3FCJUaWTnDb8GtxWI1BkdI',$,$,$,(#50),#116);
#119=IFCPROPERTYSET('0kttuCNJb4SxpPxiYoU5Xu',#13,'Pset_QuantityTakeOff',$,(#102));
#120=IFCRELDEFINESBYPROPERTIES('1dSYz_1Vj3Ggn26hI4OD4Z',$,$,$,(#66),#119);
#121=IFCPROPERTYSET('3zXafW2gT5sA0Xah9eNEIH',#13,'Pset_ReinforcementBarPitchOfSlab',$,(#122));
#122=IFCPROPERTYSINGLEVALUE('Reference',$,IFCLABEL('\X2\C77CBC18\X0\ - 400mm'),$);
#123=IFCRELDEFINESBYPROPERTIES('0ld1LL7Uv4ERW3wa9wlZht',$,$,$,(#66),#121);
#124=IFCPROPERTYSET('2V5yC5pG50KffQgUCm3YCq',#13,'Pset_SlabCommon',$,(#108,#102,#125));
#125=IFCPROPERTYSINGLEVALUE('PitchAngle',$,IFCPLANEANGLEMEASURE(18.330103963627334),$);
#126=IFCRELDEFINESBYPROPERTIES('0MWBiH9pT22R$apUZmHoah',$,$,$,(#66),#124);
#127=IFCPROPERTYSET('2Yme_pKer2FQM4088Olg5M',#13,'Pset_QuantityTakeOff',$,(#102));
#128=IFCRELDEFINESBYPROPERTIES('01_FqtXNTCNu30KNS4H7Dd',$,$,$,(#81),#127);
#129=IFCPROPERTYSET('3yTZxLAdj72wYUw0CiBvt1',#13,'Pset_ReinforcementBarPitchOfSlab',$,(#130));
#130=IFCPROPERTYSINGLEVALUE('Reference',$,IFCLABEL('\X2\C77CBC18\X0\ - 400mm'),$);
#131=IFCRELDEFINESBYPROPERTIES('1O$utgVuX0xAHUvDvVFxD9',$,$,$,(#81),#129);
#132=IFCPROPERTYSET('1dup8BDE5Etv$0EnFGYOLG',#13,'Pset_SlabCommon',$,(#108,#102,#133));
#133=IFCPROPERTYSINGLEVALUE('PitchAngle',$,IFCPLANEANGLEMEASURE(45.),$);
#134=IFCRELDEFINESBYPROPERTIES('3$PPTNlLvAxeCLpgO9sdMI',$,$,$,(#81),#132);
#135=IFCPROPERTYSET('2wjP2nlG5BGB13KoPUNafC',#13,'Pset_QuantityTakeOff',$,(#102));
#136=IFCRELDEFINESBYPROPERTIES('2d1GGafWL2eRfcR8vUjI2J',$,$,$,(#12),#135);
#137=IFCPROPERTYSET('2RVODKGwL12vav5FKfdiQ2',#13,'Pset_RoofCommon',$,(#108,#102,#138,#139));
#138=IFCPROPERTYSINGLEVALUE('ProjectedArea',$,IFCAREAMEASURE(4.3292421426667671),$);
#139=IFCPROPERTYSINGLEVALUE('TotalArea',$,IFCAREAMEASURE(4.522103539681245),$);
#140=IFCRELDEFINESBYPROPERTIES('3v5HbzZkD54u31inP63pN9',$,$,$,(#12),#137);
#141=IFCSTYLEDITEM(#55,(#142),$);
#142=IFCPRESENTATIONSTYLEASSIGNMENT((#143));
#143=IFCSURFACESTYLE($,.BOTH.,(#144));
#144=IFCSURFACESTYLERENDERING(#145,$,$,$,$,$,$,$,.FLAT.);
#145=IFCCOLOURRGB($,0.90980392156862744,0.50196078431372548,0.54509803921568623);
#146=IFCSTYLEDITEM(#71,(#147),$);
#147=IFCPRESENTATIONSTYLEASSIGNMENT((#148));
#148=IFCSURFACESTYLE($,.BOTH.,(#149));
#149=IFCSURFACESTYLERENDERING(#150,$,$,$,$,$,$,$,.FLAT.);
#150=IFCCOLOURRGB($,0.90980392156862744,0.50196078431372548,0.54509803921568623);
#151=IFCSTYLEDITEM(#86,(#152),$);
#152=IFCPRESENTATIONSTYLEASSIGNMENT((#153));
#153=IFCSURFACESTYLE($,.BOTH.,(#154));
#154=IFCSURFACESTYLERENDERING(#155,$,$,$,$,$,$,$,.FLAT.);
#155=IFCCOLOURRGB($,0.90980392156862744,0.50196078431372548,0.54509803921568623);
#156=IFCSTYLEDITEM(#39,(#157),$);
#157=IFCPRESENTATIONSTYLEASSIGNMENT((#158));
#158=IFCSURFACESTYLE($,.BOTH.,(#159));
#159=IFCSURFACESTYLERENDERING(#160,$,$,$,$,$,$,$,.FLAT.);
#160=IFCCOLOURRGB($,0.90980392156862744,0.50196078431372548,0.54509803921568623);
#161=IFCOWNERHISTORY(#14,#17,.READWRITE.,.ADDED.,1778765887,#14,#17,1778765887);
#162=IFCRELCONTAINEDINSPATIALSTRUCTURE('1bo0y9P1j9_gQnBTC2j290',#161,$,$,(#66,#50,#12,#30,#81),#8);
#168=IFCOWNERHISTORY(#14,#17,$,.MODIFIED.,1778765887,#14,#17,1778487490);
#174=IFCOWNERHISTORY(#14,#17,$,.MODIFIED.,1778765887,#14,#17,1778487490);
#180=IFCOWNERHISTORY(#14,#17,$,.MODIFIED.,1778765887,#14,#17,1778487490);
#186=IFCOWNERHISTORY(#14,#17,$,.MODIFIED.,1778765887,#14,#17,1778487490);
#192=IFCOWNERHISTORY(#14,#17,$,.MODIFIED.,1778765887,#14,#17,1778487490);
#203=IFCCARTESIANPOINT((0.,0.,0.));
#204=IFCDIRECTION((0.,0.,1.));
#205=IFCDIRECTION((1.,0.,0.));
#206=IFCAXIS2PLACEMENT3D(#203,#204,#205);
#207=IFCLOCALPLACEMENT($,#206);
#208=IFCCARTESIANPOINT((0.,0.,0.));
#209=IFCDIRECTION((0.,0.,1.));
#210=IFCDIRECTION((1.,0.,0.));
#211=IFCAXIS2PLACEMENT3D(#208,#209,#210);
#212=IFCLOCALPLACEMENT($,#211);
#213=IFCCARTESIANPOINT((0.,0.,0.));
#214=IFCDIRECTION((0.,0.,1.));
#215=IFCDIRECTION((1.,0.,0.));
#216=IFCAXIS2PLACEMENT3D(#213,#214,#215);
#217=IFCLOCALPLACEMENT($,#216);
#218=IFCCARTESIANPOINT((0.,0.,0.));
#219=IFCDIRECTION((0.,0.,1.));
#220=IFCDIRECTION((1.,0.,0.));
#221=IFCAXIS2PLACEMENT3D(#218,#219,#220);
#222=IFCLOCALPLACEMENT($,#221);
#223=IFCCARTESIANPOINT((0.,0.,0.));
#224=IFCDIRECTION((0.,0.,1.));
#225=IFCDIRECTION((1.,0.,0.));
#226=IFCAXIS2PLACEMENT3D(#223,#224,#225);
#227=IFCLOCALPLACEMENT($,#226);
#228=IFCOWNERHISTORY(#14,#17,.READWRITE.,.ADDED.,1778765887,#14,#17,1778765887);
#229=IFCPROPERTYSET('1KLq0W_$H3vR3KnPbTAhRf',#228,'Pset_LibraryAsset',$,(#232,#233,#234,#235,#236,#237,#238,#239,#240,#241));
#230=IFCOWNERHISTORY(#14,#17,.READWRITE.,.ADDED.,1778765887,#14,#17,1778765887);
#231=IFCRELDEFINESBYPROPERTIES('0DNKYRqanEnAATuzWLF9ES',#230,$,$,(#12),#229);
#232=IFCPROPERTYSINGLEVALUE('AssetId',$,IFCLABEL('roof-180558'),$);
#233=IFCPROPERTYSINGLEVALUE('AssetGroup',$,IFCLABEL('roof-180558'),$);
#234=IFCPROPERTYSINGLEVALUE('AssetRole',$,IFCLABEL('member-0'),$);
#235=IFCPROPERTYSINGLEVALUE('Category',$,IFCLABEL('roof'),$);
#236=IFCPROPERTYSINGLEVALUE('SourceElementName',$,IFCLABEL('\X2\AE30BCF8\X0\ \X2\C9C0BD95\X0\:\X2\C77CBC18\X0\ - 400mm:180558'),$);
#237=IFCPROPERTYSINGLEVALUE('SourceGlobalId',$,IFCLABEL('2QLDczdKX9Fg7Ur4rrIU$Y'),$);
#238=IFCPROPERTYSINGLEVALUE('Reusable',$,IFCBOOLEAN(.T.),$);
#239=IFCPROPERTYSINGLEVALUE('WidthMm',$,IFCREAL(6714.223),$);
#240=IFCPROPERTYSINGLEVALUE('DepthMm',$,IFCREAL(1983.6800000000001),$);
#241=IFCPROPERTYSINGLEVALUE('HeightMm',$,IFCREAL(600.),$);
#242=IFCOWNERHISTORY(#14,#17,.READWRITE.,.ADDED.,1778765887,#14,#17,1778765887);
#243=IFCPROPERTYSET('3ED60afqD3Lhfh6mQdRaVe',#242,'Pset_LibraryAsset',$,(#246,#247,#248,#249,#250,#251,#252,#253,#254,#255));
#244=IFCOWNERHISTORY(#14,#17,.READWRITE.,.ADDED.,1778765887,#14,#17,1778765887);
#245=IFCRELDEFINESBYPROPERTIES('0VG1RhgPjDivEGdnknieLF',#244,$,$,(#30),#243);
#246=IFCPROPERTYSINGLEVALUE('AssetId',$,IFCLABEL('roof-180558'),$);
#247=IFCPROPERTYSINGLEVALUE('AssetGroup',$,IFCLABEL('roof-180558'),$);
#248=IFCPROPERTYSINGLEVALUE('AssetRole',$,IFCLABEL('member-1'),$);
#249=IFCPROPERTYSINGLEVALUE('Category',$,IFCLABEL('roof'),$);
#250=IFCPROPERTYSINGLEVALUE('SourceElementName',$,IFCLABEL('\X2\AE30BCF8\X0\ \X2\C9C0BD95\X0\:\X2\C77CBC18\X0\ - 400mm:180558.003'),$);
#251=IFCPROPERTYSINGLEVALUE('SourceGlobalId',$,IFCLABEL('2QLDczdKX9Fg7Ur4zrIU$Y'),$);
#252=IFCPROPERTYSINGLEVALUE('Reusable',$,IFCBOOLEAN(.T.),$);
#253=IFCPROPERTYSINGLEVALUE('WidthMm',$,IFCREAL(6714.223),$);
#254=IFCPROPERTYSINGLEVALUE('DepthMm',$,IFCREAL(1983.6800000000001),$);
#255=IFCPROPERTYSINGLEVALUE('HeightMm',$,IFCREAL(600.),$);
#256=IFCOWNERHISTORY(#14,#17,.READWRITE.,.ADDED.,1778765887,#14,#17,1778765887);
#257=IFCPROPERTYSET('3cSlgR0sn0lx19wn7OZafd',#256,'Pset_LibraryAsset',$,(#260,#261,#262,#263,#264,#265,#266,#267,#268,#269));
#258=IFCOWNERHISTORY(#14,#17,.READWRITE.,.ADDED.,1778765887,#14,#17,1778765887);
#259=IFCRELDEFINESBYPROPERTIES('1Oa$lzuM15_fk7bDBYqXNp',#258,$,$,(#50),#257);
#260=IFCPROPERTYSINGLEVALUE('AssetId',$,IFCLABEL('roof-180558'),$);
#261=IFCPROPERTYSINGLEVALUE('AssetGroup',$,IFCLABEL('roof-180558'),$);
#262=IFCPROPERTYSINGLEVALUE('AssetRole',$,IFCLABEL('member-2'),$);
#263=IFCPROPERTYSINGLEVALUE('Category',$,IFCLABEL('roof'),$);
#264=IFCPROPERTYSINGLEVALUE('SourceElementName',$,IFCLABEL('\X2\AE30BCF8\X0\ \X2\C9C0BD95\X0\:\X2\C77CBC18\X0\ - 400mm:180558'),$);
#265=IFCPROPERTYSINGLEVALUE('SourceGlobalId',$,IFCLABEL('2QLDczdKX9Fg7Ur4vrIU$Y'),$);
#266=IFCPROPERTYSINGLEVALUE('Reusable',$,IFCBOOLEAN(.T.),$);
#267=IFCPROPERTYSINGLEVALUE('WidthMm',$,IFCREAL(6714.223),$);
#268=IFCPROPERTYSINGLEVALUE('DepthMm',$,IFCREAL(1983.6800000000001),$);
#269=IFCPROPERTYSINGLEVALUE('HeightMm',$,IFCREAL(600.),$);
#270=IFCOWNERHISTORY(#14,#17,.READWRITE.,.ADDED.,1778765887,#14,#17,1778765887);
#271=IFCPROPERTYSET('1C$ctrrTHBbOcKcPrZoCd0',#270,'Pset_LibraryAsset',$,(#274,#275,#276,#277,#278,#279,#280,#281,#282,#283));
#272=IFCOWNERHISTORY(#14,#17,.READWRITE.,.ADDED.,1778765887,#14,#17,1778765887);
#273=IFCRELDEFINESBYPROPERTIES('0Vqibqac9278y622NkpEIh',#272,$,$,(#66),#271);
#274=IFCPROPERTYSINGLEVALUE('AssetId',$,IFCLABEL('roof-180558'),$);
#275=IFCPROPERTYSINGLEVALUE('AssetGroup',$,IFCLABEL('roof-180558'),$);
#276=IFCPROPERTYSINGLEVALUE('AssetRole',$,IFCLABEL('member-3'),$);
#277=IFCPROPERTYSINGLEVALUE('Category',$,IFCLABEL('roof'),$);
#278=IFCPROPERTYSINGLEVALUE('SourceElementName',$,IFCLABEL('\X2\AE30BCF8\X0\ \X2\C9C0BD95\X0\:\X2\C77CBC18\X0\ - 400mm:180558.001'),$);
#279=IFCPROPERTYSINGLEVALUE('SourceGlobalId',$,IFCLABEL('2QLDczdKX9Fg7Ur4brIU$Y'),$);
#280=IFCPROPERTYSINGLEVALUE('Reusable',$,IFCBOOLEAN(.T.),$);
#281=IFCPROPERTYSINGLEVALUE('WidthMm',$,IFCREAL(6714.223),$);
#282=IFCPROPERTYSINGLEVALUE('DepthMm',$,IFCREAL(1983.6800000000001),$);
#283=IFCPROPERTYSINGLEVALUE('HeightMm',$,IFCREAL(600.),$);
#284=IFCOWNERHISTORY(#14,#17,.READWRITE.,.ADDED.,1778765887,#14,#17,1778765887);
#285=IFCPROPERTYSET('32XCaGXAfAth0zA9lfL8xQ',#284,'Pset_LibraryAsset',$,(#288,#289,#290,#291,#292,#293,#294,#295,#296,#297));
#286=IFCOWNERHISTORY(#14,#17,.READWRITE.,.ADDED.,1778765887,#14,#17,1778765887);
#287=IFCRELDEFINESBYPROPERTIES('0Y_0tD6nPCJADvsfB_VGq1',#286,$,$,(#81),#285);
#288=IFCPROPERTYSINGLEVALUE('AssetId',$,IFCLABEL('roof-180558'),$);
#289=IFCPROPERTYSINGLEVALUE('AssetGroup',$,IFCLABEL('roof-180558'),$);
#290=IFCPROPERTYSINGLEVALUE('AssetRole',$,IFCLABEL('member-4'),$);
#291=IFCPROPERTYSINGLEVALUE('Category',$,IFCLABEL('roof'),$);
#292=IFCPROPERTYSINGLEVALUE('SourceElementName',$,IFCLABEL('\X2\AE30BCF8\X0\ \X2\C9C0BD95\X0\:\X2\C77CBC18\X0\ - 400mm:180558.002'),$);
#293=IFCPROPERTYSINGLEVALUE('SourceGlobalId',$,IFCLABEL('2QLDczdKX9Fg7Ur4XrIU$Y'),$);
#294=IFCPROPERTYSINGLEVALUE('Reusable',$,IFCBOOLEAN(.T.),$);
#295=IFCPROPERTYSINGLEVALUE('WidthMm',$,IFCREAL(6714.223),$);
#296=IFCPROPERTYSINGLEVALUE('DepthMm',$,IFCREAL(1983.6800000000001),$);
#297=IFCPROPERTYSINGLEVALUE('HeightMm',$,IFCREAL(600.),$);
ENDSEC;
END-ISO-10303-21;
