ISO-10303-21;
HEADER;
FILE_DESCRIPTION(('ViewDefinition [CoordinationView]'),'2;1');
FILE_NAME('','2026-05-15T08:53:14',(''),(''),'IfcOpenShell 0.8.5-1c5b825','IfcOpenShell 0.8.5-1c5b825','');
FILE_SCHEMA(('IFC4'));
ENDSEC;
DATA;
#1=IFCPROJECT('04FGei1MrA08Lu_YP623ad',$,'slab-185214 Asset Library',$,$,$,$,$,#5);
#2=IFCSIUNIT(*,.LENGTHUNIT.,.MILLI.,.METRE.);
#3=IFCSIUNIT(*,.AREAUNIT.,$,.SQUARE_METRE.);
#4=IFCSIUNIT(*,.VOLUMEUNIT.,$,.CUBIC_METRE.);
#5=IFCUNITASSIGNMENT((#4,#2,#3));
#6=IFCSITE('3$nY0ChlLDFuM$q352uOty',$,'Asset Site',$,$,$,$,$,$,$,$,$,$,$);
#7=IFCBUILDING('1m9xp3HRn4egPxpSqiDXcl',$,'Asset Building',$,$,$,$,$,$,$,$,$);
#8=IFCBUILDINGSTOREY('2E7jQPLQL5LO8kx6Ny1STx',$,'Asset Storey',$,$,$,$,$,$,$);
#9=IFCRELAGGREGATES('0z8eGYKxj1pPvCswNXkS9M',$,$,$,#1,(#6));
#10=IFCRELAGGREGATES('1GFg6TQuz5J9553NUpiHDC',$,$,$,#6,(#7));
#11=IFCRELAGGREGATES('3oUvm6yrTCIvnQVa7DqEWl',$,$,$,#7,(#8));
#12=IFCSLAB('1zLJTf39zE5AsQAORQeEJU',#86,'\X2\BC14B2E5\X0\:\X2\CF58D06CB9ACD2B8\X0\-\X2\C0C1C6A9\X0\ 362mm:185214',$,$,#91,#28,'185214',.FLOOR.);
#13=IFCOWNERHISTORY(#14,#17,$,.NOCHANGE.,$,$,$,1778487490);
#14=IFCPERSONANDORGANIZATION(#15,#16,$);
#15=IFCPERSON($,'','hnn06134',$,$,$,$,$);
#16=IFCORGANIZATION($,'','',$,$);
#17=IFCAPPLICATION(#18,'2027','Autodesk Revit 2027 (KOR)','Revit');
#18=IFCORGANIZATION($,'Autodesk Revit 2027 (KOR)',$,$,$);
#20=IFCLOCALPLACEMENT(#21,#26);
#21=IFCLOCALPLACEMENT(#22,#25);
#22=IFCLOCALPLACEMENT($,#23);
#23=IFCAXIS2PLACEMENT3D(#24,$,$);
#24=IFCCARTESIANPOINT((0.,0.,0.));
#25=IFCAXIS2PLACEMENT3D(#24,$,$);
#26=IFCAXIS2PLACEMENT3D(#24,$,$);
#28=IFCPRODUCTDEFINITIONSHAPE($,$,(#29));
#29=IFCSHAPEREPRESENTATION(#30,'Body','SweptSolid',(#34));
#30=IFCGEOMETRICREPRESENTATIONSUBCONTEXT('Body','Model',*,*,*,*,#31,$,.MODEL_VIEW.,$);
#31=IFCGEOMETRICREPRESENTATIONCONTEXT($,'Model',3,0.01,#32,#33);
#32=IFCAXIS2PLACEMENT3D(#24,$,$);
#33=IFCDIRECTION((0.,1.));
#34=IFCEXTRUDEDAREASOLID(#35,#49,#53,362.);
#35=IFCARBITRARYCLOSEDPROFILEDEF(.AREA.,$,#36);
#36=IFCPOLYLINE((#37,#38,#39,#40,#41,#42,#43,#44,#45,#46,#47,#48,#37));
#37=IFCCARTESIANPOINT((-9505.8902974609409,-6649.3866696718278));
#38=IFCCARTESIANPOINT((2494.109702539055,-6649.3866696718269));
#39=IFCCARTESIANPOINT((2494.1097025390573,-5549.3866696718269));
#40=IFCCARTESIANPOINT((7218.8921968726154,-5549.3866696718278));
#41=IFCCARTESIANPOINT((7218.8921968726245,-149.38666967182149));
#42=IFCCARTESIANPOINT((4518.8921968726318,-149.38666967182144));
#43=IFCCARTESIANPOINT((4518.8921968726427,5846.9333483591945));
#44=IFCCARTESIANPOINT((994.10970253906919,5846.9333483591945));
#45=IFCCARTESIANPOINT((994.1097025390718,6650.6133303281431));
#46=IFCCARTESIANPOINT((-5720.1135013624407,6650.6133303281431));
#47=IFCCARTESIANPOINT((-5720.1135013624507,-149.38666967185986));
#48=IFCCARTESIANPOINT((-9505.8902974609318,-149.3866696718585));
#49=IFCAXIS2PLACEMENT3D(#50,#51,#52);
#50=IFCCARTESIANPOINT((1171.6286496406381,-8214.0305454501558,0.));
#51=IFCDIRECTION((0.,0.,-1.));
#52=IFCDIRECTION((1.,0.,0.));
#53=IFCDIRECTION((0.,0.,1.));
#54=IFCMATERIALLAYERSETUSAGE(#55,.AXIS3.,.POSITIVE.,0.,$);
#55=IFCMATERIALLAYERSET((#56,#58,#60),'\X2\BC14B2E5\X0\:\X2\CF58D06CB9ACD2B8\X0\-\X2\C0C1C6A9\X0\ 362mm',$);
#56=IFCMATERIALLAYER(#57,200.,$,$,$,$,$);
#57=IFCMATERIAL('\X2\CF58D06CB9ACD2B8\X0\, \X2\D604C7A5CE58AE30\X0\',$,$);
#58=IFCMATERIALLAYER(#59,11.999999999999998,$,$,$,$,$);
#59=IFCMATERIAL('\X2\BAA8B798\X0\',$,$);
#60=IFCMATERIALLAYER(#61,149.99999999999997,$,$,$,$,$);
#61=IFCMATERIAL('\X2\B300C9C0\X0\ - \X2\D558B4DCCF54C5B4\X0\',$,$);
#62=IFCRELASSOCIATESMATERIAL('1Lw3yvHHzBl9pm6pohkXWq',$,$,$,(#12),#54);
#63=IFCPROPERTYSET('2TCp4fivrAKPVMVJl0j_zJ',#13,'Pset_QuantityTakeOff',$,(#64));
#64=IFCPROPERTYSINGLEVALUE('Reference',$,IFCIDENTIFIER('\X2\CF58D06CB9ACD2B8\X0\-\X2\C0C1C6A9\X0\ 362mm'),$);
#65=IFCRELDEFINESBYPROPERTIES('2w4ute2F97wAhkwCh74$DA',$,$,$,(#12),#63);
#66=IFCPROPERTYSET('2kA_fneiD5JRA3ErrgYQF1',#13,'Pset_ReinforcementBarPitchOfSlab',$,(#67));
#67=IFCPROPERTYSINGLEVALUE('Reference',$,IFCLABEL('\X2\CF58D06CB9ACD2B8\X0\-\X2\C0C1C6A9\X0\ 362mm'),$);
#68=IFCRELDEFINESBYPROPERTIES('0XHTakmWn4r8ut2veeKjvs',$,$,$,(#12),#66);
#69=IFCPROPERTYSET('3Xp4e8kvH1jQpz3tX5coQ4',#13,'Pset_SlabCommon',$,(#70,#71,#64,#72));
#70=IFCPROPERTYSINGLEVALUE('LoadBearing',$,IFCBOOLEAN(.F.),$);
#71=IFCPROPERTYSINGLEVALUE('IsExternal',$,IFCBOOLEAN(.F.),$);
#72=IFCPROPERTYSINGLEVALUE('PitchAngle',$,IFCPLANEANGLEMEASURE(0.),$);
#73=IFCRELDEFINESBYPROPERTIES('3B7w0BqPL6Lu4mRIyJS9jm',$,$,$,(#12),#69);
#74=IFCSTYLEDITEM(#34,(#75),$);
#75=IFCPRESENTATIONSTYLEASSIGNMENT((#76));
#76=IFCSURFACESTYLE($,.BOTH.,(#77));
#77=IFCSURFACESTYLERENDERING(#78,$,$,$,$,$,$,$,.FLAT.);
#78=IFCCOLOURRGB($,0.5725490196078431,0.90980392156862744,0.098039215686274508);
#79=IFCOWNERHISTORY(#14,#17,.READWRITE.,.ADDED.,1778802794,#14,#17,1778802794);
#80=IFCRELCONTAINEDINSPATIALSTRUCTURE('3J7tCxyNPCwPI8RA_FQ5fr',#79,$,$,(#12),#8);
#86=IFCOWNERHISTORY(#14,#17,$,.MODIFIED.,1778802794,#14,#17,1778487490);
#87=IFCCARTESIANPOINT((8334.2616478203017,14864.643875778298,362.));
#88=IFCDIRECTION((0.,0.,1.));
#89=IFCDIRECTION((1.,0.,0.));
#90=IFCAXIS2PLACEMENT3D(#87,#88,#89);
#91=IFCLOCALPLACEMENT($,#90);
#92=IFCOWNERHISTORY(#14,#17,.READWRITE.,.ADDED.,1778802794,#14,#17,1778802794);
#93=IFCPROPERTYSET('1ZgR6e215A1BppmUzILnat',#92,'Pset_LibraryAsset',$,(#96,#97,#98,#99,#100,#101,#102,#103,#104,#105));
#94=IFCOWNERHISTORY(#14,#17,.READWRITE.,.ADDED.,1778802794,#14,#17,1778802794);
#95=IFCRELDEFINESBYPROPERTIES('1rsLQ6bZ55Fv5r3GCDFM6w',#94,$,$,(#12),#93);
#96=IFCPROPERTYSINGLEVALUE('AssetId',$,IFCLABEL('slab-185214'),$);
#97=IFCPROPERTYSINGLEVALUE('AssetGroup',$,IFCLABEL('slab-185214'),$);
#98=IFCPROPERTYSINGLEVALUE('AssetRole',$,IFCLABEL('member-0'),$);
#99=IFCPROPERTYSINGLEVALUE('Category',$,IFCLABEL('slab'),$);
#100=IFCPROPERTYSINGLEVALUE('SourceElementName',$,IFCLABEL('\X2\BC14B2E5\X0\:\X2\CF58D06CB9ACD2B8\X0\-\X2\C0C1C6A9\X0\ 362mm:185214'),$);
#101=IFCPROPERTYSINGLEVALUE('SourceGlobalId',$,IFCLABEL('2QLDczdKX9Fg7Ur4rrIVtI'),$);
#102=IFCPROPERTYSINGLEVALUE('Reusable',$,IFCBOOLEAN(.T.),$);
#103=IFCPROPERTYSINGLEVALUE('WidthMm',$,IFCREAL(16724.781999999999),$);
#104=IFCPROPERTYSINGLEVALUE('DepthMm',$,IFCREAL(13300.),$);
#105=IFCPROPERTYSINGLEVALUE('HeightMm',$,IFCREAL(362.),$);
ENDSEC;
END-ISO-10303-21;
