ISO-10303-21;
HEADER;
FILE_DESCRIPTION(('ViewDefinition [CoordinationView]'),'2;1');
FILE_NAME('','2026-05-14T22:38:07',(''),(''),'IfcOpenShell 0.8.5-1c5b825','IfcOpenShell 0.8.5-1c5b825','');
FILE_SCHEMA(('IFC4'));
ENDSEC;
DATA;
#1=IFCPROJECT('33Z7ody9D1o84J_BcALJ9H',$,'stair-145090 Asset Library',$,$,$,$,$,#5);
#2=IFCSIUNIT(*,.LENGTHUNIT.,.MILLI.,.METRE.);
#3=IFCSIUNIT(*,.AREAUNIT.,$,.SQUARE_METRE.);
#4=IFCSIUNIT(*,.VOLUMEUNIT.,$,.CUBIC_METRE.);
#5=IFCUNITASSIGNMENT((#4,#2,#3));
#6=IFCSITE('0lMiF_qsf5evxjs32DI9cg',$,'Asset Site',$,$,$,$,$,$,$,$,$,$,$);
#7=IFCBUILDING('306dVTfnL6JAfQYo68f7un',$,'Asset Building',$,$,$,$,$,$,$,$,$);
#8=IFCBUILDINGSTOREY('08Wp233ef2vBEWwwrYzHlk',$,'Asset Storey',$,$,$,$,$,$,$);
#9=IFCRELAGGREGATES('2w2ZN7UsLFCRf3CeERdxrC',$,$,$,#1,(#6));
#10=IFCRELAGGREGATES('1zLtkmkrr3UxqgtUSYotML',$,$,$,#6,(#7));
#11=IFCRELAGGREGATES('2KfXSU_XvBxwmf7DPhn65c',$,$,$,#7,(#8));
#12=IFCSTAIR('2znubWhPDD4wn7Fg4E22hB',#1349,'\X2\C870D569B41C\X0\ \X2\ACC4B2E8\X0\:\X2\ACC4B2E8\X0\:145090',$,$,#1387,$,'145090',.STRAIGHT_RUN_STAIR.);
#13=IFCOWNERHISTORY(#14,#17,$,.NOCHANGE.,$,$,$,1778487490);
#14=IFCPERSONANDORGANIZATION(#15,#16,$);
#15=IFCPERSON($,'','hnn06134',$,$,$,$,$);
#16=IFCORGANIZATION($,'','',$,$);
#17=IFCAPPLICATION(#18,'2027','Autodesk Revit 2027 (KOR)','Revit');
#18=IFCORGANIZATION($,'Autodesk Revit 2027 (KOR)',$,$,$);
#20=IFCLOCALPLACEMENT(#21,#26);
#21=IFCLOCALPLACEMENT(#22,#25);
#22=IFCLOCALPLACEMENT($,#23);
#23=IFCAXIS2PLACEMENT3D(#24,$,$);
#24=IFCCARTESIANPOINT((0.,0.,0.));
#25=IFCAXIS2PLACEMENT3D(#24,$,$);
#26=IFCAXIS2PLACEMENT3D(#24,$,$);
#28=IFCSTAIRFLIGHT('2znubWhPDD4wn7Fg4E22lW',#1343,'\X2\C870D569B41C\X0\ \X2\ACC4B2E8\X0\:\X2\ACC4B2E8\X0\:145090 Run 1',$,$,#1392,#31,'145385',$,11,0.58586426696662919,0.82020997375328075,$);
#31=IFCPRODUCTDEFINITIONSHAPE($,$,(#32));
#32=IFCSHAPEREPRESENTATION(#33,'Body','SweptSolid',(#37,#46,#53,#59,#65,#71,#77,#83,#89,#95,#101,#107,#113,#119,#125,#131,#137,#143,#149,#155,#161,#167,#173));
#33=IFCGEOMETRICREPRESENTATIONSUBCONTEXT('Body','Model',*,*,*,*,#34,$,.MODEL_VIEW.,$);
#34=IFCGEOMETRICREPRESENTATIONCONTEXT($,'Model',3,0.01,#35,#36);
#35=IFCAXIS2PLACEMENT3D(#24,$,$);
#36=IFCDIRECTION((0.,1.));
#37=IFCEXTRUDEDAREASOLID(#38,#42,#44,128.57142857142858);
#38=IFCRECTANGLEPROFILEDEF(.AREA.,'50mm \X2\B514B524D310\X0\ 12mm \X2\CC4CD310\X0\',#39,1600.,11.999999999999439);
#39=IFCAXIS2PLACEMENT2D(#40,#41);
#40=IFCCARTESIANPOINT((0.,-1.0831335828243027E-12));
#41=IFCDIRECTION((1.,0.));
#42=IFCAXIS2PLACEMENT3D(#43,#44,#45);
#43=IFCCARTESIANPOINT((4634.9011071298773,-11269.344154425977,0.));
#44=IFCDIRECTION((0.,0.,1.));
#45=IFCDIRECTION((-1.,0.,0.));
#46=IFCEXTRUDEDAREASOLID(#47,#50,#44,50.);
#47=IFCRECTANGLEPROFILEDEF(.AREA.,'50mm \X2\B514B524D310\X0\ 12mm \X2\CC4CD310\X0\',#48,250.00000000000165,1599.9999999999995);
#48=IFCAXIS2PLACEMENT2D(#49,#41);
#49=IFCCARTESIANPOINT((-1.0800249583553523E-12,2.8421709430404007E-13));
#50=IFCAXIS2PLACEMENT3D(#51,#44,#52);
#51=IFCCARTESIANPOINT((4634.9011071298773,-11150.344154425977,128.57142857142858));
#52=IFCDIRECTION((0.,-1.,0.));
#53=IFCEXTRUDEDAREASOLID(#54,#57,#44,178.57142857142858);
#54=IFCRECTANGLEPROFILEDEF(.AREA.,'50mm \X2\B514B524D310\X0\ 12mm \X2\CC4CD310\X0\',#55,1599.9999999999995,11.999999999999439);
#55=IFCAXIS2PLACEMENT2D(#56,#41);
#56=IFCCARTESIANPOINT((-2.2737367544323206E-13,1.0831335828243027E-12));
#57=IFCAXIS2PLACEMENT3D(#58,#44,#45);
#58=IFCCARTESIANPOINT((4634.9011071298773,-11019.344154425975,128.57142857142858));
#59=IFCEXTRUDEDAREASOLID(#60,#63,#44,50.);
#60=IFCRECTANGLEPROFILEDEF(.AREA.,'50mm \X2\B514B524D310\X0\ 12mm \X2\CC4CD310\X0\',#61,249.99999999999949,1600.0000000000005);
#61=IFCAXIS2PLACEMENT2D(#62,#41);
#62=IFCCARTESIANPOINT((0.,-2.2737367544323206E-13));
#63=IFCAXIS2PLACEMENT3D(#64,#44,#52);
#64=IFCCARTESIANPOINT((4634.9011071298773,-10900.344154425977,307.14285714285717));
#65=IFCEXTRUDEDAREASOLID(#66,#69,#44,178.57142857142858);
#66=IFCRECTANGLEPROFILEDEF(.AREA.,'50mm \X2\B514B524D310\X0\ 12mm \X2\CC4CD310\X0\',#67,1599.9999999999995,11.999999999999439);
#67=IFCAXIS2PLACEMENT2D(#68,#41);
#68=IFCCARTESIANPOINT((0.,-1.0831335828243027E-12));
#69=IFCAXIS2PLACEMENT3D(#70,#44,#45);
#70=IFCCARTESIANPOINT((4634.9011071298773,-10769.344154425977,307.14285714285717));
#71=IFCEXTRUDEDAREASOLID(#72,#75,#44,50.);
#72=IFCRECTANGLEPROFILEDEF(.AREA.,'50mm \X2\B514B524D310\X0\ 12mm \X2\CC4CD310\X0\',#73,249.99999999999949,1600.0000000000014);
#73=IFCAXIS2PLACEMENT2D(#74,#41);
#74=IFCCARTESIANPOINT((0.,0.));
#75=IFCAXIS2PLACEMENT3D(#76,#44,#52);
#76=IFCCARTESIANPOINT((4634.9011071298773,-10650.344154425975,485.71428571428572));
#77=IFCEXTRUDEDAREASOLID(#78,#81,#44,178.57142857142858);
#78=IFCRECTANGLEPROFILEDEF(.AREA.,'50mm \X2\B514B524D310\X0\ 12mm \X2\CC4CD310\X0\',#79,1599.9999999999995,11.999999999999439);
#79=IFCAXIS2PLACEMENT2D(#80,#41);
#80=IFCCARTESIANPOINT((-2.8421709430404007E-13,1.0831335828243027E-12));
#81=IFCAXIS2PLACEMENT3D(#82,#44,#45);
#82=IFCCARTESIANPOINT((4634.9011071298773,-10519.344154425977,485.71428571428572));
#83=IFCEXTRUDEDAREASOLID(#84,#87,#44,50.);
#84=IFCRECTANGLEPROFILEDEF(.AREA.,'50mm \X2\B514B524D310\X0\ 12mm \X2\CC4CD310\X0\',#85,249.99999999999949,1600.0000000000007);
#85=IFCAXIS2PLACEMENT2D(#86,#41);
#86=IFCCARTESIANPOINT((0.,2.2737367544323206E-13));
#87=IFCAXIS2PLACEMENT3D(#88,#44,#52);
#88=IFCCARTESIANPOINT((4634.9011071298783,-10400.344154425979,664.28571428571433));
#89=IFCEXTRUDEDAREASOLID(#90,#93,#44,178.57142857142858);
#90=IFCRECTANGLEPROFILEDEF(.AREA.,'50mm \X2\B514B524D310\X0\ 12mm \X2\CC4CD310\X0\',#91,1599.9999999999995,11.999999999999439);
#91=IFCAXIS2PLACEMENT2D(#92,#41);
#92=IFCCARTESIANPOINT((-5.6843418860808015E-13,-1.0831335828243027E-12));
#93=IFCAXIS2PLACEMENT3D(#94,#44,#45);
#94=IFCCARTESIANPOINT((4634.9011071298773,-10269.344154425977,664.28571428571433));
#95=IFCEXTRUDEDAREASOLID(#96,#99,#44,50.);
#96=IFCRECTANGLEPROFILEDEF(.AREA.,'50mm \X2\B514B524D310\X0\ 12mm \X2\CC4CD310\X0\',#97,249.99999999999949,1600.);
#97=IFCAXIS2PLACEMENT2D(#98,#41);
#98=IFCCARTESIANPOINT((0.,0.));
#99=IFCAXIS2PLACEMENT3D(#100,#44,#52);
#100=IFCCARTESIANPOINT((4634.9011071298792,-10150.344154425977,842.85714285714289));
#101=IFCEXTRUDEDAREASOLID(#102,#105,#44,178.57142857142858);
#102=IFCRECTANGLEPROFILEDEF(.AREA.,'50mm \X2\B514B524D310\X0\ 12mm \X2\CC4CD310\X0\',#103,1599.9999999999995,11.999999999999439);
#103=IFCAXIS2PLACEMENT2D(#104,#41);
#104=IFCCARTESIANPOINT((-5.6843418860808015E-13,1.0831335828243027E-12));
#105=IFCAXIS2PLACEMENT3D(#106,#44,#45);
#106=IFCCARTESIANPOINT((4634.9011071298773,-10019.344154425975,842.85714285714289));
#107=IFCEXTRUDEDAREASOLID(#108,#111,#44,50.);
#108=IFCRECTANGLEPROFILEDEF(.AREA.,'50mm \X2\B514B524D310\X0\ 12mm \X2\CC4CD310\X0\',#109,249.99999999999949,1600.);
#109=IFCAXIS2PLACEMENT2D(#110,#41);
#110=IFCCARTESIANPOINT((0.,0.));
#111=IFCAXIS2PLACEMENT3D(#112,#44,#52);
#112=IFCCARTESIANPOINT((4634.9011071298792,-9900.3441544259767,1021.4285714285714));
#113=IFCEXTRUDEDAREASOLID(#114,#117,#44,178.57142857142858);
#114=IFCRECTANGLEPROFILEDEF(.AREA.,'50mm \X2\B514B524D310\X0\ 12mm \X2\CC4CD310\X0\',#115,1599.9999999999995,11.999999999999439);
#115=IFCAXIS2PLACEMENT2D(#116,#41);
#116=IFCCARTESIANPOINT((-8.5265128291212022E-13,1.0831335828243027E-12));
#117=IFCAXIS2PLACEMENT3D(#118,#44,#45);
#118=IFCCARTESIANPOINT((4634.9011071298773,-9769.3441544259786,1021.4285714285714));
#119=IFCEXTRUDEDAREASOLID(#120,#123,#44,50.);
#120=IFCRECTANGLEPROFILEDEF(.AREA.,'50mm \X2\B514B524D310\X0\ 12mm \X2\CC4CD310\X0\',#121,249.99999999999949,1600.0000000000007);
#121=IFCAXIS2PLACEMENT2D(#122,#41);
#122=IFCCARTESIANPOINT((0.,2.2737367544323206E-13));
#123=IFCAXIS2PLACEMENT3D(#124,#44,#52);
#124=IFCCARTESIANPOINT((4634.9011071298792,-9650.3441544259786,1200.));
#125=IFCEXTRUDEDAREASOLID(#126,#129,#44,178.57142857142858);
#126=IFCRECTANGLEPROFILEDEF(.AREA.,'50mm \X2\B514B524D310\X0\ 12mm \X2\CC4CD310\X0\',#127,1599.9999999999995,11.999999999999437);
#127=IFCAXIS2PLACEMENT2D(#128,#41);
#128=IFCCARTESIANPOINT((-5.6843418860808015E-13,0.));
#129=IFCAXIS2PLACEMENT3D(#130,#44,#45);
#130=IFCCARTESIANPOINT((4634.9011071298783,-9519.3441544259767,1200.));
#131=IFCEXTRUDEDAREASOLID(#132,#135,#44,50.);
#132=IFCRECTANGLEPROFILEDEF(.AREA.,'50mm \X2\B514B524D310\X0\ 12mm \X2\CC4CD310\X0\',#133,249.99999999999949,1600.0000000000014);
#133=IFCAXIS2PLACEMENT2D(#134,#41);
#134=IFCCARTESIANPOINT((0.,0.));
#135=IFCAXIS2PLACEMENT3D(#136,#44,#52);
#136=IFCCARTESIANPOINT((4634.9011071298801,-9400.3441544259786,1378.5714285714287));
#137=IFCEXTRUDEDAREASOLID(#138,#141,#44,178.57142857142858);
#138=IFCRECTANGLEPROFILEDEF(.AREA.,'50mm \X2\B514B524D310\X0\ 12mm \X2\CC4CD310\X0\',#139,1599.9999999999995,11.999999999999437);
#139=IFCAXIS2PLACEMENT2D(#140,#41);
#140=IFCCARTESIANPOINT((-7.9580786405131221E-13,0.));
#141=IFCAXIS2PLACEMENT3D(#142,#44,#45);
#142=IFCCARTESIANPOINT((4634.9011071298783,-9269.3441544259767,1378.5714285714287));
#143=IFCEXTRUDEDAREASOLID(#144,#147,#44,50.);
#144=IFCRECTANGLEPROFILEDEF(.AREA.,'50mm \X2\B514B524D310\X0\ 12mm \X2\CC4CD310\X0\',#145,249.99999999999949,1600.0000000000007);
#145=IFCAXIS2PLACEMENT2D(#146,#41);
#146=IFCCARTESIANPOINT((0.,2.2737367544323206E-13));
#147=IFCAXIS2PLACEMENT3D(#148,#44,#52);
#148=IFCCARTESIANPOINT((4634.9011071298801,-9150.3441544259786,1557.1428571428573));
#149=IFCEXTRUDEDAREASOLID(#150,#153,#44,178.57142857142858);
#150=IFCRECTANGLEPROFILEDEF(.AREA.,'50mm \X2\B514B524D310\X0\ 12mm \X2\CC4CD310\X0\',#151,1599.9999999999995,11.999999999999437);
#151=IFCAXIS2PLACEMENT2D(#152,#41);
#152=IFCCARTESIANPOINT((-7.9580786405131221E-13,0.));
#153=IFCAXIS2PLACEMENT3D(#154,#44,#45);
#154=IFCCARTESIANPOINT((4634.9011071298783,-9019.3441544259786,1557.1428571428573));
#155=IFCEXTRUDEDAREASOLID(#156,#159,#44,50.);
#156=IFCRECTANGLEPROFILEDEF(.AREA.,'50mm \X2\B514B524D310\X0\ 12mm \X2\CC4CD310\X0\',#157,249.99999999999949,1600.0000000000007);
#157=IFCAXIS2PLACEMENT2D(#158,#41);
#158=IFCCARTESIANPOINT((0.,2.2737367544323206E-13));
#159=IFCAXIS2PLACEMENT3D(#160,#44,#52);
#160=IFCCARTESIANPOINT((4634.9011071298801,-8900.3441544259786,1735.7142857142858));
#161=IFCEXTRUDEDAREASOLID(#162,#165,#44,178.57142857142858);
#162=IFCRECTANGLEPROFILEDEF(.AREA.,'50mm \X2\B514B524D310\X0\ 12mm \X2\CC4CD310\X0\',#163,1599.9999999999995,11.999999999999439);
#163=IFCAXIS2PLACEMENT2D(#164,#41);
#164=IFCCARTESIANPOINT((-1.0800249583553523E-12,-1.0831335828243027E-12));
#165=IFCAXIS2PLACEMENT3D(#166,#44,#45);
#166=IFCCARTESIANPOINT((4634.9011071298783,-8769.3441544259804,1735.7142857142858));
#167=IFCEXTRUDEDAREASOLID(#168,#171,#44,178.57142857142858);
#168=IFCRECTANGLEPROFILEDEF(.AREA.,'50mm \X2\B514B524D310\X0\ 12mm \X2\CC4CD310\X0\',#169,1600.,12.00000000000052);
#169=IFCAXIS2PLACEMENT2D(#170,#41);
#170=IFCCARTESIANPOINT((0.,5.4178883601707639E-13));
#171=IFCAXIS2PLACEMENT3D(#172,#44,#45);
#172=IFCCARTESIANPOINT((4634.9011071298819,-8519.3441544259749,1914.2857142857144));
#173=IFCEXTRUDEDAREASOLID(#174,#177,#44,50.);
#174=IFCRECTANGLEPROFILEDEF(.AREA.,'50mm \X2\B514B524D310\X0\ 12mm \X2\CC4CD310\X0\',#175,249.99999999999949,1600.);
#175=IFCAXIS2PLACEMENT2D(#176,#41);
#176=IFCCARTESIANPOINT((0.,0.));
#177=IFCAXIS2PLACEMENT3D(#178,#44,#52);
#178=IFCCARTESIANPOINT((4634.9011071298819,-8650.3441544259804,1914.2857142857144));
#179=IFCMEMBER('2znubWhPDD4wn7Fg4E22lY',#1355,'\X2\C870D569B41C\X0\ \X2\ACC4B2E8\X0\:\X2\ACC4B2E8\X0\:145090 Stringer 1',$,$,#1397,#182,'145387',$);
#182=IFCPRODUCTDEFINITIONSHAPE($,$,(#183));
#183=IFCSHAPEREPRESENTATION(#33,'Body','SweptSolid',(#184));
#184=IFCEXTRUDEDAREASOLID(#185,#192,#44,50.);
#185=IFCARBITRARYCLOSEDPROFILEDEF(.AREA.,'\X2\ACC4B2E8C606D310\X0\ - 50mm \X2\D3ED\X0\',#186);
#186=IFCPOLYLINE((#187,#188,#189,#190,#191,#187));
#187=IFCCARTESIANPOINT((-1168.0139516022523,-836.5946812418556));
#188=IFCCARTESIANPOINT((-827.94419359097492,-836.5946812418556));
#189=IFCCARTESIANPOINT((1581.9860483977473,884.78406303580391));
#190=IFCCARTESIANPOINT((1581.9860483977473,1376.3455068668111));
#191=IFCCARTESIANPOINT((-1168.0139516022523,-587.94020741890336));
#192=IFCAXIS2PLACEMENT3D(#193,#194,#195);
#193=IFCCARTESIANPOINT((3784.9011071298801,-10107.330202823721,836.5946812418556));
#194=IFCDIRECTION((1.,0.,0.));
#195=IFCDIRECTION((0.,1.,0.));
#196=IFCMEMBER('2znubWhPDD4wn7Fg4E22lb',#1361,'\X2\C870D569B41C\X0\ \X2\ACC4B2E8\X0\:\X2\ACC4B2E8\X0\:145090 Stringer 2',$,$,#1402,#199,'145388',$);
#199=IFCPRODUCTDEFINITIONSHAPE($,$,(#200));
#200=IFCSHAPEREPRESENTATION(#33,'Body','SweptSolid',(#201));
#201=IFCEXTRUDEDAREASOLID(#202,#209,#44,49.99999999999946);
#202=IFCARBITRARYCLOSEDPROFILEDEF(.AREA.,'\X2\ACC4B2E8C606D310\X0\ - 50mm \X2\D3ED\X0\',#203);
#203=IFCPOLYLINE((#204,#205,#206,#207,#208,#204));
#204=IFCCARTESIANPOINT((-1168.0139516022566,-836.59468124185366));
#205=IFCCARTESIANPOINT((-827.94419359097492,-836.59468124185366));
#206=IFCCARTESIANPOINT((1581.986048397742,884.78406303580175));
#207=IFCCARTESIANPOINT((1581.9860483977429,1376.34550686681));
#208=IFCCARTESIANPOINT((-1168.0139516022566,-587.94020741890461));
#209=IFCAXIS2PLACEMENT3D(#210,#194,#195);
#210=IFCCARTESIANPOINT((5434.9011071298792,-10107.330202823721,836.59468124185366));
#211=IFCRAILING('2znubWhPDD4wn7Fg4E22MQ',#1367,'\X2\B09CAC04\X0\:900mm \X2\BC30AD00\X0\:145811',$,$,#1407,#215,'145811',.NOTDEFINED.);
#215=IFCPRODUCTDEFINITIONSHAPE($,$,(#216));
#216=IFCSHAPEREPRESENTATION(#33,'Body','Brep',(#217,#257,#297,#337,#377,#451,#525,#599,#673));
#217=IFCFACETEDBREP(#218);
#218=IFCCLOSEDSHELL((#219,#225,#229,#234,#237,#241,#245,#248,#251,#254));
#219=IFCFACE((#220));
#220=IFCFACEOUTERBOUND(#221,.T.);
#221=IFCPOLYLOOP((#222,#223,#224));
#222=IFCCARTESIANPOINT((34.095272235919765,2001.5875000000015,1428.5714285714284));
#223=IFCCARTESIANPOINT((24.376783910372978,2013.7740989022732,2288.1199976899511));
#224=IFCCARTESIANPOINT((34.095272235919765,2001.5875000000015,2279.4152841883279));
#225=IFCFACE((#226));
#226=IFCFACEOUTERBOUND(#227,.T.);
#227=IFCPOLYLOOP((#223,#222,#228));
#228=IFCCARTESIANPOINT((21.595272235918856,2014.0875000000015,1428.5714285714284));
#229=IFCFACE((#230));
#230=IFCFACEOUTERBOUND(#231,.T.);
#231=IFCPOLYLOOP((#228,#232,#233));
#232=IFCCARTESIANPOINT((9.0952722359188556,2001.5875000000015,1428.5714285714284));
#233=IFCCARTESIANPOINT((9.0952722359188556,2001.5875000000015,2279.4152841883279));
#234=IFCFACE((#235));
#235=IFCFACEOUTERBOUND(#236,.T.);
#236=IFCPOLYLOOP((#228,#233,#223));
#237=IFCFACE((#238));
#238=IFCFACEOUTERBOUND(#239,.T.);
#239=IFCPOLYLOOP((#233,#232,#240));
#240=IFCCARTESIANPOINT((18.813760561465642,1989.4009010977279,2270.7105706867042));
#241=IFCFACE((#242));
#242=IFCFACEOUTERBOUND(#243,.T.);
#243=IFCPOLYLOOP((#240,#232,#244));
#244=IFCCARTESIANPOINT((21.595272235918856,1989.0874999999996,1428.5714285714284));
#245=IFCFACE((#246));
#246=IFCFACEOUTERBOUND(#247,.T.);
#247=IFCPOLYLOOP((#244,#222,#224));
#248=IFCFACE((#249));
#249=IFCFACEOUTERBOUND(#250,.T.);
#250=IFCPOLYLOOP((#244,#224,#240));
#251=IFCFACE((#252));
#252=IFCFACEOUTERBOUND(#253,.T.);
#253=IFCPOLYLOOP((#224,#223,#233,#240));
#254=IFCFACE((#255));
#255=IFCFACEOUTERBOUND(#256,.T.);
#256=IFCPOLYLOOP((#228,#222,#244,#232));
#257=IFCFACETEDBREP(#258);
#258=IFCCLOSEDSHELL((#259,#265,#269,#274,#277,#281,#285,#288,#291,#294));
#259=IFCFACE((#260));
#260=IFCFACEOUTERBOUND(#261,.T.);
#261=IFCPOLYLOOP((#262,#263,#264));
#262=IFCCARTESIANPOINT((34.095272235917946,1001.5874999999996,714.28571428571422));
#263=IFCCARTESIANPOINT((24.376783910371159,1013.7740989022732,1573.8342834042367));
#264=IFCCARTESIANPOINT((34.095272235917946,1001.5874999999996,1565.1295699026132));
#265=IFCFACE((#266));
#266=IFCFACEOUTERBOUND(#267,.T.);
#267=IFCPOLYLOOP((#263,#262,#268));
#268=IFCCARTESIANPOINT((21.595272235917037,1014.0874999999996,714.28571428571422));
#269=IFCFACE((#270));
#270=IFCFACEOUTERBOUND(#271,.T.);
#271=IFCPOLYLOOP((#268,#272,#273));
#272=IFCCARTESIANPOINT((9.0952722359170366,1001.5874999999996,714.28571428571422));
#273=IFCCARTESIANPOINT((9.0952722359170366,1001.5874999999996,1565.1295699026134));
#274=IFCFACE((#275));
#275=IFCFACEOUTERBOUND(#276,.T.);
#276=IFCPOLYLOOP((#268,#273,#263));
#277=IFCFACE((#278));
#278=IFCFACEOUTERBOUND(#279,.T.);
#279=IFCPOLYLOOP((#273,#272,#280));
#280=IFCCARTESIANPOINT((18.813760561462914,989.40090109772791,1556.4248564009899));
#281=IFCFACE((#282));
#282=IFCFACEOUTERBOUND(#283,.T.);
#283=IFCPOLYLOOP((#280,#272,#284));
#284=IFCCARTESIANPOINT((21.595272235917037,989.08750000000146,714.28571428571422));
#285=IFCFACE((#286));
#286=IFCFACEOUTERBOUND(#287,.T.);
#287=IFCPOLYLOOP((#284,#262,#264));
#288=IFCFACE((#289));
#289=IFCFACEOUTERBOUND(#290,.T.);
#290=IFCPOLYLOOP((#284,#264,#280));
#291=IFCFACE((#292));
#292=IFCFACEOUTERBOUND(#293,.T.);
#293=IFCPOLYLOOP((#264,#263,#273,#280));
#294=IFCFACE((#295));
#295=IFCFACEOUTERBOUND(#296,.T.);
#296=IFCPOLYLOOP((#268,#262,#284,#272));
#297=IFCFACETEDBREP(#298);
#298=IFCCLOSEDSHELL((#299,#305,#309,#314,#317,#321,#325,#328,#331,#334));
#299=IFCFACE((#300));
#300=IFCFACEOUTERBOUND(#301,.T.);
#301=IFCPOLYLOOP((#302,#303,#304));
#302=IFCCARTESIANPOINT((34.095272235920675,2739.0874999999996,1785.7142857142858));
#303=IFCCARTESIANPOINT((24.376783910374797,2751.2740989022732,2814.9057119756653));
#304=IFCCARTESIANPOINT((34.095272235920675,2739.0874999999996,2806.2009984740416));
#305=IFCFACE((#306));
#306=IFCFACEOUTERBOUND(#307,.T.);
#307=IFCPOLYLOOP((#303,#302,#308));
#308=IFCCARTESIANPOINT((21.595272235920675,2751.5874999999996,1785.7142857142858));
#309=IFCFACE((#310));
#310=IFCFACEOUTERBOUND(#311,.T.);
#311=IFCPOLYLOOP((#308,#312,#313));
#312=IFCCARTESIANPOINT((9.0952722359197651,2739.0874999999996,1785.7142857142858));
#313=IFCCARTESIANPOINT((9.0952722359197651,2739.0874999999996,2806.2009984740421));
#314=IFCFACE((#315));
#315=IFCFACEOUTERBOUND(#316,.T.);
#316=IFCPOLYLOOP((#308,#313,#303));
#317=IFCFACE((#318));
#318=IFCFACEOUTERBOUND(#319,.T.);
#319=IFCPOLYLOOP((#313,#312,#320));
#320=IFCCARTESIANPOINT((18.813760561466552,2726.9009010977261,2797.4962849724184));
#321=IFCFACE((#322));
#322=IFCFACEOUTERBOUND(#323,.T.);
#323=IFCPOLYLOOP((#320,#312,#324));
#324=IFCCARTESIANPOINT((21.595272235920675,2726.5874999999996,1785.7142857142858));
#325=IFCFACE((#326));
#326=IFCFACEOUTERBOUND(#327,.T.);
#327=IFCPOLYLOOP((#324,#302,#304));
#328=IFCFACE((#329));
#329=IFCFACEOUTERBOUND(#330,.T.);
#330=IFCPOLYLOOP((#324,#304,#320));
#331=IFCFACE((#332));
#332=IFCFACEOUTERBOUND(#333,.T.);
#333=IFCPOLYLOOP((#304,#303,#313,#320));
#334=IFCFACE((#335));
#335=IFCFACEOUTERBOUND(#336,.T.);
#336=IFCPOLYLOOP((#308,#302,#324,#312));
#337=IFCFACETEDBREP(#338);
#338=IFCCLOSEDSHELL((#339,#345,#349,#354,#357,#361,#365,#368,#371,#374));
#339=IFCFACE((#340));
#340=IFCFACEOUTERBOUND(#341,.T.);
#341=IFCPOLYLOOP((#342,#343,#344));
#342=IFCCARTESIANPOINT((34.095272235916127,14.087499999999636,-0.));
#343=IFCCARTESIANPOINT((24.37678391037025,26.274098902271362,868.49399735170505));
#344=IFCCARTESIANPOINT((34.095272235916127,14.087499999999636,859.63101633187034));
#345=IFCFACE((#346));
#346=IFCFACEOUTERBOUND(#347,.T.);
#347=IFCPOLYLOOP((#343,#342,#348));
#348=IFCCARTESIANPOINT((21.595272235916127,26.587499999999636,-0.));
#349=IFCFACE((#350));
#350=IFCFACEOUTERBOUND(#351,.T.);
#351=IFCPOLYLOOP((#348,#352,#353));
#352=IFCCARTESIANPOINT((9.0952722359152176,14.087499999999636,-0.));
#353=IFCCARTESIANPOINT((9.0952722359152176,14.087499999999636,859.63101633187034));
#354=IFCFACE((#355));
#355=IFCFACEOUTERBOUND(#356,.T.);
#356=IFCPOLYLOOP((#348,#353,#343));
#357=IFCFACE((#358));
#358=IFCFACEOUTERBOUND(#359,.T.);
#359=IFCPOLYLOOP((#353,#352,#360));
#360=IFCCARTESIANPOINT((18.813760561462004,1.9009010977279104,850.76803531203564));
#361=IFCFACE((#362));
#362=IFCFACEOUTERBOUND(#363,.T.);
#363=IFCPOLYLOOP((#360,#352,#364));
#364=IFCCARTESIANPOINT((21.595272235916127,1.5874999999996362,-0.));
#365=IFCFACE((#366));
#366=IFCFACEOUTERBOUND(#367,.T.);
#367=IFCPOLYLOOP((#364,#342,#344));
#368=IFCFACE((#369));
#369=IFCFACEOUTERBOUND(#370,.T.);
#370=IFCPOLYLOOP((#364,#344,#360));
#371=IFCFACE((#372));
#372=IFCFACEOUTERBOUND(#373,.T.);
#373=IFCPOLYLOOP((#344,#343,#353,#360));
#374=IFCFACE((#375));
#375=IFCFACEOUTERBOUND(#376,.T.);
#376=IFCPOLYLOOP((#348,#342,#364,#352));
#377=IFCFACETEDBREP(#378);
#378=IFCCLOSEDSHELL((#379,#406,#433,#436,#439,#442,#445,#448));
#379=IFCFACE((#380));
#380=IFCFACEOUTERBOUND(#381,.T.);
#381=IFCPOLYLOOP((#382,#383,#384,#385,#386,#387,#388,#389,#390,#391,#392,#393,#394,#395,#396,#397,#398,#399,#400,#401,#402,#403,#404,#405));
#382=IFCCARTESIANPOINT((29.095272235916127,1.5874999999996362,665.60251968588841));
#383=IFCCARTESIANPOINT((30.970272235915218,1.5874999999996362,669.5935012285006));
#384=IFCCARTESIANPOINT((32.845272235915218,1.5874999999996362,673.58448277111279));
#385=IFCCARTESIANPOINT((34.720272235916127,1.5874999999996362,677.57546431372498));
#386=IFCCARTESIANPOINT((36.595272235916127,1.5874999999996362,681.56644585633694));
#387=IFCCARTESIANPOINT((34.999695488979341,1.5874999999996362,684.96266844132106));
#388=IFCCARTESIANPOINT((33.404118742042556,1.5874999999996362,688.3588910263054));
#389=IFCCARTESIANPOINT((31.249695488980251,1.5875000000032742,692.94463152654521));
#390=IFCCARTESIANPOINT((29.095272235916127,1.5874999999996362,697.53037202678547));
#391=IFCCARTESIANPOINT((25.345272235916127,1.5874999999996362,697.53037202678502));
#392=IFCCARTESIANPOINT((21.595272235917037,1.5874999999996362,697.53037202678502));
#393=IFCCARTESIANPOINT((17.845272235917037,1.5874999999996362,697.53037202678502));
#394=IFCCARTESIANPOINT((14.095272235915218,1.5874999999996362,697.53037202678547));
#395=IFCCARTESIANPOINT((12.220272235916127,1.5874999999996362,693.53939048417305));
#396=IFCCARTESIANPOINT((10.345272235916127,1.5874999999996362,689.54840894156087));
#397=IFCCARTESIANPOINT((8.1908489828529127,1.5874999999996362,684.96266844132128));
#398=IFCCARTESIANPOINT((6.5952722359161271,1.5874999999996362,681.56644585633694));
#399=IFCCARTESIANPOINT((8.4702722359161271,1.5874999999996362,677.57546431372498));
#400=IFCCARTESIANPOINT((10.345272235915218,1.5874999999978172,673.58448277111279));
#401=IFCCARTESIANPOINT((12.220272235916127,1.5874999999996362,669.5935012285006));
#402=IFCCARTESIANPOINT((14.095272235915218,1.5874999999996362,665.60251968588818));
#403=IFCCARTESIANPOINT((17.845272235916127,1.5874999999996362,665.60251968588864));
#404=IFCCARTESIANPOINT((21.595272235915218,1.5874999999996362,665.60251968588864));
#405=IFCCARTESIANPOINT((25.345272235915218,1.5874999999996362,665.60251968588886));
#406=IFCFACE((#407));
#407=IFCFACEOUTERBOUND(#408,.T.);
#408=IFCPOLYLOOP((#409,#410,#411,#412,#413,#414,#415,#416,#417,#418,#419,#420,#421,#422,#423,#424,#425,#426,#427,#428,#429,#430,#431,#432));
#409=IFCCARTESIANPOINT((11.94084898285837,2751.5874999999996,2634.4739744718386));
#410=IFCCARTESIANPOINT((9.7864257297987933,2751.5874999999996,2639.0597149720729));
#411=IFCCARTESIANPOINT((8.1908489828592792,2751.5874999999996,2642.455937557062));
#412=IFCCARTESIANPOINT((6.5952722359206746,2751.5874999999996,2645.8521601420512));
#413=IFCCARTESIANPOINT((8.4702722359197651,2751.5875000000015,2649.8431416846634));
#414=IFCCARTESIANPOINT((10.345272235919765,2751.5875000000015,2653.8341232272755));
#415=IFCCARTESIANPOINT((12.220272235920675,2751.5875000000015,2657.8251047698877));
#416=IFCCARTESIANPOINT((14.095272235919765,2751.5874999999996,2661.8160863125004));
#417=IFCCARTESIANPOINT((17.845272235919765,2751.5875000000015,2661.8160863124999));
#418=IFCCARTESIANPOINT((21.595272235920675,2751.5875000000015,2661.8160863124999));
#419=IFCCARTESIANPOINT((25.345272235920675,2751.5875000000015,2661.8160863124999));
#420=IFCCARTESIANPOINT((29.095272235920675,2751.5874999999996,2661.8160863125004));
#421=IFCCARTESIANPOINT((30.970272235920675,2751.5875000000015,2657.8251047698877));
#422=IFCCARTESIANPOINT((32.845272235920675,2751.5875000000015,2653.8341232272755));
#423=IFCCARTESIANPOINT((34.720272235920675,2751.5874999999996,2649.8431416846634));
#424=IFCCARTESIANPOINT((36.595272235919765,2751.5874999999996,2645.8521601420521));
#425=IFCCARTESIANPOINT((34.999695488982979,2751.5874999999996,2642.4559375570661));
#426=IFCCARTESIANPOINT((32.845272235919765,2751.5874999999996,2637.8701970568277));
#427=IFCCARTESIANPOINT((30.970272235919765,2751.5875000000015,2633.8792155142155));
#428=IFCCARTESIANPOINT((29.095272235920675,2751.5874999999996,2629.8882339716029));
#429=IFCCARTESIANPOINT((25.345272235919765,2751.5874999999996,2629.8882339716042));
#430=IFCCARTESIANPOINT((21.595272235918856,2751.5874999999996,2629.8882339716042));
#431=IFCCARTESIANPOINT((17.845272235919765,2751.5874999999996,2629.8882339716042));
#432=IFCCARTESIANPOINT((14.095272235919765,2751.5874999999996,2629.8882339716029));
#433=IFCFACE((#434));
#434=IFCFACEOUTERBOUND(#435,.T.);
#435=IFCPOLYLOOP((#400,#399,#398,#412,#411,#410,#409,#432,#402,#401));
#436=IFCFACE((#437));
#437=IFCFACEOUTERBOUND(#438,.T.);
#438=IFCPOLYLOOP((#429,#428,#382,#405,#404,#403,#402,#432,#431,#430));
#439=IFCFACE((#440));
#440=IFCFACEOUTERBOUND(#441,.T.);
#441=IFCPOLYLOOP((#425,#424,#386,#385,#384,#383,#382,#428,#427,#426));
#442=IFCFACE((#443));
#443=IFCFACEOUTERBOUND(#444,.T.);
#444=IFCPOLYLOOP((#388,#387,#386,#424,#423,#422,#421,#420,#390,#389));
#445=IFCFACE((#446));
#446=IFCFACEOUTERBOUND(#447,.T.);
#447=IFCPOLYLOOP((#396,#395,#394,#416,#415,#414,#413,#412,#398,#397));
#448=IFCFACE((#449));
#449=IFCFACEOUTERBOUND(#450,.T.);
#450=IFCPOLYLOOP((#392,#391,#390,#420,#419,#418,#417,#416,#394,#393));
#451=IFCFACETEDBREP(#452);
#452=IFCCLOSEDSHELL((#453,#480,#507,#510,#513,#516,#519,#522));
#453=IFCFACE((#454));
#454=IFCFACEOUTERBOUND(#455,.T.);
#455=IFCPOLYLOOP((#456,#457,#458,#459,#460,#461,#462,#463,#464,#465,#466,#467,#468,#469,#470,#471,#472,#473,#474,#475,#476,#477,#478,#479));
#456=IFCCARTESIANPOINT((29.095272235915218,1.5874999999996362,465.60251968588665));
#457=IFCCARTESIANPOINT((30.970272235915218,1.5874999999996362,469.59350122849906));
#458=IFCCARTESIANPOINT((32.845272235914308,1.5874999999996362,473.58448277111114));
#459=IFCCARTESIANPOINT((34.720272235914308,1.5874999999996362,477.57546431372333));
#460=IFCCARTESIANPOINT((36.595272235915218,1.5874999999996362,481.56644585633541));
#461=IFCCARTESIANPOINT((34.999695488979341,1.5874999999996362,484.96266844131952));
#462=IFCCARTESIANPOINT((33.404118742042556,1.5874999999996362,488.35889102630387));
#463=IFCCARTESIANPOINT((31.249695488977522,1.5875000000032742,492.94463152654367));
#464=IFCCARTESIANPOINT((29.095272235915218,1.5874999999996362,497.53037202678394));
#465=IFCCARTESIANPOINT((25.345272235915218,1.5874999999996362,497.53037202678348));
#466=IFCCARTESIANPOINT((21.595272235915218,1.5874999999996362,497.53037202678348));
#467=IFCCARTESIANPOINT((17.845272235916127,1.5874999999996362,497.53037202678348));
#468=IFCCARTESIANPOINT((14.095272235914308,1.5874999999996362,497.53037202678394));
#469=IFCCARTESIANPOINT((12.220272235915218,1.5874999999996362,493.53939048417141));
#470=IFCCARTESIANPOINT((10.345272235915218,1.5874999999996362,489.54840894155944));
#471=IFCCARTESIANPOINT((8.1908489828520032,1.5874999999996362,484.96266844131975));
#472=IFCCARTESIANPOINT((6.5952722359152176,1.5874999999996362,481.56644585633541));
#473=IFCCARTESIANPOINT((8.4702722359143081,1.5874999999996362,477.57546431372333));
#474=IFCCARTESIANPOINT((10.345272235915218,1.5874999999978172,473.58448277111125));
#475=IFCCARTESIANPOINT((12.220272235915218,1.5874999999996362,469.59350122849929));
#476=IFCCARTESIANPOINT((14.095272235914308,1.5874999999996362,465.60251968588665));
#477=IFCCARTESIANPOINT((17.845272235913399,1.5874999999996362,465.60251968588722));
#478=IFCCARTESIANPOINT((21.595272235915218,1.5874999999996362,465.60251968588722));
#479=IFCCARTESIANPOINT((25.345272235914308,1.5874999999996362,465.60251968588722));
#480=IFCFACE((#481));
#481=IFCFACEOUTERBOUND(#482,.T.);
#482=IFCPOLYLOOP((#483,#484,#485,#486,#487,#488,#489,#490,#491,#492,#493,#494,#495,#496,#497,#498,#499,#500,#501,#502,#503,#504,#505,#506));
#483=IFCCARTESIANPOINT((11.94084898285837,2751.5875000000015,2434.4739744718368));
#484=IFCCARTESIANPOINT((9.7864257297978838,2751.5874999999996,2439.0597149720725));
#485=IFCCARTESIANPOINT((8.1908489828583697,2751.5874999999996,2442.4559375570616));
#486=IFCCARTESIANPOINT((6.5952722359197651,2751.5874999999996,2445.8521601420503));
#487=IFCCARTESIANPOINT((8.4702722359197651,2751.5874999999996,2449.8431416846629));
#488=IFCCARTESIANPOINT((10.345272235919765,2751.5875000000015,2453.8341232272751));
#489=IFCCARTESIANPOINT((12.220272235918856,2751.5875000000015,2457.8251047698873));
#490=IFCCARTESIANPOINT((14.095272235918856,2751.5874999999996,2461.8160863124986));
#491=IFCCARTESIANPOINT((17.845272235918856,2751.5875000000015,2461.8160863124986));
#492=IFCCARTESIANPOINT((21.595272235918856,2751.5875000000015,2461.8160863124986));
#493=IFCCARTESIANPOINT((25.345272235919765,2751.5875000000015,2461.8160863124981));
#494=IFCCARTESIANPOINT((29.095272235919765,2751.5874999999996,2461.8160863124986));
#495=IFCCARTESIANPOINT((30.970272235919765,2751.5875000000015,2457.8251047698864));
#496=IFCCARTESIANPOINT((32.845272235918856,2751.5875000000015,2453.8341232272746));
#497=IFCCARTESIANPOINT((34.720272235919765,2751.5875000000015,2449.8431416846629));
#498=IFCCARTESIANPOINT((36.595272235918856,2751.5874999999996,2445.8521601420503));
#499=IFCCARTESIANPOINT((34.99969548898207,2751.5874999999996,2442.4559375570661));
#500=IFCCARTESIANPOINT((32.845272235918856,2751.5875000000015,2437.8701970568272));
#501=IFCCARTESIANPOINT((30.970272235919765,2751.5875000000015,2433.8792155142146));
#502=IFCCARTESIANPOINT((29.095272235919765,2751.5874999999996,2429.8882339716019));
#503=IFCCARTESIANPOINT((25.345272235919765,2751.5875000000015,2429.8882339716024));
#504=IFCCARTESIANPOINT((21.595272235918856,2751.5875000000015,2429.8882339716019));
#505=IFCCARTESIANPOINT((17.845272235918856,2751.5874999999996,2429.8882339716019));
#506=IFCCARTESIANPOINT((14.095272235918856,2751.5874999999996,2429.8882339716015));
#507=IFCFACE((#508));
#508=IFCFACEOUTERBOUND(#509,.T.);
#509=IFCPOLYLOOP((#474,#473,#472,#486,#485,#484,#483,#506,#476,#475));
#510=IFCFACE((#511));
#511=IFCFACEOUTERBOUND(#512,.T.);
#512=IFCPOLYLOOP((#503,#502,#456,#479,#478,#477,#476,#506,#505,#504));
#513=IFCFACE((#514));
#514=IFCFACEOUTERBOUND(#515,.T.);
#515=IFCPOLYLOOP((#499,#498,#460,#459,#458,#457,#456,#502,#501,#500));
#516=IFCFACE((#517));
#517=IFCFACEOUTERBOUND(#518,.T.);
#518=IFCPOLYLOOP((#462,#461,#460,#498,#497,#496,#495,#494,#464,#463));
#519=IFCFACE((#520));
#520=IFCFACEOUTERBOUND(#521,.T.);
#521=IFCPOLYLOOP((#470,#469,#468,#490,#489,#488,#487,#486,#472,#471));
#522=IFCFACE((#523));
#523=IFCFACEOUTERBOUND(#524,.T.);
#524=IFCPOLYLOOP((#466,#465,#464,#494,#493,#492,#491,#490,#468,#467));
#525=IFCFACETEDBREP(#526);
#526=IFCCLOSEDSHELL((#527,#554,#581,#584,#587,#590,#593,#596));
#527=IFCFACE((#528));
#528=IFCFACEOUTERBOUND(#529,.T.);
#529=IFCPOLYLOOP((#530,#531,#532,#533,#534,#535,#536,#537,#538,#539,#540,#541,#542,#543,#544,#545,#546,#547,#548,#549,#550,#551,#552,#553));
#530=IFCCARTESIANPOINT((29.095272235916127,1.5874999999996362,265.60251968588784));
#531=IFCCARTESIANPOINT((30.970272235915218,1.5874999999996362,269.5935012285002));
#532=IFCCARTESIANPOINT((32.845272235915218,1.5874999999996362,273.58448277111222));
#533=IFCCARTESIANPOINT((34.720272235916127,1.5874999999996362,277.57546431372435));
#534=IFCCARTESIANPOINT((36.595272235916127,1.5874999999996362,281.56644585633637));
#535=IFCCARTESIANPOINT((34.999695488979341,1.5874999999996362,284.96266844132055));
#536=IFCCARTESIANPOINT((33.404118742042556,1.5874999999996362,288.35889102630495));
#537=IFCCARTESIANPOINT((31.249695488980251,1.5875000000032742,292.9446315265447));
#538=IFCCARTESIANPOINT((29.095272235916127,1.5874999999996362,297.53037202678507));
#539=IFCCARTESIANPOINT((25.345272235916127,1.5874999999996362,297.53037202678456));
#540=IFCCARTESIANPOINT((21.595272235917037,1.5874999999996362,297.53037202678456));
#541=IFCCARTESIANPOINT((17.845272235917037,1.5874999999996362,297.53037202678456));
#542=IFCCARTESIANPOINT((14.095272235915218,1.5874999999996362,297.53037202678507));
#543=IFCCARTESIANPOINT((12.220272235917037,1.5874999999996362,293.5393904841726));
#544=IFCCARTESIANPOINT((10.345272235916127,1.5874999999996362,289.54840894156064));
#545=IFCCARTESIANPOINT((8.1908489828529127,1.5874999999996362,284.96266844132083));
#546=IFCCARTESIANPOINT((6.5952722359161271,1.5874999999996362,281.56644585633637));
#547=IFCCARTESIANPOINT((8.4702722359161271,1.5874999999996362,277.57546431372447));
#548=IFCCARTESIANPOINT((10.345272235915218,1.5874999999996362,273.58448277111239));
#549=IFCCARTESIANPOINT((12.220272235915218,1.5874999999996362,269.59350122850026));
#550=IFCCARTESIANPOINT((14.095272235915218,1.5874999999996362,265.60251968588778));
#551=IFCCARTESIANPOINT((17.845272235916127,1.5874999999996362,265.60251968588824));
#552=IFCCARTESIANPOINT((21.595272235915218,1.5874999999996362,265.60251968588824));
#553=IFCCARTESIANPOINT((25.345272235915218,1.5874999999996362,265.60251968588818));
#554=IFCFACE((#555));
#555=IFCFACEOUTERBOUND(#556,.T.);
#556=IFCPOLYLOOP((#557,#558,#559,#560,#561,#562,#563,#564,#565,#566,#567,#568,#569,#570,#571,#572,#573,#574,#575,#576,#577,#578,#579,#580));
#557=IFCCARTESIANPOINT((11.94084898285837,2751.5875000000015,2234.4739744718381));
#558=IFCCARTESIANPOINT((9.7864257297987933,2751.5874999999996,2239.0597149720729));
#559=IFCCARTESIANPOINT((8.1908489828592792,2751.5875000000015,2242.455937557062));
#560=IFCCARTESIANPOINT((6.5952722359206746,2751.5874999999996,2245.8521601420512));
#561=IFCCARTESIANPOINT((8.4702722359197651,2751.5875000000015,2249.8431416846638));
#562=IFCCARTESIANPOINT((10.345272235919765,2751.5875000000015,2253.834123227276));
#563=IFCCARTESIANPOINT((12.220272235918856,2751.5875000000015,2257.8251047698877));
#564=IFCCARTESIANPOINT((14.095272235919765,2751.5874999999996,2261.8160863124999));
#565=IFCCARTESIANPOINT((17.845272235919765,2751.5875000000015,2261.8160863124999));
#566=IFCCARTESIANPOINT((21.595272235920675,2751.5875000000015,2261.8160863124999));
#567=IFCCARTESIANPOINT((25.345272235920675,2751.5875000000015,2261.8160863124999));
#568=IFCCARTESIANPOINT((29.095272235920675,2751.5874999999996,2261.8160863124999));
#569=IFCCARTESIANPOINT((30.970272235921584,2751.5875000000015,2257.8251047698877));
#570=IFCCARTESIANPOINT((32.845272235920675,2751.5875000000015,2253.8341232272755));
#571=IFCCARTESIANPOINT((34.720272235920675,2751.5875000000015,2249.8431416846638));
#572=IFCCARTESIANPOINT((36.595272235919765,2751.5874999999996,2245.8521601420512));
#573=IFCCARTESIANPOINT((34.999695488982979,2751.5875000000015,2242.4559375570661));
#574=IFCCARTESIANPOINT((32.845272235920675,2751.5875000000015,2237.8701970568272));
#575=IFCCARTESIANPOINT((30.970272235920675,2751.5875000000015,2233.8792155142155));
#576=IFCCARTESIANPOINT((29.095272235920675,2751.5874999999996,2229.8882339716029));
#577=IFCCARTESIANPOINT((25.345272235920675,2751.5874999999996,2229.8882339716033));
#578=IFCCARTESIANPOINT((21.595272235920675,2751.5874999999996,2229.8882339716033));
#579=IFCCARTESIANPOINT((17.845272235919765,2751.5874999999996,2229.8882339716033));
#580=IFCCARTESIANPOINT((14.095272235919765,2751.5874999999996,2229.8882339716029));
#581=IFCFACE((#582));
#582=IFCFACEOUTERBOUND(#583,.T.);
#583=IFCPOLYLOOP((#548,#547,#546,#560,#559,#558,#557,#580,#550,#549));
#584=IFCFACE((#585));
#585=IFCFACEOUTERBOUND(#586,.T.);
#586=IFCPOLYLOOP((#577,#576,#530,#553,#552,#551,#550,#580,#579,#578));
#587=IFCFACE((#588));
#588=IFCFACEOUTERBOUND(#589,.T.);
#589=IFCPOLYLOOP((#573,#572,#534,#533,#532,#531,#530,#576,#575,#574));
#590=IFCFACE((#591));
#591=IFCFACEOUTERBOUND(#592,.T.);
#592=IFCPOLYLOOP((#536,#535,#534,#572,#571,#570,#569,#568,#538,#537));
#593=IFCFACE((#594));
#594=IFCFACEOUTERBOUND(#595,.T.);
#595=IFCPOLYLOOP((#544,#543,#542,#564,#563,#562,#561,#560,#546,#545));
#596=IFCFACE((#597));
#597=IFCFACEOUTERBOUND(#598,.T.);
#598=IFCPOLYLOOP((#540,#539,#538,#568,#567,#566,#565,#564,#542,#541));
#599=IFCFACETEDBREP(#600);
#600=IFCCLOSEDSHELL((#601,#628,#655,#658,#661,#664,#667,#670));
#601=IFCFACE((#602));
#602=IFCFACEOUTERBOUND(#603,.T.);
#603=IFCPOLYLOOP((#604,#605,#606,#607,#608,#609,#610,#611,#612,#613,#614,#615,#616,#617,#618,#619,#620,#621,#622,#623,#624,#625,#626,#627));
#604=IFCCARTESIANPOINT((29.095272235916127,1.5874999999996362,65.602519685886733));
#605=IFCCARTESIANPOINT((30.970272235915218,1.5874999999996362,69.593501228499179));
#606=IFCCARTESIANPOINT((32.845272235915218,1.5874999999978172,73.584482771111226));
#607=IFCCARTESIANPOINT((34.720272235915218,1.5875000000032742,77.575464313723216));
#608=IFCCARTESIANPOINT((36.595272235916127,1.5874999999996362,81.566445856335292));
#609=IFCCARTESIANPOINT((34.999695488979341,1.5874999999996362,84.962668441319522));
#610=IFCCARTESIANPOINT((33.404118742042556,1.5874999999996362,88.358891026303809));
#611=IFCCARTESIANPOINT((31.249695488980251,1.5875000000032742,92.944631526543617));
#612=IFCCARTESIANPOINT((29.095272235916127,1.5874999999996362,97.53037202678388));
#613=IFCCARTESIANPOINT((25.345272235916127,1.5874999999996362,97.530372026783482));
#614=IFCCARTESIANPOINT((21.595272235917037,1.5874999999996362,97.530372026783482));
#615=IFCCARTESIANPOINT((17.845272235917037,1.5874999999996362,97.530372026783482));
#616=IFCCARTESIANPOINT((14.095272235915218,1.5874999999996362,97.530372026783994));
#617=IFCCARTESIANPOINT((12.220272235916127,1.5874999999996362,93.539390484171463));
#618=IFCCARTESIANPOINT((10.345272235916127,1.5874999999996362,89.548408941559501));
#619=IFCCARTESIANPOINT((8.1908489828529127,1.5874999999996362,84.962668441319693));
#620=IFCCARTESIANPOINT((6.5952722359161271,1.5874999999996362,81.566445856335292));
#621=IFCCARTESIANPOINT((8.4702722359161271,1.5874999999996362,77.57546431372333));
#622=IFCCARTESIANPOINT((10.345272235915218,1.5874999999996362,73.584482771111283));
#623=IFCCARTESIANPOINT((12.220272235915218,1.5874999999996362,69.593501228499207));
#624=IFCCARTESIANPOINT((14.095272235915218,1.5874999999996362,65.602519685886676));
#625=IFCCARTESIANPOINT((17.845272235916127,1.5874999999996362,65.602519685887188));
#626=IFCCARTESIANPOINT((21.595272235915218,1.5874999999978172,65.602519685887131));
#627=IFCCARTESIANPOINT((25.345272235915218,1.5874999999996362,65.602519685887131));
#628=IFCFACE((#629));
#629=IFCFACEOUTERBOUND(#630,.T.);
#630=IFCPOLYLOOP((#631,#632,#633,#634,#635,#636,#637,#638,#639,#640,#641,#642,#643,#644,#645,#646,#647,#648,#649,#650,#651,#652,#653,#654));
#631=IFCCARTESIANPOINT((11.94084898285837,2751.5875000000015,2034.4739744718368));
#632=IFCCARTESIANPOINT((9.7864257297987933,2751.5874999999996,2039.059714972072));
#633=IFCCARTESIANPOINT((8.1908489828592792,2751.5875000000015,2042.4559375570611));
#634=IFCCARTESIANPOINT((6.5952722359206746,2751.5874999999996,2045.8521601420498));
#635=IFCCARTESIANPOINT((8.4702722359197651,2751.5875000000015,2049.8431416846624));
#636=IFCCARTESIANPOINT((10.345272235919765,2751.5875000000015,2053.8341232272746));
#637=IFCCARTESIANPOINT((12.220272235918856,2751.5875000000015,2057.8251047698864));
#638=IFCCARTESIANPOINT((14.095272235919765,2751.5874999999996,2061.8160863124986));
#639=IFCCARTESIANPOINT((17.845272235919765,2751.5875000000015,2061.8160863124981));
#640=IFCCARTESIANPOINT((21.595272235920675,2751.5875000000015,2061.8160863124986));
#641=IFCCARTESIANPOINT((25.345272235920675,2751.5875000000015,2061.8160863124986));
#642=IFCCARTESIANPOINT((29.095272235920675,2751.5874999999996,2061.8160863124986));
#643=IFCCARTESIANPOINT((30.970272235921584,2751.5875000000015,2057.8251047698864));
#644=IFCCARTESIANPOINT((32.845272235920675,2751.5875000000015,2053.8341232272746));
#645=IFCCARTESIANPOINT((34.720272235920675,2751.5875000000015,2049.8431416846624));
#646=IFCCARTESIANPOINT((36.595272235919765,2751.5874999999996,2045.8521601420498));
#647=IFCCARTESIANPOINT((34.999695488982979,2751.5875000000015,2042.4559375570648));
#648=IFCCARTESIANPOINT((32.845272235920675,2751.5875000000015,2037.8701970568263));
#649=IFCCARTESIANPOINT((30.970272235920675,2751.5875000000015,2033.8792155142141));
#650=IFCCARTESIANPOINT((29.095272235920675,2751.5874999999996,2029.8882339716015));
#651=IFCCARTESIANPOINT((25.345272235920675,2751.5874999999996,2029.8882339716019));
#652=IFCCARTESIANPOINT((21.595272235920675,2751.5874999999996,2029.8882339716019));
#653=IFCCARTESIANPOINT((17.845272235919765,2751.5874999999996,2029.8882339716019));
#654=IFCCARTESIANPOINT((14.095272235919765,2751.5874999999996,2029.8882339716015));
#655=IFCFACE((#656));
#656=IFCFACEOUTERBOUND(#657,.T.);
#657=IFCPOLYLOOP((#622,#621,#620,#634,#633,#632,#631,#654,#624,#623));
#658=IFCFACE((#659));
#659=IFCFACEOUTERBOUND(#660,.T.);
#660=IFCPOLYLOOP((#651,#650,#604,#627,#626,#625,#624,#654,#653,#652));
#661=IFCFACE((#662));
#662=IFCFACEOUTERBOUND(#663,.T.);
#663=IFCPOLYLOOP((#647,#646,#608,#607,#606,#605,#604,#650,#649,#648));
#664=IFCFACE((#665));
#665=IFCFACEOUTERBOUND(#666,.T.);
#666=IFCPOLYLOOP((#610,#609,#608,#646,#645,#644,#643,#642,#612,#611));
#667=IFCFACE((#668));
#668=IFCFACEOUTERBOUND(#669,.T.);
#669=IFCPOLYLOOP((#618,#617,#616,#638,#637,#636,#635,#634,#620,#619));
#670=IFCFACE((#671));
#671=IFCFACEOUTERBOUND(#672,.T.);
#672=IFCPOLYLOOP((#614,#613,#612,#642,#641,#640,#639,#638,#616,#615));
#673=IFCFACETEDBREP(#674);
#674=IFCCLOSEDSHELL((#675,#702,#729,#732,#735,#738,#741,#744));
#675=IFCFACE((#676));
#676=IFCFACEOUTERBOUND(#677,.T.);
#677=IFCPOLYLOOP((#678,#679,#680,#681,#682,#683,#684,#685,#686,#687,#688,#689,#690,#691,#692,#693,#694,#695,#696,#697,#698,#699,#700,#701));
#678=IFCCARTESIANPOINT((34.095272235915218,1.5874999999996362,859.45800163800163));
#679=IFCCARTESIANPOINT((36.595272235916127,1.5874999999996362,864.77931036148425));
#680=IFCCARTESIANPOINT((39.095272235916127,1.5874999999996362,870.10061908496687));
#681=IFCCARTESIANPOINT((41.595272235916127,1.5874999999996362,875.42192780844971));
#682=IFCCARTESIANPOINT((39.141307068692186,1.5874999999996362,880.64525030903815));
#683=IFCCARTESIANPOINT((36.687341901468244,1.5874999999996362,885.86857280962681));
#684=IFCCARTESIANPOINT((34.141307068692186,1.5874999999996362,891.28786775600338));
#685=IFCCARTESIANPOINT((31.595272235916127,1.5874999999996362,896.70716270237995));
#686=IFCCARTESIANPOINT((26.595272235916127,1.5874999999996362,896.70716270238017));
#687=IFCCARTESIANPOINT((21.595272235916127,1.5874999999996362,896.70716270238017));
#688=IFCCARTESIANPOINT((16.595272235916127,1.5874999999996362,896.70716270238017));
#689=IFCCARTESIANPOINT((11.595272235916127,1.5874999999996362,896.70716270238017));
#690=IFCCARTESIANPOINT((9.0952722359152176,1.5874999999996362,891.38585397889779));
#691=IFCCARTESIANPOINT((6.5952722359161271,1.5874999999996362,886.06454525541517));
#692=IFCCARTESIANPOINT((4.0492374031400686,1.5874999999996362,880.64525030903837));
#693=IFCCARTESIANPOINT((1.5952722359161271,1.5874999999996362,875.42192780844994));
#694=IFCCARTESIANPOINT((4.0952722359161271,1.5874999999996362,870.10061908496732));
#695=IFCCARTESIANPOINT((6.5952722359161271,1.5874999999996362,864.7793103614847));
#696=IFCCARTESIANPOINT((9.0952722359152176,1.5874999999996362,859.45800163800186));
#697=IFCCARTESIANPOINT((11.595272235916127,1.5874999999996362,854.13669291451924));
#698=IFCCARTESIANPOINT((16.595272235916127,1.5874999999996362,854.13669291451924));
#699=IFCCARTESIANPOINT((21.595272235916127,1.5874999999996362,854.13669291451902));
#700=IFCCARTESIANPOINT((26.595272235916127,1.5874999999996362,854.13669291451902));
#701=IFCCARTESIANPOINT((31.595272235916127,1.5874999999996362,854.13669291451902));
#702=IFCFACE((#703));
#703=IFCFACEOUTERBOUND(#704,.T.);
#704=IFCPOLYLOOP((#705,#706,#707,#708,#709,#710,#711,#712,#713,#714,#715,#716,#717,#718,#719,#720,#721,#722,#723,#724,#725,#726,#727,#728));
#705=IFCCARTESIANPOINT((11.595272235920675,2751.5874999999996,2818.4224072002339));
#706=IFCCARTESIANPOINT((9.0492374031446161,2751.5875000000015,2823.8417021466103));
#707=IFCCARTESIANPOINT((6.5032025703694671,2751.5875000000015,2829.2609970929861));
#708=IFCCARTESIANPOINT((4.0492374031455256,2751.5874999999996,2834.4843195935759));
#709=IFCCARTESIANPOINT((1.5952722359206746,2751.5874999999996,2839.7076420941648));
#710=IFCCARTESIANPOINT((4.0952722359206746,2751.5874999999996,2845.0289508176484));
#711=IFCCARTESIANPOINT((6.5952722359206746,2751.5874999999996,2850.3502595411305));
#712=IFCCARTESIANPOINT((9.0952722359197651,2751.5874999999996,2855.6715682646127));
#713=IFCCARTESIANPOINT((11.595272235920675,2751.5874999999996,2860.9928769880948));
#714=IFCCARTESIANPOINT((16.595272235920675,2751.5874999999996,2860.9928769880953));
#715=IFCCARTESIANPOINT((21.595272235920675,2751.5874999999996,2860.9928769880953));
#716=IFCCARTESIANPOINT((26.595272235920675,2751.5874999999996,2860.9928769880948));
#717=IFCCARTESIANPOINT((31.595272235920675,2751.5874999999996,2860.9928769880948));
#718=IFCCARTESIANPOINT((34.095272235919765,2751.5874999999996,2855.6715682646122));
#719=IFCCARTESIANPOINT((36.595272235919765,2751.5874999999996,2850.3502595411292));
#720=IFCCARTESIANPOINT((39.095272235919765,2751.5874999999996,2845.028950817647));
#721=IFCCARTESIANPOINT((41.595272235919765,2751.5874999999996,2839.7076420941644));
#722=IFCCARTESIANPOINT((39.141307068695824,2751.5874999999996,2834.4843195935759));
#723=IFCCARTESIANPOINT((36.595272235919765,2751.5875000000015,2829.0650246471996));
#724=IFCCARTESIANPOINT((34.095272235920675,2751.5874999999996,2823.743715923717));
#725=IFCCARTESIANPOINT((31.595272235920675,2751.5874999999996,2818.4224072002339));
#726=IFCCARTESIANPOINT((26.595272235920675,2751.5875000000015,2818.4224072002344));
#727=IFCCARTESIANPOINT((21.595272235920675,2751.5875000000015,2818.4224072002344));
#728=IFCCARTESIANPOINT((16.595272235920675,2751.5875000000015,2818.4224072002344));
#729=IFCFACE((#730));
#730=IFCFACEOUTERBOUND(#731,.T.);
#731=IFCPOLYLOOP((#683,#682,#681,#721,#720,#719,#718,#717,#685,#684));
#732=IFCFACE((#733));
#733=IFCFACEOUTERBOUND(#734,.T.);
#734=IFCPOLYLOOP((#691,#690,#689,#713,#712,#711,#710,#709,#693,#692));
#735=IFCFACE((#736));
#736=IFCFACEOUTERBOUND(#737,.T.);
#737=IFCPOLYLOOP((#687,#686,#685,#717,#716,#715,#714,#713,#689,#688));
#738=IFCFACE((#739));
#739=IFCFACEOUTERBOUND(#740,.T.);
#740=IFCPOLYLOOP((#695,#694,#693,#709,#708,#707,#706,#705,#697,#696));
#741=IFCFACE((#742));
#742=IFCFACEOUTERBOUND(#743,.T.);
#743=IFCPOLYLOOP((#726,#725,#701,#700,#699,#698,#697,#705,#728,#727));
#744=IFCFACE((#745));
#745=IFCFACEOUTERBOUND(#746,.T.);
#746=IFCPOLYLOOP((#722,#721,#681,#680,#679,#678,#701,#725,#724,#723));
#747=IFCRAILING('2znubWhPDD4wn7Fg4E22MU',#1337,'\X2\B09CAC04\X0\:900mm \X2\BC30AD00\X0\:145815',$,$,#1412,#751,'145815',.NOTDEFINED.);
#751=IFCPRODUCTDEFINITIONSHAPE($,$,(#752));
#752=IFCSHAPEREPRESENTATION(#33,'Body','Brep',(#753,#793,#833,#873,#913,#987,#1061,#1135,#1209));
#753=IFCFACETEDBREP(#754);
#754=IFCCLOSEDSHELL((#755,#761,#765,#770,#773,#777,#781,#784,#787,#790));
#755=IFCFACE((#756));
#756=IFCFACEOUTERBOUND(#757,.T.);
#757=IFCPOLYLOOP((#758,#759,#760));
#758=IFCCARTESIANPOINT((9.0952722359193103,2001.5875000000015,2279.4152841883274));
#759=IFCCARTESIANPOINT((18.813760561465187,2013.7740989022732,2288.1199976899511));
#760=IFCCARTESIANPOINT((9.0952722359193103,2001.5875000000015,1428.5714285714284));
#761=IFCFACE((#762));
#762=IFCFACEOUTERBOUND(#763,.T.);
#763=IFCPOLYLOOP((#764,#760,#759));
#764=IFCCARTESIANPOINT((21.59527223591931,2014.0875000000015,1428.5714285714284));
#765=IFCFACE((#766));
#766=IFCFACEOUTERBOUND(#767,.T.);
#767=IFCPOLYLOOP((#768,#769,#764));
#768=IFCCARTESIANPOINT((34.09527223591931,2001.5875000000015,2279.4152841883279));
#769=IFCCARTESIANPOINT((34.09527223591931,2001.5875000000015,1428.5714285714284));
#770=IFCFACE((#771));
#771=IFCFACEOUTERBOUND(#772,.T.);
#772=IFCPOLYLOOP((#759,#768,#764));
#773=IFCFACE((#774));
#774=IFCFACEOUTERBOUND(#775,.T.);
#775=IFCPOLYLOOP((#776,#769,#768));
#776=IFCCARTESIANPOINT((24.376783910373433,1989.4009010977279,2270.7105706867042));
#777=IFCFACE((#778));
#778=IFCFACEOUTERBOUND(#779,.T.);
#779=IFCPOLYLOOP((#780,#769,#776));
#780=IFCCARTESIANPOINT((21.59527223591931,1989.0874999999996,1428.5714285714284));
#781=IFCFACE((#782));
#782=IFCFACEOUTERBOUND(#783,.T.);
#783=IFCPOLYLOOP((#758,#760,#780));
#784=IFCFACE((#785));
#785=IFCFACEOUTERBOUND(#786,.T.);
#786=IFCPOLYLOOP((#776,#758,#780));
#787=IFCFACE((#788));
#788=IFCFACEOUTERBOUND(#789,.T.);
#789=IFCPOLYLOOP((#776,#768,#759,#758));
#790=IFCFACE((#791));
#791=IFCFACEOUTERBOUND(#792,.T.);
#792=IFCPOLYLOOP((#769,#780,#760,#764));
#793=IFCFACETEDBREP(#794);
#794=IFCCLOSEDSHELL((#795,#801,#805,#810,#813,#817,#821,#824,#827,#830));
#795=IFCFACE((#796));
#796=IFCFACEOUTERBOUND(#797,.T.);
#797=IFCPOLYLOOP((#798,#799,#800));
#798=IFCCARTESIANPOINT((9.0952722359179461,1001.5874999999996,1565.129569902613));
#799=IFCCARTESIANPOINT((18.813760561463823,1013.7740989022732,1573.8342834042367));
#800=IFCCARTESIANPOINT((9.0952722359179461,1001.5874999999996,714.28571428571422));
#801=IFCFACE((#802));
#802=IFCFACEOUTERBOUND(#803,.T.);
#803=IFCPOLYLOOP((#804,#800,#799));
#804=IFCCARTESIANPOINT((21.595272235917491,1014.0874999999996,714.28571428571422));
#805=IFCFACE((#806));
#806=IFCFACEOUTERBOUND(#807,.T.);
#807=IFCPOLYLOOP((#808,#809,#804));
#808=IFCCARTESIANPOINT((34.095272235917491,1001.5874999999996,1565.1295699026132));
#809=IFCCARTESIANPOINT((34.095272235917491,1001.5874999999996,714.28571428571422));
#810=IFCFACE((#811));
#811=IFCFACEOUTERBOUND(#812,.T.);
#812=IFCPOLYLOOP((#799,#808,#804));
#813=IFCFACE((#814));
#814=IFCFACEOUTERBOUND(#815,.T.);
#815=IFCPOLYLOOP((#816,#809,#808));
#816=IFCCARTESIANPOINT((24.376783910371614,989.40090109772791,1556.4248564009899));
#817=IFCFACE((#818));
#818=IFCFACEOUTERBOUND(#819,.T.);
#819=IFCPOLYLOOP((#820,#809,#816));
#820=IFCCARTESIANPOINT((21.595272235917491,989.08750000000146,714.28571428571422));
#821=IFCFACE((#822));
#822=IFCFACEOUTERBOUND(#823,.T.);
#823=IFCPOLYLOOP((#798,#800,#820));
#824=IFCFACE((#825));
#825=IFCFACEOUTERBOUND(#826,.T.);
#826=IFCPOLYLOOP((#816,#798,#820));
#827=IFCFACE((#828));
#828=IFCFACEOUTERBOUND(#829,.T.);
#829=IFCPOLYLOOP((#816,#808,#799,#798));
#830=IFCFACE((#831));
#831=IFCFACEOUTERBOUND(#832,.T.);
#832=IFCPOLYLOOP((#809,#820,#800,#804));
#833=IFCFACETEDBREP(#834);
#834=IFCCLOSEDSHELL((#835,#841,#845,#850,#853,#857,#861,#864,#867,#870));
#835=IFCFACE((#836));
#836=IFCFACEOUTERBOUND(#837,.T.);
#837=IFCPOLYLOOP((#838,#839,#840));
#838=IFCCARTESIANPOINT((9.0952722359206746,2739.0874999999996,2806.2009984740416));
#839=IFCCARTESIANPOINT((18.813760561466552,2751.2740989022732,2814.9057119756653));
#840=IFCCARTESIANPOINT((9.0952722359206746,2739.0874999999996,1785.7142857142858));
#841=IFCFACE((#842));
#842=IFCFACEOUTERBOUND(#843,.T.);
#843=IFCPOLYLOOP((#844,#840,#839));
#844=IFCCARTESIANPOINT((21.59527223592022,2751.5874999999996,1785.7142857142858));
#845=IFCFACE((#846));
#846=IFCFACEOUTERBOUND(#847,.T.);
#847=IFCPOLYLOOP((#848,#849,#844));
#848=IFCCARTESIANPOINT((34.09527223592022,2739.0874999999996,2806.2009984740416));
#849=IFCCARTESIANPOINT((34.09527223592022,2739.0874999999996,1785.7142857142858));
#850=IFCFACE((#851));
#851=IFCFACEOUTERBOUND(#852,.T.);
#852=IFCPOLYLOOP((#839,#848,#844));
#853=IFCFACE((#854));
#854=IFCFACEOUTERBOUND(#855,.T.);
#855=IFCPOLYLOOP((#856,#849,#848));
#856=IFCCARTESIANPOINT((24.376783910374343,2726.9009010977261,2797.4962849724184));
#857=IFCFACE((#858));
#858=IFCFACEOUTERBOUND(#859,.T.);
#859=IFCPOLYLOOP((#860,#849,#856));
#860=IFCCARTESIANPOINT((21.59527223592022,2726.5874999999996,1785.7142857142858));
#861=IFCFACE((#862));
#862=IFCFACEOUTERBOUND(#863,.T.);
#863=IFCPOLYLOOP((#838,#840,#860));
#864=IFCFACE((#865));
#865=IFCFACEOUTERBOUND(#866,.T.);
#866=IFCPOLYLOOP((#856,#838,#860));
#867=IFCFACE((#868));
#868=IFCFACEOUTERBOUND(#869,.T.);
#869=IFCPOLYLOOP((#856,#848,#839,#838));
#870=IFCFACE((#871));
#871=IFCFACEOUTERBOUND(#872,.T.);
#872=IFCPOLYLOOP((#849,#860,#840,#844));
#873=IFCFACETEDBREP(#874);
#874=IFCCLOSEDSHELL((#875,#881,#885,#890,#893,#897,#901,#904,#907,#910));
#875=IFCFACE((#876));
#876=IFCFACEOUTERBOUND(#877,.T.);
#877=IFCPOLYLOOP((#878,#879,#880));
#878=IFCCARTESIANPOINT((9.0952722359161271,14.087499999999636,859.63101633187034));
#879=IFCCARTESIANPOINT((18.813760561462004,26.274098902271362,868.49399735170505));
#880=IFCCARTESIANPOINT((9.0952722359161271,14.087499999999636,0.));
#881=IFCFACE((#882));
#882=IFCFACEOUTERBOUND(#883,.T.);
#883=IFCPOLYLOOP((#884,#880,#879));
#884=IFCCARTESIANPOINT((21.595272235916127,26.587499999999636,-0.));
#885=IFCFACE((#886));
#886=IFCFACEOUTERBOUND(#887,.T.);
#887=IFCPOLYLOOP((#888,#889,#884));
#888=IFCCARTESIANPOINT((34.095272235916127,14.087499999999636,859.63101633187034));
#889=IFCCARTESIANPOINT((34.095272235916127,14.087499999999636,-0.));
#890=IFCFACE((#891));
#891=IFCFACEOUTERBOUND(#892,.T.);
#892=IFCPOLYLOOP((#879,#888,#884));
#893=IFCFACE((#894));
#894=IFCFACEOUTERBOUND(#895,.T.);
#895=IFCPOLYLOOP((#896,#889,#888));
#896=IFCCARTESIANPOINT((24.37678391037025,1.9009010977279104,850.76803531203564));
#897=IFCFACE((#898));
#898=IFCFACEOUTERBOUND(#899,.T.);
#899=IFCPOLYLOOP((#900,#889,#896));
#900=IFCCARTESIANPOINT((21.595272235916127,1.5874999999996362,-0.));
#901=IFCFACE((#902));
#902=IFCFACEOUTERBOUND(#903,.T.);
#903=IFCPOLYLOOP((#878,#880,#900));
#904=IFCFACE((#905));
#905=IFCFACEOUTERBOUND(#906,.T.);
#906=IFCPOLYLOOP((#896,#878,#900));
#907=IFCFACE((#908));
#908=IFCFACEOUTERBOUND(#909,.T.);
#909=IFCPOLYLOOP((#896,#888,#879,#878));
#910=IFCFACE((#911));
#911=IFCFACEOUTERBOUND(#912,.T.);
#912=IFCPOLYLOOP((#889,#900,#880,#884));
#913=IFCFACETEDBREP(#914);
#914=IFCCLOSEDSHELL((#915,#942,#969,#972,#975,#978,#981,#984));
#915=IFCFACE((#916));
#916=IFCFACEOUTERBOUND(#917,.T.);
#917=IFCPOLYLOOP((#918,#919,#920,#921,#922,#923,#924,#925,#926,#927,#928,#929,#930,#931,#932,#933,#934,#935,#936,#937,#938,#939,#940,#941));
#918=IFCCARTESIANPOINT((30.970272235915672,1.5874999999996362,669.59350122849946));
#919=IFCCARTESIANPOINT((32.845272235915672,1.5874999999996362,673.58448277111142));
#920=IFCCARTESIANPOINT((34.720272235915672,1.5874999999996362,677.57546431372361));
#921=IFCCARTESIANPOINT((36.595272235915672,1.5874999999996362,681.5664458563358));
#922=IFCCARTESIANPOINT((34.999695488978887,1.5874999999996362,684.96266844131992));
#923=IFCCARTESIANPOINT((33.404118742042101,1.5874999999996362,688.35889102630426));
#924=IFCCARTESIANPOINT((31.249695488978887,1.5874999999996362,692.9446315265443));
#925=IFCCARTESIANPOINT((29.095272235916127,1.5874999999996362,697.53037202678433));
#926=IFCCARTESIANPOINT((25.345272235915672,1.5874999999996362,697.53037202678411));
#927=IFCCARTESIANPOINT((21.595272235916127,1.5874999999996362,697.53037202678411));
#928=IFCCARTESIANPOINT((17.845272235916127,1.5874999999996362,697.53037202678411));
#929=IFCCARTESIANPOINT((14.095272235916127,1.5874999999996362,697.53037202678456));
#930=IFCCARTESIANPOINT((12.220272235916582,1.5874999999996362,693.53939048417215));
#931=IFCCARTESIANPOINT((10.345272235916582,1.5874999999978172,689.54840894156018));
#932=IFCCARTESIANPOINT((8.1908489828529127,1.5874999999996362,684.96266844132037));
#933=IFCCARTESIANPOINT((6.5952722359161271,1.5874999999996362,681.56644585633603));
#934=IFCCARTESIANPOINT((8.4702722359161271,1.5874999999996362,677.5754643137243));
#935=IFCCARTESIANPOINT((10.345272235915672,1.5874999999996362,673.58448277111233));
#936=IFCCARTESIANPOINT((12.220272235915672,1.5874999999996362,669.59350122850037));
#937=IFCCARTESIANPOINT((14.095272235916127,1.5874999999996362,665.60251968588864));
#938=IFCCARTESIANPOINT((17.845272235915672,1.5874999999996362,665.60251968588796));
#939=IFCCARTESIANPOINT((21.595272235915672,1.5874999999996362,665.60251968588796));
#940=IFCCARTESIANPOINT((25.345272235915218,1.5874999999996362,665.6025196858875));
#941=IFCCARTESIANPOINT((29.095272235916127,1.5874999999996362,665.60251968588705));
#942=IFCFACE((#943));
#943=IFCFACEOUTERBOUND(#944,.T.);
#944=IFCPOLYLOOP((#945,#946,#947,#948,#949,#950,#951,#952,#953,#954,#955,#956,#957,#958,#959,#960,#961,#962,#963,#964,#965,#966,#967,#968));
#945=IFCCARTESIANPOINT((14.095272235920675,2751.5874999999996,2629.8882339716042));
#946=IFCCARTESIANPOINT((11.94084898285746,2751.5875000000015,2634.4739744718422));
#947=IFCCARTESIANPOINT((9.7864257297947006,2751.5875000000015,2639.0597149720811));
#948=IFCCARTESIANPOINT((8.190848982857915,2751.5874999999996,2642.4559375570666));
#949=IFCCARTESIANPOINT((6.5952722359206746,2751.5874999999996,2645.8521601420507));
#950=IFCCARTESIANPOINT((8.4702722359206746,2751.5874999999996,2649.8431416846634));
#951=IFCCARTESIANPOINT((10.34527223592022,2751.5875000000015,2653.8341232272755));
#952=IFCCARTESIANPOINT((12.22027223592022,2751.5875000000015,2657.8251047698873));
#953=IFCCARTESIANPOINT((14.095272235920675,2751.5874999999996,2661.8160863124995));
#954=IFCCARTESIANPOINT((17.845272235920675,2751.5875000000015,2661.8160863124995));
#955=IFCCARTESIANPOINT((21.59527223592022,2751.5875000000015,2661.8160863124986));
#956=IFCCARTESIANPOINT((25.345272235920675,2751.5875000000015,2661.8160863124986));
#957=IFCCARTESIANPOINT((29.09527223592022,2751.5874999999996,2661.8160863124995));
#958=IFCCARTESIANPOINT((30.970272235919765,2751.5874999999996,2657.8251047698868));
#959=IFCCARTESIANPOINT((32.845272235920675,2751.5875000000015,2653.8341232272746));
#960=IFCCARTESIANPOINT((34.72027223592022,2751.5874999999996,2649.8431416846624));
#961=IFCCARTESIANPOINT((36.59527223592022,2751.5874999999996,2645.8521601420503));
#962=IFCCARTESIANPOINT((34.999695488983434,2751.5874999999996,2642.4559375570661));
#963=IFCCARTESIANPOINT((32.845272235919765,2751.5874999999996,2637.8701970568259));
#964=IFCCARTESIANPOINT((30.970272235919765,2751.5874999999996,2633.8792155142146));
#965=IFCCARTESIANPOINT((29.09527223592022,2751.5874999999996,2629.8882339716019));
#966=IFCCARTESIANPOINT((25.34527223591931,2751.5875000000015,2629.8882339716029));
#967=IFCCARTESIANPOINT((21.595272235919765,2751.5875000000015,2629.8882339716029));
#968=IFCCARTESIANPOINT((17.845272235919765,2751.5875000000015,2629.8882339716029));
#969=IFCFACE((#970));
#970=IFCFACEOUTERBOUND(#971,.T.);
#971=IFCPOLYLOOP((#923,#922,#921,#961,#960,#959,#958,#957,#925,#924));
#972=IFCFACE((#973));
#973=IFCFACEOUTERBOUND(#974,.T.);
#974=IFCPOLYLOOP((#931,#930,#929,#953,#952,#951,#950,#949,#933,#932));
#975=IFCFACE((#976));
#976=IFCFACEOUTERBOUND(#977,.T.);
#977=IFCPOLYLOOP((#927,#926,#925,#957,#956,#955,#954,#953,#929,#928));
#978=IFCFACE((#979));
#979=IFCFACEOUTERBOUND(#980,.T.);
#980=IFCPOLYLOOP((#935,#934,#933,#949,#948,#947,#946,#945,#937,#936));
#981=IFCFACE((#982));
#982=IFCFACEOUTERBOUND(#983,.T.);
#983=IFCPOLYLOOP((#966,#965,#941,#940,#939,#938,#937,#945,#968,#967));
#984=IFCFACE((#985));
#985=IFCFACEOUTERBOUND(#986,.T.);
#986=IFCPOLYLOOP((#962,#961,#921,#920,#919,#918,#941,#965,#964,#963));
#987=IFCFACETEDBREP(#988);
#988=IFCCLOSEDSHELL((#989,#1016,#1043,#1046,#1049,#1052,#1055,#1058));
#989=IFCFACE((#990));
#990=IFCFACEOUTERBOUND(#991,.T.);
#991=IFCPOLYLOOP((#992,#993,#994,#995,#996,#997,#998,#999,#1000,#1001,#1002,#1003,#1004,#1005,#1006,#1007,#1008,#1009,#1010,#1011,#1012,#1013,#1014,#1015));
#992=IFCCARTESIANPOINT((30.970272235915672,1.5874999999996362,469.59350122849929));
#993=IFCCARTESIANPOINT((32.845272235915672,1.5874999999996362,473.58448277111148));
#994=IFCCARTESIANPOINT((34.720272235915672,1.5874999999996362,477.57546431372356));
#995=IFCCARTESIANPOINT((36.595272235915672,1.5874999999996362,481.56644585633575));
#996=IFCCARTESIANPOINT((34.999695488978887,1.5874999999996362,484.96266844131998));
#997=IFCCARTESIANPOINT((33.404118742042101,1.5874999999996362,488.35889102630432));
#998=IFCCARTESIANPOINT((31.249695488978887,1.5874999999996362,492.94463152654413));
#999=IFCCARTESIANPOINT((29.095272235916127,1.5874999999996362,497.53037202678428));
#1000=IFCCARTESIANPOINT((25.345272235915672,1.5874999999996362,497.53037202678405));
#1001=IFCCARTESIANPOINT((21.595272235916127,1.5874999999996362,497.53037202678405));
#1002=IFCCARTESIANPOINT((17.845272235916127,1.5874999999996362,497.53037202678416));
#1003=IFCCARTESIANPOINT((14.095272235916127,1.5874999999996362,497.53037202678451));
#1004=IFCCARTESIANPOINT((12.220272235916582,1.5874999999996362,493.5393904841722));
#1005=IFCCARTESIANPOINT((10.345272235916582,1.5874999999978172,489.54840894156013));
#1006=IFCCARTESIANPOINT((8.1908489828529127,1.5874999999996362,484.9626684413202));
#1007=IFCCARTESIANPOINT((6.5952722359161271,1.5874999999996362,481.56644585633597));
#1008=IFCCARTESIANPOINT((8.4702722359161271,1.5874999999996362,477.57546431372424));
#1009=IFCCARTESIANPOINT((10.345272235915672,1.5874999999996362,473.58448277111228));
#1010=IFCCARTESIANPOINT((12.220272235915672,1.5874999999996362,469.59350122850032));
#1011=IFCCARTESIANPOINT((14.095272235916127,1.5874999999996362,465.60251968588869));
#1012=IFCCARTESIANPOINT((17.845272235915672,1.5874999999996362,465.60251968588824));
#1013=IFCCARTESIANPOINT((21.595272235915672,1.5874999999996362,465.6025196858879));
#1014=IFCCARTESIANPOINT((25.345272235915218,1.5874999999996362,465.60251968588767));
#1015=IFCCARTESIANPOINT((29.095272235916127,1.5874999999996362,465.6025196858871));
#1016=IFCFACE((#1017));
#1017=IFCFACEOUTERBOUND(#1018,.T.);
#1018=IFCPOLYLOOP((#1019,#1020,#1021,#1022,#1023,#1024,#1025,#1026,#1027,#1028,#1029,#1030,#1031,#1032,#1033,#1034,#1035,#1036,#1037,#1038,#1039,#1040,#1041,#1042));
#1019=IFCCARTESIANPOINT((14.095272235920675,2751.5874999999996,2429.8882339716042));
#1020=IFCCARTESIANPOINT((11.94084898285746,2751.5875000000015,2434.4739744718422));
#1021=IFCCARTESIANPOINT((9.7864257297947006,2751.5875000000015,2439.0597149720811));
#1022=IFCCARTESIANPOINT((8.190848982857915,2751.5874999999996,2442.4559375570666));
#1023=IFCCARTESIANPOINT((6.5952722359206746,2751.5874999999996,2445.8521601420507));
#1024=IFCCARTESIANPOINT((8.4702722359206746,2751.5874999999996,2449.8431416846634));
#1025=IFCCARTESIANPOINT((10.34527223592022,2751.5875000000015,2453.8341232272755));
#1026=IFCCARTESIANPOINT((12.22027223592022,2751.5875000000015,2457.8251047698873));
#1027=IFCCARTESIANPOINT((14.095272235920675,2751.5874999999996,2461.816086312499));
#1028=IFCCARTESIANPOINT((17.845272235920675,2751.5875000000015,2461.816086312499));
#1029=IFCCARTESIANPOINT((21.59527223592022,2751.5875000000015,2461.8160863124986));
#1030=IFCCARTESIANPOINT((25.345272235920675,2751.5875000000015,2461.8160863124986));
#1031=IFCCARTESIANPOINT((29.09527223592022,2751.5874999999996,2461.816086312499));
#1032=IFCCARTESIANPOINT((30.970272235919765,2751.5874999999996,2457.8251047698864));
#1033=IFCCARTESIANPOINT((32.845272235920675,2751.5875000000015,2453.8341232272746));
#1034=IFCCARTESIANPOINT((34.72027223592022,2751.5874999999996,2449.8431416846624));
#1035=IFCCARTESIANPOINT((36.59527223592022,2751.5874999999996,2445.8521601420503));
#1036=IFCCARTESIANPOINT((34.999695488983434,2751.5874999999996,2442.4559375570661));
#1037=IFCCARTESIANPOINT((32.845272235919765,2751.5874999999996,2437.8701970568259));
#1038=IFCCARTESIANPOINT((30.970272235919765,2751.5874999999996,2433.8792155142146));
#1039=IFCCARTESIANPOINT((29.09527223592022,2751.5874999999996,2429.8882339716019));
#1040=IFCCARTESIANPOINT((25.34527223591931,2751.5875000000015,2429.8882339716024));
#1041=IFCCARTESIANPOINT((21.595272235919765,2751.5875000000015,2429.8882339716029));
#1042=IFCCARTESIANPOINT((17.845272235919765,2751.5875000000015,2429.8882339716029));
#1043=IFCFACE((#1044));
#1044=IFCFACEOUTERBOUND(#1045,.T.);
#1045=IFCPOLYLOOP((#997,#996,#995,#1035,#1034,#1033,#1032,#1031,#999,#998));
#1046=IFCFACE((#1047));
#1047=IFCFACEOUTERBOUND(#1048,.T.);
#1048=IFCPOLYLOOP((#1005,#1004,#1003,#1027,#1026,#1025,#1024,#1023,#1007,#1006));
#1049=IFCFACE((#1050));
#1050=IFCFACEOUTERBOUND(#1051,.T.);
#1051=IFCPOLYLOOP((#1001,#1000,#999,#1031,#1030,#1029,#1028,#1027,#1003,#1002));
#1052=IFCFACE((#1053));
#1053=IFCFACEOUTERBOUND(#1054,.T.);
#1054=IFCPOLYLOOP((#1009,#1008,#1007,#1023,#1022,#1021,#1020,#1019,#1011,#1010));
#1055=IFCFACE((#1056));
#1056=IFCFACEOUTERBOUND(#1057,.T.);
#1057=IFCPOLYLOOP((#1040,#1039,#1015,#1014,#1013,#1012,#1011,#1019,#1042,#1041));
#1058=IFCFACE((#1059));
#1059=IFCFACEOUTERBOUND(#1060,.T.);
#1060=IFCPOLYLOOP((#1036,#1035,#995,#994,#993,#992,#1015,#1039,#1038,#1037));
#1061=IFCFACETEDBREP(#1062);
#1062=IFCCLOSEDSHELL((#1063,#1090,#1117,#1120,#1123,#1126,#1129,#1132));
#1063=IFCFACE((#1064));
#1064=IFCFACEOUTERBOUND(#1065,.T.);
#1065=IFCPOLYLOOP((#1066,#1067,#1068,#1069,#1070,#1071,#1072,#1073,#1074,#1075,#1076,#1077,#1078,#1079,#1080,#1081,#1082,#1083,#1084,#1085,#1086,#1087,#1088,#1089));
#1066=IFCCARTESIANPOINT((30.970272235915672,1.5874999999996362,269.59350122850054));
#1067=IFCCARTESIANPOINT((32.845272235915672,1.5874999999996362,273.58448277111256));
#1068=IFCCARTESIANPOINT((34.720272235915672,1.5874999999996362,277.57546431372464));
#1069=IFCCARTESIANPOINT((36.595272235915672,1.5874999999996362,281.56644585633677));
#1070=IFCCARTESIANPOINT((34.999695488978887,1.5874999999996362,284.96266844132106));
#1071=IFCCARTESIANPOINT((33.404118742042101,1.5874999999996362,288.3588910263054));
#1072=IFCCARTESIANPOINT((31.249695488979341,1.5874999999996362,292.94463152654532));
#1073=IFCCARTESIANPOINT((29.095272235916127,1.5874999999996362,297.53037202678541));
#1074=IFCCARTESIANPOINT((25.345272235915672,1.5874999999996362,297.53037202678513));
#1075=IFCCARTESIANPOINT((21.595272235916127,1.5874999999996362,297.53037202678519));
#1076=IFCCARTESIANPOINT((17.845272235916127,1.5874999999996362,297.53037202678524));
#1077=IFCCARTESIANPOINT((14.095272235916127,1.5874999999996362,297.53037202678553));
#1078=IFCCARTESIANPOINT((12.220272235916582,1.5874999999996362,293.53939048417317));
#1079=IFCCARTESIANPOINT((10.345272235916582,1.5874999999996362,289.54840894156115));
#1080=IFCCARTESIANPOINT((8.1908489828529127,1.5874999999996362,284.96266844132123));
#1081=IFCCARTESIANPOINT((6.5952722359161271,1.5874999999996362,281.566445856337));
#1082=IFCCARTESIANPOINT((8.4702722359156724,1.5874999999996362,277.57546431372515));
#1083=IFCCARTESIANPOINT((10.345272235915672,1.5874999999996362,273.5844827711133));
#1084=IFCCARTESIANPOINT((12.220272235915672,1.5875000000032742,269.59350122850134));
#1085=IFCCARTESIANPOINT((14.095272235916127,1.5874999999996362,265.60251968588989));
#1086=IFCCARTESIANPOINT((17.845272235915672,1.5874999999996362,265.60251968588926));
#1087=IFCCARTESIANPOINT((21.595272235915672,1.5874999999996362,265.60251968588898));
#1088=IFCCARTESIANPOINT((25.345272235915672,1.5874999999996362,265.60251968588869));
#1089=IFCCARTESIANPOINT((29.095272235916127,1.5874999999996362,265.60251968588818));
#1090=IFCFACE((#1091));
#1091=IFCFACEOUTERBOUND(#1092,.T.);
#1092=IFCPOLYLOOP((#1093,#1094,#1095,#1096,#1097,#1098,#1099,#1100,#1101,#1102,#1103,#1104,#1105,#1106,#1107,#1108,#1109,#1110,#1111,#1112,#1113,#1114,#1115,#1116));
#1093=IFCCARTESIANPOINT((14.095272235920675,2751.5874999999996,2229.8882339716047));
#1094=IFCCARTESIANPOINT((11.940848982857005,2751.5875000000015,2234.4739744718436));
#1095=IFCCARTESIANPOINT((9.7864257297947006,2751.5875000000015,2239.0597149720825));
#1096=IFCCARTESIANPOINT((8.190848982857915,2751.5874999999996,2242.4559375570675));
#1097=IFCCARTESIANPOINT((6.5952722359206746,2751.5874999999996,2245.8521601420516));
#1098=IFCCARTESIANPOINT((8.4702722359206746,2751.5874999999996,2249.8431416846652));
#1099=IFCCARTESIANPOINT((10.34527223592022,2751.5874999999996,2253.8341232272765));
#1100=IFCCARTESIANPOINT((12.22027223592022,2751.5875000000015,2257.8251047698886));
#1101=IFCCARTESIANPOINT((14.095272235920675,2751.5874999999996,2261.8160863125004));
#1102=IFCCARTESIANPOINT((17.845272235920675,2751.5875000000015,2261.8160863124999));
#1103=IFCCARTESIANPOINT((21.59527223592022,2751.5875000000015,2261.8160863124999));
#1104=IFCCARTESIANPOINT((25.345272235920675,2751.5875000000015,2261.8160863124999));
#1105=IFCCARTESIANPOINT((29.09527223592022,2751.5874999999996,2261.8160863125004));
#1106=IFCCARTESIANPOINT((30.97027223592022,2751.5875000000015,2257.8251047698877));
#1107=IFCCARTESIANPOINT((32.845272235920675,2751.5875000000015,2253.834123227276));
#1108=IFCCARTESIANPOINT((34.72027223592022,2751.5875000000015,2249.8431416846638));
#1109=IFCCARTESIANPOINT((36.59527223592022,2751.5874999999996,2245.8521601420512));
#1110=IFCCARTESIANPOINT((34.999695488983434,2751.5874999999996,2242.455937557067));
#1111=IFCCARTESIANPOINT((32.845272235919765,2751.5874999999996,2237.8701970568272));
#1112=IFCCARTESIANPOINT((30.970272235919765,2751.5874999999996,2233.8792155142155));
#1113=IFCCARTESIANPOINT((29.09527223592022,2751.5874999999996,2229.8882339716029));
#1114=IFCCARTESIANPOINT((25.34527223592022,2751.5874999999996,2229.8882339716033));
#1115=IFCCARTESIANPOINT((21.595272235919765,2751.5875000000015,2229.8882339716042));
#1116=IFCCARTESIANPOINT((17.845272235919765,2751.5875000000015,2229.8882339716047));
#1117=IFCFACE((#1118));
#1118=IFCFACEOUTERBOUND(#1119,.T.);
#1119=IFCPOLYLOOP((#1071,#1070,#1069,#1109,#1108,#1107,#1106,#1105,#1073,#1072));
#1120=IFCFACE((#1121));
#1121=IFCFACEOUTERBOUND(#1122,.T.);
#1122=IFCPOLYLOOP((#1079,#1078,#1077,#1101,#1100,#1099,#1098,#1097,#1081,#1080));
#1123=IFCFACE((#1124));
#1124=IFCFACEOUTERBOUND(#1125,.T.);
#1125=IFCPOLYLOOP((#1075,#1074,#1073,#1105,#1104,#1103,#1102,#1101,#1077,#1076));
#1126=IFCFACE((#1127));
#1127=IFCFACEOUTERBOUND(#1128,.T.);
#1128=IFCPOLYLOOP((#1083,#1082,#1081,#1097,#1096,#1095,#1094,#1093,#1085,#1084));
#1129=IFCFACE((#1130));
#1130=IFCFACEOUTERBOUND(#1131,.T.);
#1131=IFCPOLYLOOP((#1114,#1113,#1089,#1088,#1087,#1086,#1085,#1093,#1116,#1115));
#1132=IFCFACE((#1133));
#1133=IFCFACEOUTERBOUND(#1134,.T.);
#1134=IFCPOLYLOOP((#1110,#1109,#1069,#1068,#1067,#1066,#1089,#1113,#1112,#1111));
#1135=IFCFACETEDBREP(#1136);
#1136=IFCCLOSEDSHELL((#1137,#1164,#1191,#1194,#1197,#1200,#1203,#1206));
#1137=IFCFACE((#1138));
#1138=IFCFACEOUTERBOUND(#1139,.T.);
#1139=IFCPOLYLOOP((#1140,#1141,#1142,#1143,#1144,#1145,#1146,#1147,#1148,#1149,#1150,#1151,#1152,#1153,#1154,#1155,#1156,#1157,#1158,#1159,#1160,#1161,#1162,#1163));
#1140=IFCCARTESIANPOINT((30.970272235914308,1.5874999999996362,69.593501228498951));
#1141=IFCCARTESIANPOINT((32.845272235915218,1.5874999999996362,73.584482771110999));
#1142=IFCCARTESIANPOINT((34.720272235914763,1.5874999999996362,77.575464313723046));
#1143=IFCCARTESIANPOINT((36.595272235915218,1.5874999999996362,81.566445856335235));
#1144=IFCCARTESIANPOINT((34.999695488978432,1.5874999999996362,84.962668441319522));
#1145=IFCCARTESIANPOINT((33.404118742041646,1.5874999999996362,88.358891026303922));
#1146=IFCCARTESIANPOINT((31.249695488977522,1.5874999999996362,92.944631526543731));
#1147=IFCCARTESIANPOINT((29.095272235915218,1.5874999999996362,97.53037202678388));
#1148=IFCCARTESIANPOINT((25.345272235915672,1.5874999999996362,97.530372026783652));
#1149=IFCCARTESIANPOINT((21.595272235915672,1.5874999999978172,97.530372026783709));
#1150=IFCCARTESIANPOINT((17.845272235916127,1.5874999999996362,97.530372026783709));
#1151=IFCCARTESIANPOINT((14.095272235915672,1.5874999999996362,97.530372026783994));
#1152=IFCCARTESIANPOINT((12.220272235915672,1.5874999999996362,93.539390484171633));
#1153=IFCCARTESIANPOINT((10.345272235915672,1.5874999999978172,89.548408941559615));
#1154=IFCCARTESIANPOINT((8.190848982852458,1.5874999999996362,84.962668441319693));
#1155=IFCCARTESIANPOINT((6.5952722359156724,1.5874999999996362,81.566445856335463));
#1156=IFCCARTESIANPOINT((8.4702722359152176,1.5874999999996362,77.575464313723671));
#1157=IFCCARTESIANPOINT((10.345272235915218,1.5874999999996362,73.584482771111766));
#1158=IFCCARTESIANPOINT((12.220272235915672,1.5874999999996362,69.593501228499861));
#1159=IFCCARTESIANPOINT((14.095272235915672,1.5874999999996362,65.602519685888325));
#1160=IFCCARTESIANPOINT((17.845272235915218,1.5874999999996362,65.602519685887728));
#1161=IFCCARTESIANPOINT((21.595272235914763,1.5874999999996362,65.602519685887415));
#1162=IFCCARTESIANPOINT((25.345272235915218,1.5874999999996362,65.602519685887188));
#1163=IFCCARTESIANPOINT((29.095272235915218,1.5874999999996362,65.602519685886648));
#1164=IFCFACE((#1165));
#1165=IFCFACEOUTERBOUND(#1166,.T.);
#1166=IFCPOLYLOOP((#1167,#1168,#1169,#1170,#1171,#1172,#1173,#1174,#1175,#1176,#1177,#1178,#1179,#1180,#1181,#1182,#1183,#1184,#1185,#1186,#1187,#1188,#1189,#1190));
#1167=IFCCARTESIANPOINT((14.095272235919765,2751.5874999999996,2029.8882339716033));
#1168=IFCCARTESIANPOINT((11.940848982857005,2751.5875000000015,2034.4739744718418));
#1169=IFCCARTESIANPOINT((9.7864257297942459,2751.5874999999996,2039.0597149720811));
#1170=IFCCARTESIANPOINT((8.1908489828570055,2751.5875000000015,2042.4559375570661));
#1171=IFCCARTESIANPOINT((6.5952722359197651,2751.5874999999996,2045.8521601420498));
#1172=IFCCARTESIANPOINT((8.4702722359197651,2751.5874999999996,2049.8431416846634));
#1173=IFCCARTESIANPOINT((10.34527223592022,2751.5874999999996,2053.8341232272751));
#1174=IFCCARTESIANPOINT((12.220272235919765,2751.5875000000015,2057.8251047698873));
#1175=IFCCARTESIANPOINT((14.095272235919765,2751.5874999999996,2061.8160863124986));
#1176=IFCCARTESIANPOINT((17.845272235919765,2751.5875000000015,2061.8160863124986));
#1177=IFCCARTESIANPOINT((21.595272235919765,2751.5875000000015,2061.8160863124986));
#1178=IFCCARTESIANPOINT((25.34527223592022,2751.5875000000015,2061.8160863124986));
#1179=IFCCARTESIANPOINT((29.095272235919765,2751.5874999999996,2061.8160863124986));
#1180=IFCCARTESIANPOINT((30.970272235919765,2751.5875000000015,2057.8251047698864));
#1181=IFCCARTESIANPOINT((32.84527223591931,2751.5875000000015,2053.8341232272746));
#1182=IFCCARTESIANPOINT((34.720272235919765,2751.5875000000015,2049.8431416846624));
#1183=IFCCARTESIANPOINT((36.595272235919765,2751.5874999999996,2045.8521601420498));
#1184=IFCCARTESIANPOINT((34.999695488982979,2751.5875000000015,2042.4559375570661));
#1185=IFCCARTESIANPOINT((32.84527223591931,2751.5875000000015,2037.8701970568259));
#1186=IFCCARTESIANPOINT((30.970272235919765,2751.5874999999996,2033.8792155142141));
#1187=IFCCARTESIANPOINT((29.095272235919765,2751.5874999999996,2029.8882339716015));
#1188=IFCCARTESIANPOINT((25.34527223591931,2751.5875000000015,2029.8882339716019));
#1189=IFCCARTESIANPOINT((21.595272235919765,2751.5875000000015,2029.8882339716024));
#1190=IFCCARTESIANPOINT((17.845272235919765,2751.5875000000015,2029.8882339716029));
#1191=IFCFACE((#1192));
#1192=IFCFACEOUTERBOUND(#1193,.T.);
#1193=IFCPOLYLOOP((#1145,#1144,#1143,#1183,#1182,#1181,#1180,#1179,#1147,#1146));
#1194=IFCFACE((#1195));
#1195=IFCFACEOUTERBOUND(#1196,.T.);
#1196=IFCPOLYLOOP((#1153,#1152,#1151,#1175,#1174,#1173,#1172,#1171,#1155,#1154));
#1197=IFCFACE((#1198));
#1198=IFCFACEOUTERBOUND(#1199,.T.);
#1199=IFCPOLYLOOP((#1149,#1148,#1147,#1179,#1178,#1177,#1176,#1175,#1151,#1150));
#1200=IFCFACE((#1201));
#1201=IFCFACEOUTERBOUND(#1202,.T.);
#1202=IFCPOLYLOOP((#1157,#1156,#1155,#1171,#1170,#1169,#1168,#1167,#1159,#1158));
#1203=IFCFACE((#1204));
#1204=IFCFACEOUTERBOUND(#1205,.T.);
#1205=IFCPOLYLOOP((#1188,#1187,#1163,#1162,#1161,#1160,#1159,#1167,#1190,#1189));
#1206=IFCFACE((#1207));
#1207=IFCFACEOUTERBOUND(#1208,.T.);
#1208=IFCPOLYLOOP((#1184,#1183,#1143,#1142,#1141,#1140,#1163,#1187,#1186,#1185));
#1209=IFCFACETEDBREP(#1210);
#1210=IFCCLOSEDSHELL((#1211,#1238,#1265,#1268,#1271,#1274,#1277,#1280));
#1211=IFCFACE((#1212));
#1212=IFCFACEOUTERBOUND(#1213,.T.);
#1213=IFCPOLYLOOP((#1214,#1215,#1216,#1217,#1218,#1219,#1220,#1221,#1222,#1223,#1224,#1225,#1226,#1227,#1228,#1229,#1230,#1231,#1232,#1233,#1234,#1235,#1236,#1237));
#1214=IFCCARTESIANPOINT((1.5952722359156724,1.5874999999996362,875.42192780845039));
#1215=IFCCARTESIANPOINT((4.0952722359152176,1.5874999999996362,870.10061908496778));
#1216=IFCCARTESIANPOINT((6.5952722359156724,1.5874999999996362,864.77931036148516));
#1217=IFCCARTESIANPOINT((9.0952722359152176,1.5874999999996362,859.45800163800254));
#1218=IFCCARTESIANPOINT((11.595272235915218,1.5874999999996362,854.1366929145197));
#1219=IFCCARTESIANPOINT((16.595272235915672,1.5874999999996362,854.13669291451993));
#1220=IFCCARTESIANPOINT((21.595272235915672,1.5874999999996362,854.1366929145197));
#1221=IFCCARTESIANPOINT((26.595272235915218,1.5874999999996362,854.1366929145197));
#1222=IFCCARTESIANPOINT((31.595272235915218,1.5874999999996362,854.13669291451947));
#1223=IFCCARTESIANPOINT((34.095272235916127,1.5874999999996362,859.45800163800209));
#1224=IFCCARTESIANPOINT((36.595272235915218,1.5874999999996362,864.7793103614847));
#1225=IFCCARTESIANPOINT((39.095272235914763,1.5874999999996362,870.10061908496732));
#1226=IFCCARTESIANPOINT((41.595272235915218,1.5874999999996362,875.42192780845016));
#1227=IFCCARTESIANPOINT((39.141307068691276,1.5874999999996362,880.6452503090386));
#1228=IFCCARTESIANPOINT((36.687341901467335,1.5874999999996362,885.86857280962727));
#1229=IFCCARTESIANPOINT((34.141307068691276,1.5874999999996362,891.28786775600406));
#1230=IFCCARTESIANPOINT((31.595272235915218,1.5874999999996362,896.70716270238063));
#1231=IFCCARTESIANPOINT((26.595272235915218,1.5874999999996362,896.70716270238063));
#1232=IFCCARTESIANPOINT((21.595272235915672,1.5874999999996362,896.70716270238063));
#1233=IFCCARTESIANPOINT((16.595272235915672,1.5874999999996362,896.70716270238063));
#1234=IFCCARTESIANPOINT((11.595272235915672,1.5874999999996362,896.70716270238063));
#1235=IFCCARTESIANPOINT((9.0952722359156724,1.5874999999996362,891.38585397889801));
#1236=IFCCARTESIANPOINT((6.5952722359156724,1.5874999999996362,886.06454525541562));
#1237=IFCCARTESIANPOINT((4.0492374031396139,1.5874999999996362,880.6452503090386));
#1238=IFCFACE((#1239));
#1239=IFCFACEOUTERBOUND(#1240,.T.);
#1240=IFCPOLYLOOP((#1241,#1242,#1243,#1244,#1245,#1246,#1247,#1248,#1249,#1250,#1251,#1252,#1253,#1254,#1255,#1256,#1257,#1258,#1259,#1260,#1261,#1262,#1263,#1264));
#1241=IFCCARTESIANPOINT((11.59527223591931,2751.5874999999996,2818.4224072002344));
#1242=IFCCARTESIANPOINT((9.0492374031437066,2751.5875000000015,2823.8417021466107));
#1243=IFCCARTESIANPOINT((6.5032025703690124,2751.5874999999996,2829.2609970929861));
#1244=IFCCARTESIANPOINT((4.0492374031441614,2751.5874999999996,2834.4843195935759));
#1245=IFCCARTESIANPOINT((1.5952722359202198,2751.5874999999996,2839.7076420941648));
#1246=IFCCARTESIANPOINT((4.0952722359202198,2751.5875000000015,2845.0289508176479));
#1247=IFCCARTESIANPOINT((6.5952722359197651,2751.5875000000015,2850.3502595411305));
#1248=IFCCARTESIANPOINT((9.0952722359206746,2751.5875000000015,2855.6715682646131));
#1249=IFCCARTESIANPOINT((11.595272235919765,2751.5874999999996,2860.9928769880953));
#1250=IFCCARTESIANPOINT((16.595272235919765,2751.5875000000015,2860.9928769880958));
#1251=IFCCARTESIANPOINT((21.595272235919765,2751.5875000000015,2860.9928769880958));
#1252=IFCCARTESIANPOINT((26.595272235919765,2751.5875000000015,2860.9928769880958));
#1253=IFCCARTESIANPOINT((31.595272235919765,2751.5874999999996,2860.9928769880953));
#1254=IFCCARTESIANPOINT((34.095272235919765,2751.5875000000015,2855.6715682646131));
#1255=IFCCARTESIANPOINT((36.595272235919765,2751.5875000000015,2850.3502595411305));
#1256=IFCCARTESIANPOINT((39.095272235919765,2751.5875000000015,2845.0289508176479));
#1257=IFCCARTESIANPOINT((41.595272235919765,2751.5874999999996,2839.7076420941648));
#1258=IFCCARTESIANPOINT((39.141307068695824,2751.5874999999996,2834.4843195935759));
#1259=IFCCARTESIANPOINT((36.595272235919765,2751.5874999999996,2829.0650246471996));
#1260=IFCCARTESIANPOINT((34.095272235919765,2751.5874999999996,2823.743715923717));
#1261=IFCCARTESIANPOINT((31.595272235919765,2751.5874999999996,2818.4224072002339));
#1262=IFCCARTESIANPOINT((26.595272235919765,2751.5875000000015,2818.4224072002344));
#1263=IFCCARTESIANPOINT((21.59527223591931,2751.5875000000015,2818.4224072002344));
#1264=IFCCARTESIANPOINT((16.595272235918856,2751.5875000000015,2818.4224072002344));
#1265=IFCFACE((#1266));
#1266=IFCFACEOUTERBOUND(#1267,.T.);
#1267=IFCPOLYLOOP((#1228,#1227,#1226,#1257,#1256,#1255,#1254,#1253,#1230,#1229));
#1268=IFCFACE((#1269));
#1269=IFCFACEOUTERBOUND(#1270,.T.);
#1270=IFCPOLYLOOP((#1236,#1235,#1234,#1249,#1248,#1247,#1246,#1245,#1214,#1237));
#1271=IFCFACE((#1272));
#1272=IFCFACEOUTERBOUND(#1273,.T.);
#1273=IFCPOLYLOOP((#1232,#1231,#1230,#1253,#1252,#1251,#1250,#1249,#1234,#1233));
#1274=IFCFACE((#1275));
#1275=IFCFACEOUTERBOUND(#1276,.T.);
#1276=IFCPOLYLOOP((#1216,#1215,#1214,#1245,#1244,#1243,#1242,#1241,#1218,#1217));
#1277=IFCFACE((#1278));
#1278=IFCFACEOUTERBOUND(#1279,.T.);
#1279=IFCPOLYLOOP((#1262,#1261,#1222,#1221,#1220,#1219,#1218,#1241,#1264,#1263));
#1280=IFCFACE((#1281));
#1281=IFCFACEOUTERBOUND(#1282,.T.);
#1282=IFCPOLYLOOP((#1258,#1257,#1226,#1225,#1224,#1223,#1222,#1261,#1260,#1259));
#1283=IFCMATERIAL('<Unnamed>',$,$);
#1284=IFCRELASSOCIATESMATERIAL('2QDQpbVBHEz8wb88KpIeWI',$,$,$,(#28,#179,#196,#211,#747),#1283);
#1285=IFCPROPERTYSET('215PDZoXf2eRrsAkALDWvg',#13,'Pset_QuantityTakeOff',$,(#1286));
#1286=IFCPROPERTYSINGLEVALUE('Reference',$,IFCIDENTIFIER('900mm \X2\BC30AD00\X0\'),$);
#1287=IFCRELDEFINESBYPROPERTIES('19p$gpeZT9JPRxEPRvgbQQ',$,$,$,(#747),#1285);
#1288=IFCPROPERTYSET('0AZipoUKPBdBuuOXQZmO$G',#13,'Pset_RailingCommon',$,(#1289,#1286,#1290));
#1289=IFCPROPERTYSINGLEVALUE('IsExternal',$,IFCBOOLEAN(.F.),$);
#1290=IFCPROPERTYSINGLEVALUE('Height',$,IFCPOSITIVELENGTHMEASURE(899.99999999999989),$);
#1291=IFCRELDEFINESBYPROPERTIES('06ivKzv8930Orfz66QRtH7',$,$,$,(#747),#1288);
#1292=IFCPROPERTYSET('1wrSZqmTP2XfN8ODkvWb$Y',#13,'Pset_QuantityTakeOff',$,(#1286));
#1293=IFCRELDEFINESBYPROPERTIES('3ai$LIOGv5hvb3PqAtP6z0',$,$,$,(#211),#1292);
#1294=IFCPROPERTYSET('0lSnASZ0nBkgbkA0WbBjK5',#13,'Pset_RailingCommon',$,(#1289,#1286,#1295));
#1295=IFCPROPERTYSINGLEVALUE('Height',$,IFCPOSITIVELENGTHMEASURE(899.99999999999989),$);
#1296=IFCRELDEFINESBYPROPERTIES('3uWHne4hn59f695s7HJaPb',$,$,$,(#211),#1294);
#1297=IFCPROPERTYSET('2dD3uoz2n39QFuIyYUMXhk',#13,'Pset_QuantityTakeOff',$,(#1298));
#1298=IFCPROPERTYSINGLEVALUE('Reference',$,IFCIDENTIFIER('190mm \X2\CD5CB300\X0\ \X2\CC4CD310\X0\ 250mm \X2\C9C4D589\X0\'),$);
#1299=IFCRELDEFINESBYPROPERTIES('1A6KvIDk53lAic5aGH_mJ$',$,$,$,(#12),#1297);
#1300=IFCPROPERTYSET('3AaQal0OL6Sw_tQvjFPQO8',#13,'Pset_StairCommon',$,(#1289,#1298,#1301,#1302,#1303,#1304));
#1301=IFCPROPERTYSINGLEVALUE('NumberOfRiser',$,IFCCOUNTMEASURE(12.),$);
#1302=IFCPROPERTYSINGLEVALUE('NumberOfTreads',$,IFCCOUNTMEASURE(11.),$);
#1303=IFCPROPERTYSINGLEVALUE('RiserHeight',$,IFCPOSITIVELENGTHMEASURE(178.57142857142858),$);
#1304=IFCPROPERTYSINGLEVALUE('TreadLength',$,IFCPOSITIVELENGTHMEASURE(249.99999999999997),$);
#1305=IFCRELDEFINESBYPROPERTIES('3kB196_RTAJf4ZCCIA7I1o',$,$,$,(#12),#1300);
#1306=IFCPROPERTYSET('34b9CXl$1EuenLLg1rXXF7',#13,'Pset_QuantityTakeOff',$,(#1307));
#1307=IFCPROPERTYSINGLEVALUE('Reference',$,IFCIDENTIFIER('50mm \X2\B514B524D310\X0\ 12mm \X2\CC4CD310\X0\'),$);
#1308=IFCRELDEFINESBYPROPERTIES('1IHOjbGm5D8P7OCVqtrVy8',$,$,$,(#28),#1306);
#1309=IFCPROPERTYSET('3Izp3ZBpH1j8bmmDFujmj5',#13,'Pset_StairFlightCommon',$,(#1307,#1310,#1311,#1312,#1313,#1314,#1315,#1316,#1317));
#1310=IFCPROPERTYSINGLEVALUE('NumberOfRiser',$,IFCCOUNTMEASURE(12.),$);
#1311=IFCPROPERTYSINGLEVALUE('NumberOfTreads',$,IFCCOUNTMEASURE(11.),$);
#1312=IFCPROPERTYSINGLEVALUE('RiserHeight',$,IFCPOSITIVELENGTHMEASURE(178.57142857142858),$);
#1313=IFCPROPERTYSINGLEVALUE('TreadLength',$,IFCPOSITIVELENGTHMEASURE(249.99999999999997),$);
#1314=IFCPROPERTYSINGLEVALUE('NosingLength',$,IFCLENGTHMEASURE(0.),$);
#1315=IFCPROPERTYSINGLEVALUE('WalkingLineOffset',$,IFCPOSITIVELENGTHMEASURE(2.6246719160104988),$);
#1316=IFCPROPERTYSINGLEVALUE('TreadLengthAtOffset',$,IFCPOSITIVELENGTHMEASURE(249.99999999999997),$);
#1317=IFCPROPERTYSINGLEVALUE('TreadLengthAtInnerSide',$,IFCPOSITIVELENGTHMEASURE(249.99999999999997),$);
#1318=IFCRELDEFINESBYPROPERTIES('3Ypc9NYhj0VxLLWtuL_J9E',$,$,$,(#28),#1309);
#1319=IFCPROPERTYSET('3UWTlJhnDCtB78Oy9q01Tg',#13,'Pset_MemberCommon',$,(#1289,#1320,#1321));
#1320=IFCPROPERTYSINGLEVALUE('Reference',$,IFCIDENTIFIER('\X2\ACC4B2E8C606D310\X0\ - 50mm \X2\D3ED\X0\'),$);
#1321=IFCPROPERTYSINGLEVALUE('Slope',$,IFCPLANEANGLEMEASURE(35.537677791974417),$);
#1322=IFCRELDEFINESBYPROPERTIES('05VNV8f4T4mORMQoZ0_jZw',$,$,$,(#179),#1319);
#1323=IFCPROPERTYSET('0kSCCkVCH7LvtiMxl3u5Fd',#13,'Pset_QuantityTakeOff',$,(#1320));
#1324=IFCRELDEFINESBYPROPERTIES('3LvFo8Q_H1fxTL48WRWcio',$,$,$,(#179),#1323);
#1325=IFCPROPERTYSET('1E8XxccSv52QLB65ogY2Kz',#13,'Pset_MemberCommon',$,(#1289,#1320,#1326));
#1326=IFCPROPERTYSINGLEVALUE('Slope',$,IFCPLANEANGLEMEASURE(35.537677791974417),$);
#1327=IFCRELDEFINESBYPROPERTIES('0_UygJHFbB7RG8ZxotO_Y3',$,$,$,(#196),#1325);
#1328=IFCPROPERTYSET('2cqOMwQYP2mxRq5u9Lyx7b',#13,'Pset_QuantityTakeOff',$,(#1320));
#1329=IFCRELDEFINESBYPROPERTIES('20QQRdV5H2PfnqdGB7SV6S',$,$,$,(#196),#1328);
#1330=IFCOWNERHISTORY(#14,#17,.READWRITE.,.ADDED.,1778765887,#14,#17,1778765887);
#1331=IFCRELCONTAINEDINSPATIALSTRUCTURE('1gEHuGqILDRvJ4tcpAG6V$',#1330,$,$,(#747,#28,#12,#211,#179,#196),#8);
#1337=IFCOWNERHISTORY(#14,#17,$,.MODIFIED.,1778765887,#14,#17,1778487490);
#1343=IFCOWNERHISTORY(#14,#17,$,.MODIFIED.,1778765887,#14,#17,1778487490);
#1349=IFCOWNERHISTORY(#14,#17,$,.MODIFIED.,1778765887,#14,#17,1778487490);
#1355=IFCOWNERHISTORY(#14,#17,$,.MODIFIED.,1778765887,#14,#17,1778487490);
#1361=IFCOWNERHISTORY(#14,#17,$,.MODIFIED.,1778765887,#14,#17,1778487490);
#1367=IFCOWNERHISTORY(#14,#17,$,.MODIFIED.,1778765887,#14,#17,1778487490);
#1383=IFCCARTESIANPOINT((-3784.9011071298801,11275.344154425979,0.));
#1384=IFCDIRECTION((0.,0.,1.));
#1385=IFCDIRECTION((1.,0.,0.));
#1386=IFCAXIS2PLACEMENT3D(#1383,#1384,#1385);
#1387=IFCLOCALPLACEMENT($,#1386);
#1388=IFCCARTESIANPOINT((-3784.9011071298801,11275.344154425979,0.));
#1389=IFCDIRECTION((0.,0.,1.));
#1390=IFCDIRECTION((1.,0.,0.));
#1391=IFCAXIS2PLACEMENT3D(#1388,#1389,#1390);
#1392=IFCLOCALPLACEMENT($,#1391);
#1393=IFCCARTESIANPOINT((-3784.9011071298801,11275.344154425979,0.));
#1394=IFCDIRECTION((0.,0.,1.));
#1395=IFCDIRECTION((1.,0.,0.));
#1396=IFCAXIS2PLACEMENT3D(#1393,#1394,#1395);
#1397=IFCLOCALPLACEMENT($,#1396);
#1398=IFCCARTESIANPOINT((-3784.9011071298801,11275.344154425979,0.));
#1399=IFCDIRECTION((0.,0.,1.));
#1400=IFCDIRECTION((1.,0.,0.));
#1401=IFCAXIS2PLACEMENT3D(#1398,#1399,#1400);
#1402=IFCLOCALPLACEMENT($,#1401);
#1403=IFCCARTESIANPOINT((1603.0047277640815,-1.5874999999978172,178.57142857142838));
#1404=IFCDIRECTION((0.,0.,1.));
#1405=IFCDIRECTION((1.,0.,0.));
#1406=IFCAXIS2PLACEMENT3D(#1403,#1404,#1405);
#1407=IFCLOCALPLACEMENT($,#1406);
#1408=IFCCARTESIANPOINT((53.804727764081235,-1.5874999999978172,178.57142857142838));
#1409=IFCDIRECTION((0.,0.,1.));
#1410=IFCDIRECTION((1.,0.,0.));
#1411=IFCAXIS2PLACEMENT3D(#1408,#1409,#1410);
#1412=IFCLOCALPLACEMENT($,#1411);
#1413=IFCOWNERHISTORY(#14,#17,.READWRITE.,.ADDED.,1778765887,#14,#17,1778765887);
#1414=IFCPROPERTYSET('0xIyB84YrBWeYBGUGSATz0',#1413,'Pset_LibraryAsset',$,(#1417,#1418,#1419,#1420,#1421,#1422,#1423,#1424,#1425,#1426));
#1415=IFCOWNERHISTORY(#14,#17,.READWRITE.,.ADDED.,1778765887,#14,#17,1778765887);
#1416=IFCRELDEFINESBYPROPERTIES('3TzbakA_L03PcNf3tWQPmq',#1415,$,$,(#12),#1414);
#1417=IFCPROPERTYSINGLEVALUE('AssetId',$,IFCLABEL('stair-145090'),$);
#1418=IFCPROPERTYSINGLEVALUE('AssetGroup',$,IFCLABEL('stair-145090'),$);
#1419=IFCPROPERTYSINGLEVALUE('AssetRole',$,IFCLABEL('member-0'),$);
#1420=IFCPROPERTYSINGLEVALUE('Category',$,IFCLABEL('stair'),$);
#1421=IFCPROPERTYSINGLEVALUE('SourceElementName',$,IFCLABEL('\X2\C870D569B41C\X0\ \X2\ACC4B2E8\X0\:\X2\ACC4B2E8\X0\:145090'),$);
#1422=IFCPROPERTYSINGLEVALUE('SourceGlobalId',$,IFCLABEL('2znubWhPDD4wn7Fg4E22hB'),$);
#1423=IFCPROPERTYSINGLEVALUE('Reusable',$,IFCBOOLEAN(.T.),$);
#1424=IFCPROPERTYSINGLEVALUE('WidthMm',$,IFCREAL(1700.),$);
#1425=IFCPROPERTYSINGLEVALUE('DepthMm',$,IFCREAL(2762.),$);
#1426=IFCPROPERTYSINGLEVALUE('HeightMm',$,IFCREAL(3039.5639999999999),$);
#1427=IFCOWNERHISTORY(#14,#17,.READWRITE.,.ADDED.,1778765887,#14,#17,1778765887);
#1428=IFCPROPERTYSET('04eDVgT7X5AB6aE5s_zjJ5',#1427,'Pset_LibraryAsset',$,(#1431,#1432,#1433,#1434,#1435,#1436,#1437,#1438,#1439,#1440));
#1429=IFCOWNERHISTORY(#14,#17,.READWRITE.,.ADDED.,1778765887,#14,#17,1778765887);
#1430=IFCRELDEFINESBYPROPERTIES('1NB2cN9Av4BOWSBDb$3Gdq',#1429,$,$,(#28),#1428);
#1431=IFCPROPERTYSINGLEVALUE('AssetId',$,IFCLABEL('stair-145090'),$);
#1432=IFCPROPERTYSINGLEVALUE('AssetGroup',$,IFCLABEL('stair-145090'),$);
#1433=IFCPROPERTYSINGLEVALUE('AssetRole',$,IFCLABEL('member-1'),$);
#1434=IFCPROPERTYSINGLEVALUE('Category',$,IFCLABEL('stair'),$);
#1435=IFCPROPERTYSINGLEVALUE('SourceElementName',$,IFCLABEL('\X2\C870D569B41C\X0\ \X2\ACC4B2E8\X0\:\X2\ACC4B2E8\X0\:145090 Run 1'),$);
#1436=IFCPROPERTYSINGLEVALUE('SourceGlobalId',$,IFCLABEL('2znubWhPDD4wn7Fg4E22lW'),$);
#1437=IFCPROPERTYSINGLEVALUE('Reusable',$,IFCBOOLEAN(.T.),$);
#1438=IFCPROPERTYSINGLEVALUE('WidthMm',$,IFCREAL(1700.),$);
#1439=IFCPROPERTYSINGLEVALUE('DepthMm',$,IFCREAL(2762.),$);
#1440=IFCPROPERTYSINGLEVALUE('HeightMm',$,IFCREAL(3039.5639999999999),$);
#1441=IFCOWNERHISTORY(#14,#17,.READWRITE.,.ADDED.,1778765887,#14,#17,1778765887);
#1442=IFCPROPERTYSET('3UaVBeFSz2IR$4oYJibXnf',#1441,'Pset_LibraryAsset',$,(#1445,#1446,#1447,#1448,#1449,#1450,#1451,#1452,#1453,#1454));
#1443=IFCOWNERHISTORY(#14,#17,.READWRITE.,.ADDED.,1778765887,#14,#17,1778765887);
#1444=IFCRELDEFINESBYPROPERTIES('1hd3sQvY99w9Xr06dTGuny',#1443,$,$,(#179),#1442);
#1445=IFCPROPERTYSINGLEVALUE('AssetId',$,IFCLABEL('stair-145090'),$);
#1446=IFCPROPERTYSINGLEVALUE('AssetGroup',$,IFCLABEL('stair-145090'),$);
#1447=IFCPROPERTYSINGLEVALUE('AssetRole',$,IFCLABEL('member-2'),$);
#1448=IFCPROPERTYSINGLEVALUE('Category',$,IFCLABEL('stair'),$);
#1449=IFCPROPERTYSINGLEVALUE('SourceElementName',$,IFCLABEL('\X2\C870D569B41C\X0\ \X2\ACC4B2E8\X0\:\X2\ACC4B2E8\X0\:145090 Stringer 1'),$);
#1450=IFCPROPERTYSINGLEVALUE('SourceGlobalId',$,IFCLABEL('2znubWhPDD4wn7Fg4E22lY'),$);
#1451=IFCPROPERTYSINGLEVALUE('Reusable',$,IFCBOOLEAN(.T.),$);
#1452=IFCPROPERTYSINGLEVALUE('WidthMm',$,IFCREAL(1700.),$);
#1453=IFCPROPERTYSINGLEVALUE('DepthMm',$,IFCREAL(2762.),$);
#1454=IFCPROPERTYSINGLEVALUE('HeightMm',$,IFCREAL(3039.5639999999999),$);
#1455=IFCOWNERHISTORY(#14,#17,.READWRITE.,.ADDED.,1778765887,#14,#17,1778765887);
#1456=IFCPROPERTYSET('34pG0VFPj1DRaiVf1xtSzN',#1455,'Pset_LibraryAsset',$,(#1459,#1460,#1461,#1462,#1463,#1464,#1465,#1466,#1467,#1468));
#1457=IFCOWNERHISTORY(#14,#17,.READWRITE.,.ADDED.,1778765887,#14,#17,1778765887);
#1458=IFCRELDEFINESBYPROPERTIES('0BfKShU2X1YvtDPPAXAbES',#1457,$,$,(#196),#1456);
#1459=IFCPROPERTYSINGLEVALUE('AssetId',$,IFCLABEL('stair-145090'),$);
#1460=IFCPROPERTYSINGLEVALUE('AssetGroup',$,IFCLABEL('stair-145090'),$);
#1461=IFCPROPERTYSINGLEVALUE('AssetRole',$,IFCLABEL('member-3'),$);
#1462=IFCPROPERTYSINGLEVALUE('Category',$,IFCLABEL('stair'),$);
#1463=IFCPROPERTYSINGLEVALUE('SourceElementName',$,IFCLABEL('\X2\C870D569B41C\X0\ \X2\ACC4B2E8\X0\:\X2\ACC4B2E8\X0\:145090 Stringer 2'),$);
#1464=IFCPROPERTYSINGLEVALUE('SourceGlobalId',$,IFCLABEL('2znubWhPDD4wn7Fg4E22lb'),$);
#1465=IFCPROPERTYSINGLEVALUE('Reusable',$,IFCBOOLEAN(.T.),$);
#1466=IFCPROPERTYSINGLEVALUE('WidthMm',$,IFCREAL(1700.),$);
#1467=IFCPROPERTYSINGLEVALUE('DepthMm',$,IFCREAL(2762.),$);
#1468=IFCPROPERTYSINGLEVALUE('HeightMm',$,IFCREAL(3039.5639999999999),$);
#1469=IFCOWNERHISTORY(#14,#17,.READWRITE.,.ADDED.,1778765887,#14,#17,1778765887);
#1470=IFCPROPERTYSET('3ssHofJN5BsBoXh85zYd3y',#1469,'Pset_LibraryAsset',$,(#1473,#1474,#1475,#1476,#1477,#1478,#1479,#1480,#1481,#1482));
#1471=IFCOWNERHISTORY(#14,#17,.READWRITE.,.ADDED.,1778765887,#14,#17,1778765887);
#1472=IFCRELDEFINESBYPROPERTIES('1lC3Y9pJH4Shy9WLUNejDv',#1471,$,$,(#211),#1470);
#1473=IFCPROPERTYSINGLEVALUE('AssetId',$,IFCLABEL('stair-145090'),$);
#1474=IFCPROPERTYSINGLEVALUE('AssetGroup',$,IFCLABEL('stair-145090'),$);
#1475=IFCPROPERTYSINGLEVALUE('AssetRole',$,IFCLABEL('member-4'),$);
#1476=IFCPROPERTYSINGLEVALUE('Category',$,IFCLABEL('stair'),$);
#1477=IFCPROPERTYSINGLEVALUE('SourceElementName',$,IFCLABEL('\X2\B09CAC04\X0\:900mm \X2\BC30AD00\X0\:145811'),$);
#1478=IFCPROPERTYSINGLEVALUE('SourceGlobalId',$,IFCLABEL('2znubWhPDD4wn7Fg4E22MQ'),$);
#1479=IFCPROPERTYSINGLEVALUE('Reusable',$,IFCBOOLEAN(.T.),$);
#1480=IFCPROPERTYSINGLEVALUE('WidthMm',$,IFCREAL(1700.),$);
#1481=IFCPROPERTYSINGLEVALUE('DepthMm',$,IFCREAL(2762.),$);
#1482=IFCPROPERTYSINGLEVALUE('HeightMm',$,IFCREAL(3039.5639999999999),$);
#1483=IFCOWNERHISTORY(#14,#17,.READWRITE.,.ADDED.,1778765887,#14,#17,1778765887);
#1484=IFCPROPERTYSET('1yvPsPA_f9Z9OAKz6b_oPf',#1483,'Pset_LibraryAsset',$,(#1487,#1488,#1489,#1490,#1491,#1492,#1493,#1494,#1495,#1496));
#1485=IFCOWNERHISTORY(#14,#17,.READWRITE.,.ADDED.,1778765887,#14,#17,1778765887);
#1486=IFCRELDEFINESBYPROPERTIES('1RsEXfS3DBEvj$Bd89HYP_',#1485,$,$,(#747),#1484);
#1487=IFCPROPERTYSINGLEVALUE('AssetId',$,IFCLABEL('stair-145090'),$);
#1488=IFCPROPERTYSINGLEVALUE('AssetGroup',$,IFCLABEL('stair-145090'),$);
#1489=IFCPROPERTYSINGLEVALUE('AssetRole',$,IFCLABEL('member-5'),$);
#1490=IFCPROPERTYSINGLEVALUE('Category',$,IFCLABEL('stair'),$);
#1491=IFCPROPERTYSINGLEVALUE('SourceElementName',$,IFCLABEL('\X2\B09CAC04\X0\:900mm \X2\BC30AD00\X0\:145815'),$);
#1492=IFCPROPERTYSINGLEVALUE('SourceGlobalId',$,IFCLABEL('2znubWhPDD4wn7Fg4E22MU'),$);
#1493=IFCPROPERTYSINGLEVALUE('Reusable',$,IFCBOOLEAN(.T.),$);
#1494=IFCPROPERTYSINGLEVALUE('WidthMm',$,IFCREAL(1700.),$);
#1495=IFCPROPERTYSINGLEVALUE('DepthMm',$,IFCREAL(2762.),$);
#1496=IFCPROPERTYSINGLEVALUE('HeightMm',$,IFCREAL(3039.5639999999999),$);
ENDSEC;
END-ISO-10303-21;
