ISO-10303-21;
HEADER;
FILE_DESCRIPTION(('ViewDefinition [CoordinationView]'),'2;1');
FILE_NAME('','2026-05-15T12:54:02',(''),(''),'IfcOpenShell 0.8.5-1c5b825','IfcOpenShell 0.8.5-1c5b825','');
FILE_SCHEMA(('IFC4'));
ENDSEC;
DATA;
#1=IFCPROJECT('0wFQHx7pHFuP8pQG4FSEEE',$,'terrace Asset Library',$,$,$,$,$,#5);
#2=IFCSIUNIT(*,.LENGTHUNIT.,.MILLI.,.METRE.);
#3=IFCSIUNIT(*,.AREAUNIT.,$,.SQUARE_METRE.);
#4=IFCSIUNIT(*,.VOLUMEUNIT.,$,.CUBIC_METRE.);
#5=IFCUNITASSIGNMENT((#3,#4,#2));
#6=IFCSITE('1_X_QSCs17pf6dZTgf2WBy',$,'Asset Site',$,$,$,$,$,$,$,$,$,$,$);
#7=IFCBUILDING('0PGc9M5bTBgxPSbt7Rfd7$',$,'Asset Building',$,$,$,$,$,$,$,$,$);
#8=IFCBUILDINGSTOREY('1CbAZO2yf08xvzs1De3ztU',$,'Asset Storey',$,$,$,$,$,$,$);
#9=IFCRELAGGREGATES('3AQ$E3kXX9thn9JPqKI14v',$,$,$,#1,(#6));
#10=IFCRELAGGREGATES('1HylNI4kzAqe4WWIEXYy0D',$,$,$,#6,(#7));
#11=IFCRELAGGREGATES('2IFSoSnX5Be8731xv8YJ5X',$,$,$,#7,(#8));
#12=IFCWALLSTANDARDCASE('0SUN8Mww1CBBikKaCnKcm2',#135,'\X2\AE30BCF8\X0\ \X2\BCBD\X0\:\X2\C77CBC18\X0\ - 200mm:153618',$,$,#166,#30,'153618',$);
#13=IFCOWNERHISTORY(#14,#17,$,.NOCHANGE.,$,$,$,1778487490);
#14=IFCPERSONANDORGANIZATION(#15,#16,$);
#15=IFCPERSON($,'','hnn06134',$,$,$,$,$);
#16=IFCORGANIZATION($,'','',$,$);
#17=IFCAPPLICATION(#18,'2027','Autodesk Revit 2027 (KOR)','Revit');
#18=IFCORGANIZATION($,'Autodesk Revit 2027 (KOR)',$,$,$);
#20=IFCLOCALPLACEMENT(#21,#26);
#21=IFCLOCALPLACEMENT(#22,#25);
#22=IFCLOCALPLACEMENT($,#23);
#23=IFCAXIS2PLACEMENT3D(#24,$,$);
#24=IFCCARTESIANPOINT((0.,0.,0.));
#25=IFCAXIS2PLACEMENT3D(#24,$,$);
#26=IFCAXIS2PLACEMENT3D(#27,$,$);
#27=IFCCARTESIANPOINT((0.,0.,2500.));
#30=IFCPRODUCTDEFINITIONSHAPE($,$,(#31,#39));
#31=IFCSHAPEREPRESENTATION(#32,'Axis','Curve2D',(#36));
#32=IFCGEOMETRICREPRESENTATIONSUBCONTEXT('Axis','Model',*,*,*,*,#33,$,.GRAPH_VIEW.,$);
#33=IFCGEOMETRICREPRESENTATIONCONTEXT($,'Model',3,0.01,#34,#35);
#34=IFCAXIS2PLACEMENT3D(#24,$,$);
#35=IFCDIRECTION((0.,1.));
#36=IFCPOLYLINE((#37,#38));
#37=IFCCARTESIANPOINT((0.,0.));
#38=IFCCARTESIANPOINT((6294.2232039015098,-0.));
#39=IFCSHAPEREPRESENTATION(#40,'Body','SweptSolid',(#41));
#40=IFCGEOMETRICREPRESENTATIONSUBCONTEXT('Body','Model',*,*,*,*,#33,$,.MODEL_VIEW.,$);
#41=IFCEXTRUDEDAREASOLID(#42,#46,#47,1500.);
#42=IFCRECTANGLEPROFILEDEF(.AREA.,$,#43,6294.2232039015116,200.00000000000219);
#43=IFCAXIS2PLACEMENT2D(#44,#45);
#44=IFCCARTESIANPOINT((3147.1116019507558,-1.7763568394002505E-13));
#45=IFCDIRECTION((-1.,0.));
#46=IFCAXIS2PLACEMENT3D(#24,$,$);
#47=IFCDIRECTION((0.,0.,1.));
#48=IFCWALLSTANDARDCASE('02H2RstPb9zfTCLLSNuJpK',#141,'\X2\AE30BCF8\X0\ \X2\BCBD\X0\:\X2\C77CBC18\X0\ - 200mm:153473',$,$,#171,#53,'153473',$);
#53=IFCPRODUCTDEFINITIONSHAPE($,$,(#54,#57));
#54=IFCSHAPEREPRESENTATION(#32,'Axis','Curve2D',(#55));
#55=IFCPOLYLINE((#37,#56));
#56=IFCCARTESIANPOINT((1380.,0.));
#57=IFCSHAPEREPRESENTATION(#40,'Body','SweptSolid',(#58));
#58=IFCEXTRUDEDAREASOLID(#59,#62,#47,1500.);
#59=IFCRECTANGLEPROFILEDEF(.AREA.,$,#60,1379.9999999999982,200.);
#60=IFCAXIS2PLACEMENT2D(#61,#45);
#61=IFCCARTESIANPOINT((689.99999999999909,8.5265128291212022E-14));
#62=IFCAXIS2PLACEMENT3D(#24,$,$);
#63=IFCWALLSTANDARDCASE('3PEyAYThD6yPRPgyhfOHRU',#129,'\X2\AE30BCF8\X0\ \X2\BCBD\X0\:\X2\C77CBC18\X0\ - 200mm:154109',$,$,#176,#68,'154109',$);
#68=IFCPRODUCTDEFINITIONSHAPE($,$,(#69,#72));
#69=IFCSHAPEREPRESENTATION(#32,'Axis','Curve2D',(#70));
#70=IFCPOLYLINE((#37,#71));
#71=IFCCARTESIANPOINT((1180.,-0.));
#72=IFCSHAPEREPRESENTATION(#40,'Body','SweptSolid',(#73));
#73=IFCEXTRUDEDAREASOLID(#74,#77,#47,1500.);
#74=IFCRECTANGLEPROFILEDEF(.AREA.,$,#75,1179.9999999999982,200.);
#75=IFCAXIS2PLACEMENT2D(#76,#45);
#76=IFCCARTESIANPOINT((589.99999999999909,-2.1316282072803006E-14));
#77=IFCAXIS2PLACEMENT3D(#24,$,$);
#78=IFCMATERIALLAYERSETUSAGE(#79,.AXIS2.,.NEGATIVE.,100.,$);
#79=IFCMATERIALLAYERSET((#80),'\X2\AE30BCF8\X0\ \X2\BCBD\X0\:\X2\C77CBC18\X0\ - 200mm',$);
#80=IFCMATERIALLAYER(#81,200.,$,$,$,$,$);
#81=IFCMATERIAL('\X2\AE30BCF8\X0\ \X2\BCBD\X0\',$,$);
#82=IFCRELASSOCIATESMATERIAL('1rjaWev1v9rPlDQHsY4y3D',$,$,$,(#48),#78);
#83=IFCMATERIALLAYERSETUSAGE(#79,.AXIS2.,.NEGATIVE.,100.,$);
#84=IFCRELASSOCIATESMATERIAL('3WknVwotH8Sw21ivAP$JLu',$,$,$,(#12),#83);
#85=IFCMATERIALLAYERSETUSAGE(#79,.AXIS2.,.NEGATIVE.,100.,$);
#86=IFCRELASSOCIATESMATERIAL('0mZOXrQM5D0vWqQ0rBb0xr',$,$,$,(#63),#85);
#87=IFCPROPERTYSET('0GZb3tN3PBkRsj6Rq10Lja',#13,'Pset_QuantityTakeOff',$,(#88));
#88=IFCPROPERTYSINGLEVALUE('Reference',$,IFCIDENTIFIER('\X2\C77CBC18\X0\ - 200mm'),$);
#89=IFCRELDEFINESBYPROPERTIES('21tNDe_JL3YxZfiUInjTcZ',$,$,$,(#12),#87);
#90=IFCPROPERTYSET('0c$d_bcAjBgwi7_aBDSVVL',#13,'Pset_ReinforcementBarPitchOfWall',$,(#91));
#91=IFCPROPERTYSINGLEVALUE('Reference',$,IFCLABEL('\X2\C77CBC18\X0\ - 200mm'),$);
#92=IFCRELDEFINESBYPROPERTIES('1vR57nDTr8jABbGCe32okR',$,$,$,(#12),#90);
#93=IFCPROPERTYSET('3sC9UpI0X6QwvNNSbywYOD',#13,'Pset_WallCommon',$,(#88,#94,#95,#96));
#94=IFCPROPERTYSINGLEVALUE('IsExternal',$,IFCBOOLEAN(.T.),$);
#95=IFCPROPERTYSINGLEVALUE('ExtendToStructure',$,IFCBOOLEAN(.F.),$);
#96=IFCPROPERTYSINGLEVALUE('LoadBearing',$,IFCBOOLEAN(.F.),$);
#97=IFCRELDEFINESBYPROPERTIES('2dpWTzBQn7SQESTyZ9jatg',$,$,$,(#12),#93);
#98=IFCPROPERTYSET('0ByNmfZA9AFRiuqVCn3kIp',#13,'Pset_QuantityTakeOff',$,(#88));
#99=IFCRELDEFINESBYPROPERTIES('3uQjCg28D1NR9CSMjmii0w',$,$,$,(#63),#98);
#100=IFCPROPERTYSET('2Dz1KXGLL2ERGdy2LZXzkl',#13,'Pset_ReinforcementBarPitchOfWall',$,(#101));
#101=IFCPROPERTYSINGLEVALUE('Reference',$,IFCLABEL('\X2\C77CBC18\X0\ - 200mm'),$);
#102=IFCRELDEFINESBYPROPERTIES('3gLvgS3nXEX8vhbUM5fIBv',$,$,$,(#63),#100);
#103=IFCPROPERTYSET('1tcG$SEgzD6uNSGmCboL_I',#13,'Pset_WallCommon',$,(#88,#94,#95,#96));
#104=IFCRELDEFINESBYPROPERTIES('1EmA3dR3j1KPqn3toQ4U31',$,$,$,(#63),#103);
#105=IFCPROPERTYSET('22LN0haQn4dAQpnYwERiji',#13,'Pset_QuantityTakeOff',$,(#88));
#106=IFCRELDEFINESBYPROPERTIES('1vJBQzfTn7Uu$HFkWsggkI',$,$,$,(#48),#105);
#107=IFCPROPERTYSET('1by4U9cJz1rAQSTAcxBQSn',#13,'Pset_ReinforcementBarPitchOfWall',$,(#108));
#108=IFCPROPERTYSINGLEVALUE('Reference',$,IFCLABEL('\X2\C77CBC18\X0\ - 200mm'),$);
#109=IFCRELDEFINESBYPROPERTIES('303nDyFej1iO_2$jMx7psW',$,$,$,(#48),#107);
#110=IFCPROPERTYSET('0ff4$j0$TAKODwjqViOOnF',#13,'Pset_WallCommon',$,(#88,#94,#95,#96));
#111=IFCRELDEFINESBYPROPERTIES('2aOOVd3D52P8UVfRoup7Wn',$,$,$,(#48),#110);
#112=IFCSTYLEDITEM(#55,(#113),$);
#113=IFCPRESENTATIONSTYLEASSIGNMENT((#114));
#114=IFCSURFACESTYLE($,.BOTH.,(#115));
#115=IFCSURFACESTYLERENDERING(#116,$,$,$,$,$,$,$,.FLAT.);
#116=IFCCOLOURRGB($,0.87058823529411766,0.85098039215686272,0.85098039215686272);
#117=IFCSTYLEDITEM(#58,(#113),$);
#118=IFCSTYLEDITEM(#36,(#113),$);
#119=IFCSTYLEDITEM(#41,(#113),$);
#120=IFCSTYLEDITEM(#70,(#113),$);
#121=IFCSTYLEDITEM(#73,(#113),$);
#122=IFCOWNERHISTORY(#14,#17,.READWRITE.,.MODIFIED.,1778817242,#14,#17,1778817242);
#123=IFCRELCONTAINEDINSPATIALSTRUCTURE('2SkOr5fx9B9ft2EXRgPgi_',#122,$,$,(#143,#63,#12,#48),#8);
#129=IFCOWNERHISTORY(#14,#17,$,.MODIFIED.,1778817242,#14,#17,1778487490);
#135=IFCOWNERHISTORY(#14,#17,$,.MODIFIED.,1778817242,#14,#17,1778487490);
#141=IFCOWNERHISTORY(#14,#17,$,.MODIFIED.,1778817242,#14,#17,1778487490);
#142=IFCOWNERHISTORY(#14,#17,.READWRITE.,.MODIFIED.,1778817242,#14,#17,1778817242);
#143=IFCSLAB('3H0iqfrmTBVwuOkNa69Lh5',#142,'Terrace floor',$,$,#181,#151,$,.FLOOR.);
#144=IFCCARTESIANPOINTLIST2D(((0.,0.),(6494.2232039015089,0.),(6494.2232039015089,1380.0000000000025),(0.,1380.0000000000025),(0.,0.)));
#145=IFCINDEXEDPOLYCURVE(#144,$,$);
#146=IFCDIRECTION((0.,0.,1.));
#147=IFCDIRECTION((-0.,-0.,-1.));
#148=IFCARBITRARYCLOSEDPROFILEDEF(.AREA.,$,#145);
#149=IFCEXTRUDEDAREASOLID(#148,$,#147,120.);
#150=IFCSHAPEREPRESENTATION(#40,'Body','SweptSolid',(#149));
#151=IFCPRODUCTDEFINITIONSHAPE($,$,(#150));
#162=IFCCARTESIANPOINT((199.9999999999975,100.00000000000142,0.));
#163=IFCDIRECTION((0.,0.,1.));
#164=IFCDIRECTION((1.,0.,0.));
#165=IFCAXIS2PLACEMENT3D(#162,#163,#164);
#166=IFCLOCALPLACEMENT($,#165);
#167=IFCCARTESIANPOINT((99.999999999999645,1380.0000000000025,0.));
#168=IFCDIRECTION((0.,0.,1.));
#169=IFCDIRECTION((0.,-1.,0.));
#170=IFCAXIS2PLACEMENT3D(#167,#168,#169);
#171=IFCLOCALPLACEMENT($,#170);
#172=IFCCARTESIANPOINT((6394.2232039015089,199.99999999998153,0.));
#173=IFCDIRECTION((0.,0.,1.));
#174=IFCDIRECTION((0.,1.,0.));
#175=IFCAXIS2PLACEMENT3D(#172,#173,#174);
#176=IFCLOCALPLACEMENT($,#175);
#177=IFCCARTESIANPOINT((0.,0.,0.));
#178=IFCDIRECTION((0.,0.,1.));
#179=IFCDIRECTION((1.,0.,0.));
#180=IFCAXIS2PLACEMENT3D(#177,#178,#179);
#181=IFCLOCALPLACEMENT($,#180);
#182=IFCOWNERHISTORY(#14,#17,.READWRITE.,.ADDED.,1778817242,#14,#17,1778817242);
#183=IFCPROPERTYSET('3GbAqvw_bBcgBGEOck24Hf',#182,'Pset_LibraryAsset',$,(#186,#187,#188,#189,#190,#191,#192,#193,#194,#195));
#184=IFCOWNERHISTORY(#14,#17,.READWRITE.,.ADDED.,1778817242,#14,#17,1778817242);
#185=IFCRELDEFINESBYPROPERTIES('1qltsFxQTFTBVn5iBDJoUc',#184,$,$,(#12),#183);
#186=IFCPROPERTYSINGLEVALUE('AssetId',$,IFCLABEL('terrace'),$);
#187=IFCPROPERTYSINGLEVALUE('AssetGroup',$,IFCLABEL('terrace'),$);
#188=IFCPROPERTYSINGLEVALUE('AssetRole',$,IFCLABEL('member-0'),$);
#189=IFCPROPERTYSINGLEVALUE('Category',$,IFCLABEL('terrace'),$);
#190=IFCPROPERTYSINGLEVALUE('SourceElementName',$,IFCLABEL('\X2\AE30BCF8\X0\ \X2\BCBD\X0\:\X2\C77CBC18\X0\ - 200mm:153618'),$);
#191=IFCPROPERTYSINGLEVALUE('SourceGlobalId',$,IFCLABEL('2znubWhPDD4wn7Fg4E24GR'),$);
#192=IFCPROPERTYSINGLEVALUE('Reusable',$,IFCBOOLEAN(.T.),$);
#193=IFCPROPERTYSINGLEVALUE('WidthMm',$,IFCREAL(6494.223),$);
#194=IFCPROPERTYSINGLEVALUE('DepthMm',$,IFCREAL(1380.),$);
#195=IFCPROPERTYSINGLEVALUE('HeightMm',$,IFCREAL(1620.),$);
#196=IFCOWNERHISTORY(#14,#17,.READWRITE.,.ADDED.,1778817242,#14,#17,1778817242);
#197=IFCPROPERTYSET('1TpucFg5DEvOuqtk01v44o',#196,'Pset_LibraryAsset',$,(#200,#201,#202,#203,#204,#205,#206,#207,#208,#209));
#198=IFCOWNERHISTORY(#14,#17,.READWRITE.,.ADDED.,1778817242,#14,#17,1778817242);
#199=IFCRELDEFINESBYPROPERTIES('29nnH4CiX9Iu4KyUz1ct7R',#198,$,$,(#48),#197);
#200=IFCPROPERTYSINGLEVALUE('AssetId',$,IFCLABEL('terrace'),$);
#201=IFCPROPERTYSINGLEVALUE('AssetGroup',$,IFCLABEL('terrace'),$);
#202=IFCPROPERTYSINGLEVALUE('AssetRole',$,IFCLABEL('member-1'),$);
#203=IFCPROPERTYSINGLEVALUE('Category',$,IFCLABEL('terrace'),$);
#204=IFCPROPERTYSINGLEVALUE('SourceElementName',$,IFCLABEL('\X2\AE30BCF8\X0\ \X2\BCBD\X0\:\X2\C77CBC18\X0\ - 200mm:153473'),$);
#205=IFCPROPERTYSINGLEVALUE('SourceGlobalId',$,IFCLABEL('2znubWhPDD4wn7Fg4E24k8'),$);
#206=IFCPROPERTYSINGLEVALUE('Reusable',$,IFCBOOLEAN(.T.),$);
#207=IFCPROPERTYSINGLEVALUE('WidthMm',$,IFCREAL(6494.223),$);
#208=IFCPROPERTYSINGLEVALUE('DepthMm',$,IFCREAL(1380.),$);
#209=IFCPROPERTYSINGLEVALUE('HeightMm',$,IFCREAL(1620.),$);
#210=IFCOWNERHISTORY(#14,#17,.READWRITE.,.ADDED.,1778817242,#14,#17,1778817242);
#211=IFCPROPERTYSET('2NnwwpJW52OP3ia0n84ovx',#210,'Pset_LibraryAsset',$,(#214,#215,#216,#217,#218,#219,#220,#221,#222,#223));
#212=IFCOWNERHISTORY(#14,#17,.READWRITE.,.ADDED.,1778817242,#14,#17,1778817242);
#213=IFCRELDEFINESBYPROPERTIES('2_exd9JlD3zeNq7l2kU6ys',#212,$,$,(#63),#211);
#214=IFCPROPERTYSINGLEVALUE('AssetId',$,IFCLABEL('terrace'),$);
#215=IFCPROPERTYSINGLEVALUE('AssetGroup',$,IFCLABEL('terrace'),$);
#216=IFCPROPERTYSINGLEVALUE('AssetRole',$,IFCLABEL('member-2'),$);
#217=IFCPROPERTYSINGLEVALUE('Category',$,IFCLABEL('terrace'),$);
#218=IFCPROPERTYSINGLEVALUE('SourceElementName',$,IFCLABEL('\X2\AE30BCF8\X0\ \X2\BCBD\X0\:\X2\C77CBC18\X0\ - 200mm:154109'),$);
#219=IFCPROPERTYSINGLEVALUE('SourceGlobalId',$,IFCLABEL('2znubWhPDD4wn7Fg4E24Nq'),$);
#220=IFCPROPERTYSINGLEVALUE('Reusable',$,IFCBOOLEAN(.T.),$);
#221=IFCPROPERTYSINGLEVALUE('WidthMm',$,IFCREAL(6494.223),$);
#222=IFCPROPERTYSINGLEVALUE('DepthMm',$,IFCREAL(1380.),$);
#223=IFCPROPERTYSINGLEVALUE('HeightMm',$,IFCREAL(1620.),$);
#224=IFCOWNERHISTORY(#14,#17,.READWRITE.,.ADDED.,1778817242,#14,#17,1778817242);
#225=IFCPROPERTYSET('1SJ_ooDmLE9xmWpZ_ngQgc',#224,'Pset_LibraryAsset',$,(#228,#229,#230,#231,#232,#233,#234,#235,#236,#237));
#226=IFCOWNERHISTORY(#14,#17,.READWRITE.,.ADDED.,1778817242,#14,#17,1778817242);
#227=IFCRELDEFINESBYPROPERTIES('22kWa58En9fA5qKnh23eaC',#226,$,$,(#143),#225);
#228=IFCPROPERTYSINGLEVALUE('AssetId',$,IFCLABEL('terrace'),$);
#229=IFCPROPERTYSINGLEVALUE('AssetGroup',$,IFCLABEL('terrace'),$);
#230=IFCPROPERTYSINGLEVALUE('AssetRole',$,IFCLABEL('member-3'),$);
#231=IFCPROPERTYSINGLEVALUE('Category',$,IFCLABEL('terrace'),$);
#232=IFCPROPERTYSINGLEVALUE('SourceElementName',$,IFCLABEL('Terrace floor'),$);
#233=IFCPROPERTYSINGLEVALUE('SourceGlobalId',$,IFCLABEL(''),$);
#234=IFCPROPERTYSINGLEVALUE('Reusable',$,IFCBOOLEAN(.T.),$);
#235=IFCPROPERTYSINGLEVALUE('WidthMm',$,IFCREAL(6494.223),$);
#236=IFCPROPERTYSINGLEVALUE('DepthMm',$,IFCREAL(1380.),$);
#237=IFCPROPERTYSINGLEVALUE('HeightMm',$,IFCREAL(1620.),$);
ENDSEC;
END-ISO-10303-21;
