ISO-10303-21;
HEADER;
FILE_DESCRIPTION(('ViewDefinition [CoordinationView]'),'2;1');
FILE_NAME('','2026-05-14T22:38:06',(''),(''),'IfcOpenShell 0.8.5-1c5b825','IfcOpenShell 0.8.5-1c5b825','');
FILE_SCHEMA(('IFC4'));
ENDSEC;
DATA;
#1=IFCPROJECT('2piezIQfrDmgalBSKneRqu',$,'window-149306 Asset Library',$,$,$,$,$,#5);
#2=IFCSIUNIT(*,.LENGTHUNIT.,.MILLI.,.METRE.);
#3=IFCSIUNIT(*,.AREAUNIT.,$,.SQUARE_METRE.);
#4=IFCSIUNIT(*,.VOLUMEUNIT.,$,.CUBIC_METRE.);
#5=IFCUNITASSIGNMENT((#3,#4,#2));
#6=IFCSITE('3Xbk6VH4b9cvZ94r9G03ah',$,'Asset Site',$,$,$,$,$,$,$,$,$,$,$);
#7=IFCBUILDING('1ukusvQbv8CB7yURMkXihA',$,'Asset Building',$,$,$,$,$,$,$,$,$);
#8=IFCBUILDINGSTOREY('0GKoPzT3j468DWfHMyv62h',$,'Asset Storey',$,$,$,$,$,$,$);
#9=IFCRELAGGREGATES('253DaxGc9E1fmrSjRWvL5G',$,$,$,#1,(#6));
#10=IFCRELAGGREGATES('0_0BIbNE95NfG$_HGMqw2D',$,$,$,#6,(#7));
#11=IFCRELAGGREGATES('3ZNLakEuz8mghjOouMMiym',$,$,$,#7,(#8));
#12=IFCWINDOW('2znubWhPDD4wn7Fg4E25ip',#128,'\X2\ACE0C815B428\X0\:0406 x 1220mm:149306',$,$,#133,#37,'149306',1219.9999999999977,406.00000000000085,$,$,$);
#13=IFCOWNERHISTORY(#14,#17,$,.NOCHANGE.,$,$,$,1778487490);
#14=IFCPERSONANDORGANIZATION(#15,#16,$);
#15=IFCPERSON($,'','hnn06134',$,$,$,$,$);
#16=IFCORGANIZATION($,'','',$,$);
#17=IFCAPPLICATION(#18,'2027','Autodesk Revit 2027 (KOR)','Revit');
#18=IFCORGANIZATION($,'Autodesk Revit 2027 (KOR)',$,$,$);
#20=IFCLOCALPLACEMENT(#21,#33);
#21=IFCLOCALPLACEMENT(#22,#29);
#22=IFCLOCALPLACEMENT(#23,#28);
#23=IFCLOCALPLACEMENT(#24,#27);
#24=IFCLOCALPLACEMENT($,#25);
#25=IFCAXIS2PLACEMENT3D(#26,$,$);
#26=IFCCARTESIANPOINT((0.,0.,0.));
#27=IFCAXIS2PLACEMENT3D(#26,$,$);
#28=IFCAXIS2PLACEMENT3D(#26,$,$);
#29=IFCAXIS2PLACEMENT3D(#30,#31,#32);
#30=IFCCARTESIANPOINT((5590.5208465132628,-6290.7448659670181,0.));
#31=IFCDIRECTION((0.,0.,1.));
#32=IFCDIRECTION((0.,-1.,0.));
#33=IFCAXIS2PLACEMENT3D(#34,$,$);
#34=IFCCARTESIANPOINT((5916.219027842345,100.,915.));
#37=IFCPRODUCTDEFINITIONSHAPE($,$,(#38));
#38=IFCSHAPEREPRESENTATION(#39,'Body','MappedRepresentation',(#43));
#39=IFCGEOMETRICREPRESENTATIONSUBCONTEXT('Body','Model',*,*,*,*,#40,$,.MODEL_VIEW.,$);
#40=IFCGEOMETRICREPRESENTATIONCONTEXT($,'Model',3,0.01,#41,#42);
#41=IFCAXIS2PLACEMENT3D(#26,$,$);
#42=IFCDIRECTION((0.,1.));
#43=IFCMAPPEDITEM(#44,#98);
#44=IFCREPRESENTATIONMAP(#45,#46);
#45=IFCAXIS2PLACEMENT3D(#26,$,$);
#46=IFCSHAPEREPRESENTATION(#39,'Body','SweptSolid',(#47,#54,#70,#84));
#47=IFCEXTRUDEDAREASOLID(#48,#52,#31,1094.0000000000068);
#48=IFCRECTANGLEPROFILEDEF(.AREA.,'0406 x 1220mm',#49,11.999999999999996,279.99999999999733);
#49=IFCAXIS2PLACEMENT2D(#50,#51);
#50=IFCCARTESIANPOINT((8.4376949871511897E-15,0.));
#51=IFCDIRECTION((1.,0.));
#52=IFCAXIS2PLACEMENT3D(#53,#31,#32);
#53=IFCCARTESIANPOINT((203.,159.,63.));
#54=IFCEXTRUDEDAREASOLID(#55,#66,#31,44.000000000027441);
#55=IFCARBITRARYPROFILEDEFWITHVOIDS(.AREA.,'0406 x 1220mm',#56,(#61));
#56=IFCPOLYLINE((#57,#58,#59,#60,#57));
#57=IFCCARTESIANPOINT((-184.,-591.));
#58=IFCCARTESIANPOINT((184.,-591.));
#59=IFCCARTESIANPOINT((184.,591.));
#60=IFCCARTESIANPOINT((-184.,591.));
#61=IFCPOLYLINE((#62,#63,#64,#65,#62));
#62=IFCCARTESIANPOINT((-140.,-547.));
#63=IFCCARTESIANPOINT((-140.,547.));
#64=IFCCARTESIANPOINT((140.,547.));
#65=IFCCARTESIANPOINT((140.,-547.));
#66=IFCAXIS2PLACEMENT3D(#67,#68,#69);
#67=IFCCARTESIANPOINT((203.,137.,610.));
#68=IFCDIRECTION((0.,1.,0.));
#69=IFCDIRECTION((1.,0.,0.));
#70=IFCEXTRUDEDAREASOLID(#71,#82,#31,63.000000000027434);
#71=IFCARBITRARYPROFILEDEFWITHVOIDS(.AREA.,'0406 x 1220mm',#72,(#77));
#72=IFCPOLYLINE((#73,#74,#75,#76,#73));
#73=IFCCARTESIANPOINT((-203.,-610.));
#74=IFCCARTESIANPOINT((203.,-610.));
#75=IFCCARTESIANPOINT((203.,610.));
#76=IFCCARTESIANPOINT((-203.,610.));
#77=IFCPOLYLINE((#78,#79,#80,#81,#78));
#78=IFCCARTESIANPOINT((-184.,-591.));
#79=IFCCARTESIANPOINT((-184.,591.));
#80=IFCCARTESIANPOINT((184.,591.));
#81=IFCCARTESIANPOINT((184.,-591.));
#82=IFCAXIS2PLACEMENT3D(#83,#68,#69);
#83=IFCCARTESIANPOINT((203.,137.,610.));
#84=IFCEXTRUDEDAREASOLID(#85,#96,#31,136.99999999997257);
#85=IFCARBITRARYPROFILEDEFWITHVOIDS(.AREA.,'0406 x 1220mm',#86,(#91));
#86=IFCPOLYLINE((#87,#88,#89,#90,#87));
#87=IFCCARTESIANPOINT((-203.,-610.));
#88=IFCCARTESIANPOINT((203.,-610.));
#89=IFCCARTESIANPOINT((203.,610.));
#90=IFCCARTESIANPOINT((-203.,610.));
#91=IFCPOLYLINE((#92,#93,#94,#95,#92));
#92=IFCCARTESIANPOINT((-171.,-578.));
#93=IFCCARTESIANPOINT((-171.,578.));
#94=IFCCARTESIANPOINT((171.,578.));
#95=IFCCARTESIANPOINT((171.,-578.));
#96=IFCAXIS2PLACEMENT3D(#97,#68,#69);
#97=IFCCARTESIANPOINT((203.,0.,610.));
#98=IFCCARTESIANTRANSFORMATIONOPERATOR3D($,$,#26,1.,$);
#99=IFCMATERIALLIST((#100,#101));
#100=IFCMATERIAL('\X2\C720B9AC\X0\',$,$);
#101=IFCMATERIAL('\X2\C100C2DC\X0\',$,$);
#102=IFCRELASSOCIATESMATERIAL('0$dE8Ya3r03ugcID9m02tW',$,$,$,(#12),#99);
#103=IFCPROPERTYSET('3g6va_d3j1DRD_Ea4Ie5$_',#13,'Pset_QuantityTakeOff',$,(#104));
#104=IFCPROPERTYSINGLEVALUE('Reference',$,IFCIDENTIFIER('0406 x 1220mm'),$);
#105=IFCRELDEFINESBYPROPERTIES('2QoZj82n52oexcVBL5uC8M',$,$,$,(#12),#103);
#106=IFCPROPERTYSET('18FmUGmFLCoBDVLXo7msPB',#13,'Pset_WindowCommon',$,(#107,#104));
#107=IFCPROPERTYSINGLEVALUE('IsExternal',$,IFCBOOLEAN(.T.),$);
#108=IFCRELDEFINESBYPROPERTIES('1nbmmWXQ5BZQF7OLA6IFJ8',$,$,$,(#12),#106);
#109=IFCSTYLEDITEM(#47,(#110),$);
#110=IFCPRESENTATIONSTYLEASSIGNMENT((#111));
#111=IFCSURFACESTYLE('\X2\C720B9AC\X0\',.BOTH.,(#112));
#112=IFCSURFACESTYLERENDERING(#113,0.90000000000000002,$,$,$,$,IFCNORMALISEDRATIOMEASURE(0.5),IFCSPECULAREXPONENT(12.),.NOTDEFINED.);
#113=IFCCOLOURRGB($,0.,0.50196078431372548,0.75294117647058822);
#114=IFCSTYLEDITEM(#54,(#115),$);
#115=IFCPRESENTATIONSTYLEASSIGNMENT((#116));
#116=IFCSURFACESTYLE('\X2\C100C2DC\X0\',.BOTH.,(#117));
#117=IFCSURFACESTYLERENDERING(#118,0.,$,$,$,$,IFCNORMALISEDRATIOMEASURE(0.5),IFCSPECULAREXPONENT(128.),.NOTDEFINED.);
#118=IFCCOLOURRGB($,0.8784313725490196,0.69803921568627447,0.49411764705882355);
#119=IFCSTYLEDITEM(#70,(#115),$);
#120=IFCSTYLEDITEM(#84,(#115),$);
#121=IFCOWNERHISTORY(#14,#17,.READWRITE.,.ADDED.,1778765886,#14,#17,1778765886);
#122=IFCRELCONTAINEDINSPATIALSTRUCTURE('1AOw87_yv1Qe59hfd0UAXO',#121,$,$,(#12),#8);
#128=IFCOWNERHISTORY(#14,#17,$,.MODIFIED.,1778765886,#14,#17,1778487490);
#129=IFCCARTESIANPOINT((200.00000000002819,0.,1.1368683772161603E-13));
#130=IFCDIRECTION((0.,0.,1.));
#131=IFCDIRECTION((0.,1.,0.));
#132=IFCAXIS2PLACEMENT3D(#129,#130,#131);
#133=IFCLOCALPLACEMENT($,#132);
#134=IFCOWNERHISTORY(#14,#17,.READWRITE.,.ADDED.,1778765886,#14,#17,1778765886);
#135=IFCPROPERTYSET('1i_W6XOwrC3BK7IipUXDG9',#134,'Pset_LibraryAsset',$,(#138,#139,#140,#141,#142,#143,#144,#145,#146,#147));
#136=IFCOWNERHISTORY(#14,#17,.READWRITE.,.ADDED.,1778765886,#14,#17,1778765886);
#137=IFCRELDEFINESBYPROPERTIES('146UY$cpv4T84AsS6PNFU3',#136,$,$,(#12),#135);
#138=IFCPROPERTYSINGLEVALUE('AssetId',$,IFCLABEL('window-149306'),$);
#139=IFCPROPERTYSINGLEVALUE('AssetGroup',$,IFCLABEL('window-149306'),$);
#140=IFCPROPERTYSINGLEVALUE('AssetRole',$,IFCLABEL('member-0'),$);
#141=IFCPROPERTYSINGLEVALUE('Category',$,IFCLABEL('window'),$);
#142=IFCPROPERTYSINGLEVALUE('SourceElementName',$,IFCLABEL('\X2\ACE0C815B428\X0\:0406 x 1220mm:149306'),$);
#143=IFCPROPERTYSINGLEVALUE('SourceGlobalId',$,IFCLABEL('2znubWhPDD4wn7Fg4E25ip'),$);
#144=IFCPROPERTYSINGLEVALUE('Reusable',$,IFCBOOLEAN(.T.),$);
#145=IFCPROPERTYSINGLEVALUE('WidthMm',$,IFCREAL(200.),$);
#146=IFCPROPERTYSINGLEVALUE('DepthMm',$,IFCREAL(406.),$);
#147=IFCPROPERTYSINGLEVALUE('HeightMm',$,IFCREAL(1220.),$);
ENDSEC;
END-ISO-10303-21;
