ISO-10303-21;
HEADER;
FILE_DESCRIPTION(('ViewDefinition [CoordinationView]'),'2;1');
FILE_NAME('','2026-05-15T08:53:13',(''),(''),'IfcOpenShell 0.8.5-1c5b825','IfcOpenShell 0.8.5-1c5b825','');
FILE_SCHEMA(('IFC4'));
ENDSEC;
DATA;
#1=IFCPROJECT('3cynq0h$563R4hrHaD6poD',$,'window-148065 Asset Library',$,$,$,$,$,#5);
#2=IFCSIUNIT(*,.LENGTHUNIT.,.MILLI.,.METRE.);
#3=IFCSIUNIT(*,.AREAUNIT.,$,.SQUARE_METRE.);
#4=IFCSIUNIT(*,.VOLUMEUNIT.,$,.CUBIC_METRE.);
#5=IFCUNITASSIGNMENT((#4,#2,#3));
#6=IFCSITE('1b$DNRIVTAUwjVfwfYTMru',$,'Asset Site',$,$,$,$,$,$,$,$,$,$,$);
#7=IFCBUILDING('3fBxHMHW129xD10h494$JA',$,'Asset Building',$,$,$,$,$,$,$,$,$);
#8=IFCBUILDINGSTOREY('2BuwlYrSr2HQWhfgntHJxi',$,'Asset Storey',$,$,$,$,$,$,$);
#9=IFCRELAGGREGATES('1eg5VIIV50SfMmVVoqMDOg',$,$,$,#1,(#6));
#10=IFCRELAGGREGATES('2psHZylxbEle4Cl38$tscm',$,$,$,#6,(#7));
#11=IFCRELAGGREGATES('2nThYd6TfDhvgJSj6mDTZ6',$,$,$,#7,(#8));
#12=IFCWINDOW('1yEZEfvWfBzB5vUWW4sfrV',#143,'\X2\ACE0C815B428\X0\:0406 x 1220mm:148065',$,$,#163,#37,'148065',1219.9999999999977,405.99999999999977,$,$,$);
#13=IFCOWNERHISTORY(#14,#17,$,.NOCHANGE.,$,$,$,1778487490);
#14=IFCPERSONANDORGANIZATION(#15,#16,$);
#15=IFCPERSON($,'','hnn06134',$,$,$,$,$);
#16=IFCORGANIZATION($,'','',$,$);
#17=IFCAPPLICATION(#18,'2027','Autodesk Revit 2027 (KOR)','Revit');
#18=IFCORGANIZATION($,'Autodesk Revit 2027 (KOR)',$,$,$);
#21=IFCLOCALPLACEMENT(#22,#29);
#22=IFCLOCALPLACEMENT(#23,#28);
#23=IFCLOCALPLACEMENT(#24,#27);
#24=IFCLOCALPLACEMENT($,#25);
#25=IFCAXIS2PLACEMENT3D(#26,$,$);
#26=IFCCARTESIANPOINT((0.,0.,0.));
#27=IFCAXIS2PLACEMENT3D(#26,$,$);
#28=IFCAXIS2PLACEMENT3D(#26,$,$);
#29=IFCAXIS2PLACEMENT3D(#30,#31,#32);
#30=IFCCARTESIANPOINT((8290.5208465132691,-2864.6438757783503,0.));
#31=IFCDIRECTION((0.,0.,1.));
#32=IFCDIRECTION((0.,-1.,0.));
#37=IFCPRODUCTDEFINITIONSHAPE($,$,(#38));
#38=IFCSHAPEREPRESENTATION(#39,'Body','MappedRepresentation',(#43));
#39=IFCGEOMETRICREPRESENTATIONSUBCONTEXT('Body','Model',*,*,*,*,#40,$,.MODEL_VIEW.,$);
#40=IFCGEOMETRICREPRESENTATIONCONTEXT($,'Model',3,0.01,#41,#42);
#41=IFCAXIS2PLACEMENT3D(#26,$,$);
#42=IFCDIRECTION((0.,1.));
#43=IFCMAPPEDITEM(#44,#98);
#44=IFCREPRESENTATIONMAP(#45,#46);
#45=IFCAXIS2PLACEMENT3D(#26,$,$);
#46=IFCSHAPEREPRESENTATION(#39,'Body','SweptSolid',(#47,#54,#70,#84));
#47=IFCEXTRUDEDAREASOLID(#48,#52,#31,1094.0000000000068);
#48=IFCRECTANGLEPROFILEDEF(.AREA.,'0406 x 1220mm',#49,11.999999999999996,279.99999999999733);
#49=IFCAXIS2PLACEMENT2D(#50,#51);
#50=IFCCARTESIANPOINT((8.4376949871511897E-15,0.));
#51=IFCDIRECTION((1.,0.));
#52=IFCAXIS2PLACEMENT3D(#53,#31,#32);
#53=IFCCARTESIANPOINT((203.,159.,63.));
#54=IFCEXTRUDEDAREASOLID(#55,#66,#31,44.000000000027441);
#55=IFCARBITRARYPROFILEDEFWITHVOIDS(.AREA.,'0406 x 1220mm',#56,(#61));
#56=IFCPOLYLINE((#57,#58,#59,#60,#57));
#57=IFCCARTESIANPOINT((-184.,-591.));
#58=IFCCARTESIANPOINT((184.,-591.));
#59=IFCCARTESIANPOINT((184.,591.));
#60=IFCCARTESIANPOINT((-184.,591.));
#61=IFCPOLYLINE((#62,#63,#64,#65,#62));
#62=IFCCARTESIANPOINT((-140.,-547.));
#63=IFCCARTESIANPOINT((-140.,547.));
#64=IFCCARTESIANPOINT((140.,547.));
#65=IFCCARTESIANPOINT((140.,-547.));
#66=IFCAXIS2PLACEMENT3D(#67,#68,#69);
#67=IFCCARTESIANPOINT((203.,137.,610.));
#68=IFCDIRECTION((0.,1.,0.));
#69=IFCDIRECTION((1.,0.,0.));
#70=IFCEXTRUDEDAREASOLID(#71,#82,#31,63.000000000027434);
#71=IFCARBITRARYPROFILEDEFWITHVOIDS(.AREA.,'0406 x 1220mm',#72,(#77));
#72=IFCPOLYLINE((#73,#74,#75,#76,#73));
#73=IFCCARTESIANPOINT((-203.,-610.));
#74=IFCCARTESIANPOINT((203.,-610.));
#75=IFCCARTESIANPOINT((203.,610.));
#76=IFCCARTESIANPOINT((-203.,610.));
#77=IFCPOLYLINE((#78,#79,#80,#81,#78));
#78=IFCCARTESIANPOINT((-184.,-591.));
#79=IFCCARTESIANPOINT((-184.,591.));
#80=IFCCARTESIANPOINT((184.,591.));
#81=IFCCARTESIANPOINT((184.,-591.));
#82=IFCAXIS2PLACEMENT3D(#83,#68,#69);
#83=IFCCARTESIANPOINT((203.,137.,610.));
#84=IFCEXTRUDEDAREASOLID(#85,#96,#31,136.99999999997257);
#85=IFCARBITRARYPROFILEDEFWITHVOIDS(.AREA.,'0406 x 1220mm',#86,(#91));
#86=IFCPOLYLINE((#87,#88,#89,#90,#87));
#87=IFCCARTESIANPOINT((-203.,-610.));
#88=IFCCARTESIANPOINT((203.,-610.));
#89=IFCCARTESIANPOINT((203.,610.));
#90=IFCCARTESIANPOINT((-203.,610.));
#91=IFCPOLYLINE((#92,#93,#94,#95,#92));
#92=IFCCARTESIANPOINT((-171.,-578.));
#93=IFCCARTESIANPOINT((-171.,578.));
#94=IFCCARTESIANPOINT((171.,578.));
#95=IFCCARTESIANPOINT((171.,-578.));
#96=IFCAXIS2PLACEMENT3D(#97,#68,#69);
#97=IFCCARTESIANPOINT((203.,0.,610.));
#98=IFCCARTESIANTRANSFORMATIONOPERATOR3D($,$,#26,1.,$);
#99=IFCOPENINGELEMENT('2O0GYu2YnE4OB4GjDducqt',#137,'\X2\ACE0C815B428\X0\:0406 x 1220mm:148065:1',$,'Opening',#158,#100,'148065',$);
#100=IFCPRODUCTDEFINITIONSHAPE($,$,(#101));
#101=IFCSHAPEREPRESENTATION(#39,'Body','SweptSolid',(#102));
#102=IFCEXTRUDEDAREASOLID(#103,#106,#31,200.);
#103=IFCRECTANGLEPROFILEDEF(.AREA.,$,#104,1219.9999999999977,405.99999999999977);
#104=IFCAXIS2PLACEMENT2D(#105,#51);
#105=IFCCARTESIANPOINT((609.99999999999886,202.99999999999989));
#106=IFCAXIS2PLACEMENT3D(#26,#32,#31);
#107=IFCMATERIALLIST((#108,#109));
#108=IFCMATERIAL('\X2\C720B9AC\X0\',$,$);
#109=IFCMATERIAL('\X2\C100C2DC\X0\',$,$);
#110=IFCRELASSOCIATESMATERIAL('0Zplwg47L5tuwVqpLtT3Nv',$,$,$,(#12),#107);
#111=IFCPROPERTYSET('23oQuI4Yr8HgnRIvqoxF25',#13,'Pset_QuantityTakeOff',$,(#112));
#112=IFCPROPERTYSINGLEVALUE('Reference',$,IFCIDENTIFIER('0406 x 1220mm'),$);
#113=IFCRELDEFINESBYPROPERTIES('2yPX6eexz3mBIzNOs1Agfw',$,$,$,(#12),#111);
#114=IFCPROPERTYSET('2Asxw3vL13iQTu6YJV1Udx',#13,'Pset_WindowCommon',$,(#115,#112));
#115=IFCPROPERTYSINGLEVALUE('IsExternal',$,IFCBOOLEAN(.T.),$);
#116=IFCRELDEFINESBYPROPERTIES('2YWpOAiSH1tAKBm$0PSsk6',$,$,$,(#12),#114);
#117=IFCSTYLEDITEM(#47,(#118),$);
#118=IFCPRESENTATIONSTYLEASSIGNMENT((#119));
#119=IFCSURFACESTYLE('\X2\C720B9AC\X0\',.BOTH.,(#120));
#120=IFCSURFACESTYLERENDERING(#121,0.90000000000000002,$,$,$,$,IFCNORMALISEDRATIOMEASURE(0.5),IFCSPECULAREXPONENT(12.),.NOTDEFINED.);
#121=IFCCOLOURRGB($,0.,0.50196078431372548,0.75294117647058822);
#122=IFCSTYLEDITEM(#54,(#123),$);
#123=IFCPRESENTATIONSTYLEASSIGNMENT((#124));
#124=IFCSURFACESTYLE('\X2\C100C2DC\X0\',.BOTH.,(#125));
#125=IFCSURFACESTYLERENDERING(#126,0.,$,$,$,$,IFCNORMALISEDRATIOMEASURE(0.5),IFCSPECULAREXPONENT(128.),.NOTDEFINED.);
#126=IFCCOLOURRGB($,0.8784313725490196,0.69803921568627447,0.49411764705882355);
#127=IFCSTYLEDITEM(#70,(#123),$);
#128=IFCSTYLEDITEM(#84,(#123),$);
#129=IFCRELFILLSELEMENT('1GlJHelC9DzgJ6jMpbm2L8',$,$,$,#99,#12);
#130=IFCOWNERHISTORY(#14,#17,.READWRITE.,.ADDED.,1778802793,#14,#17,1778802793);
#131=IFCRELCONTAINEDINSPATIALSTRUCTURE('1_ErnZAHnBOgtbeNohc53t',#130,$,$,(#99,#12),#8);
#137=IFCOWNERHISTORY(#14,#17,$,.MODIFIED.,1778802793,#14,#17,1778487490);
#143=IFCOWNERHISTORY(#14,#17,$,.MODIFIED.,1778802793,#14,#17,1778487490);
#154=IFCCARTESIANPOINT((200.00000000002771,0.,1.1102230246251565E-13));
#155=IFCDIRECTION((0.,0.,1.));
#156=IFCDIRECTION((0.,-1.,0.));
#157=IFCAXIS2PLACEMENT3D(#154,#155,#156);
#158=IFCLOCALPLACEMENT($,#157);
#159=IFCCARTESIANPOINT((0.,4.9960036108132044E-13,2.6645352591003781E-15));
#160=IFCDIRECTION((0.,0.,1.));
#161=IFCDIRECTION((-1.,0.,0.));
#162=IFCAXIS2PLACEMENT3D(#159,#160,#161);
#163=IFCLOCALPLACEMENT(#158,#162);
#164=IFCOWNERHISTORY(#14,#17,.READWRITE.,.ADDED.,1778802793,#14,#17,1778802793);
#165=IFCPROPERTYSET('0MDvUMpuf9uvVE6q4xieKr',#164,'Pset_LibraryAsset',$,(#168,#169,#170,#171,#172,#173,#174,#175,#176,#177));
#166=IFCOWNERHISTORY(#14,#17,.READWRITE.,.ADDED.,1778802793,#14,#17,1778802793);
#167=IFCRELDEFINESBYPROPERTIES('3Pd$QYSCn64uClu5v5xwSK',#166,$,$,(#12),#165);
#168=IFCPROPERTYSINGLEVALUE('AssetId',$,IFCLABEL('window-148065'),$);
#169=IFCPROPERTYSINGLEVALUE('AssetGroup',$,IFCLABEL('window-148065'),$);
#170=IFCPROPERTYSINGLEVALUE('AssetRole',$,IFCLABEL('member-0'),$);
#171=IFCPROPERTYSINGLEVALUE('Category',$,IFCLABEL('window'),$);
#172=IFCPROPERTYSINGLEVALUE('SourceElementName',$,IFCLABEL('\X2\ACE0C815B428\X0\:0406 x 1220mm:148065'),$);
#173=IFCPROPERTYSINGLEVALUE('SourceGlobalId',$,IFCLABEL('2znubWhPDD4wn7Fg4E25ve'),$);
#174=IFCPROPERTYSINGLEVALUE('Reusable',$,IFCBOOLEAN(.T.),$);
#175=IFCPROPERTYSINGLEVALUE('WidthMm',$,IFCREAL(200.),$);
#176=IFCPROPERTYSINGLEVALUE('DepthMm',$,IFCREAL(406.),$);
#177=IFCPROPERTYSINGLEVALUE('HeightMm',$,IFCREAL(1220.),$);
#178=IFCOWNERHISTORY(#14,#17,.READWRITE.,.ADDED.,1778802793,#14,#17,1778802793);
#179=IFCPROPERTYSET('2OtB8URLP2zevaDdKjNUzp',#178,'Pset_LibraryAsset',$,(#182,#183,#184,#185,#186,#187,#188,#189,#190,#191,#192));
#180=IFCOWNERHISTORY(#14,#17,.READWRITE.,.ADDED.,1778802793,#14,#17,1778802793);
#181=IFCRELDEFINESBYPROPERTIES('3s23m05vP1TgAKhRhkHw6i',#180,$,$,(#99),#179);
#182=IFCPROPERTYSINGLEVALUE('AssetId',$,IFCLABEL('window-148065'),$);
#183=IFCPROPERTYSINGLEVALUE('AssetGroup',$,IFCLABEL('window-148065'),$);
#184=IFCPROPERTYSINGLEVALUE('AssetRole',$,IFCLABEL('member-1'),$);
#185=IFCPROPERTYSINGLEVALUE('Category',$,IFCLABEL('window'),$);
#186=IFCPROPERTYSINGLEVALUE('SourceElementName',$,IFCLABEL('\X2\ACE0C815B428\X0\:0406 x 1220mm:148065:1'),$);
#187=IFCPROPERTYSINGLEVALUE('SourceGlobalId',$,IFCLABEL('1RYtR0jpXOKatp6y8eD2Sr'),$);
#188=IFCPROPERTYSINGLEVALUE('Reusable',$,IFCBOOLEAN(.T.),$);
#189=IFCPROPERTYSINGLEVALUE('OpeningImportPolicy',$,IFCLABEL('recreate_host_void_on_import'),$);
#190=IFCPROPERTYSINGLEVALUE('WidthMm',$,IFCREAL(200.),$);
#191=IFCPROPERTYSINGLEVALUE('DepthMm',$,IFCREAL(406.),$);
#192=IFCPROPERTYSINGLEVALUE('HeightMm',$,IFCREAL(1220.),$);
ENDSEC;
END-ISO-10303-21;
