ISO-10303-21;
HEADER;
FILE_DESCRIPTION(('ViewDefinition [CoordinationView]'),'2;1');
FILE_NAME('','2026-05-15T08:53:14',(''),(''),'IfcOpenShell 0.8.5-1c5b825','IfcOpenShell 0.8.5-1c5b825','');
FILE_SCHEMA(('IFC4'));
ENDSEC;
DATA;
#1=IFCPROJECT('17VXOHUMH18gzifeFA1D12',$,'window-150077 Asset Library',$,$,$,$,$,#5);
#2=IFCSIUNIT(*,.LENGTHUNIT.,.MILLI.,.METRE.);
#3=IFCSIUNIT(*,.AREAUNIT.,$,.SQUARE_METRE.);
#4=IFCSIUNIT(*,.VOLUMEUNIT.,$,.CUBIC_METRE.);
#5=IFCUNITASSIGNMENT((#4,#2,#3));
#6=IFCSITE('0tYEdhnGX9LeL9acVBtOfs',$,'Asset Site',$,$,$,$,$,$,$,$,$,$,$);
#7=IFCBUILDING('2dMK1049jAZxXrPn4pODLb',$,'Asset Building',$,$,$,$,$,$,$,$,$);
#8=IFCBUILDINGSTOREY('3v5ilJfzDERORSxGe0OnNp',$,'Asset Storey',$,$,$,$,$,$,$);
#9=IFCRELAGGREGATES('2hfs74JRb2xQb83op08jj5',$,$,$,#1,(#6));
#10=IFCRELAGGREGATES('1qf$6hrzb9YhqyW41nI29k',$,$,$,#6,(#7));
#11=IFCRELAGGREGATES('1UyQyVbFj9NwrzShy1872u',$,$,$,#7,(#8));
#12=IFCWINDOW('07bvoEJQ1FIuzycsRBeSgT',#136,'\X2\ACE0C815B428\X0\:0406 x 0610mm:150077',$,$,#162,#36,'150077',1999.9999999999952,1899.9999999999991,$,$,$);
#13=IFCOWNERHISTORY(#14,#17,$,.NOCHANGE.,$,$,$,1778487490);
#14=IFCPERSONANDORGANIZATION(#15,#16,$);
#15=IFCPERSON($,'','hnn06134',$,$,$,$,$);
#16=IFCORGANIZATION($,'','',$,$);
#17=IFCAPPLICATION(#18,'2027','Autodesk Revit 2027 (KOR)','Revit');
#18=IFCORGANIZATION($,'Autodesk Revit 2027 (KOR)',$,$,$);
#21=IFCLOCALPLACEMENT(#22,#29);
#22=IFCLOCALPLACEMENT(#23,#28);
#23=IFCLOCALPLACEMENT(#24,#27);
#24=IFCLOCALPLACEMENT($,#25);
#25=IFCAXIS2PLACEMENT3D(#26,$,$);
#26=IFCCARTESIANPOINT((0.,0.,0.));
#27=IFCAXIS2PLACEMENT3D(#26,$,$);
#28=IFCAXIS2PLACEMENT3D(#26,$,$);
#29=IFCAXIS2PLACEMENT3D(#30,#31,#32);
#30=IFCCARTESIANPOINT((-4448.4848517218215,-13139.15849836286,0.));
#31=IFCDIRECTION((0.,0.,1.));
#32=IFCDIRECTION((0.,1.,0.));
#36=IFCPRODUCTDEFINITIONSHAPE($,$,(#37));
#37=IFCSHAPEREPRESENTATION(#38,'Body','MappedRepresentation',(#42));
#38=IFCGEOMETRICREPRESENTATIONSUBCONTEXT('Body','Model',*,*,*,*,#39,$,.MODEL_VIEW.,$);
#39=IFCGEOMETRICREPRESENTATIONCONTEXT($,'Model',3,0.01,#40,#41);
#40=IFCAXIS2PLACEMENT3D(#26,$,$);
#41=IFCDIRECTION((0.,1.));
#42=IFCMAPPEDITEM(#43,#97);
#43=IFCREPRESENTATIONMAP(#44,#45);
#44=IFCAXIS2PLACEMENT3D(#26,$,$);
#45=IFCSHAPEREPRESENTATION(#38,'Body','SweptSolid',(#46,#54,#69,#83));
#46=IFCEXTRUDEDAREASOLID(#47,#51,#31,1874.0000000000043);
#47=IFCRECTANGLEPROFILEDEF(.AREA.,'0406 x 0610mm',#48,11.999999999999996,1773.9999999999959);
#48=IFCAXIS2PLACEMENT2D(#49,#50);
#49=IFCCARTESIANPOINT((8.4376949871511897E-15,0.));
#50=IFCDIRECTION((1.,0.));
#51=IFCAXIS2PLACEMENT3D(#52,#31,#53);
#52=IFCCARTESIANPOINT((950.,159.,63.));
#53=IFCDIRECTION((0.,-1.,0.));
#54=IFCEXTRUDEDAREASOLID(#55,#66,#31,44.000000000027441);
#55=IFCARBITRARYPROFILEDEFWITHVOIDS(.AREA.,'0406 x 0610mm',#56,(#61));
#56=IFCPOLYLINE((#57,#58,#59,#60,#57));
#57=IFCCARTESIANPOINT((-931.,-981.));
#58=IFCCARTESIANPOINT((931.,-981.));
#59=IFCCARTESIANPOINT((931.,981.));
#60=IFCCARTESIANPOINT((-931.,981.));
#61=IFCPOLYLINE((#62,#63,#64,#65,#62));
#62=IFCCARTESIANPOINT((-887.,-937.));
#63=IFCCARTESIANPOINT((-887.,937.));
#64=IFCCARTESIANPOINT((887.,937.));
#65=IFCCARTESIANPOINT((887.,-937.));
#66=IFCAXIS2PLACEMENT3D(#67,#32,#68);
#67=IFCCARTESIANPOINT((950.,137.,1000.));
#68=IFCDIRECTION((1.,0.,0.));
#69=IFCEXTRUDEDAREASOLID(#70,#81,#31,63.000000000027434);
#70=IFCARBITRARYPROFILEDEFWITHVOIDS(.AREA.,'0406 x 0610mm',#71,(#76));
#71=IFCPOLYLINE((#72,#73,#74,#75,#72));
#72=IFCCARTESIANPOINT((-950.,-1000.));
#73=IFCCARTESIANPOINT((950.,-1000.));
#74=IFCCARTESIANPOINT((950.,1000.));
#75=IFCCARTESIANPOINT((-950.,1000.));
#76=IFCPOLYLINE((#77,#78,#79,#80,#77));
#77=IFCCARTESIANPOINT((-931.,-981.));
#78=IFCCARTESIANPOINT((-931.,981.));
#79=IFCCARTESIANPOINT((931.,981.));
#80=IFCCARTESIANPOINT((931.,-981.));
#81=IFCAXIS2PLACEMENT3D(#82,#32,#68);
#82=IFCCARTESIANPOINT((950.,137.,1000.));
#83=IFCEXTRUDEDAREASOLID(#84,#95,#31,136.99999999997257);
#84=IFCARBITRARYPROFILEDEFWITHVOIDS(.AREA.,'0406 x 0610mm',#85,(#90));
#85=IFCPOLYLINE((#86,#87,#88,#89,#86));
#86=IFCCARTESIANPOINT((-950.,-1000.));
#87=IFCCARTESIANPOINT((950.,-1000.));
#88=IFCCARTESIANPOINT((950.,1000.));
#89=IFCCARTESIANPOINT((-950.,1000.));
#90=IFCPOLYLINE((#91,#92,#93,#94,#91));
#91=IFCCARTESIANPOINT((-918.,-968.));
#92=IFCCARTESIANPOINT((-918.,968.));
#93=IFCCARTESIANPOINT((918.,968.));
#94=IFCCARTESIANPOINT((918.,-968.));
#95=IFCAXIS2PLACEMENT3D(#96,#32,#68);
#96=IFCCARTESIANPOINT((950.,-0.,1000.));
#97=IFCCARTESIANTRANSFORMATIONOPERATOR3D($,$,#26,1.,$);
#98=IFCOPENINGELEMENT('2L0mF0XzXE7gV4rmDPxKt2',#142,'\X2\ACE0C815B428\X0\:0406 x 0610mm:150077:1',$,'Opening',#157,#99,'150077',$);
#99=IFCPRODUCTDEFINITIONSHAPE($,$,(#100));
#100=IFCSHAPEREPRESENTATION(#38,'Body','SweptSolid',(#101));
#101=IFCEXTRUDEDAREASOLID(#102,#105,#31,200.);
#102=IFCRECTANGLEPROFILEDEF(.AREA.,$,#103,1999.9999999999952,1899.9999999999986);
#103=IFCAXIS2PLACEMENT2D(#104,#50);
#104=IFCCARTESIANPOINT((999.99999999999761,949.99999999999977));
#105=IFCAXIS2PLACEMENT3D(#26,#32,#31);
#106=IFCMATERIALLIST((#107,#108));
#107=IFCMATERIAL('\X2\C720B9AC\X0\',$,$);
#108=IFCMATERIAL('\X2\C100C2DC\X0\',$,$);
#109=IFCRELASSOCIATESMATERIAL('3cJplbzcX62Q4EMLtRPFe0',$,$,$,(#12),#106);
#110=IFCPROPERTYSET('2i8dRdZfX7Wh3CzQbQMskx',#13,'Pset_QuantityTakeOff',$,(#111));
#111=IFCPROPERTYSINGLEVALUE('Reference',$,IFCIDENTIFIER('0406 x 0610mm'),$);
#112=IFCRELDEFINESBYPROPERTIES('0Sm1zU8Mr5qAkK4g62gz3c',$,$,$,(#12),#110);
#113=IFCPROPERTYSET('2Nko_XVzf0_RSElrm6iJ00',#13,'Pset_WindowCommon',$,(#114,#111));
#114=IFCPROPERTYSINGLEVALUE('IsExternal',$,IFCBOOLEAN(.T.),$);
#115=IFCRELDEFINESBYPROPERTIES('3WMduXLX98LOjyLcok5Wbu',$,$,$,(#12),#113);
#116=IFCSTYLEDITEM(#69,(#117),$);
#117=IFCPRESENTATIONSTYLEASSIGNMENT((#118));
#118=IFCSURFACESTYLE('\X2\C100C2DC\X0\',.BOTH.,(#119));
#119=IFCSURFACESTYLERENDERING(#120,0.,$,$,$,$,IFCNORMALISEDRATIOMEASURE(0.5),IFCSPECULAREXPONENT(128.),.NOTDEFINED.);
#120=IFCCOLOURRGB($,0.8784313725490196,0.69803921568627447,0.49411764705882355);
#121=IFCSTYLEDITEM(#83,(#117),$);
#122=IFCSTYLEDITEM(#46,(#123),$);
#123=IFCPRESENTATIONSTYLEASSIGNMENT((#124));
#124=IFCSURFACESTYLE('\X2\C720B9AC\X0\',.BOTH.,(#125));
#125=IFCSURFACESTYLERENDERING(#126,0.90000000000000002,$,$,$,$,IFCNORMALISEDRATIOMEASURE(0.5),IFCSPECULAREXPONENT(12.),.NOTDEFINED.);
#126=IFCCOLOURRGB($,0.,0.50196078431372548,0.75294117647058822);
#127=IFCSTYLEDITEM(#54,(#117),$);
#128=IFCRELFILLSELEMENT('0JUSFnnR9ARPdffjE3ylYH',$,$,$,#98,#12);
#129=IFCOWNERHISTORY(#14,#17,.READWRITE.,.ADDED.,1778802794,#14,#17,1778802794);
#130=IFCRELCONTAINEDINSPATIALSTRUCTURE('0K$68mP_rCR8v$1Jvm3zjS',#129,$,$,(#12,#98),#8);
#136=IFCOWNERHISTORY(#14,#17,$,.MODIFIED.,1778802794,#14,#17,1778487490);
#142=IFCOWNERHISTORY(#14,#17,$,.MODIFIED.,1778802794,#14,#17,1778487490);
#153=IFCCARTESIANPOINT((200.00000000002683,0.,0.));
#154=IFCDIRECTION((0.,0.,1.));
#155=IFCDIRECTION((0.,1.,0.));
#156=IFCAXIS2PLACEMENT3D(#153,#154,#155);
#157=IFCLOCALPLACEMENT($,#156);
#158=IFCCARTESIANPOINT((0.,-4.7184478546569153E-13,0.));
#159=IFCDIRECTION((0.,0.,1.));
#160=IFCDIRECTION((1.,0.,0.));
#161=IFCAXIS2PLACEMENT3D(#158,#159,#160);
#162=IFCLOCALPLACEMENT(#157,#161);
#163=IFCOWNERHISTORY(#14,#17,.READWRITE.,.ADDED.,1778802794,#14,#17,1778802794);
#164=IFCPROPERTYSET('0W85F1EOLBMuyGn_HeDtQ_',#163,'Pset_LibraryAsset',$,(#167,#168,#169,#170,#171,#172,#173,#174,#175,#176));
#165=IFCOWNERHISTORY(#14,#17,.READWRITE.,.ADDED.,1778802794,#14,#17,1778802794);
#166=IFCRELDEFINESBYPROPERTIES('0nthAyApX0Le34MPkJUpFY',#165,$,$,(#12),#164);
#167=IFCPROPERTYSINGLEVALUE('AssetId',$,IFCLABEL('window-150077'),$);
#168=IFCPROPERTYSINGLEVALUE('AssetGroup',$,IFCLABEL('window-150077'),$);
#169=IFCPROPERTYSINGLEVALUE('AssetRole',$,IFCLABEL('member-0'),$);
#170=IFCPROPERTYSINGLEVALUE('Category',$,IFCLABEL('window'),$);
#171=IFCPROPERTYSINGLEVALUE('SourceElementName',$,IFCLABEL('\X2\ACE0C815B428\X0\:0406 x 0610mm:150077'),$);
#172=IFCPROPERTYSINGLEVALUE('SourceGlobalId',$,IFCLABEL('2znubWhPDD4wn7Fg4E25Oq'),$);
#173=IFCPROPERTYSINGLEVALUE('Reusable',$,IFCBOOLEAN(.T.),$);
#174=IFCPROPERTYSINGLEVALUE('WidthMm',$,IFCREAL(200.),$);
#175=IFCPROPERTYSINGLEVALUE('DepthMm',$,IFCREAL(1900.),$);
#176=IFCPROPERTYSINGLEVALUE('HeightMm',$,IFCREAL(2000.),$);
#177=IFCOWNERHISTORY(#14,#17,.READWRITE.,.ADDED.,1778802794,#14,#17,1778802794);
#178=IFCPROPERTYSET('3sVBb12ff5IfRHkMUeQFCR',#177,'Pset_LibraryAsset',$,(#181,#182,#183,#184,#185,#186,#187,#188,#189,#190,#191));
#179=IFCOWNERHISTORY(#14,#17,.READWRITE.,.ADDED.,1778802794,#14,#17,1778802794);
#180=IFCRELDEFINESBYPROPERTIES('0Nxnefj7TEku6vOFLb1wqe',#179,$,$,(#98),#178);
#181=IFCPROPERTYSINGLEVALUE('AssetId',$,IFCLABEL('window-150077'),$);
#182=IFCPROPERTYSINGLEVALUE('AssetGroup',$,IFCLABEL('window-150077'),$);
#183=IFCPROPERTYSINGLEVALUE('AssetRole',$,IFCLABEL('member-1'),$);
#184=IFCPROPERTYSINGLEVALUE('Category',$,IFCLABEL('window'),$);
#185=IFCPROPERTYSINGLEVALUE('SourceElementName',$,IFCLABEL('\X2\ACE0C815B428\X0\:0406 x 0610mm:150077:1'),$);
#186=IFCPROPERTYSINGLEVALUE('SourceGlobalId',$,IFCLABEL('332lk8i7QnVQFhUrIkAPlh'),$);
#187=IFCPROPERTYSINGLEVALUE('Reusable',$,IFCBOOLEAN(.T.),$);
#188=IFCPROPERTYSINGLEVALUE('OpeningImportPolicy',$,IFCLABEL('recreate_host_void_on_import'),$);
#189=IFCPROPERTYSINGLEVALUE('WidthMm',$,IFCREAL(200.),$);
#190=IFCPROPERTYSINGLEVALUE('DepthMm',$,IFCREAL(1900.),$);
#191=IFCPROPERTYSINGLEVALUE('HeightMm',$,IFCREAL(2000.),$);
ENDSEC;
END-ISO-10303-21;
