ISO-10303-21;
HEADER;
FILE_DESCRIPTION(('ViewDefinition [CoordinationView]'),'2;1');
FILE_NAME('','2026-05-15T08:53:13',(''),(''),'IfcOpenShell 0.8.5-1c5b825','IfcOpenShell 0.8.5-1c5b825','');
FILE_SCHEMA(('IFC4'));
ENDSEC;
DATA;
#1=IFCPROJECT('11T2EVbS18ZxAXSaHwFPvy',$,'window-149368 Asset Library',$,$,$,$,$,#5);
#2=IFCSIUNIT(*,.LENGTHUNIT.,.MILLI.,.METRE.);
#3=IFCSIUNIT(*,.AREAUNIT.,$,.SQUARE_METRE.);
#4=IFCSIUNIT(*,.VOLUMEUNIT.,$,.CUBIC_METRE.);
#5=IFCUNITASSIGNMENT((#4,#2,#3));
#6=IFCSITE('1UGnwL2UT5F9GyTr8yDO7G',$,'Asset Site',$,$,$,$,$,$,$,$,$,$,$);
#7=IFCBUILDING('1qVP6_h$X4JhLFCblcKhFQ',$,'Asset Building',$,$,$,$,$,$,$,$,$);
#8=IFCBUILDINGSTOREY('1IUvmRMRH3tRulKDDjGwU2',$,'Asset Storey',$,$,$,$,$,$,$);
#9=IFCRELAGGREGATES('1Am0t4Dv58rOITAq1_jTb2',$,$,$,#1,(#6));
#10=IFCRELAGGREGATES('2ujah$PWj14Bs4yvS3CDY0',$,$,$,#6,(#7));
#11=IFCRELAGGREGATES('2vXoY6IWbCYOkTSTr5TxVg',$,$,$,#7,(#8));
#12=IFCWINDOW('3JJ4zJ981FNvAyaF8$fqEd',#136,'\X2\ACE0C815B428\X0\:0406 x 1220mm:149368',$,$,#162,#36,'149368',1219.9999999999977,406.00000000000085,$,$,$);
#13=IFCOWNERHISTORY(#14,#17,$,.NOCHANGE.,$,$,$,1778487490);
#14=IFCPERSONANDORGANIZATION(#15,#16,$);
#15=IFCPERSON($,'','hnn06134',$,$,$,$,$);
#16=IFCORGANIZATION($,'','',$,$);
#17=IFCAPPLICATION(#18,'2027','Autodesk Revit 2027 (KOR)','Revit');
#18=IFCORGANIZATION($,'Autodesk Revit 2027 (KOR)',$,$,$);
#21=IFCLOCALPLACEMENT(#22,#29);
#22=IFCLOCALPLACEMENT(#23,#28);
#23=IFCLOCALPLACEMENT(#24,#27);
#24=IFCLOCALPLACEMENT($,#25);
#25=IFCAXIS2PLACEMENT3D(#26,$,$);
#26=IFCCARTESIANPOINT((0.,0.,0.));
#27=IFCAXIS2PLACEMENT3D(#26,$,$);
#28=IFCAXIS2PLACEMENT3D(#26,$,$);
#29=IFCAXIS2PLACEMENT3D(#30,#31,#32);
#30=IFCCARTESIANPOINT((5590.5208465132628,-6290.7448659670181,0.));
#31=IFCDIRECTION((0.,0.,1.));
#32=IFCDIRECTION((0.,-1.,0.));
#36=IFCPRODUCTDEFINITIONSHAPE($,$,(#37));
#37=IFCSHAPEREPRESENTATION(#38,'Body','MappedRepresentation',(#42));
#38=IFCGEOMETRICREPRESENTATIONSUBCONTEXT('Body','Model',*,*,*,*,#39,$,.MODEL_VIEW.,$);
#39=IFCGEOMETRICREPRESENTATIONCONTEXT($,'Model',3,0.01,#40,#41);
#40=IFCAXIS2PLACEMENT3D(#26,$,$);
#41=IFCDIRECTION((0.,1.));
#42=IFCMAPPEDITEM(#43,#97);
#43=IFCREPRESENTATIONMAP(#44,#45);
#44=IFCAXIS2PLACEMENT3D(#26,$,$);
#45=IFCSHAPEREPRESENTATION(#38,'Body','SweptSolid',(#46,#53,#69,#83));
#46=IFCEXTRUDEDAREASOLID(#47,#51,#31,1094.0000000000068);
#47=IFCRECTANGLEPROFILEDEF(.AREA.,'0406 x 1220mm',#48,11.999999999999996,279.99999999999733);
#48=IFCAXIS2PLACEMENT2D(#49,#50);
#49=IFCCARTESIANPOINT((8.4376949871511897E-15,0.));
#50=IFCDIRECTION((1.,0.));
#51=IFCAXIS2PLACEMENT3D(#52,#31,#32);
#52=IFCCARTESIANPOINT((203.,159.,63.));
#53=IFCEXTRUDEDAREASOLID(#54,#65,#31,44.000000000027441);
#54=IFCARBITRARYPROFILEDEFWITHVOIDS(.AREA.,'0406 x 1220mm',#55,(#60));
#55=IFCPOLYLINE((#56,#57,#58,#59,#56));
#56=IFCCARTESIANPOINT((-184.,-591.));
#57=IFCCARTESIANPOINT((184.,-591.));
#58=IFCCARTESIANPOINT((184.,591.));
#59=IFCCARTESIANPOINT((-184.,591.));
#60=IFCPOLYLINE((#61,#62,#63,#64,#61));
#61=IFCCARTESIANPOINT((-140.,-547.));
#62=IFCCARTESIANPOINT((-140.,547.));
#63=IFCCARTESIANPOINT((140.,547.));
#64=IFCCARTESIANPOINT((140.,-547.));
#65=IFCAXIS2PLACEMENT3D(#66,#67,#68);
#66=IFCCARTESIANPOINT((203.,137.,610.));
#67=IFCDIRECTION((0.,1.,0.));
#68=IFCDIRECTION((1.,0.,0.));
#69=IFCEXTRUDEDAREASOLID(#70,#81,#31,63.000000000027434);
#70=IFCARBITRARYPROFILEDEFWITHVOIDS(.AREA.,'0406 x 1220mm',#71,(#76));
#71=IFCPOLYLINE((#72,#73,#74,#75,#72));
#72=IFCCARTESIANPOINT((-203.,-610.));
#73=IFCCARTESIANPOINT((203.,-610.));
#74=IFCCARTESIANPOINT((203.,610.));
#75=IFCCARTESIANPOINT((-203.,610.));
#76=IFCPOLYLINE((#77,#78,#79,#80,#77));
#77=IFCCARTESIANPOINT((-184.,-591.));
#78=IFCCARTESIANPOINT((-184.,591.));
#79=IFCCARTESIANPOINT((184.,591.));
#80=IFCCARTESIANPOINT((184.,-591.));
#81=IFCAXIS2PLACEMENT3D(#82,#67,#68);
#82=IFCCARTESIANPOINT((203.,137.,610.));
#83=IFCEXTRUDEDAREASOLID(#84,#95,#31,136.99999999997257);
#84=IFCARBITRARYPROFILEDEFWITHVOIDS(.AREA.,'0406 x 1220mm',#85,(#90));
#85=IFCPOLYLINE((#86,#87,#88,#89,#86));
#86=IFCCARTESIANPOINT((-203.,-610.));
#87=IFCCARTESIANPOINT((203.,-610.));
#88=IFCCARTESIANPOINT((203.,610.));
#89=IFCCARTESIANPOINT((-203.,610.));
#90=IFCPOLYLINE((#91,#92,#93,#94,#91));
#91=IFCCARTESIANPOINT((-171.,-578.));
#92=IFCCARTESIANPOINT((-171.,578.));
#93=IFCCARTESIANPOINT((171.,578.));
#94=IFCCARTESIANPOINT((171.,-578.));
#95=IFCAXIS2PLACEMENT3D(#96,#67,#68);
#96=IFCCARTESIANPOINT((203.,0.,610.));
#97=IFCCARTESIANTRANSFORMATIONOPERATOR3D($,$,#26,1.,$);
#98=IFCOPENINGELEMENT('1xqFT2ZB11Zxa7znZbggtD',#142,'\X2\ACE0C815B428\X0\:0406 x 1220mm:149368:1',$,'Opening',#157,#99,'149368',$);
#99=IFCPRODUCTDEFINITIONSHAPE($,$,(#100));
#100=IFCSHAPEREPRESENTATION(#38,'Body','SweptSolid',(#101));
#101=IFCEXTRUDEDAREASOLID(#102,#105,#31,200.);
#102=IFCRECTANGLEPROFILEDEF(.AREA.,$,#103,1219.9999999999977,405.99999999999977);
#103=IFCAXIS2PLACEMENT2D(#104,#50);
#104=IFCCARTESIANPOINT((609.99999999999886,203.00000000000097));
#105=IFCAXIS2PLACEMENT3D(#26,#67,#31);
#106=IFCMATERIALLIST((#107,#108));
#107=IFCMATERIAL('\X2\C720B9AC\X0\',$,$);
#108=IFCMATERIAL('\X2\C100C2DC\X0\',$,$);
#109=IFCRELASSOCIATESMATERIAL('1qK6FffF1BRvYreQ$8qWjI',$,$,$,(#12),#106);
#110=IFCPROPERTYSET('1iuH$cDEb6sAyPZQK_gFBr',#13,'Pset_QuantityTakeOff',$,(#111));
#111=IFCPROPERTYSINGLEVALUE('Reference',$,IFCIDENTIFIER('0406 x 1220mm'),$);
#112=IFCRELDEFINESBYPROPERTIES('2wm82IdD95RhRupYmNADxG',$,$,$,(#12),#110);
#113=IFCPROPERTYSET('1PqRueibH1uQSwCGthqD3U',#13,'Pset_WindowCommon',$,(#114,#111));
#114=IFCPROPERTYSINGLEVALUE('IsExternal',$,IFCBOOLEAN(.T.),$);
#115=IFCRELDEFINESBYPROPERTIES('3hWz4Oao11memgTe0V8fmG',$,$,$,(#12),#113);
#116=IFCSTYLEDITEM(#46,(#117),$);
#117=IFCPRESENTATIONSTYLEASSIGNMENT((#118));
#118=IFCSURFACESTYLE('\X2\C720B9AC\X0\',.BOTH.,(#119));
#119=IFCSURFACESTYLERENDERING(#120,0.90000000000000002,$,$,$,$,IFCNORMALISEDRATIOMEASURE(0.5),IFCSPECULAREXPONENT(12.),.NOTDEFINED.);
#120=IFCCOLOURRGB($,0.,0.50196078431372548,0.75294117647058822);
#121=IFCSTYLEDITEM(#53,(#122),$);
#122=IFCPRESENTATIONSTYLEASSIGNMENT((#123));
#123=IFCSURFACESTYLE('\X2\C100C2DC\X0\',.BOTH.,(#124));
#124=IFCSURFACESTYLERENDERING(#125,0.,$,$,$,$,IFCNORMALISEDRATIOMEASURE(0.5),IFCSPECULAREXPONENT(128.),.NOTDEFINED.);
#125=IFCCOLOURRGB($,0.8784313725490196,0.69803921568627447,0.49411764705882355);
#126=IFCSTYLEDITEM(#69,(#122),$);
#127=IFCSTYLEDITEM(#83,(#122),$);
#128=IFCRELFILLSELEMENT('3NFdFRgLn1zhKLNdjEyAkV',$,$,$,#98,#12);
#129=IFCOWNERHISTORY(#14,#17,.READWRITE.,.ADDED.,1778802793,#14,#17,1778802793);
#130=IFCRELCONTAINEDINSPATIALSTRUCTURE('36zZyJXxf09gR4by_rbBSx',#129,$,$,(#12,#98),#8);
#136=IFCOWNERHISTORY(#14,#17,$,.MODIFIED.,1778802793,#14,#17,1778487490);
#142=IFCOWNERHISTORY(#14,#17,$,.MODIFIED.,1778802793,#14,#17,1778487490);
#153=IFCCARTESIANPOINT((0.,406.00000000000057,1.1102230246251565E-13));
#154=IFCDIRECTION((0.,0.,1.));
#155=IFCDIRECTION((0.,-1.,0.));
#156=IFCAXIS2PLACEMENT3D(#153,#154,#155);
#157=IFCLOCALPLACEMENT($,#156);
#158=IFCCARTESIANPOINT((5.5511151231257827E-13,0.,2.6645352591003781E-15));
#159=IFCDIRECTION((0.,0.,1.));
#160=IFCDIRECTION((1.,0.,0.));
#161=IFCAXIS2PLACEMENT3D(#158,#159,#160);
#162=IFCLOCALPLACEMENT(#157,#161);
#163=IFCOWNERHISTORY(#14,#17,.READWRITE.,.ADDED.,1778802793,#14,#17,1778802793);
#164=IFCPROPERTYSET('3bCvtV6wHAa82ZKzUEM0QL',#163,'Pset_LibraryAsset',$,(#167,#168,#169,#170,#171,#172,#173,#174,#175,#176));
#165=IFCOWNERHISTORY(#14,#17,.READWRITE.,.ADDED.,1778802793,#14,#17,1778802793);
#166=IFCRELDEFINESBYPROPERTIES('2SAfz4lbP5xxjGAkGkKYXw',#165,$,$,(#12),#164);
#167=IFCPROPERTYSINGLEVALUE('AssetId',$,IFCLABEL('window-149368'),$);
#168=IFCPROPERTYSINGLEVALUE('AssetGroup',$,IFCLABEL('window-149368'),$);
#169=IFCPROPERTYSINGLEVALUE('AssetRole',$,IFCLABEL('member-0'),$);
#170=IFCPROPERTYSINGLEVALUE('Category',$,IFCLABEL('window'),$);
#171=IFCPROPERTYSINGLEVALUE('SourceElementName',$,IFCLABEL('\X2\ACE0C815B428\X0\:0406 x 1220mm:149368'),$);
#172=IFCPROPERTYSINGLEVALUE('SourceGlobalId',$,IFCLABEL('2znubWhPDD4wn7Fg4E25jn'),$);
#173=IFCPROPERTYSINGLEVALUE('Reusable',$,IFCBOOLEAN(.T.),$);
#174=IFCPROPERTYSINGLEVALUE('WidthMm',$,IFCREAL(200.),$);
#175=IFCPROPERTYSINGLEVALUE('DepthMm',$,IFCREAL(406.),$);
#176=IFCPROPERTYSINGLEVALUE('HeightMm',$,IFCREAL(1220.),$);
#177=IFCOWNERHISTORY(#14,#17,.READWRITE.,.ADDED.,1778802793,#14,#17,1778802793);
#178=IFCPROPERTYSET('1SkvH26dH7rvQY8WvifCHj',#177,'Pset_LibraryAsset',$,(#181,#182,#183,#184,#185,#186,#187,#188,#189,#190,#191));
#179=IFCOWNERHISTORY(#14,#17,.READWRITE.,.ADDED.,1778802793,#14,#17,1778802793);
#180=IFCRELDEFINESBYPROPERTIES('07d$xv$wT8cPLxwna5SSxR',#179,$,$,(#98),#178);
#181=IFCPROPERTYSINGLEVALUE('AssetId',$,IFCLABEL('window-149368'),$);
#182=IFCPROPERTYSINGLEVALUE('AssetGroup',$,IFCLABEL('window-149368'),$);
#183=IFCPROPERTYSINGLEVALUE('AssetRole',$,IFCLABEL('member-1'),$);
#184=IFCPROPERTYSINGLEVALUE('Category',$,IFCLABEL('window'),$);
#185=IFCPROPERTYSINGLEVALUE('SourceElementName',$,IFCLABEL('\X2\ACE0C815B428\X0\:0406 x 1220mm:149368:1'),$);
#186=IFCPROPERTYSINGLEVALUE('SourceGlobalId',$,IFCLABEL('1fhKC6DkSXKiGx4KLjsDDB'),$);
#187=IFCPROPERTYSINGLEVALUE('Reusable',$,IFCBOOLEAN(.T.),$);
#188=IFCPROPERTYSINGLEVALUE('OpeningImportPolicy',$,IFCLABEL('recreate_host_void_on_import'),$);
#189=IFCPROPERTYSINGLEVALUE('WidthMm',$,IFCREAL(200.),$);
#190=IFCPROPERTYSINGLEVALUE('DepthMm',$,IFCREAL(406.),$);
#191=IFCPROPERTYSINGLEVALUE('HeightMm',$,IFCREAL(1220.),$);
ENDSEC;
END-ISO-10303-21;
