ISO-10303-21;
HEADER;
FILE_DESCRIPTION(('ViewDefinition [CoordinationView]'),'2;1');
FILE_NAME('','2026-05-15T08:53:13',(''),(''),'IfcOpenShell 0.8.5-1c5b825','IfcOpenShell 0.8.5-1c5b825','');
FILE_SCHEMA(('IFC4'));
ENDSEC;
DATA;
#1=IFCPROJECT('1GU7ymKZvB5BpaB2oJqdhZ',$,'window-188170 Asset Library',$,$,$,$,$,#5);
#2=IFCSIUNIT(*,.LENGTHUNIT.,.MILLI.,.METRE.);
#3=IFCSIUNIT(*,.AREAUNIT.,$,.SQUARE_METRE.);
#4=IFCSIUNIT(*,.VOLUMEUNIT.,$,.CUBIC_METRE.);
#5=IFCUNITASSIGNMENT((#4,#2,#3));
#6=IFCSITE('3Jt5oiHuvCGRj0V$8TZa85',$,'Asset Site',$,$,$,$,$,$,$,$,$,$,$);
#7=IFCBUILDING('04WFgL97PFKBgNLSpqdNEK',$,'Asset Building',$,$,$,$,$,$,$,$,$);
#8=IFCBUILDINGSTOREY('0$o1j8FynF2gEiA2ipqPAG',$,'Asset Storey',$,$,$,$,$,$,$);
#9=IFCRELAGGREGATES('2B8_4AUY14n9WvufJvaqFv',$,$,$,#1,(#6));
#10=IFCRELAGGREGATES('2ewTLUx9H1CfBf9HGmjtFT',$,$,$,#6,(#7));
#11=IFCRELAGGREGATES('02D_5He1T968CrcEhphbVe',$,$,$,#7,(#8));
#12=IFCWINDOW('1Bzuro5fD8f8ci$84$Vnqp',#143,'\X2\ACE0C815B428\X0\:0406 x 0610mm:188170',$,$,#163,#36,'188170',1999.9999999999952,1899.9999999999984,$,$,$);
#13=IFCOWNERHISTORY(#14,#17,$,.NOCHANGE.,$,$,$,1778487490);
#14=IFCPERSONANDORGANIZATION(#15,#16,$);
#15=IFCPERSON($,'','hnn06134',$,$,$,$,$);
#16=IFCORGANIZATION($,'','',$,$);
#17=IFCAPPLICATION(#18,'2027','Autodesk Revit 2027 (KOR)','Revit');
#18=IFCORGANIZATION($,'Autodesk Revit 2027 (KOR)',$,$,$);
#21=IFCLOCALPLACEMENT(#22,#29);
#22=IFCLOCALPLACEMENT(#23,#28);
#23=IFCLOCALPLACEMENT(#24,#27);
#24=IFCLOCALPLACEMENT($,#25);
#25=IFCAXIS2PLACEMENT3D(#26,$,$);
#26=IFCCARTESIANPOINT((0.,0.,0.));
#27=IFCAXIS2PLACEMENT3D(#26,$,$);
#28=IFCAXIS2PLACEMENT3D(#26,$,$);
#29=IFCAXIS2PLACEMENT3D(#30,#31,#32);
#30=IFCCARTESIANPOINT((1965.7383521796889,-14764.643875778307,0.));
#31=IFCDIRECTION((0.,0.,1.));
#32=IFCDIRECTION((-1.,0.,0.));
#36=IFCPRODUCTDEFINITIONSHAPE($,$,(#37));
#37=IFCSHAPEREPRESENTATION(#38,'Body','MappedRepresentation',(#42));
#38=IFCGEOMETRICREPRESENTATIONSUBCONTEXT('Body','Model',*,*,*,*,#39,$,.MODEL_VIEW.,$);
#39=IFCGEOMETRICREPRESENTATIONCONTEXT($,'Model',3,0.01,#40,#41);
#40=IFCAXIS2PLACEMENT3D(#26,$,$);
#41=IFCDIRECTION((0.,1.));
#42=IFCMAPPEDITEM(#43,#98);
#43=IFCREPRESENTATIONMAP(#44,#45);
#44=IFCAXIS2PLACEMENT3D(#26,$,$);
#45=IFCSHAPEREPRESENTATION(#38,'Body','SweptSolid',(#46,#54,#70,#84));
#46=IFCEXTRUDEDAREASOLID(#47,#51,#31,1874.0000000000043);
#47=IFCRECTANGLEPROFILEDEF(.AREA.,'0406 x 0610mm',#48,11.999999999999996,1773.9999999999959);
#48=IFCAXIS2PLACEMENT2D(#49,#50);
#49=IFCCARTESIANPOINT((8.4376949871511897E-15,0.));
#50=IFCDIRECTION((1.,0.));
#51=IFCAXIS2PLACEMENT3D(#52,#31,#53);
#52=IFCCARTESIANPOINT((950.,159.,63.));
#53=IFCDIRECTION((0.,-1.,0.));
#54=IFCEXTRUDEDAREASOLID(#55,#66,#31,44.000000000027441);
#55=IFCARBITRARYPROFILEDEFWITHVOIDS(.AREA.,'0406 x 0610mm',#56,(#61));
#56=IFCPOLYLINE((#57,#58,#59,#60,#57));
#57=IFCCARTESIANPOINT((-931.,-981.));
#58=IFCCARTESIANPOINT((931.,-981.));
#59=IFCCARTESIANPOINT((931.,981.));
#60=IFCCARTESIANPOINT((-931.,981.));
#61=IFCPOLYLINE((#62,#63,#64,#65,#62));
#62=IFCCARTESIANPOINT((-887.,-937.));
#63=IFCCARTESIANPOINT((-887.,937.));
#64=IFCCARTESIANPOINT((887.,937.));
#65=IFCCARTESIANPOINT((887.,-937.));
#66=IFCAXIS2PLACEMENT3D(#67,#68,#69);
#67=IFCCARTESIANPOINT((950.,137.,1000.));
#68=IFCDIRECTION((0.,1.,0.));
#69=IFCDIRECTION((1.,0.,0.));
#70=IFCEXTRUDEDAREASOLID(#71,#82,#31,63.000000000027434);
#71=IFCARBITRARYPROFILEDEFWITHVOIDS(.AREA.,'0406 x 0610mm',#72,(#77));
#72=IFCPOLYLINE((#73,#74,#75,#76,#73));
#73=IFCCARTESIANPOINT((-950.,-1000.));
#74=IFCCARTESIANPOINT((950.,-1000.));
#75=IFCCARTESIANPOINT((950.,1000.));
#76=IFCCARTESIANPOINT((-950.,1000.));
#77=IFCPOLYLINE((#78,#79,#80,#81,#78));
#78=IFCCARTESIANPOINT((-931.,-981.));
#79=IFCCARTESIANPOINT((-931.,981.));
#80=IFCCARTESIANPOINT((931.,981.));
#81=IFCCARTESIANPOINT((931.,-981.));
#82=IFCAXIS2PLACEMENT3D(#83,#68,#69);
#83=IFCCARTESIANPOINT((950.,137.,1000.));
#84=IFCEXTRUDEDAREASOLID(#85,#96,#31,136.99999999997257);
#85=IFCARBITRARYPROFILEDEFWITHVOIDS(.AREA.,'0406 x 0610mm',#86,(#91));
#86=IFCPOLYLINE((#87,#88,#89,#90,#87));
#87=IFCCARTESIANPOINT((-950.,-1000.));
#88=IFCCARTESIANPOINT((950.,-1000.));
#89=IFCCARTESIANPOINT((950.,1000.));
#90=IFCCARTESIANPOINT((-950.,1000.));
#91=IFCPOLYLINE((#92,#93,#94,#95,#92));
#92=IFCCARTESIANPOINT((-918.,-968.));
#93=IFCCARTESIANPOINT((-918.,968.));
#94=IFCCARTESIANPOINT((918.,968.));
#95=IFCCARTESIANPOINT((918.,-968.));
#96=IFCAXIS2PLACEMENT3D(#97,#68,#69);
#97=IFCCARTESIANPOINT((950.,-0.,1000.));
#98=IFCCARTESIANTRANSFORMATIONOPERATOR3D($,$,#26,1.,$);
#99=IFCOPENINGELEMENT('2dPfTSi39Ccx4MMtyraa_k',#137,'\X2\ACE0C815B428\X0\:0406 x 0610mm:188170:1',$,'Opening',#158,#100,'188170',$);
#100=IFCPRODUCTDEFINITIONSHAPE($,$,(#101));
#101=IFCSHAPEREPRESENTATION(#38,'Body','SweptSolid',(#102));
#102=IFCEXTRUDEDAREASOLID(#103,#106,#31,200.);
#103=IFCRECTANGLEPROFILEDEF(.AREA.,$,#104,1999.9999999999952,1899.9999999999984);
#104=IFCAXIS2PLACEMENT2D(#105,#50);
#105=IFCCARTESIANPOINT((999.99999999999761,949.9999999999992));
#106=IFCAXIS2PLACEMENT3D(#26,#68,#31);
#107=IFCMATERIALLIST((#108,#109));
#108=IFCMATERIAL('\X2\C720B9AC\X0\',$,$);
#109=IFCMATERIAL('\X2\C100C2DC\X0\',$,$);
#110=IFCRELASSOCIATESMATERIAL('0J_aPabU1Cb8O4owsscNTH',$,$,$,(#12),#107);
#111=IFCPROPERTYSET('0MzSGFcCXB5AED5k0vN3nr',#13,'Pset_QuantityTakeOff',$,(#112));
#112=IFCPROPERTYSINGLEVALUE('Reference',$,IFCIDENTIFIER('0406 x 0610mm'),$);
#113=IFCRELDEFINESBYPROPERTIES('2QY1YXyIL2BxRYfCEFqaAU',$,$,$,(#12),#111);
#114=IFCPROPERTYSET('1v_4e2PDnEiuf1zu_hn8pF',#13,'Pset_WindowCommon',$,(#115,#112));
#115=IFCPROPERTYSINGLEVALUE('IsExternal',$,IFCBOOLEAN(.T.),$);
#116=IFCRELDEFINESBYPROPERTIES('20$IWwRBj3xelLg2QGG0LQ',$,$,$,(#12),#114);
#117=IFCSTYLEDITEM(#70,(#118),$);
#118=IFCPRESENTATIONSTYLEASSIGNMENT((#119));
#119=IFCSURFACESTYLE('\X2\C100C2DC\X0\',.BOTH.,(#120));
#120=IFCSURFACESTYLERENDERING(#121,0.,$,$,$,$,IFCNORMALISEDRATIOMEASURE(0.5),IFCSPECULAREXPONENT(128.),.NOTDEFINED.);
#121=IFCCOLOURRGB($,0.8784313725490196,0.69803921568627447,0.49411764705882355);
#122=IFCSTYLEDITEM(#84,(#118),$);
#123=IFCSTYLEDITEM(#46,(#124),$);
#124=IFCPRESENTATIONSTYLEASSIGNMENT((#125));
#125=IFCSURFACESTYLE('\X2\C720B9AC\X0\',.BOTH.,(#126));
#126=IFCSURFACESTYLERENDERING(#127,0.90000000000000002,$,$,$,$,IFCNORMALISEDRATIOMEASURE(0.5),IFCSPECULAREXPONENT(12.),.NOTDEFINED.);
#127=IFCCOLOURRGB($,0.,0.50196078431372548,0.75294117647058822);
#128=IFCSTYLEDITEM(#54,(#118),$);
#129=IFCRELFILLSELEMENT('1nw$4E84DCXeFh3owGWcuJ',$,$,$,#99,#12);
#130=IFCOWNERHISTORY(#14,#17,.READWRITE.,.ADDED.,1778802793,#14,#17,1778802793);
#131=IFCRELCONTAINEDINSPATIALSTRUCTURE('3RNgdqKlH98gNahJjBgf0d',#130,$,$,(#99,#12),#8);
#137=IFCOWNERHISTORY(#14,#17,$,.MODIFIED.,1778802793,#14,#17,1778487490);
#143=IFCOWNERHISTORY(#14,#17,$,.MODIFIED.,1778802793,#14,#17,1778487490);
#154=IFCCARTESIANPOINT((1900.0000000000002,200.00000000002947,0.));
#155=IFCDIRECTION((0.,0.,1.));
#156=IFCDIRECTION((-1.,0.,0.));
#157=IFCAXIS2PLACEMENT3D(#154,#155,#156);
#158=IFCLOCALPLACEMENT($,#157);
#159=IFCCARTESIANPOINT((-2.2204460492503131E-13,3.8857805861880479E-13,0.));
#160=IFCDIRECTION((0.,0.,1.));
#161=IFCDIRECTION((1.,0.,0.));
#162=IFCAXIS2PLACEMENT3D(#159,#160,#161);
#163=IFCLOCALPLACEMENT(#158,#162);
#164=IFCOWNERHISTORY(#14,#17,.READWRITE.,.ADDED.,1778802793,#14,#17,1778802793);
#165=IFCPROPERTYSET('34wtABX8H8QRlZPJATJrJR',#164,'Pset_LibraryAsset',$,(#168,#169,#170,#171,#172,#173,#174,#175,#176,#177));
#166=IFCOWNERHISTORY(#14,#17,.READWRITE.,.ADDED.,1778802793,#14,#17,1778802793);
#167=IFCRELDEFINESBYPROPERTIES('2QZuOj6rH8Tf$tVKiP8MJP',#166,$,$,(#12),#165);
#168=IFCPROPERTYSINGLEVALUE('AssetId',$,IFCLABEL('window-188170'),$);
#169=IFCPROPERTYSINGLEVALUE('AssetGroup',$,IFCLABEL('window-188170'),$);
#170=IFCPROPERTYSINGLEVALUE('AssetRole',$,IFCLABEL('member-0'),$);
#171=IFCPROPERTYSINGLEVALUE('Category',$,IFCLABEL('window'),$);
#172=IFCPROPERTYSINGLEVALUE('SourceElementName',$,IFCLABEL('\X2\ACE0C815B428\X0\:0406 x 0610mm:188170'),$);
#173=IFCPROPERTYSINGLEVALUE('SourceGlobalId',$,IFCLABEL('3gwEtOFi5AUg4WULkh2nog'),$);
#174=IFCPROPERTYSINGLEVALUE('Reusable',$,IFCBOOLEAN(.T.),$);
#175=IFCPROPERTYSINGLEVALUE('WidthMm',$,IFCREAL(1900.),$);
#176=IFCPROPERTYSINGLEVALUE('DepthMm',$,IFCREAL(200.),$);
#177=IFCPROPERTYSINGLEVALUE('HeightMm',$,IFCREAL(2000.),$);
#178=IFCOWNERHISTORY(#14,#17,.READWRITE.,.ADDED.,1778802793,#14,#17,1778802793);
#179=IFCPROPERTYSET('1tL2ZhSenC196t09u21rOW',#178,'Pset_LibraryAsset',$,(#182,#183,#184,#185,#186,#187,#188,#189,#190,#191,#192));
#180=IFCOWNERHISTORY(#14,#17,.READWRITE.,.ADDED.,1778802793,#14,#17,1778802793);
#181=IFCRELDEFINESBYPROPERTIES('1UmCVfGL170OzZyyumXWqF',#180,$,$,(#99),#179);
#182=IFCPROPERTYSINGLEVALUE('AssetId',$,IFCLABEL('window-188170'),$);
#183=IFCPROPERTYSINGLEVALUE('AssetGroup',$,IFCLABEL('window-188170'),$);
#184=IFCPROPERTYSINGLEVALUE('AssetRole',$,IFCLABEL('member-1'),$);
#185=IFCPROPERTYSINGLEVALUE('Category',$,IFCLABEL('window'),$);
#186=IFCPROPERTYSINGLEVALUE('SourceElementName',$,IFCLABEL('\X2\ACE0C815B428\X0\:0406 x 0610mm:188170:1'),$);
#187=IFCPROPERTYSINGLEVALUE('SourceGlobalId',$,IFCLABEL('3EtNTEMLOM5oCWtI1R3TTw'),$);
#188=IFCPROPERTYSINGLEVALUE('Reusable',$,IFCBOOLEAN(.T.),$);
#189=IFCPROPERTYSINGLEVALUE('OpeningImportPolicy',$,IFCLABEL('recreate_host_void_on_import'),$);
#190=IFCPROPERTYSINGLEVALUE('WidthMm',$,IFCREAL(1900.),$);
#191=IFCPROPERTYSINGLEVALUE('DepthMm',$,IFCREAL(200.),$);
#192=IFCPROPERTYSINGLEVALUE('HeightMm',$,IFCREAL(2000.),$);
ENDSEC;
END-ISO-10303-21;
