ISO-10303-21;
HEADER;
FILE_DESCRIPTION(('ViewDefinition [CoordinationView]'),'2;1');
FILE_NAME('','2026-05-14T22:38:06',(''),(''),'IfcOpenShell 0.8.5-1c5b825','IfcOpenShell 0.8.5-1c5b825','');
FILE_SCHEMA(('IFC4'));
ENDSEC;
DATA;
#1=IFCPROJECT('2Ud$I9oEH6SRvk4f63qFcW',$,'window-189034 Asset Library',$,$,$,$,$,#5);
#2=IFCSIUNIT(*,.LENGTHUNIT.,.MILLI.,.METRE.);
#3=IFCSIUNIT(*,.AREAUNIT.,$,.SQUARE_METRE.);
#4=IFCSIUNIT(*,.VOLUMEUNIT.,$,.CUBIC_METRE.);
#5=IFCUNITASSIGNMENT((#2,#3,#4));
#6=IFCSITE('0RSaYxcC98VelumAWRXyFa',$,'Asset Site',$,$,$,$,$,$,$,$,$,$,$);
#7=IFCBUILDING('3z05Q7tEX97AK3D_gOeOUw',$,'Asset Building',$,$,$,$,$,$,$,$,$);
#8=IFCBUILDINGSTOREY('1UL$gcRGX2CgICYzqCgsU$',$,'Asset Storey',$,$,$,$,$,$,$);
#9=IFCRELAGGREGATES('0sjx0DXKv6c9WXMO1Cfwgt',$,$,$,#1,(#6));
#10=IFCRELAGGREGATES('09fVIMet54TRAe0xd5MFpE',$,$,$,#6,(#7));
#11=IFCRELAGGREGATES('1Zk7Pk8KP1WvN5EnbtBItD',$,$,$,#7,(#8));
#12=IFCWINDOW('3gwEtOFi5AUg4WULkh2o7A',#128,'\X2\ACE0C815B428\X0\:0406 x 0610mm:189034',$,$,#133,#37,'189034',1999.9999999999959,1899.9999999999984,$,$,$);
#13=IFCOWNERHISTORY(#14,#17,$,.NOCHANGE.,$,$,$,1778487490);
#14=IFCPERSONANDORGANIZATION(#15,#16,$);
#15=IFCPERSON($,'','hnn06134',$,$,$,$,$);
#16=IFCORGANIZATION($,'','',$,$);
#17=IFCAPPLICATION(#18,'2027','Autodesk Revit 2027 (KOR)','Revit');
#18=IFCORGANIZATION($,'Autodesk Revit 2027 (KOR)',$,$,$);
#20=IFCLOCALPLACEMENT(#21,#34);
#21=IFCLOCALPLACEMENT(#22,#30);
#22=IFCLOCALPLACEMENT(#23,#28);
#23=IFCLOCALPLACEMENT(#24,#27);
#24=IFCLOCALPLACEMENT($,#25);
#25=IFCAXIS2PLACEMENT3D(#26,$,$);
#26=IFCCARTESIANPOINT((0.,0.,0.));
#27=IFCAXIS2PLACEMENT3D(#26,$,$);
#28=IFCAXIS2PLACEMENT3D(#29,$,$);
#29=IFCCARTESIANPOINT((0.,0.,2500.));
#30=IFCAXIS2PLACEMENT3D(#31,#32,#33);
#31=IFCCARTESIANPOINT((-4448.4848517218215,-12880.963893809336,0.));
#32=IFCDIRECTION((0.,0.,1.));
#33=IFCDIRECTION((0.,1.,0.));
#34=IFCAXIS2PLACEMENT3D(#35,$,$);
#35=IFCCARTESIANPOINT((6246.621881202158,-100.,915.));
#37=IFCPRODUCTDEFINITIONSHAPE($,$,(#38));
#38=IFCSHAPEREPRESENTATION(#39,'Body','MappedRepresentation',(#43));
#39=IFCGEOMETRICREPRESENTATIONSUBCONTEXT('Body','Model',*,*,*,*,#40,$,.MODEL_VIEW.,$);
#40=IFCGEOMETRICREPRESENTATIONCONTEXT($,'Model',3,0.01,#41,#42);
#41=IFCAXIS2PLACEMENT3D(#26,$,$);
#42=IFCDIRECTION((0.,1.));
#43=IFCMAPPEDITEM(#44,#98);
#44=IFCREPRESENTATIONMAP(#45,#46);
#45=IFCAXIS2PLACEMENT3D(#26,$,$);
#46=IFCSHAPEREPRESENTATION(#39,'Body','SweptSolid',(#47,#55,#70,#84));
#47=IFCEXTRUDEDAREASOLID(#48,#52,#32,1874.0000000000043);
#48=IFCRECTANGLEPROFILEDEF(.AREA.,'0406 x 0610mm',#49,11.999999999999996,1773.9999999999959);
#49=IFCAXIS2PLACEMENT2D(#50,#51);
#50=IFCCARTESIANPOINT((8.4376949871511897E-15,0.));
#51=IFCDIRECTION((1.,0.));
#52=IFCAXIS2PLACEMENT3D(#53,#32,#54);
#53=IFCCARTESIANPOINT((950.,159.,63.));
#54=IFCDIRECTION((0.,-1.,0.));
#55=IFCEXTRUDEDAREASOLID(#56,#67,#32,44.000000000027441);
#56=IFCARBITRARYPROFILEDEFWITHVOIDS(.AREA.,'0406 x 0610mm',#57,(#62));
#57=IFCPOLYLINE((#58,#59,#60,#61,#58));
#58=IFCCARTESIANPOINT((-931.,-981.));
#59=IFCCARTESIANPOINT((931.,-981.));
#60=IFCCARTESIANPOINT((931.,981.));
#61=IFCCARTESIANPOINT((-931.,981.));
#62=IFCPOLYLINE((#63,#64,#65,#66,#63));
#63=IFCCARTESIANPOINT((-887.,-937.));
#64=IFCCARTESIANPOINT((-887.,937.));
#65=IFCCARTESIANPOINT((887.,937.));
#66=IFCCARTESIANPOINT((887.,-937.));
#67=IFCAXIS2PLACEMENT3D(#68,#33,#69);
#68=IFCCARTESIANPOINT((950.,137.,1000.));
#69=IFCDIRECTION((1.,0.,0.));
#70=IFCEXTRUDEDAREASOLID(#71,#82,#32,63.000000000027434);
#71=IFCARBITRARYPROFILEDEFWITHVOIDS(.AREA.,'0406 x 0610mm',#72,(#77));
#72=IFCPOLYLINE((#73,#74,#75,#76,#73));
#73=IFCCARTESIANPOINT((-950.,-1000.));
#74=IFCCARTESIANPOINT((950.,-1000.));
#75=IFCCARTESIANPOINT((950.,1000.));
#76=IFCCARTESIANPOINT((-950.,1000.));
#77=IFCPOLYLINE((#78,#79,#80,#81,#78));
#78=IFCCARTESIANPOINT((-931.,-981.));
#79=IFCCARTESIANPOINT((-931.,981.));
#80=IFCCARTESIANPOINT((931.,981.));
#81=IFCCARTESIANPOINT((931.,-981.));
#82=IFCAXIS2PLACEMENT3D(#83,#33,#69);
#83=IFCCARTESIANPOINT((950.,137.,1000.));
#84=IFCEXTRUDEDAREASOLID(#85,#96,#32,136.99999999997257);
#85=IFCARBITRARYPROFILEDEFWITHVOIDS(.AREA.,'0406 x 0610mm',#86,(#91));
#86=IFCPOLYLINE((#87,#88,#89,#90,#87));
#87=IFCCARTESIANPOINT((-950.,-1000.));
#88=IFCCARTESIANPOINT((950.,-1000.));
#89=IFCCARTESIANPOINT((950.,1000.));
#90=IFCCARTESIANPOINT((-950.,1000.));
#91=IFCPOLYLINE((#92,#93,#94,#95,#92));
#92=IFCCARTESIANPOINT((-918.,-968.));
#93=IFCCARTESIANPOINT((-918.,968.));
#94=IFCCARTESIANPOINT((918.,968.));
#95=IFCCARTESIANPOINT((918.,-968.));
#96=IFCAXIS2PLACEMENT3D(#97,#33,#69);
#97=IFCCARTESIANPOINT((950.,-0.,1000.));
#98=IFCCARTESIANTRANSFORMATIONOPERATOR3D($,$,#26,1.,$);
#99=IFCMATERIALLIST((#100,#101));
#100=IFCMATERIAL('\X2\C720B9AC\X0\',$,$);
#101=IFCMATERIAL('\X2\C100C2DC\X0\',$,$);
#102=IFCRELASSOCIATESMATERIAL('1GFKTidET7gwJjbMJovAPA',$,$,$,(#12),#99);
#103=IFCPROPERTYSET('2rqZmRjbjEDfOjqkuif2F8',#13,'Pset_QuantityTakeOff',$,(#104));
#104=IFCPROPERTYSINGLEVALUE('Reference',$,IFCIDENTIFIER('0406 x 0610mm'),$);
#105=IFCRELDEFINESBYPROPERTIES('04ZBL50vT37ByWVjTULA95',$,$,$,(#12),#103);
#106=IFCPROPERTYSET('3lBBugh$n7CuRpKJL$N_cW',#13,'Pset_WindowCommon',$,(#107,#104));
#107=IFCPROPERTYSINGLEVALUE('IsExternal',$,IFCBOOLEAN(.T.),$);
#108=IFCRELDEFINESBYPROPERTIES('2xGeMai9fAw8_NRzy5fJQn',$,$,$,(#12),#106);
#109=IFCSTYLEDITEM(#70,(#110),$);
#110=IFCPRESENTATIONSTYLEASSIGNMENT((#111));
#111=IFCSURFACESTYLE('\X2\C100C2DC\X0\',.BOTH.,(#112));
#112=IFCSURFACESTYLERENDERING(#113,0.,$,$,$,$,IFCNORMALISEDRATIOMEASURE(0.5),IFCSPECULAREXPONENT(128.),.NOTDEFINED.);
#113=IFCCOLOURRGB($,0.8784313725490196,0.69803921568627447,0.49411764705882355);
#114=IFCSTYLEDITEM(#84,(#110),$);
#115=IFCSTYLEDITEM(#47,(#116),$);
#116=IFCPRESENTATIONSTYLEASSIGNMENT((#117));
#117=IFCSURFACESTYLE('\X2\C720B9AC\X0\',.BOTH.,(#118));
#118=IFCSURFACESTYLERENDERING(#119,0.90000000000000002,$,$,$,$,IFCNORMALISEDRATIOMEASURE(0.5),IFCSPECULAREXPONENT(12.),.NOTDEFINED.);
#119=IFCCOLOURRGB($,0.,0.50196078431372548,0.75294117647058822);
#120=IFCSTYLEDITEM(#55,(#110),$);
#121=IFCOWNERHISTORY(#14,#17,.READWRITE.,.ADDED.,1778765886,#14,#17,1778765886);
#122=IFCRELCONTAINEDINSPATIALSTRUCTURE('3EKCu6tTX5xwul880MlhAH',#121,$,$,(#12),#8);
#128=IFCOWNERHISTORY(#14,#17,$,.MODIFIED.,1778765886,#14,#17,1778487490);
#129=IFCCARTESIANPOINT((200.00000000002728,0.,0.));
#130=IFCDIRECTION((0.,0.,1.));
#131=IFCDIRECTION((0.,1.,0.));
#132=IFCAXIS2PLACEMENT3D(#129,#130,#131);
#133=IFCLOCALPLACEMENT($,#132);
#134=IFCOWNERHISTORY(#14,#17,.READWRITE.,.ADDED.,1778765886,#14,#17,1778765886);
#135=IFCPROPERTYSET('1G6jrW2Gb6ZuELOr2kYCvo',#134,'Pset_LibraryAsset',$,(#138,#139,#140,#141,#142,#143,#144,#145,#146,#147));
#136=IFCOWNERHISTORY(#14,#17,.READWRITE.,.ADDED.,1778765886,#14,#17,1778765886);
#137=IFCRELDEFINESBYPROPERTIES('2qrAq6V7v74wtaVLZqUvR8',#136,$,$,(#12),#135);
#138=IFCPROPERTYSINGLEVALUE('AssetId',$,IFCLABEL('window-189034'),$);
#139=IFCPROPERTYSINGLEVALUE('AssetGroup',$,IFCLABEL('window-189034'),$);
#140=IFCPROPERTYSINGLEVALUE('AssetRole',$,IFCLABEL('member-0'),$);
#141=IFCPROPERTYSINGLEVALUE('Category',$,IFCLABEL('window'),$);
#142=IFCPROPERTYSINGLEVALUE('SourceElementName',$,IFCLABEL('\X2\ACE0C815B428\X0\:0406 x 0610mm:189034'),$);
#143=IFCPROPERTYSINGLEVALUE('SourceGlobalId',$,IFCLABEL('3gwEtOFi5AUg4WULkh2o7A'),$);
#144=IFCPROPERTYSINGLEVALUE('Reusable',$,IFCBOOLEAN(.T.),$);
#145=IFCPROPERTYSINGLEVALUE('WidthMm',$,IFCREAL(200.),$);
#146=IFCPROPERTYSINGLEVALUE('DepthMm',$,IFCREAL(1900.),$);
#147=IFCPROPERTYSINGLEVALUE('HeightMm',$,IFCREAL(2000.),$);
ENDSEC;
END-ISO-10303-21;
