ISO-10303-21;
HEADER;
FILE_DESCRIPTION(('ViewDefinition [CoordinationView]'),'2;1');
FILE_NAME('','2026-05-14T22:38:06',(''),(''),'IfcOpenShell 0.8.5-1c5b825','IfcOpenShell 0.8.5-1c5b825','');
FILE_SCHEMA(('IFC4'));
ENDSEC;
DATA;
#1=IFCPROJECT('1TogMWJjPFSf2Iydb0tFbS',$,'window-189190 Asset Library',$,$,$,$,$,#5);
#2=IFCSIUNIT(*,.LENGTHUNIT.,.MILLI.,.METRE.);
#3=IFCSIUNIT(*,.AREAUNIT.,$,.SQUARE_METRE.);
#4=IFCSIUNIT(*,.VOLUMEUNIT.,$,.CUBIC_METRE.);
#5=IFCUNITASSIGNMENT((#3,#4,#2));
#6=IFCSITE('0mnhqRUF9CKfxKERtDpDX2',$,'Asset Site',$,$,$,$,$,$,$,$,$,$,$);
#7=IFCBUILDING('26Ufr7ehrBrAxltd1ZlQzz',$,'Asset Building',$,$,$,$,$,$,$,$,$);
#8=IFCBUILDINGSTOREY('39CqZYN9b5xB9miWosQidi',$,'Asset Storey',$,$,$,$,$,$,$);
#9=IFCRELAGGREGATES('3iTFsLl1z2qQgqgCWJOFiG',$,$,$,#1,(#6));
#10=IFCRELAGGREGATES('0GTdd8fdn5KP6jnXdlT6pA',$,$,$,#6,(#7));
#11=IFCRELAGGREGATES('3HAJ0IVxP9FPxWvheNmuO2',$,$,$,#7,(#8));
#12=IFCWINDOW('3gwEtOFi5AUg4WULkh2o2c',#129,'\X2\ACE0C815B428\X0\:0406 x 0610mm:189190',$,$,#134,#37,'189190',1999.9999999999959,1899.9999999999984,$,$,$);
#13=IFCOWNERHISTORY(#14,#17,$,.NOCHANGE.,$,$,$,1778487490);
#14=IFCPERSONANDORGANIZATION(#15,#16,$);
#15=IFCPERSON($,'','hnn06134',$,$,$,$,$);
#16=IFCORGANIZATION($,'','',$,$);
#17=IFCAPPLICATION(#18,'2027','Autodesk Revit 2027 (KOR)','Revit');
#18=IFCORGANIZATION($,'Autodesk Revit 2027 (KOR)',$,$,$);
#20=IFCLOCALPLACEMENT(#21,#32);
#21=IFCLOCALPLACEMENT(#22,#30);
#22=IFCLOCALPLACEMENT(#23,#28);
#23=IFCLOCALPLACEMENT(#24,#27);
#24=IFCLOCALPLACEMENT($,#25);
#25=IFCAXIS2PLACEMENT3D(#26,$,$);
#26=IFCCARTESIANPOINT((0.,0.,0.));
#27=IFCAXIS2PLACEMENT3D(#26,$,$);
#28=IFCAXIS2PLACEMENT3D(#29,$,$);
#29=IFCCARTESIANPOINT((0.,0.,2500.));
#30=IFCAXIS2PLACEMENT3D(#31,$,$);
#31=IFCCARTESIANPOINT((-4548.4848517218061,-2602.1092621716411,0.));
#32=IFCAXIS2PLACEMENT3D(#33,$,$);
#33=IFCCARTESIANPOINT((3560.,100.,915.));
#35=IFCDIRECTION((0.,0.,1.));
#37=IFCPRODUCTDEFINITIONSHAPE($,$,(#38));
#38=IFCSHAPEREPRESENTATION(#39,'Body','MappedRepresentation',(#43));
#39=IFCGEOMETRICREPRESENTATIONSUBCONTEXT('Body','Model',*,*,*,*,#40,$,.MODEL_VIEW.,$);
#40=IFCGEOMETRICREPRESENTATIONCONTEXT($,'Model',3,0.01,#41,#42);
#41=IFCAXIS2PLACEMENT3D(#26,$,$);
#42=IFCDIRECTION((0.,1.));
#43=IFCMAPPEDITEM(#44,#99);
#44=IFCREPRESENTATIONMAP(#45,#46);
#45=IFCAXIS2PLACEMENT3D(#26,$,$);
#46=IFCSHAPEREPRESENTATION(#39,'Body','SweptSolid',(#47,#55,#71,#85));
#47=IFCEXTRUDEDAREASOLID(#48,#52,#35,1874.0000000000043);
#48=IFCRECTANGLEPROFILEDEF(.AREA.,'0406 x 0610mm',#49,11.999999999999996,1773.9999999999959);
#49=IFCAXIS2PLACEMENT2D(#50,#51);
#50=IFCCARTESIANPOINT((8.4376949871511897E-15,0.));
#51=IFCDIRECTION((1.,0.));
#52=IFCAXIS2PLACEMENT3D(#53,#35,#54);
#53=IFCCARTESIANPOINT((950.,159.,63.));
#54=IFCDIRECTION((0.,-1.,0.));
#55=IFCEXTRUDEDAREASOLID(#56,#67,#35,44.000000000027441);
#56=IFCARBITRARYPROFILEDEFWITHVOIDS(.AREA.,'0406 x 0610mm',#57,(#62));
#57=IFCPOLYLINE((#58,#59,#60,#61,#58));
#58=IFCCARTESIANPOINT((-931.,-981.));
#59=IFCCARTESIANPOINT((931.,-981.));
#60=IFCCARTESIANPOINT((931.,981.));
#61=IFCCARTESIANPOINT((-931.,981.));
#62=IFCPOLYLINE((#63,#64,#65,#66,#63));
#63=IFCCARTESIANPOINT((-887.,-937.));
#64=IFCCARTESIANPOINT((-887.,937.));
#65=IFCCARTESIANPOINT((887.,937.));
#66=IFCCARTESIANPOINT((887.,-937.));
#67=IFCAXIS2PLACEMENT3D(#68,#69,#70);
#68=IFCCARTESIANPOINT((950.,137.,1000.));
#69=IFCDIRECTION((0.,1.,0.));
#70=IFCDIRECTION((1.,0.,0.));
#71=IFCEXTRUDEDAREASOLID(#72,#83,#35,63.000000000027434);
#72=IFCARBITRARYPROFILEDEFWITHVOIDS(.AREA.,'0406 x 0610mm',#73,(#78));
#73=IFCPOLYLINE((#74,#75,#76,#77,#74));
#74=IFCCARTESIANPOINT((-950.,-1000.));
#75=IFCCARTESIANPOINT((950.,-1000.));
#76=IFCCARTESIANPOINT((950.,1000.));
#77=IFCCARTESIANPOINT((-950.,1000.));
#78=IFCPOLYLINE((#79,#80,#81,#82,#79));
#79=IFCCARTESIANPOINT((-931.,-981.));
#80=IFCCARTESIANPOINT((-931.,981.));
#81=IFCCARTESIANPOINT((931.,981.));
#82=IFCCARTESIANPOINT((931.,-981.));
#83=IFCAXIS2PLACEMENT3D(#84,#69,#70);
#84=IFCCARTESIANPOINT((950.,137.,1000.));
#85=IFCEXTRUDEDAREASOLID(#86,#97,#35,136.99999999997257);
#86=IFCARBITRARYPROFILEDEFWITHVOIDS(.AREA.,'0406 x 0610mm',#87,(#92));
#87=IFCPOLYLINE((#88,#89,#90,#91,#88));
#88=IFCCARTESIANPOINT((-950.,-1000.));
#89=IFCCARTESIANPOINT((950.,-1000.));
#90=IFCCARTESIANPOINT((950.,1000.));
#91=IFCCARTESIANPOINT((-950.,1000.));
#92=IFCPOLYLINE((#93,#94,#95,#96,#93));
#93=IFCCARTESIANPOINT((-918.,-968.));
#94=IFCCARTESIANPOINT((-918.,968.));
#95=IFCCARTESIANPOINT((918.,968.));
#96=IFCCARTESIANPOINT((918.,-968.));
#97=IFCAXIS2PLACEMENT3D(#98,#69,#70);
#98=IFCCARTESIANPOINT((950.,-0.,1000.));
#99=IFCCARTESIANTRANSFORMATIONOPERATOR3D($,$,#26,1.,$);
#100=IFCMATERIALLIST((#101,#102));
#101=IFCMATERIAL('\X2\C720B9AC\X0\',$,$);
#102=IFCMATERIAL('\X2\C100C2DC\X0\',$,$);
#103=IFCRELASSOCIATESMATERIAL('3YiWIHkZH2CxyDttVJlStt',$,$,$,(#12),#100);
#104=IFCPROPERTYSET('3tWTrOGXD8NOkHNbdeqwT_',#13,'Pset_QuantityTakeOff',$,(#105));
#105=IFCPROPERTYSINGLEVALUE('Reference',$,IFCIDENTIFIER('0406 x 0610mm'),$);
#106=IFCRELDEFINESBYPROPERTIES('160TM9ESTE68qLkuwqu$F5',$,$,$,(#12),#104);
#107=IFCPROPERTYSET('2DWvcinGDF4h6tHWLk3Qao',#13,'Pset_WindowCommon',$,(#108,#105));
#108=IFCPROPERTYSINGLEVALUE('IsExternal',$,IFCBOOLEAN(.T.),$);
#109=IFCRELDEFINESBYPROPERTIES('1g_bV8plvDfgyA2_bW21PB',$,$,$,(#12),#107);
#110=IFCSTYLEDITEM(#71,(#111),$);
#111=IFCPRESENTATIONSTYLEASSIGNMENT((#112));
#112=IFCSURFACESTYLE('\X2\C100C2DC\X0\',.BOTH.,(#113));
#113=IFCSURFACESTYLERENDERING(#114,0.,$,$,$,$,IFCNORMALISEDRATIOMEASURE(0.5),IFCSPECULAREXPONENT(128.),.NOTDEFINED.);
#114=IFCCOLOURRGB($,0.8784313725490196,0.69803921568627447,0.49411764705882355);
#115=IFCSTYLEDITEM(#85,(#111),$);
#116=IFCSTYLEDITEM(#47,(#117),$);
#117=IFCPRESENTATIONSTYLEASSIGNMENT((#118));
#118=IFCSURFACESTYLE('\X2\C720B9AC\X0\',.BOTH.,(#119));
#119=IFCSURFACESTYLERENDERING(#120,0.90000000000000002,$,$,$,$,IFCNORMALISEDRATIOMEASURE(0.5),IFCSPECULAREXPONENT(12.),.NOTDEFINED.);
#120=IFCCOLOURRGB($,0.,0.50196078431372548,0.75294117647058822);
#121=IFCSTYLEDITEM(#55,(#111),$);
#122=IFCOWNERHISTORY(#14,#17,.READWRITE.,.ADDED.,1778765886,#14,#17,1778765886);
#123=IFCRELCONTAINEDINSPATIALSTRUCTURE('3sAmqm9XvAI8$9l3E12N72',#122,$,$,(#12),#8);
#129=IFCOWNERHISTORY(#14,#17,$,.MODIFIED.,1778765886,#14,#17,1778487490);
#130=IFCCARTESIANPOINT((1900.0000000000005,200.00000000002728,0.));
#131=IFCDIRECTION((0.,0.,1.));
#132=IFCDIRECTION((-1.,0.,0.));
#133=IFCAXIS2PLACEMENT3D(#130,#131,#132);
#134=IFCLOCALPLACEMENT($,#133);
#135=IFCOWNERHISTORY(#14,#17,.READWRITE.,.ADDED.,1778765886,#14,#17,1778765886);
#136=IFCPROPERTYSET('2FO1iY9ob0khtjGjiPW94U',#135,'Pset_LibraryAsset',$,(#139,#140,#141,#142,#143,#144,#145,#146,#147,#148));
#137=IFCOWNERHISTORY(#14,#17,.READWRITE.,.ADDED.,1778765886,#14,#17,1778765886);
#138=IFCRELDEFINESBYPROPERTIES('1baLj_Brz5AeciXFOxwRcW',#137,$,$,(#12),#136);
#139=IFCPROPERTYSINGLEVALUE('AssetId',$,IFCLABEL('window-189190'),$);
#140=IFCPROPERTYSINGLEVALUE('AssetGroup',$,IFCLABEL('window-189190'),$);
#141=IFCPROPERTYSINGLEVALUE('AssetRole',$,IFCLABEL('member-0'),$);
#142=IFCPROPERTYSINGLEVALUE('Category',$,IFCLABEL('window'),$);
#143=IFCPROPERTYSINGLEVALUE('SourceElementName',$,IFCLABEL('\X2\ACE0C815B428\X0\:0406 x 0610mm:189190'),$);
#144=IFCPROPERTYSINGLEVALUE('SourceGlobalId',$,IFCLABEL('3gwEtOFi5AUg4WULkh2o2c'),$);
#145=IFCPROPERTYSINGLEVALUE('Reusable',$,IFCBOOLEAN(.T.),$);
#146=IFCPROPERTYSINGLEVALUE('WidthMm',$,IFCREAL(1900.),$);
#147=IFCPROPERTYSINGLEVALUE('DepthMm',$,IFCREAL(200.),$);
#148=IFCPROPERTYSINGLEVALUE('HeightMm',$,IFCREAL(2000.),$);
ENDSEC;
END-ISO-10303-21;
