ISO-10303-21;
HEADER;
FILE_DESCRIPTION(('ViewDefinition [CoordinationView]'),'2;1');
FILE_NAME('','2026-05-15T08:53:14',(''),(''),'IfcOpenShell 0.8.5-1c5b825','IfcOpenShell 0.8.5-1c5b825','');
FILE_SCHEMA(('IFC4'));
ENDSEC;
DATA;
#1=IFCPROJECT('16vWnasOXFY98WUxNtkd5p',$,'window-148460 Asset Library',$,$,$,$,$,#5);
#2=IFCSIUNIT(*,.LENGTHUNIT.,.MILLI.,.METRE.);
#3=IFCSIUNIT(*,.AREAUNIT.,$,.SQUARE_METRE.);
#4=IFCSIUNIT(*,.VOLUMEUNIT.,$,.CUBIC_METRE.);
#5=IFCUNITASSIGNMENT((#4,#2,#3));
#6=IFCSITE('3e$6GngxHFoxJW6bCThETC',$,'Asset Site',$,$,$,$,$,$,$,$,$,$,$);
#7=IFCBUILDING('1cF$vJQrj0T9ajiB$cybC$',$,'Asset Building',$,$,$,$,$,$,$,$,$);
#8=IFCBUILDINGSTOREY('3VrVJ9rx575OxWHOA2Zs7W',$,'Asset Storey',$,$,$,$,$,$,$);
#9=IFCRELAGGREGATES('3Eqbux0iz9cBvJ5rgcXRQv',$,$,$,#1,(#6));
#10=IFCRELAGGREGATES('3$IKczu8T4txDPUs89cQ5C',$,$,$,#6,(#7));
#11=IFCRELAGGREGATES('1ux9WdtLv39ApDZxFIwRms',$,$,$,#7,(#8));
#12=IFCWINDOW('0FqchgwyDCcR29rtujWR3u',#137,'\X2\ACE0C815B428\X0\:0406 x 0610mm:148460',$,$,#163,#37,'148460',1999.9999999999952,1899.9999999999984,$,$,$);
#13=IFCOWNERHISTORY(#14,#17,$,.NOCHANGE.,$,$,$,1778487490);
#14=IFCPERSONANDORGANIZATION(#15,#16,$);
#15=IFCPERSON($,'','hnn06134',$,$,$,$,$);
#16=IFCORGANIZATION($,'','',$,$);
#17=IFCAPPLICATION(#18,'2027','Autodesk Revit 2027 (KOR)','Revit');
#18=IFCORGANIZATION($,'Autodesk Revit 2027 (KOR)',$,$,$);
#21=IFCLOCALPLACEMENT(#22,#29);
#22=IFCLOCALPLACEMENT(#23,#28);
#23=IFCLOCALPLACEMENT(#24,#27);
#24=IFCLOCALPLACEMENT($,#25);
#25=IFCAXIS2PLACEMENT3D(#26,$,$);
#26=IFCCARTESIANPOINT((0.,0.,0.));
#27=IFCAXIS2PLACEMENT3D(#26,$,$);
#28=IFCAXIS2PLACEMENT3D(#26,$,$);
#29=IFCAXIS2PLACEMENT3D(#30,#31,#32);
#30=IFCCARTESIANPOINT((-8234.2616478202835,-1764.6438757782967,0.));
#31=IFCDIRECTION((0.,0.,1.));
#32=IFCDIRECTION((0.,-1.,0.));
#37=IFCPRODUCTDEFINITIONSHAPE($,$,(#38));
#38=IFCSHAPEREPRESENTATION(#39,'Body','MappedRepresentation',(#43));
#39=IFCGEOMETRICREPRESENTATIONSUBCONTEXT('Body','Model',*,*,*,*,#40,$,.MODEL_VIEW.,$);
#40=IFCGEOMETRICREPRESENTATIONCONTEXT($,'Model',3,0.01,#41,#42);
#41=IFCAXIS2PLACEMENT3D(#26,$,$);
#42=IFCDIRECTION((0.,1.));
#43=IFCMAPPEDITEM(#44,#98);
#44=IFCREPRESENTATIONMAP(#45,#46);
#45=IFCAXIS2PLACEMENT3D(#26,$,$);
#46=IFCSHAPEREPRESENTATION(#39,'Body','SweptSolid',(#47,#54,#70,#84));
#47=IFCEXTRUDEDAREASOLID(#48,#52,#31,1874.0000000000043);
#48=IFCRECTANGLEPROFILEDEF(.AREA.,'0406 x 0610mm',#49,11.999999999999996,1773.9999999999959);
#49=IFCAXIS2PLACEMENT2D(#50,#51);
#50=IFCCARTESIANPOINT((8.4376949871511897E-15,0.));
#51=IFCDIRECTION((1.,0.));
#52=IFCAXIS2PLACEMENT3D(#53,#31,#32);
#53=IFCCARTESIANPOINT((950.,159.,63.));
#54=IFCEXTRUDEDAREASOLID(#55,#66,#31,44.000000000027441);
#55=IFCARBITRARYPROFILEDEFWITHVOIDS(.AREA.,'0406 x 0610mm',#56,(#61));
#56=IFCPOLYLINE((#57,#58,#59,#60,#57));
#57=IFCCARTESIANPOINT((-931.,-981.));
#58=IFCCARTESIANPOINT((931.,-981.));
#59=IFCCARTESIANPOINT((931.,981.));
#60=IFCCARTESIANPOINT((-931.,981.));
#61=IFCPOLYLINE((#62,#63,#64,#65,#62));
#62=IFCCARTESIANPOINT((-887.,-937.));
#63=IFCCARTESIANPOINT((-887.,937.));
#64=IFCCARTESIANPOINT((887.,937.));
#65=IFCCARTESIANPOINT((887.,-937.));
#66=IFCAXIS2PLACEMENT3D(#67,#68,#69);
#67=IFCCARTESIANPOINT((950.,137.,1000.));
#68=IFCDIRECTION((0.,1.,0.));
#69=IFCDIRECTION((1.,0.,0.));
#70=IFCEXTRUDEDAREASOLID(#71,#82,#31,63.000000000027434);
#71=IFCARBITRARYPROFILEDEFWITHVOIDS(.AREA.,'0406 x 0610mm',#72,(#77));
#72=IFCPOLYLINE((#73,#74,#75,#76,#73));
#73=IFCCARTESIANPOINT((-950.,-1000.));
#74=IFCCARTESIANPOINT((950.,-1000.));
#75=IFCCARTESIANPOINT((950.,1000.));
#76=IFCCARTESIANPOINT((-950.,1000.));
#77=IFCPOLYLINE((#78,#79,#80,#81,#78));
#78=IFCCARTESIANPOINT((-931.,-981.));
#79=IFCCARTESIANPOINT((-931.,981.));
#80=IFCCARTESIANPOINT((931.,981.));
#81=IFCCARTESIANPOINT((931.,-981.));
#82=IFCAXIS2PLACEMENT3D(#83,#68,#69);
#83=IFCCARTESIANPOINT((950.,137.,1000.));
#84=IFCEXTRUDEDAREASOLID(#85,#96,#31,136.99999999997257);
#85=IFCARBITRARYPROFILEDEFWITHVOIDS(.AREA.,'0406 x 0610mm',#86,(#91));
#86=IFCPOLYLINE((#87,#88,#89,#90,#87));
#87=IFCCARTESIANPOINT((-950.,-1000.));
#88=IFCCARTESIANPOINT((950.,-1000.));
#89=IFCCARTESIANPOINT((950.,1000.));
#90=IFCCARTESIANPOINT((-950.,1000.));
#91=IFCPOLYLINE((#92,#93,#94,#95,#92));
#92=IFCCARTESIANPOINT((-918.,-968.));
#93=IFCCARTESIANPOINT((-918.,968.));
#94=IFCCARTESIANPOINT((918.,968.));
#95=IFCCARTESIANPOINT((918.,-968.));
#96=IFCAXIS2PLACEMENT3D(#97,#68,#69);
#97=IFCCARTESIANPOINT((950.,-0.,1000.));
#98=IFCCARTESIANTRANSFORMATIONOPERATOR3D($,$,#26,1.,$);
#99=IFCOPENINGELEMENT('0XU8tYFTv6MxGmR6ssO7hB',#143,'\X2\ACE0C815B428\X0\:0406 x 0610mm:148460:1',$,'Opening',#158,#100,'148460',$);
#100=IFCPRODUCTDEFINITIONSHAPE($,$,(#101));
#101=IFCSHAPEREPRESENTATION(#39,'Body','SweptSolid',(#102));
#102=IFCEXTRUDEDAREASOLID(#103,#106,#31,200.);
#103=IFCRECTANGLEPROFILEDEF(.AREA.,$,#104,1999.9999999999952,1899.9999999999986);
#104=IFCAXIS2PLACEMENT2D(#105,#51);
#105=IFCCARTESIANPOINT((999.99999999999761,949.99999999999955));
#106=IFCAXIS2PLACEMENT3D(#26,#32,#31);
#107=IFCMATERIALLIST((#108,#109));
#108=IFCMATERIAL('\X2\C720B9AC\X0\',$,$);
#109=IFCMATERIAL('\X2\C100C2DC\X0\',$,$);
#110=IFCRELASSOCIATESMATERIAL('2IGVnerd9E4R6CAx5Ea57p',$,$,$,(#12),#107);
#111=IFCPROPERTYSET('2Tm5383Hr7zhAW9Zu8DD_K',#13,'Pset_QuantityTakeOff',$,(#112));
#112=IFCPROPERTYSINGLEVALUE('Reference',$,IFCIDENTIFIER('0406 x 0610mm'),$);
#113=IFCRELDEFINESBYPROPERTIES('0m2urq7A97gvGMwFovN1qa',$,$,$,(#12),#111);
#114=IFCPROPERTYSET('2tiZ2XcKH0b8z_qVfSapvC',#13,'Pset_WindowCommon',$,(#115,#112));
#115=IFCPROPERTYSINGLEVALUE('IsExternal',$,IFCBOOLEAN(.T.),$);
#116=IFCRELDEFINESBYPROPERTIES('3HJfQ5eub6DAAYsoBuJCiK',$,$,$,(#12),#114);
#117=IFCSTYLEDITEM(#70,(#118),$);
#118=IFCPRESENTATIONSTYLEASSIGNMENT((#119));
#119=IFCSURFACESTYLE('\X2\C100C2DC\X0\',.BOTH.,(#120));
#120=IFCSURFACESTYLERENDERING(#121,0.,$,$,$,$,IFCNORMALISEDRATIOMEASURE(0.5),IFCSPECULAREXPONENT(128.),.NOTDEFINED.);
#121=IFCCOLOURRGB($,0.8784313725490196,0.69803921568627447,0.49411764705882355);
#122=IFCSTYLEDITEM(#84,(#118),$);
#123=IFCSTYLEDITEM(#47,(#124),$);
#124=IFCPRESENTATIONSTYLEASSIGNMENT((#125));
#125=IFCSURFACESTYLE('\X2\C720B9AC\X0\',.BOTH.,(#126));
#126=IFCSURFACESTYLERENDERING(#127,0.90000000000000002,$,$,$,$,IFCNORMALISEDRATIOMEASURE(0.5),IFCSPECULAREXPONENT(12.),.NOTDEFINED.);
#127=IFCCOLOURRGB($,0.,0.50196078431372548,0.75294117647058822);
#128=IFCSTYLEDITEM(#54,(#118),$);
#129=IFCRELFILLSELEMENT('1lNiuAzw58Pv9cjULbi4Vn',$,$,$,#99,#12);
#130=IFCOWNERHISTORY(#14,#17,.READWRITE.,.ADDED.,1778802794,#14,#17,1778802794);
#131=IFCRELCONTAINEDINSPATIALSTRUCTURE('36ySEIxb96Vvo_9xjqkK6d',#130,$,$,(#12,#99),#8);
#137=IFCOWNERHISTORY(#14,#17,$,.MODIFIED.,1778802794,#14,#17,1778487490);
#143=IFCOWNERHISTORY(#14,#17,$,.MODIFIED.,1778802794,#14,#17,1778487490);
#154=IFCCARTESIANPOINT((200.00000000002947,0.,0.));
#155=IFCDIRECTION((0.,0.,1.));
#156=IFCDIRECTION((0.,-1.,0.));
#157=IFCAXIS2PLACEMENT3D(#154,#155,#156);
#158=IFCLOCALPLACEMENT($,#157);
#159=IFCCARTESIANPOINT((0.,5.2735593669694936E-13,0.));
#160=IFCDIRECTION((0.,0.,1.));
#161=IFCDIRECTION((-1.,0.,0.));
#162=IFCAXIS2PLACEMENT3D(#159,#160,#161);
#163=IFCLOCALPLACEMENT(#158,#162);
#164=IFCOWNERHISTORY(#14,#17,.READWRITE.,.ADDED.,1778802794,#14,#17,1778802794);
#165=IFCPROPERTYSET('2m0EtNotLEcwntncH8POpb',#164,'Pset_LibraryAsset',$,(#168,#169,#170,#171,#172,#173,#174,#175,#176,#177));
#166=IFCOWNERHISTORY(#14,#17,.READWRITE.,.ADDED.,1778802794,#14,#17,1778802794);
#167=IFCRELDEFINESBYPROPERTIES('0WB6CvLQL9OhGUIe9nw3pV',#166,$,$,(#12),#165);
#168=IFCPROPERTYSINGLEVALUE('AssetId',$,IFCLABEL('window-148460'),$);
#169=IFCPROPERTYSINGLEVALUE('AssetGroup',$,IFCLABEL('window-148460'),$);
#170=IFCPROPERTYSINGLEVALUE('AssetRole',$,IFCLABEL('member-0'),$);
#171=IFCPROPERTYSINGLEVALUE('Category',$,IFCLABEL('window'),$);
#172=IFCPROPERTYSINGLEVALUE('SourceElementName',$,IFCLABEL('\X2\ACE0C815B428\X0\:0406 x 0610mm:148460'),$);
#173=IFCPROPERTYSINGLEVALUE('SourceGlobalId',$,IFCLABEL('2znubWhPDD4wn7Fg4E25$b'),$);
#174=IFCPROPERTYSINGLEVALUE('Reusable',$,IFCBOOLEAN(.T.),$);
#175=IFCPROPERTYSINGLEVALUE('WidthMm',$,IFCREAL(200.),$);
#176=IFCPROPERTYSINGLEVALUE('DepthMm',$,IFCREAL(1900.),$);
#177=IFCPROPERTYSINGLEVALUE('HeightMm',$,IFCREAL(2000.),$);
#178=IFCOWNERHISTORY(#14,#17,.READWRITE.,.ADDED.,1778802794,#14,#17,1778802794);
#179=IFCPROPERTYSET('2wn58HudP388Zsw47W3N7B',#178,'Pset_LibraryAsset',$,(#182,#183,#184,#185,#186,#187,#188,#189,#190,#191,#192));
#180=IFCOWNERHISTORY(#14,#17,.READWRITE.,.ADDED.,1778802794,#14,#17,1778802794);
#181=IFCRELDEFINESBYPROPERTIES('3Yt_jWJpf2zBnEqmjkkpTI',#180,$,$,(#99),#179);
#182=IFCPROPERTYSINGLEVALUE('AssetId',$,IFCLABEL('window-148460'),$);
#183=IFCPROPERTYSINGLEVALUE('AssetGroup',$,IFCLABEL('window-148460'),$);
#184=IFCPROPERTYSINGLEVALUE('AssetRole',$,IFCLABEL('member-1'),$);
#185=IFCPROPERTYSINGLEVALUE('Category',$,IFCLABEL('window'),$);
#186=IFCPROPERTYSINGLEVALUE('SourceElementName',$,IFCLABEL('\X2\ACE0C815B428\X0\:0406 x 0610mm:148460:1'),$);
#187=IFCPROPERTYSINGLEVALUE('SourceGlobalId',$,IFCLABEL('3NHwK$0Bd$$3iw4i2YQgss'),$);
#188=IFCPROPERTYSINGLEVALUE('Reusable',$,IFCBOOLEAN(.T.),$);
#189=IFCPROPERTYSINGLEVALUE('OpeningImportPolicy',$,IFCLABEL('recreate_host_void_on_import'),$);
#190=IFCPROPERTYSINGLEVALUE('WidthMm',$,IFCREAL(200.),$);
#191=IFCPROPERTYSINGLEVALUE('DepthMm',$,IFCREAL(1900.),$);
#192=IFCPROPERTYSINGLEVALUE('HeightMm',$,IFCREAL(2000.),$);
ENDSEC;
END-ISO-10303-21;
