ISO-10303-21;
HEADER;
FILE_DESCRIPTION(('ViewDefinition [CoordinationView]'),'2;1');
FILE_NAME('','2026-05-14T22:38:06',(''),(''),'IfcOpenShell 0.8.5-1c5b825','IfcOpenShell 0.8.5-1c5b825','');
FILE_SCHEMA(('IFC4'));
ENDSEC;
DATA;
#1=IFCPROJECT('18OsAp8If2_eOxPGz$_IiS',$,'window-148572 Asset Library',$,$,$,$,$,#5);
#2=IFCSIUNIT(*,.LENGTHUNIT.,.MILLI.,.METRE.);
#3=IFCSIUNIT(*,.AREAUNIT.,$,.SQUARE_METRE.);
#4=IFCSIUNIT(*,.VOLUMEUNIT.,$,.CUBIC_METRE.);
#5=IFCUNITASSIGNMENT((#2,#3,#4));
#6=IFCSITE('1_abTDZBvEw8MTBv4ASaN4',$,'Asset Site',$,$,$,$,$,$,$,$,$,$,$);
#7=IFCBUILDING('1iBnTz3$nAMPB6Biq9FERp',$,'Asset Building',$,$,$,$,$,$,$,$,$);
#8=IFCBUILDINGSTOREY('13KYRMNebEZefAwlvDOMxj',$,'Asset Storey',$,$,$,$,$,$,$);
#9=IFCRELAGGREGATES('2lh2ehqx5DcgaYTqos4RU2',$,$,$,#1,(#6));
#10=IFCRELAGGREGATES('2gnh4_W9r1_fx2t28yWwe$',$,$,$,#6,(#7));
#11=IFCRELAGGREGATES('2Dq5KcI5v2pAsCHbS9$NhU',$,$,$,#7,(#8));
#12=IFCWINDOW('2znubWhPDD4wn7Fg4E25XL',#128,'\X2\ACE0C815B428\X0\:0406 x 0610mm:148572',$,$,#133,#37,'148572',1999.9999999999952,1899.999999999998,$,$,$);
#13=IFCOWNERHISTORY(#14,#17,$,.NOCHANGE.,$,$,$,1778487490);
#14=IFCPERSONANDORGANIZATION(#15,#16,$);
#15=IFCPERSON($,'','hnn06134',$,$,$,$,$);
#16=IFCORGANIZATION($,'','',$,$);
#17=IFCAPPLICATION(#18,'2027','Autodesk Revit 2027 (KOR)','Revit');
#18=IFCORGANIZATION($,'Autodesk Revit 2027 (KOR)',$,$,$);
#20=IFCLOCALPLACEMENT(#21,#33);
#21=IFCLOCALPLACEMENT(#22,#29);
#22=IFCLOCALPLACEMENT(#23,#28);
#23=IFCLOCALPLACEMENT(#24,#27);
#24=IFCLOCALPLACEMENT($,#25);
#25=IFCAXIS2PLACEMENT3D(#26,$,$);
#26=IFCCARTESIANPOINT((0.,0.,0.));
#27=IFCAXIS2PLACEMENT3D(#26,$,$);
#28=IFCAXIS2PLACEMENT3D(#26,$,$);
#29=IFCAXIS2PLACEMENT3D(#30,#31,#32);
#30=IFCCARTESIANPOINT((-8234.2616478202835,-1764.6438757782967,0.));
#31=IFCDIRECTION((0.,0.,1.));
#32=IFCDIRECTION((0.,-1.,0.));
#33=IFCAXIS2PLACEMENT3D(#34,$,$);
#34=IFCCARTESIANPOINT((4800.,100.,0.));
#37=IFCPRODUCTDEFINITIONSHAPE($,$,(#38));
#38=IFCSHAPEREPRESENTATION(#39,'Body','MappedRepresentation',(#43));
#39=IFCGEOMETRICREPRESENTATIONSUBCONTEXT('Body','Model',*,*,*,*,#40,$,.MODEL_VIEW.,$);
#40=IFCGEOMETRICREPRESENTATIONCONTEXT($,'Model',3,0.01,#41,#42);
#41=IFCAXIS2PLACEMENT3D(#26,$,$);
#42=IFCDIRECTION((0.,1.));
#43=IFCMAPPEDITEM(#44,#98);
#44=IFCREPRESENTATIONMAP(#45,#46);
#45=IFCAXIS2PLACEMENT3D(#26,$,$);
#46=IFCSHAPEREPRESENTATION(#39,'Body','SweptSolid',(#47,#54,#70,#84));
#47=IFCEXTRUDEDAREASOLID(#48,#52,#31,1874.0000000000043);
#48=IFCRECTANGLEPROFILEDEF(.AREA.,'0406 x 0610mm',#49,11.999999999999996,1773.9999999999959);
#49=IFCAXIS2PLACEMENT2D(#50,#51);
#50=IFCCARTESIANPOINT((8.4376949871511897E-15,0.));
#51=IFCDIRECTION((1.,0.));
#52=IFCAXIS2PLACEMENT3D(#53,#31,#32);
#53=IFCCARTESIANPOINT((950.,159.,63.));
#54=IFCEXTRUDEDAREASOLID(#55,#66,#31,44.000000000027441);
#55=IFCARBITRARYPROFILEDEFWITHVOIDS(.AREA.,'0406 x 0610mm',#56,(#61));
#56=IFCPOLYLINE((#57,#58,#59,#60,#57));
#57=IFCCARTESIANPOINT((-931.,-981.));
#58=IFCCARTESIANPOINT((931.,-981.));
#59=IFCCARTESIANPOINT((931.,981.));
#60=IFCCARTESIANPOINT((-931.,981.));
#61=IFCPOLYLINE((#62,#63,#64,#65,#62));
#62=IFCCARTESIANPOINT((-887.,-937.));
#63=IFCCARTESIANPOINT((-887.,937.));
#64=IFCCARTESIANPOINT((887.,937.));
#65=IFCCARTESIANPOINT((887.,-937.));
#66=IFCAXIS2PLACEMENT3D(#67,#68,#69);
#67=IFCCARTESIANPOINT((950.,137.,1000.));
#68=IFCDIRECTION((0.,1.,0.));
#69=IFCDIRECTION((1.,0.,0.));
#70=IFCEXTRUDEDAREASOLID(#71,#82,#31,63.000000000027434);
#71=IFCARBITRARYPROFILEDEFWITHVOIDS(.AREA.,'0406 x 0610mm',#72,(#77));
#72=IFCPOLYLINE((#73,#74,#75,#76,#73));
#73=IFCCARTESIANPOINT((-950.,-1000.));
#74=IFCCARTESIANPOINT((950.,-1000.));
#75=IFCCARTESIANPOINT((950.,1000.));
#76=IFCCARTESIANPOINT((-950.,1000.));
#77=IFCPOLYLINE((#78,#79,#80,#81,#78));
#78=IFCCARTESIANPOINT((-931.,-981.));
#79=IFCCARTESIANPOINT((-931.,981.));
#80=IFCCARTESIANPOINT((931.,981.));
#81=IFCCARTESIANPOINT((931.,-981.));
#82=IFCAXIS2PLACEMENT3D(#83,#68,#69);
#83=IFCCARTESIANPOINT((950.,137.,1000.));
#84=IFCEXTRUDEDAREASOLID(#85,#96,#31,136.99999999997257);
#85=IFCARBITRARYPROFILEDEFWITHVOIDS(.AREA.,'0406 x 0610mm',#86,(#91));
#86=IFCPOLYLINE((#87,#88,#89,#90,#87));
#87=IFCCARTESIANPOINT((-950.,-1000.));
#88=IFCCARTESIANPOINT((950.,-1000.));
#89=IFCCARTESIANPOINT((950.,1000.));
#90=IFCCARTESIANPOINT((-950.,1000.));
#91=IFCPOLYLINE((#92,#93,#94,#95,#92));
#92=IFCCARTESIANPOINT((-918.,-968.));
#93=IFCCARTESIANPOINT((-918.,968.));
#94=IFCCARTESIANPOINT((918.,968.));
#95=IFCCARTESIANPOINT((918.,-968.));
#96=IFCAXIS2PLACEMENT3D(#97,#68,#69);
#97=IFCCARTESIANPOINT((950.,-0.,1000.));
#98=IFCCARTESIANTRANSFORMATIONOPERATOR3D($,$,#26,1.,$);
#99=IFCMATERIALLIST((#100,#101));
#100=IFCMATERIAL('\X2\C720B9AC\X0\',$,$);
#101=IFCMATERIAL('\X2\C100C2DC\X0\',$,$);
#102=IFCRELASSOCIATESMATERIAL('31pKsui4P6PvyFWOWajUHk',$,$,$,(#12),#99);
#103=IFCPROPERTYSET('02r1EHCMzE4xrJnfVCiD2f',#13,'Pset_QuantityTakeOff',$,(#104));
#104=IFCPROPERTYSINGLEVALUE('Reference',$,IFCIDENTIFIER('0406 x 0610mm'),$);
#105=IFCRELDEFINESBYPROPERTIES('2Tv$MIypfDYOH7brT5g4xv',$,$,$,(#12),#103);
#106=IFCPROPERTYSET('376lAyxqvDBApXoqJ0JZbL',#13,'Pset_WindowCommon',$,(#107,#104));
#107=IFCPROPERTYSINGLEVALUE('IsExternal',$,IFCBOOLEAN(.T.),$);
#108=IFCRELDEFINESBYPROPERTIES('0yvFFdIaH8R9nbDRhrPonB',$,$,$,(#12),#106);
#109=IFCSTYLEDITEM(#70,(#110),$);
#110=IFCPRESENTATIONSTYLEASSIGNMENT((#111));
#111=IFCSURFACESTYLE('\X2\C100C2DC\X0\',.BOTH.,(#112));
#112=IFCSURFACESTYLERENDERING(#113,0.,$,$,$,$,IFCNORMALISEDRATIOMEASURE(0.5),IFCSPECULAREXPONENT(128.),.NOTDEFINED.);
#113=IFCCOLOURRGB($,0.8784313725490196,0.69803921568627447,0.49411764705882355);
#114=IFCSTYLEDITEM(#84,(#110),$);
#115=IFCSTYLEDITEM(#47,(#116),$);
#116=IFCPRESENTATIONSTYLEASSIGNMENT((#117));
#117=IFCSURFACESTYLE('\X2\C720B9AC\X0\',.BOTH.,(#118));
#118=IFCSURFACESTYLERENDERING(#119,0.90000000000000002,$,$,$,$,IFCNORMALISEDRATIOMEASURE(0.5),IFCSPECULAREXPONENT(12.),.NOTDEFINED.);
#119=IFCCOLOURRGB($,0.,0.50196078431372548,0.75294117647058822);
#120=IFCSTYLEDITEM(#54,(#110),$);
#121=IFCOWNERHISTORY(#14,#17,.READWRITE.,.ADDED.,1778765886,#14,#17,1778765886);
#122=IFCRELCONTAINEDINSPATIALSTRUCTURE('20D9T1kJz4qB94L2zmCriE',#121,$,$,(#12),#8);
#128=IFCOWNERHISTORY(#14,#17,$,.MODIFIED.,1778765886,#14,#17,1778487490);
#129=IFCCARTESIANPOINT((200.00000000003001,0.,0.));
#130=IFCDIRECTION((0.,0.,1.));
#131=IFCDIRECTION((0.,1.,0.));
#132=IFCAXIS2PLACEMENT3D(#129,#130,#131);
#133=IFCLOCALPLACEMENT($,#132);
#134=IFCOWNERHISTORY(#14,#17,.READWRITE.,.ADDED.,1778765886,#14,#17,1778765886);
#135=IFCPROPERTYSET('2$PwjQMaTF2ACpYeQi3X4T',#134,'Pset_LibraryAsset',$,(#138,#139,#140,#141,#142,#143,#144,#145,#146,#147));
#136=IFCOWNERHISTORY(#14,#17,.READWRITE.,.ADDED.,1778765886,#14,#17,1778765886);
#137=IFCRELDEFINESBYPROPERTIES('2994FnBJzE9u3JNJ0FCN7N',#136,$,$,(#12),#135);
#138=IFCPROPERTYSINGLEVALUE('AssetId',$,IFCLABEL('window-148572'),$);
#139=IFCPROPERTYSINGLEVALUE('AssetGroup',$,IFCLABEL('window-148572'),$);
#140=IFCPROPERTYSINGLEVALUE('AssetRole',$,IFCLABEL('member-0'),$);
#141=IFCPROPERTYSINGLEVALUE('Category',$,IFCLABEL('window'),$);
#142=IFCPROPERTYSINGLEVALUE('SourceElementName',$,IFCLABEL('\X2\ACE0C815B428\X0\:0406 x 0610mm:148572'),$);
#143=IFCPROPERTYSINGLEVALUE('SourceGlobalId',$,IFCLABEL('2znubWhPDD4wn7Fg4E25XL'),$);
#144=IFCPROPERTYSINGLEVALUE('Reusable',$,IFCBOOLEAN(.T.),$);
#145=IFCPROPERTYSINGLEVALUE('WidthMm',$,IFCREAL(200.),$);
#146=IFCPROPERTYSINGLEVALUE('DepthMm',$,IFCREAL(1900.),$);
#147=IFCPROPERTYSINGLEVALUE('HeightMm',$,IFCREAL(2000.),$);
ENDSEC;
END-ISO-10303-21;
