ISO-10303-21;
HEADER;
FILE_DESCRIPTION(('ViewDefinition [CoordinationView]'),'2;1');
FILE_NAME('','2026-05-14T22:38:06',(''),(''),'IfcOpenShell 0.8.5-1c5b825','IfcOpenShell 0.8.5-1c5b825','');
FILE_SCHEMA(('IFC4'));
ENDSEC;
DATA;
#1=IFCPROJECT('3eGqd2dCP3APJ25cs$35OB',$,'window-188066 Asset Library',$,$,$,$,$,#5);
#2=IFCSIUNIT(*,.LENGTHUNIT.,.MILLI.,.METRE.);
#3=IFCSIUNIT(*,.AREAUNIT.,$,.SQUARE_METRE.);
#4=IFCSIUNIT(*,.VOLUMEUNIT.,$,.CUBIC_METRE.);
#5=IFCUNITASSIGNMENT((#3,#4,#2));
#6=IFCSITE('2Jse2PVPj0JOKpBz5Vddpq',$,'Asset Site',$,$,$,$,$,$,$,$,$,$,$);
#7=IFCBUILDING('2XDEzvq2jFj96Xhn_9GNSS',$,'Asset Building',$,$,$,$,$,$,$,$,$);
#8=IFCBUILDINGSTOREY('0xWFLlIET45wC90D1Jsg6d',$,'Asset Storey',$,$,$,$,$,$,$);
#9=IFCRELAGGREGATES('1ex3iC4kb32BCE$m$LYJ56',$,$,$,#1,(#6));
#10=IFCRELAGGREGATES('2nsfGx$gD5$fqyTG_LvkOM',$,$,$,#6,(#7));
#11=IFCRELAGGREGATES('1_7pHfprj3xwTx$KDcRwp1',$,$,$,#7,(#8));
#12=IFCWINDOW('3gwEtOFi5AUg4WULkh2nq2',#128,'\X2\ACE0C815B428\X0\:0406 x 0610mm:188066',$,$,#133,#36,'188066',1999.9999999999952,1899.9999999999984,$,$,$);
#13=IFCOWNERHISTORY(#14,#17,$,.NOCHANGE.,$,$,$,1778487490);
#14=IFCPERSONANDORGANIZATION(#15,#16,$);
#15=IFCPERSON($,'','hnn06134',$,$,$,$,$);
#16=IFCORGANIZATION($,'','',$,$);
#17=IFCAPPLICATION(#18,'2027','Autodesk Revit 2027 (KOR)','Revit');
#18=IFCORGANIZATION($,'Autodesk Revit 2027 (KOR)',$,$,$);
#20=IFCLOCALPLACEMENT(#21,#33);
#21=IFCLOCALPLACEMENT(#22,#29);
#22=IFCLOCALPLACEMENT(#23,#28);
#23=IFCLOCALPLACEMENT(#24,#27);
#24=IFCLOCALPLACEMENT($,#25);
#25=IFCAXIS2PLACEMENT3D(#26,$,$);
#26=IFCCARTESIANPOINT((0.,0.,0.));
#27=IFCAXIS2PLACEMENT3D(#26,$,$);
#28=IFCAXIS2PLACEMENT3D(#26,$,$);
#29=IFCAXIS2PLACEMENT3D(#30,#31,#32);
#30=IFCCARTESIANPOINT((1965.7383521796889,-14764.643875778307,0.));
#31=IFCDIRECTION((0.,0.,1.));
#32=IFCDIRECTION((-1.,0.,0.));
#33=IFCAXIS2PLACEMENT3D(#34,$,$);
#34=IFCCARTESIANPOINT((3020.,-100.,0.));
#36=IFCPRODUCTDEFINITIONSHAPE($,$,(#37));
#37=IFCSHAPEREPRESENTATION(#38,'Body','MappedRepresentation',(#42));
#38=IFCGEOMETRICREPRESENTATIONSUBCONTEXT('Body','Model',*,*,*,*,#39,$,.MODEL_VIEW.,$);
#39=IFCGEOMETRICREPRESENTATIONCONTEXT($,'Model',3,0.01,#40,#41);
#40=IFCAXIS2PLACEMENT3D(#26,$,$);
#41=IFCDIRECTION((0.,1.));
#42=IFCMAPPEDITEM(#43,#98);
#43=IFCREPRESENTATIONMAP(#44,#45);
#44=IFCAXIS2PLACEMENT3D(#26,$,$);
#45=IFCSHAPEREPRESENTATION(#38,'Body','SweptSolid',(#46,#54,#70,#84));
#46=IFCEXTRUDEDAREASOLID(#47,#51,#31,1874.0000000000043);
#47=IFCRECTANGLEPROFILEDEF(.AREA.,'0406 x 0610mm',#48,11.999999999999996,1773.9999999999959);
#48=IFCAXIS2PLACEMENT2D(#49,#50);
#49=IFCCARTESIANPOINT((8.4376949871511897E-15,0.));
#50=IFCDIRECTION((1.,0.));
#51=IFCAXIS2PLACEMENT3D(#52,#31,#53);
#52=IFCCARTESIANPOINT((950.,159.,63.));
#53=IFCDIRECTION((0.,-1.,0.));
#54=IFCEXTRUDEDAREASOLID(#55,#66,#31,44.000000000027441);
#55=IFCARBITRARYPROFILEDEFWITHVOIDS(.AREA.,'0406 x 0610mm',#56,(#61));
#56=IFCPOLYLINE((#57,#58,#59,#60,#57));
#57=IFCCARTESIANPOINT((-931.,-981.));
#58=IFCCARTESIANPOINT((931.,-981.));
#59=IFCCARTESIANPOINT((931.,981.));
#60=IFCCARTESIANPOINT((-931.,981.));
#61=IFCPOLYLINE((#62,#63,#64,#65,#62));
#62=IFCCARTESIANPOINT((-887.,-937.));
#63=IFCCARTESIANPOINT((-887.,937.));
#64=IFCCARTESIANPOINT((887.,937.));
#65=IFCCARTESIANPOINT((887.,-937.));
#66=IFCAXIS2PLACEMENT3D(#67,#68,#69);
#67=IFCCARTESIANPOINT((950.,137.,1000.));
#68=IFCDIRECTION((0.,1.,0.));
#69=IFCDIRECTION((1.,0.,0.));
#70=IFCEXTRUDEDAREASOLID(#71,#82,#31,63.000000000027434);
#71=IFCARBITRARYPROFILEDEFWITHVOIDS(.AREA.,'0406 x 0610mm',#72,(#77));
#72=IFCPOLYLINE((#73,#74,#75,#76,#73));
#73=IFCCARTESIANPOINT((-950.,-1000.));
#74=IFCCARTESIANPOINT((950.,-1000.));
#75=IFCCARTESIANPOINT((950.,1000.));
#76=IFCCARTESIANPOINT((-950.,1000.));
#77=IFCPOLYLINE((#78,#79,#80,#81,#78));
#78=IFCCARTESIANPOINT((-931.,-981.));
#79=IFCCARTESIANPOINT((-931.,981.));
#80=IFCCARTESIANPOINT((931.,981.));
#81=IFCCARTESIANPOINT((931.,-981.));
#82=IFCAXIS2PLACEMENT3D(#83,#68,#69);
#83=IFCCARTESIANPOINT((950.,137.,1000.));
#84=IFCEXTRUDEDAREASOLID(#85,#96,#31,136.99999999997257);
#85=IFCARBITRARYPROFILEDEFWITHVOIDS(.AREA.,'0406 x 0610mm',#86,(#91));
#86=IFCPOLYLINE((#87,#88,#89,#90,#87));
#87=IFCCARTESIANPOINT((-950.,-1000.));
#88=IFCCARTESIANPOINT((950.,-1000.));
#89=IFCCARTESIANPOINT((950.,1000.));
#90=IFCCARTESIANPOINT((-950.,1000.));
#91=IFCPOLYLINE((#92,#93,#94,#95,#92));
#92=IFCCARTESIANPOINT((-918.,-968.));
#93=IFCCARTESIANPOINT((-918.,968.));
#94=IFCCARTESIANPOINT((918.,968.));
#95=IFCCARTESIANPOINT((918.,-968.));
#96=IFCAXIS2PLACEMENT3D(#97,#68,#69);
#97=IFCCARTESIANPOINT((950.,-0.,1000.));
#98=IFCCARTESIANTRANSFORMATIONOPERATOR3D($,$,#26,1.,$);
#99=IFCMATERIALLIST((#100,#101));
#100=IFCMATERIAL('\X2\C720B9AC\X0\',$,$);
#101=IFCMATERIAL('\X2\C100C2DC\X0\',$,$);
#102=IFCRELASSOCIATESMATERIAL('2BQDKfZNjBOBwOdLHsLhSw',$,$,$,(#12),#99);
#103=IFCPROPERTYSET('0LGW0rZTD4Q9pv2T$_2nLJ',#13,'Pset_QuantityTakeOff',$,(#104));
#104=IFCPROPERTYSINGLEVALUE('Reference',$,IFCIDENTIFIER('0406 x 0610mm'),$);
#105=IFCRELDEFINESBYPROPERTIES('3ew3upfdX0UvzTA8mj0f1f',$,$,$,(#12),#103);
#106=IFCPROPERTYSET('21jE$Pwg9Ee9KKdQzWtHtd',#13,'Pset_WindowCommon',$,(#107,#104));
#107=IFCPROPERTYSINGLEVALUE('IsExternal',$,IFCBOOLEAN(.T.),$);
#108=IFCRELDEFINESBYPROPERTIES('1jNcWna$T4rur5oe9gqA3I',$,$,$,(#12),#106);
#109=IFCSTYLEDITEM(#70,(#110),$);
#110=IFCPRESENTATIONSTYLEASSIGNMENT((#111));
#111=IFCSURFACESTYLE('\X2\C100C2DC\X0\',.BOTH.,(#112));
#112=IFCSURFACESTYLERENDERING(#113,0.,$,$,$,$,IFCNORMALISEDRATIOMEASURE(0.5),IFCSPECULAREXPONENT(128.),.NOTDEFINED.);
#113=IFCCOLOURRGB($,0.8784313725490196,0.69803921568627447,0.49411764705882355);
#114=IFCSTYLEDITEM(#84,(#110),$);
#115=IFCSTYLEDITEM(#46,(#116),$);
#116=IFCPRESENTATIONSTYLEASSIGNMENT((#117));
#117=IFCSURFACESTYLE('\X2\C720B9AC\X0\',.BOTH.,(#118));
#118=IFCSURFACESTYLERENDERING(#119,0.90000000000000002,$,$,$,$,IFCNORMALISEDRATIOMEASURE(0.5),IFCSPECULAREXPONENT(12.),.NOTDEFINED.);
#119=IFCCOLOURRGB($,0.,0.50196078431372548,0.75294117647058822);
#120=IFCSTYLEDITEM(#54,(#110),$);
#121=IFCOWNERHISTORY(#14,#17,.READWRITE.,.ADDED.,1778765886,#14,#17,1778765886);
#122=IFCRELCONTAINEDINSPATIALSTRUCTURE('1_nbT2E0TAJ8CR70hxf_OK',#121,$,$,(#12),#8);
#128=IFCOWNERHISTORY(#14,#17,$,.MODIFIED.,1778765886,#14,#17,1778487490);
#129=IFCCARTESIANPOINT((1900.0000000000002,200.0000000000291,0.));
#130=IFCDIRECTION((0.,0.,1.));
#131=IFCDIRECTION((-1.,0.,0.));
#132=IFCAXIS2PLACEMENT3D(#129,#130,#131);
#133=IFCLOCALPLACEMENT($,#132);
#134=IFCOWNERHISTORY(#14,#17,.READWRITE.,.ADDED.,1778765886,#14,#17,1778765886);
#135=IFCPROPERTYSET('2A_RiR94f6z95pLcI4B75W',#134,'Pset_LibraryAsset',$,(#138,#139,#140,#141,#142,#143,#144,#145,#146,#147));
#136=IFCOWNERHISTORY(#14,#17,.READWRITE.,.ADDED.,1778765886,#14,#17,1778765886);
#137=IFCRELDEFINESBYPROPERTIES('2uflJGIh9Er9n3wxZX99Ox',#136,$,$,(#12),#135);
#138=IFCPROPERTYSINGLEVALUE('AssetId',$,IFCLABEL('window-188066'),$);
#139=IFCPROPERTYSINGLEVALUE('AssetGroup',$,IFCLABEL('window-188066'),$);
#140=IFCPROPERTYSINGLEVALUE('AssetRole',$,IFCLABEL('member-0'),$);
#141=IFCPROPERTYSINGLEVALUE('Category',$,IFCLABEL('window'),$);
#142=IFCPROPERTYSINGLEVALUE('SourceElementName',$,IFCLABEL('\X2\ACE0C815B428\X0\:0406 x 0610mm:188066'),$);
#143=IFCPROPERTYSINGLEVALUE('SourceGlobalId',$,IFCLABEL('3gwEtOFi5AUg4WULkh2nq2'),$);
#144=IFCPROPERTYSINGLEVALUE('Reusable',$,IFCBOOLEAN(.T.),$);
#145=IFCPROPERTYSINGLEVALUE('WidthMm',$,IFCREAL(1900.),$);
#146=IFCPROPERTYSINGLEVALUE('DepthMm',$,IFCREAL(200.),$);
#147=IFCPROPERTYSINGLEVALUE('HeightMm',$,IFCREAL(2000.),$);
ENDSEC;
END-ISO-10303-21;
